<svg xmlns="http://www.w3.org/2000/svg" width="32" height="32" fill="none" viewBox="0 0 32 32">
  <path stroke="currentColor" stroke-linecap="round" stroke-linejoin="round" stroke-width="1.5" d="M29.333 12H2.667m16 11.333L22 20l-3.333-3.333m-5.334 0L10 20l3.333 3.333M2.667 10.4v11.2c0 2.24 0 3.36.436 4.216a4 4 0 0 0 1.748 1.748C5.706 28 6.826 28 9.067 28h13.866c2.24 0 3.36 0 4.216-.436a4 4 0 0 0 1.748-1.748c.436-.856.436-1.976.436-4.216V10.4c0-2.24 0-3.36-.436-4.216a4 4 0 0 0-1.748-1.748C26.294 4 25.174 4 22.933 4H9.067c-2.24 0-3.36 0-4.216.436a4 4 0 0 0-1.748 1.748c-.436.856-.436 1.976-.436 4.216Z"/>
</svg>
