<svg xmlns="http://www.w3.org/2000/svg" width="32" height="32" fill="none" viewBox="0 0 32 32">
  <path stroke="currentColor" stroke-linecap="round" stroke-linejoin="round" stroke-width="1.5" d="M28.267 29.333c.373 0 .56 0 .702-.072a.666.666 0 0 0 .292-.292c.072-.142.072-.329.072-.702V14.4c0-.373 0-.56-.072-.703a.666.666 0 0 0-.292-.291c-.142-.073-.329-.073-.702-.073h-3.2c-.374 0-.56 0-.703.073a.667.667 0 0 0-.291.291c-.073.143-.073.33-.073.703v3.2c0 .373 0 .56-.073.703a.667.667 0 0 1-.291.291c-.143.073-.33.073-.703.073h-3.2c-.373 0-.56 0-.702.072a.667.667 0 0 0-.292.292c-.072.142-.072.329-.072.702v3.2c0 .374 0 .56-.073.703a.667.667 0 0 1-.291.291c-.143.073-.33.073-.703.073h-3.2c-.373 0-.56 0-.703.073a.666.666 0 0 0-.291.291c-.073.143-.073.33-.073.703v3.2c0 .373 0 .56.073.702a.666.666 0 0 0 .291.292c.143.072.33.072.703.072h13.867ZM13.333 9.067c0-.374 0-.56.073-.703a.666.666 0 0 1 .291-.291C13.84 8 14.027 8 14.4 8h3.2c.373 0 .56 0 .703.073a.667.667 0 0 1 .291.291c.073.143.073.33.073.703v3.2c0 .373 0 .56-.073.702a.667.667 0 0 1-.291.292c-.143.072-.33.072-.703.072h-3.2c-.373 0-.56 0-.703-.072a.666.666 0 0 1-.291-.292c-.073-.142-.073-.329-.073-.702v-3.2Zm-9.333 8c0-.374 0-.56.073-.703a.666.666 0 0 1 .291-.291c.143-.073.33-.073.703-.073h3.2c.373 0 .56 0 .702.073a.666.666 0 0 1 .292.291c.072.143.072.33.072.703v3.2c0 .373 0 .56-.072.702a.667.667 0 0 1-.292.292c-.142.072-.329.072-.702.072h-3.2c-.374 0-.56 0-.703-.072a.667.667 0 0 1-.291-.292C4 20.827 4 20.64 4 20.267v-3.2ZM2.667 3.733c0-.373 0-.56.072-.702a.667.667 0 0 1 .292-.292c.142-.072.329-.072.702-.072h3.2c.374 0 .56 0 .703.072a.667.667 0 0 1 .291.292C8 3.173 8 3.36 8 3.733v3.2c0 .374 0 .56-.073.703a.667.667 0 0 1-.291.291C7.493 8 7.306 8 6.933 8h-3.2c-.373 0-.56 0-.702-.073a.667.667 0 0 1-.292-.291c-.072-.143-.072-.33-.072-.703v-3.2Z"/>
</svg>
