<svg xmlns="http://www.w3.org/2000/svg" width="32" height="32" fill="none" viewBox="0 0 32 32">
  <path stroke="currentColor" stroke-linecap="round" stroke-linejoin="round" stroke-width="1.5" d="m8 8 6 6M8 8H4L2.667 4 4 2.667 8 4v4Zm17.679-4.345-3.504 3.503c-.528.528-.792.792-.89 1.097a1.334 1.334 0 0 0 0 .824c.098.304.362.568.89 1.096l.316.316c.529.529.793.793 1.097.891.268.087.556.087.824 0 .305-.098.569-.362 1.097-.89l3.277-3.278c.353.86.547 1.8.547 2.786a7.333 7.333 0 0 1-8.76 7.195c-.648-.128-.972-.192-1.169-.173a1.119 1.119 0 0 0-.497.152c-.174.093-.348.267-.698.617l-9.542 9.542a2.829 2.829 0 0 1-4-4l9.542-9.542c.35-.35.524-.524.617-.698.1-.185.13-.288.152-.497.02-.197-.045-.52-.173-1.17a7.333 7.333 0 0 1 10.873-7.772ZM16 20l7.333 7.333a2.828 2.828 0 1 0 4-4L21.3 17.3a7.315 7.315 0 0 1-1.246-.228c-.518-.142-1.087-.039-1.468.342L16 20Z"/>
</svg>
