<svg width="131" height="42" viewBox="0 0 131 42" fill="none" xmlns="http://www.w3.org/2000/svg">
<path d="M105.182 40H102.717V32.7273H105.232C105.954 32.7273 106.574 32.8729 107.092 33.1641C107.613 33.4529 108.013 33.8684 108.293 34.4105C108.572 34.9527 108.712 35.6013 108.712 36.3565C108.712 37.1141 108.571 37.7652 108.289 38.3097C108.01 38.8542 107.606 39.272 107.078 39.5632C106.553 39.8544 105.92 40 105.182 40ZM104.035 38.8601H105.118C105.625 38.8601 106.047 38.7678 106.386 38.5831C106.724 38.3961 106.979 38.1179 107.149 37.7486C107.32 37.3769 107.405 36.9129 107.405 36.3565C107.405 35.8002 107.32 35.3385 107.149 34.9716C106.979 34.6023 106.727 34.3265 106.393 34.1442C106.061 33.9595 105.649 33.8672 105.157 33.8672H104.035V38.8601ZM116.462 36.3636C116.462 37.1473 116.315 37.8184 116.022 38.3771C115.73 38.9335 115.333 39.3596 114.828 39.6555C114.327 39.9515 113.757 40.0994 113.12 40.0994C112.484 40.0994 111.913 39.9515 111.409 39.6555C110.907 39.3572 110.509 38.9299 110.216 38.3736C109.924 37.8149 109.779 37.1449 109.779 36.3636C109.779 35.58 109.924 34.91 110.216 34.3537C110.509 33.795 110.907 33.3677 111.409 33.0717C111.913 32.7758 112.484 32.6278 113.12 32.6278C113.757 32.6278 114.327 32.7758 114.828 33.0717C115.333 33.3677 115.73 33.795 116.022 34.3537C116.315 34.91 116.462 35.58 116.462 36.3636ZM115.137 36.3636C115.137 35.812 115.051 35.3468 114.878 34.968C114.708 34.5869 114.471 34.2992 114.168 34.1051C113.865 33.9086 113.516 33.8104 113.12 33.8104C112.725 33.8104 112.376 33.9086 112.073 34.1051C111.77 34.2992 111.532 34.5869 111.359 34.968C111.189 35.3468 111.103 35.812 111.103 36.3636C111.103 36.9152 111.189 37.3816 111.359 37.7628C111.532 38.1416 111.77 38.4292 112.073 38.6257C112.376 38.8198 112.725 38.9169 113.12 38.9169C113.516 38.9169 113.865 38.8198 114.168 38.6257C114.471 38.4292 114.708 38.1416 114.878 37.7628C115.051 37.3816 115.137 36.9152 115.137 36.3636ZM123.933 35.1811H122.605C122.567 34.9633 122.497 34.7704 122.395 34.6023C122.293 34.4318 122.167 34.2874 122.015 34.169C121.864 34.0507 121.691 33.9619 121.497 33.9027C121.305 33.8411 121.098 33.8104 120.875 33.8104C120.48 33.8104 120.129 33.9098 119.824 34.1087C119.519 34.3052 119.28 34.594 119.107 34.9751C118.934 35.3539 118.847 35.8168 118.847 36.3636C118.847 36.92 118.934 37.3887 119.107 37.7699C119.282 38.1487 119.521 38.4351 119.824 38.6293C120.129 38.821 120.479 38.9169 120.872 38.9169C121.089 38.9169 121.293 38.8885 121.482 38.8317C121.674 38.7725 121.846 38.6861 121.997 38.5724C122.151 38.4588 122.28 38.3191 122.384 38.1534C122.491 37.9877 122.564 37.7983 122.605 37.5852L123.933 37.5923C123.883 37.938 123.775 38.2623 123.61 38.5653C123.446 38.8684 123.232 39.1359 122.967 39.3679C122.702 39.5975 122.392 39.7775 122.036 39.9077C121.681 40.0355 121.287 40.0994 120.854 40.0994C120.215 40.0994 119.644 39.9515 119.142 39.6555C118.64 39.3596 118.245 38.9323 117.956 38.3736C117.667 37.8149 117.523 37.1449 117.523 36.3636C117.523 35.58 117.669 34.91 117.96 34.3537C118.251 33.795 118.647 33.3677 119.149 33.0717C119.651 32.7758 120.219 32.6278 120.854 32.6278C121.259 32.6278 121.635 32.6847 121.983 32.7983C122.331 32.9119 122.641 33.0788 122.914 33.299C123.186 33.5168 123.41 33.7843 123.585 34.1016C123.762 34.4164 123.878 34.7763 123.933 35.1811ZM129.092 34.7266C129.058 34.4164 128.919 34.175 128.673 34.0021C128.429 33.8293 128.112 33.7429 127.721 33.7429C127.446 33.7429 127.211 33.7843 127.014 33.8672C126.818 33.95 126.667 34.0625 126.563 34.2045C126.459 34.3466 126.406 34.5088 126.403 34.6911C126.403 34.8426 126.438 34.974 126.506 35.0852C126.577 35.1965 126.673 35.2912 126.794 35.3693C126.915 35.4451 127.049 35.509 127.195 35.5611C127.342 35.6132 127.49 35.657 127.639 35.6925L128.321 35.8629C128.596 35.9268 128.86 36.0133 129.113 36.1222C129.369 36.2311 129.597 36.3684 129.798 36.5341C130.002 36.6998 130.163 36.8999 130.281 37.1342C130.4 37.3686 130.459 37.6432 130.459 37.9581C130.459 38.3842 130.35 38.7595 130.132 39.0838C129.914 39.4058 129.599 39.6579 129.188 39.8402C128.778 40.0201 128.282 40.1101 127.7 40.1101C127.134 40.1101 126.643 40.0225 126.226 39.8473C125.812 39.6721 125.487 39.4164 125.253 39.0803C125.021 38.7441 124.895 38.3345 124.876 37.8516H126.173C126.192 38.1049 126.27 38.3156 126.407 38.4837C126.544 38.6518 126.723 38.7772 126.943 38.8601C127.166 38.9429 127.414 38.9844 127.689 38.9844C127.975 38.9844 128.226 38.9418 128.442 38.8565C128.66 38.7689 128.83 38.6482 128.953 38.4943C129.076 38.3381 129.139 38.1558 129.141 37.9474C129.139 37.758 129.083 37.6018 128.974 37.4787C128.866 37.3532 128.713 37.2491 128.516 37.1662C128.322 37.081 128.095 37.0052 127.835 36.9389L127.007 36.7259C126.408 36.572 125.935 36.3388 125.587 36.0263C125.241 35.7114 125.068 35.2936 125.068 34.7727C125.068 34.3442 125.184 33.969 125.416 33.647C125.651 33.325 125.969 33.0753 126.371 32.8977C126.774 32.7178 127.23 32.6278 127.739 32.6278C128.255 32.6278 128.707 32.7178 129.095 32.8977C129.486 33.0753 129.792 33.3227 130.015 33.6399C130.237 33.9548 130.352 34.317 130.359 34.7266H129.092Z" fill="#ACACAC"/>
<path d="M57.0779 8.95874C58.4777 8.95874 59.6676 9.13372 60.6125 9.48368C61.5573 9.83363 62.3273 10.3236 62.9222 10.9535C63.4821 11.5834 63.9021 12.3533 64.147 13.2632C64.392 14.1731 64.532 15.153 64.532 16.2378V27.3665C63.8671 27.5065 62.8872 27.6814 61.5573 27.8914C60.2275 28.1014 58.7577 28.2064 57.0779 28.2064C55.993 28.2064 54.9782 28.1014 54.0683 27.8914C53.1584 27.6814 52.3885 27.3315 51.7236 26.8765C51.0936 26.4216 50.5687 25.7917 50.2187 25.0568C49.8688 24.3218 49.6588 23.377 49.6588 22.2921C49.6588 21.2422 49.8688 20.3673 50.2887 19.6324C50.7087 18.8975 51.2686 18.3026 51.9685 17.8476C52.6684 17.3927 53.4733 17.0777 54.4182 16.8678C55.3281 16.6578 56.308 16.5528 57.3229 16.5528C57.7778 16.5528 58.2677 16.5878 58.7927 16.6578C59.3176 16.7278 59.8426 16.8328 60.4375 16.9728V16.2728C60.4375 15.7829 60.3675 15.328 60.2625 14.873C60.1575 14.4181 59.9475 14.0331 59.6326 13.6832C59.3526 13.3332 58.9677 13.0882 58.4777 12.8783C57.9878 12.7033 57.3929 12.5983 56.658 12.5983C55.6781 12.5983 54.7682 12.6683 53.9633 12.8083C53.1584 12.9482 52.4935 13.1232 51.9685 13.2982L51.4436 9.86863C51.9685 9.69365 52.7734 9.48368 53.7883 9.3087C54.8032 9.02873 55.888 8.95874 57.0779 8.95874ZM57.4279 24.7768C58.7227 24.7768 59.7376 24.7068 60.4025 24.5668V19.8424C60.1575 19.7724 59.8426 19.7024 59.3876 19.6324C58.9327 19.5624 58.4427 19.5274 57.9178 19.5274C57.4628 19.5274 56.9729 19.5624 56.483 19.6324C55.993 19.7024 55.5731 19.8424 55.1881 20.0174C54.8032 20.1924 54.4882 20.4723 54.2432 20.8223C53.9983 21.1722 53.8933 21.5922 53.8933 22.1171C53.8933 23.132 54.2082 23.8319 54.8382 24.2169C55.5031 24.5668 56.343 24.7768 57.4279 24.7768Z" fill="#303030"/>
<path d="M73.7357 4.02458C73.7357 4.82948 73.4907 5.4594 72.9658 5.91435C72.4409 6.36929 71.846 6.61426 71.146 6.61426C70.4111 6.61426 69.8162 6.36929 69.2913 5.91435C68.7663 5.4594 68.5214 4.82948 68.5214 4.02458C68.5214 3.21968 68.7663 2.55476 69.2913 2.09982C69.8162 1.64487 70.4111 1.3999 71.146 1.3999C71.846 1.3999 72.4409 1.64487 72.9658 2.09982C73.4907 2.55476 73.7357 3.21968 73.7357 4.02458ZM73.2808 27.7517H69.0463V9.41391H73.2808V27.7517Z" fill="#303030"/>
<path d="M83.4296 27.7516C82.2397 25.3369 81.0499 22.5722 79.825 19.4576C78.6002 16.343 77.4803 12.9834 76.4655 9.41382H80.9799C81.2249 10.4287 81.5398 11.5486 81.8898 12.7384C82.2397 13.9283 82.5897 15.1181 82.9747 16.273C83.3596 17.4628 83.7446 18.6177 84.1645 19.7025C84.5845 20.8224 84.9694 21.8023 85.3194 22.7122C85.6693 21.8373 86.0543 20.8224 86.4392 19.7025C86.8242 18.5827 87.2441 17.4278 87.6291 16.273C88.014 15.0831 88.399 13.8933 88.7489 12.7384C89.0989 11.5486 89.4139 10.4637 89.6588 9.41382H94.0333C93.0184 12.9834 91.8985 16.343 90.6737 19.4576C89.4488 22.5722 88.224 25.3369 87.0691 27.7516H83.4296Z" fill="#303030"/>
<path d="M95.0132 18.6528C95.0132 17.0429 95.2581 15.6081 95.7481 14.4183C96.238 13.1934 96.8679 12.1785 97.6728 11.3736C98.4777 10.5687 99.3876 9.97382 100.403 9.55387C101.417 9.13392 102.467 8.92395 103.552 8.92395C106.072 8.92395 108.067 9.69385 109.466 11.2687C110.866 12.8435 111.601 15.1882 111.601 18.3028C111.601 18.5478 111.601 18.7927 111.601 19.1077C111.601 19.3877 111.566 19.6676 111.531 19.9126H99.4226C99.5276 21.3824 100.053 22.5373 100.997 23.3422C101.907 24.1471 103.272 24.567 105.022 24.567C106.037 24.567 106.982 24.462 107.857 24.2871C108.696 24.1121 109.396 23.9021 109.886 23.6921L110.446 27.1567C110.201 27.2617 109.886 27.4017 109.466 27.5417C109.046 27.6816 108.592 27.7866 108.067 27.8916C107.542 27.9966 106.982 28.1016 106.352 28.1716C105.757 28.2416 105.127 28.2766 104.497 28.2766C102.887 28.2766 101.487 28.0316 100.298 27.5417C99.1077 27.0517 98.1278 26.3868 97.3579 25.5469C96.588 24.707 96.0281 23.6921 95.6431 22.5373C95.1882 21.3124 95.0132 20.0526 95.0132 18.6528ZM107.332 16.763C107.332 16.1681 107.262 15.6081 107.087 15.0832C106.912 14.5583 106.667 14.1033 106.352 13.7184C106.037 13.3334 105.652 13.0184 105.197 12.8085C104.742 12.5985 104.182 12.4585 103.552 12.4585C102.887 12.4585 102.327 12.5985 101.837 12.8435C101.347 13.0884 100.927 13.4034 100.577 13.8233C100.228 14.2083 99.9826 14.6632 99.7726 15.1882C99.5976 15.7131 99.4576 16.238 99.3876 16.763H107.332Z" fill="#303030"/>
<path d="M115.381 10.0088C116.186 9.76384 117.27 9.55387 118.565 9.34389C119.86 9.13392 121.33 9.02893 122.905 9.02893C124.41 9.02893 125.669 9.2389 126.649 9.65885C127.664 10.0788 128.469 10.6387 129.064 11.3736C129.659 12.1086 130.079 12.9834 130.324 14.0333C130.569 15.0832 130.709 16.203 130.709 17.4629V27.7866H126.474V18.0928C126.474 17.1129 126.404 16.273 126.264 15.5731C126.124 14.8732 125.914 14.3133 125.634 13.8933C125.354 13.4734 124.934 13.1584 124.445 12.9484C123.955 12.7385 123.325 12.6335 122.59 12.6335C122.065 12.6335 121.505 12.6685 120.91 12.7385C120.315 12.8085 119.895 12.8785 119.615 12.9135V27.7166H115.381V10.0088Z" fill="#303030"/>
<path d="M30.4462 21.8022C31.1461 21.8022 31.811 21.9422 32.4409 22.1522C33.4208 20.9973 33.9457 19.7725 33.9457 18.4777C33.9457 16.3779 32.5109 14.3482 29.9212 12.7734C27.1566 11.0936 23.447 10.1487 19.4925 10.1487C15.538 10.1487 11.8285 11.0936 9.06381 12.7734C6.47413 14.3482 5.03931 16.3779 5.03931 18.4777C5.03931 19.7725 5.56424 20.9973 6.54412 22.1522C7.17404 21.9072 7.83896 21.8022 8.53888 21.8022C10.0787 21.8022 11.5485 22.3972 12.6684 23.517C13.4383 24.2869 13.9632 25.2318 14.2082 26.2467C15.888 26.6317 17.6378 26.8416 19.4925 26.8416C21.3473 26.8416 23.0971 26.6317 24.7769 26.2467C25.0218 25.2318 25.5468 24.2869 26.3167 23.517C27.4365 22.3972 28.9064 21.8022 30.4462 21.8022ZM19.5275 16.9378C17.7427 16.9378 16.2729 15.468 16.2729 13.6832H22.7471C22.7471 15.503 21.3123 16.9378 19.5275 16.9378Z" fill="url(#paint0_linear_311_2357)"/>
<path d="M8.29396 11.2335C8.60892 11.0586 8.92389 10.8836 9.27384 10.7086C8.46894 10.0787 7.48906 9.79871 6.54418 9.79871C5.14435 9.79871 3.77952 10.4286 2.90463 11.6185L2.48468 12.1084L5.07436 14.0332C5.87926 13.0183 6.96413 12.0734 8.29396 11.2335Z" fill="url(#paint1_linear_311_2357)"/>
<path d="M5.10937 22.9572C4.23448 21.8373 3.70954 20.6475 3.53456 19.3876C3.49957 19.1076 3.46457 18.7927 3.46457 18.5127C3.46457 17.0429 3.95451 15.6081 4.8994 14.3132H4.54944C2.02975 14.3132 0 16.343 0 18.8627V19.4926H3.39458C2.51969 20.2275 1.92476 21.2424 1.78478 22.3972C1.6098 23.5871 1.92476 24.8119 2.69467 25.7568L2.97463 26.1418C3.2196 25.1619 3.74454 24.252 4.47945 23.5171C4.68942 23.3071 4.8994 23.1321 5.10937 22.9572Z" fill="url(#paint2_linear_311_2357)"/>
<path d="M33.9808 14.0682L36.5704 12.1434L36.1855 11.6185C35.2756 10.4286 33.9108 9.79871 32.5459 9.79871C31.6011 9.79871 30.6212 10.0787 29.8163 10.7086C30.1312 10.8836 30.4812 11.0586 30.7962 11.2335C32.091 12.0734 33.1759 13.0183 33.9808 14.0682Z" fill="url(#paint3_linear_311_2357)"/>
<path d="M39.0552 18.8627C39.0552 16.343 37.0254 14.3132 34.5057 14.3132H34.1558C35.1007 15.6081 35.5906 17.0079 35.5906 18.5127C35.5906 18.8277 35.5556 19.1076 35.5206 19.3876C35.3456 20.6475 34.8207 21.8723 33.9458 22.9572C34.1558 23.1321 34.3658 23.3071 34.5757 23.4821C35.3106 24.217 35.8356 25.1269 36.0805 26.1068L36.3605 25.7218C37.0954 24.7419 37.4104 23.5521 37.2704 22.3622C37.1304 21.2074 36.5355 20.1925 35.6606 19.4576H39.0552V18.8627Z" fill="url(#paint4_linear_311_2357)"/>
<path d="M14.0333 9.09888C16.553 9.09888 18.5827 7.06913 18.5827 4.54944C18.5827 2.02975 16.553 0 14.0333 0C11.5136 0 9.48383 2.02975 9.48383 4.54944C9.48383 7.06913 11.5136 9.09888 14.0333 9.09888ZM14.0333 2.06475C14.0333 2.06475 14.0683 2.06475 14.0333 2.06475C13.7183 2.37971 13.5433 2.83465 13.5433 3.32459C13.5433 4.30447 14.3132 5.07437 15.2931 5.07437C15.7831 5.07437 16.238 4.8644 16.553 4.54944C16.553 4.54944 16.553 4.54944 16.553 4.58443C16.553 5.94927 15.4331 7.06913 14.0683 7.06913C12.7034 7.06913 11.5836 5.94927 11.5836 4.58443C11.5486 3.18461 12.6684 2.06475 14.0333 2.06475Z" fill="url(#paint5_linear_311_2357)"/>
<path d="M25.0219 9.09888C27.5416 9.09888 29.5713 7.06913 29.5713 4.54944C29.5713 2.02975 27.5416 0 25.0219 0C22.5022 0 20.4724 2.02975 20.4724 4.54944C20.4374 7.06913 22.5022 9.09888 25.0219 9.09888ZM25.0219 2.06475C24.7069 2.37971 24.5319 2.83465 24.5319 3.32459C24.5319 4.30447 25.3018 5.07437 26.2817 5.07437C26.7716 5.07437 27.2266 4.8644 27.5416 4.54944C27.5416 4.54944 27.5416 4.54944 27.5416 4.58443C27.5416 5.94927 26.4217 7.06913 25.0569 7.06913C23.692 7.06913 22.5722 5.94927 22.5722 4.58443C22.5022 3.18461 23.622 2.06475 25.0219 2.06475Z" fill="url(#paint6_linear_311_2357)"/>
<path d="M8.57404 23.0623C6.05435 23.0623 4.0246 25.092 4.0246 27.6117C4.0246 30.1314 6.05435 32.1611 8.57404 32.1611C9.09897 32.1611 9.62391 32.0561 10.0789 31.9162C10.0439 31.8812 10.0089 31.8462 9.93887 31.8112C8.60903 30.4813 8.15409 28.8015 8.95899 28.0316C9.72889 27.2617 11.4437 27.7167 12.7385 29.0115C12.7735 29.0465 12.8085 29.0815 12.8435 29.1515C13.0185 28.6966 13.0885 28.1716 13.0885 27.6467C13.1585 25.092 11.0937 23.0623 8.57404 23.0623Z" fill="url(#paint7_linear_311_2357)"/>
<path d="M30.4814 23.0623C27.9617 23.0623 25.9319 25.092 25.9319 27.6117C25.9319 28.1366 26.0369 28.6616 26.1769 29.1165C26.2119 29.0815 26.2469 29.0115 26.2819 28.9765C27.6117 27.6467 29.2915 27.1917 30.0614 27.9966C30.8313 28.7666 30.3764 30.4813 29.0816 31.7762C29.0466 31.8112 29.0116 31.8462 28.9416 31.8812C29.3965 32.0561 29.9215 32.1261 30.4464 32.1261C32.9661 32.1261 34.9958 30.0964 34.9958 27.5767C35.0308 25.092 32.9661 23.0623 30.4814 23.0623Z" fill="url(#paint8_linear_311_2357)"/>
<defs>
<linearGradient id="paint0_linear_311_2357" x1="11.3933" y1="29.481" x2="29.0411" y2="5.62377" gradientUnits="userSpaceOnUse">
<stop stop-color="#FF7700"/>
<stop offset="0.7423" stop-color="#FF3554"/>
</linearGradient>
<linearGradient id="paint1_linear_311_2357" x1="-0.804215" y1="20.4581" x2="16.8436" y2="-3.39911" gradientUnits="userSpaceOnUse">
<stop stop-color="#FF7700"/>
<stop offset="0.7423" stop-color="#FF3554"/>
</linearGradient>
<linearGradient id="paint2_linear_311_2357" x1="1.29208" y1="22.0089" x2="18.9399" y2="-1.84834" gradientUnits="userSpaceOnUse">
<stop stop-color="#FF7700"/>
<stop offset="0.7423" stop-color="#FF3554"/>
</linearGradient>
<linearGradient id="paint3_linear_311_2357" x1="16.8257" y1="33.4995" x2="34.4735" y2="9.64224" gradientUnits="userSpaceOnUse">
<stop stop-color="#FF7700"/>
<stop offset="0.7423" stop-color="#FF3554"/>
</linearGradient>
<linearGradient id="paint4_linear_311_2357" x1="22.3049" y1="37.5527" x2="39.9528" y2="13.6954" gradientUnits="userSpaceOnUse">
<stop stop-color="#FF7700"/>
<stop offset="0.7423" stop-color="#FF3554"/>
</linearGradient>
<linearGradient id="paint5_linear_311_2357" x1="1.18593" y1="21.9304" x2="18.8338" y2="-1.92686" gradientUnits="userSpaceOnUse">
<stop stop-color="#FF7700"/>
<stop offset="0.7423" stop-color="#FF3554"/>
</linearGradient>
<linearGradient id="paint6_linear_311_2357" x1="8.27279" y1="27.1728" x2="25.9206" y2="3.31549" gradientUnits="userSpaceOnUse">
<stop stop-color="#FF7700"/>
<stop offset="0.7423" stop-color="#FF3554"/>
</linearGradient>
<linearGradient id="paint7_linear_311_2357" x1="8.60882" y1="27.4213" x2="26.2567" y2="3.56406" gradientUnits="userSpaceOnUse">
<stop stop-color="#FF7700"/>
<stop offset="0.7423" stop-color="#FF3554"/>
</linearGradient>
<linearGradient id="paint8_linear_311_2357" x1="22.8328" y1="37.9432" x2="40.4806" y2="14.0859" gradientUnits="userSpaceOnUse">
<stop stop-color="#FF7700"/>
<stop offset="0.7423" stop-color="#FF3554"/>
</linearGradient>
</defs>
</svg>
