<?xml version="1.0" encoding="UTF-8"?>
<svg id="Layer_1" data-name="Layer 1" xmlns="http://www.w3.org/2000/svg" viewBox="0 0 229.61 201.26">
  <defs>
    <style>
      .cls-1 {
        fill: #05080f;
      }
    </style>
  </defs>
  <path class="cls-1" d="M159.34,123.7c2.79,0,5.49.51,8.03,1.43,3.98-4.6,6.13-9.64,6.13-14.81,0-8.53-5.76-16.74-16.21-23.12-11.19-6.84-26.15-10.6-42.14-10.6h0c-15.99,0-30.95,3.77-42.14,10.6-10.45,6.39-16.21,14.59-16.21,23.12,0,5.17,2.14,10.21,6.13,14.81,2.54-.92,5.24-1.43,8.03-1.43,6.28,0,12.18,2.44,16.64,6.89,3.07,3.08,5.18,6.92,6.19,11.06,6.72,1.56,13.92,2.41,21.36,2.41s14.64-.85,21.36-2.41c1.01-4.14,3.12-7.98,6.19-11.06,4.46-4.45,10.37-6.89,16.65-6.89ZM115.14,104.09c-7.22,0-13.09-5.87-13.09-13.09h26.19c0,7.22-5.88,13.09-13.09,13.09Z"/>
  <path class="cls-1" d="M69.78,81.03c1.26-.77,2.58-1.48,3.92-2.17l-.05-.04c-3.31-2.49-7.2-3.69-11.05-3.69-5.6,0-11.12,2.53-14.73,7.34l-1.55,2.06,10.42,7.84c3.23-4.18,7.61-8.01,13.05-11.34Z"/>
  <path class="cls-1" d="M56.85,128.4c-3.49-4.48-5.66-9.38-6.35-14.49-.16-1.19-.26-2.39-.26-3.6,0-5.96,1.99-11.7,5.74-16.93h-1.35c-10.16,0-18.43,8.25-18.43,18.4v2.58h13.73c-3.58,2.97-5.89,7.09-6.51,11.72-.65,4.88.63,9.72,3.62,13.63l1.15,1.5c1.05-3.99,3.11-7.65,6.1-10.64.8-.8,1.66-1.51,2.55-2.18Z"/>
  <path class="cls-1" d="M173.55,92.37l10.42-7.84-1.55-2.06c-3.61-4.81-9.14-7.34-14.74-7.34-3.85,0-7.74,1.2-11.05,3.69l-.05.04c1.34.7,2.66,1.4,3.92,2.17,5.44,3.33,9.82,7.16,13.05,11.34Z"/>
  <path class="cls-1" d="M194.06,111.79c0-10.15-8.27-18.4-18.43-18.4h-1.35c3.75,5.23,5.74,10.96,5.74,16.93,0,1.21-.1,2.41-.26,3.6-.69,5.11-2.86,10-6.35,14.49.89.67,1.75,1.38,2.55,2.18,2.99,2.99,5.05,6.65,6.1,10.64l1.15-1.5c2.99-3.91,4.27-8.75,3.62-13.63-.62-4.63-2.93-8.75-6.51-11.71h13.73v-2.59Z"/>
  <path class="cls-1" d="M92.97,72.38c10.15,0,18.42-8.27,18.42-18.42s-8.27-18.42-18.42-18.42-18.42,8.26-18.42,18.42,8.26,18.42,18.42,18.42ZM92.98,43.86s.06,0,.09,0c-1.31,1.29-2.13,3.07-2.13,5.06,0,3.91,3.17,7.08,7.08,7.08,1.99,0,3.78-.82,5.06-2.14,0,.03,0,.06,0,.1,0,5.58-4.52,10.1-10.1,10.1s-10.1-4.52-10.1-10.1,4.52-10.1,10.1-10.1Z"/>
  <path class="cls-1" d="M137.3,72.38c10.15,0,18.42-8.27,18.42-18.42s-8.27-18.42-18.42-18.42-18.42,8.26-18.42,18.42,8.26,18.42,18.42,18.42ZM137.3,43.86s.06,0,.09,0c-1.31,1.29-2.13,3.07-2.13,5.06,0,3.91,3.17,7.08,7.08,7.08,1.99,0,3.78-.82,5.06-2.14,0,.03,0,.06,0,.1,0,5.58-4.52,10.1-10.1,10.1s-10.1-4.52-10.1-10.1,4.52-10.1,10.1-10.1Z"/>
  <path class="cls-1" d="M70.93,128.81c-10.17,0-18.41,8.24-18.41,18.41s8.24,18.41,18.41,18.41c2.14,0,4.18-.38,6.08-1.05-.17-.16-.35-.32-.52-.49-5.35-5.35-7.15-12.21-4.03-15.34,3.12-3.12,9.99-1.32,15.34,4.03.17.17.33.35.49.53.67-1.91,1.05-3.95,1.05-6.09,0-10.17-8.24-18.41-18.41-18.41Z"/>
  <path class="cls-1" d="M159.37,128.81c-10.17,0-18.41,8.24-18.41,18.41,0,2.14.38,4.18,1.05,6.09.17-.18.32-.35.49-.53,5.35-5.35,12.21-7.15,15.34-4.03,3.12,3.12,1.32,9.99-4.03,15.34-.17.17-.35.33-.52.49,1.91.67,3.95,1.05,6.08,1.05,10.17,0,18.41-8.24,18.41-18.41s-8.24-18.41-18.41-18.41Z"/>
</svg>