<svg width="128" height="287" viewBox="0 0 128 287" fill="none" xmlns="http://www.w3.org/2000/svg">
<path d="M99.6969 105.816C94.5974 100.589 91.9201 94.8523 91.9201 83.6332V65.7847C91.9201 49.3385 89.3703 36.5895 84.2707 27.6653C79.1711 18.6135 72.1592 12.1115 63.6174 8.28683C54.9481 4.46214 45.0039 2.03984 34.0398 1.2749C23.0756 0.382469 11.7291 0 0 0V45.6413C9.05177 45.6413 15.8087 46.6612 20.2709 48.7011C24.733 50.7409 27.5378 53.9281 28.9402 58.0078C30.3426 62.215 30.98 67.4421 30.98 73.944V99.0595C30.98 104.797 32.2549 110.406 34.8047 115.888C37.3545 121.243 41.9441 126.215 48.8286 130.549C55.5855 134.757 65.0198 138.199 77.3863 140.749V146.103C65.0198 148.653 55.458 152.095 48.8286 156.302C41.9441 160.637 37.3545 165.609 34.8047 171.091C32.2549 176.446 30.98 182.055 30.98 187.792V212.908C30.98 219.282 30.3426 224.509 28.9402 228.844C27.5378 233.051 24.733 236.111 20.2709 238.151C15.8087 240.191 9.17926 241.211 0 241.211V286.852C11.7291 286.852 23.0756 286.469 34.0398 285.577C45.0039 284.812 54.9481 282.517 63.6174 278.565C72.2867 274.74 79.1711 268.238 84.2707 259.187C89.3703 250.262 91.9201 237.513 91.9201 221.067V203.219C91.9201 191.999 94.4699 186.262 99.6969 181.163C104.797 175.936 114.103 173.259 127.49 173.259V113.466C114.103 113.466 104.924 110.916 99.6969 105.689V105.816Z" fill="currentColor"/>
</svg>
