<svg width="128" height="287" viewBox="0 0 128 287" fill="none" xmlns="http://www.w3.org/2000/svg">
<path d="M27.7928 105.816C32.8924 100.589 35.5697 94.8523 35.5697 83.6332V65.7847C35.5697 49.3385 38.1195 36.5895 43.219 27.6653C48.3186 18.6135 55.3306 12.1115 63.8724 8.28683C72.5417 4.46214 82.4859 2.03984 93.45 1.2749C104.414 0.382469 115.761 0 127.49 0V45.6413C118.438 45.6413 111.681 46.6612 107.219 48.7011C102.757 50.7409 99.952 53.9281 98.5496 58.0078C97.1472 62.215 96.5097 67.4421 96.5097 73.944V99.0595C96.5097 104.797 95.2349 110.406 92.6851 115.888C90.1353 121.243 85.5456 126.215 78.6612 130.549C71.9042 134.757 62.47 138.199 50.1035 140.749V146.103C62.47 148.653 72.0317 152.095 78.6612 156.302C85.5456 160.637 90.1353 165.609 92.6851 171.091C95.2349 176.446 96.5097 182.055 96.5097 187.792V212.908C96.5097 219.282 97.1472 224.509 98.5496 228.844C99.952 233.051 102.757 236.111 107.219 238.151C111.681 240.191 118.31 241.211 127.49 241.211V286.852C115.761 286.852 104.414 286.469 93.45 285.577C82.4859 284.812 72.5417 282.517 63.8724 278.565C55.2031 274.74 48.3186 268.238 43.219 259.187C38.1195 250.262 35.5697 237.513 35.5697 221.067V203.219C35.5697 191.999 33.0199 186.262 27.7928 181.163C22.6932 175.936 13.3865 173.259 3.62396e-05 173.259V113.466C13.3865 113.466 22.5657 110.916 27.7928 105.689V105.816Z" fill="currentColor"/>
</svg>
