<svg xmlns="http://www.w3.org/2000/svg" width="36" height="30" viewBox="0 0 36 30" fill="none">
  <path d="M28.0489 20.3373C28.6937 20.3373 29.3063 20.4679 29.8866 20.6637C30.7893 19.5865 31.2729 18.4439 31.2729 17.2361C31.2729 15.2775 29.9511 13.3841 27.5653 11.9151C25.0183 10.3482 21.6008 9.4668 17.9577 9.4668C14.3145 9.4668 10.8971 10.3482 8.35009 11.9151C5.96431 13.3841 4.64246 15.2775 4.64246 17.2361C4.64246 18.4439 5.12606 19.5865 6.02879 20.6637C6.60911 20.4352 7.22168 20.3373 7.86648 20.3373C9.28505 20.3373 10.6391 20.8922 11.6708 21.9368C12.3801 22.655 12.8637 23.5364 13.0894 24.4831C14.6369 24.8422 16.249 25.038 17.9577 25.038C19.6664 25.038 21.2784 24.8422 22.826 24.4831C23.0516 23.5364 23.5352 22.655 24.2445 21.9368C25.2762 20.8922 26.6303 20.3373 28.0489 20.3373ZM17.9899 15.7998C16.3457 15.7998 14.9916 14.4287 14.9916 12.7639H20.956C20.956 14.4613 19.6342 15.7998 17.9899 15.7998Z" fill="url(#paint0_linear_3626_279)"/>
  <path d="M7.6407 10.4788C7.93086 10.3155 8.22103 10.1523 8.54343 9.9891C7.8019 9.4015 6.89917 9.14035 6.02869 9.14035C4.73908 9.14035 3.48171 9.72794 2.6757 10.8378L2.28882 11.2949L4.6746 13.0903C5.41612 12.1436 6.41557 11.2622 7.6407 10.4788Z" fill="url(#paint1_linear_3626_279)"/>
  <path d="M4.70708 21.4145C3.90107 20.3699 3.41747 19.26 3.25627 18.0848C3.22403 17.8237 3.19179 17.5299 3.19179 17.2687C3.19179 15.8977 3.64315 14.5593 4.51364 13.3514H4.19123C1.86993 13.3514 0 15.2448 0 17.5952V18.1828H3.1273C2.3213 18.8683 1.77321 19.815 1.64425 20.8922C1.48305 22.0021 1.77321 23.1447 2.4825 24.0261L2.74042 24.3851C2.9661 23.4711 3.44971 22.6224 4.12675 21.9368C4.32019 21.741 4.51364 21.5778 4.70708 21.4145Z" fill="url(#paint2_linear_3626_279)"/>
  <path d="M31.3051 13.1229L33.6909 11.3275L33.3362 10.8378C32.498 9.72794 31.2406 9.14035 29.9832 9.14035C29.1128 9.14035 28.21 9.4015 27.4685 9.9891C27.7587 10.1523 28.0811 10.3155 28.3712 10.4788C29.5641 11.2622 30.5636 12.1436 31.3051 13.1229Z" fill="url(#paint3_linear_3626_279)"/>
  <path d="M35.9798 17.5952C35.9798 15.2448 34.1099 13.3514 31.7886 13.3514H31.4661C32.3366 14.5593 32.788 15.865 32.788 17.2687C32.788 17.5625 32.7558 17.8237 32.7235 18.0848C32.5623 19.26 32.0787 20.4026 31.2727 21.4145C31.4661 21.5778 31.6596 21.741 31.853 21.9042C32.5301 22.5897 33.0137 23.4385 33.2394 24.3525L33.4973 23.9934C34.1743 23.0794 34.4645 21.9695 34.3355 20.8596C34.2066 19.7823 33.6585 18.8357 32.8525 18.1501H35.9798V17.5952Z" fill="url(#paint4_linear_3626_279)"/>
  <path d="M12.9279 8.48747C15.2492 8.48747 17.1192 6.59411 17.1192 4.24373C17.1192 1.89336 15.2492 0 12.9279 0C10.6066 0 8.73669 1.89336 8.73669 4.24373C8.73669 6.59411 10.6066 8.48747 12.9279 8.48747ZM12.9279 1.926C12.9279 1.926 12.9602 1.926 12.9279 1.926C12.6378 2.2198 12.4766 2.64417 12.4766 3.10119C12.4766 4.01523 13.1859 4.7334 14.0886 4.7334C14.5399 4.7334 14.9591 4.53753 15.2492 4.24373C15.2492 4.24373 15.2492 4.24373 15.2492 4.27638C15.2492 5.5495 14.2175 6.59411 12.9602 6.59411C11.7028 6.59411 10.6711 5.5495 10.6711 4.27638C10.6389 2.97061 11.6706 1.926 12.9279 1.926Z" fill="url(#paint5_linear_3626_279)"/>
  <path d="M23.0516 8.48747C25.3729 8.48747 27.2429 6.59411 27.2429 4.24373C27.2429 1.89336 25.3729 0 23.0516 0C20.7303 0 18.8604 1.89336 18.8604 4.24373C18.8281 6.59411 20.7303 8.48747 23.0516 8.48747ZM23.0516 1.926C22.7615 2.2198 22.6003 2.64417 22.6003 3.10119C22.6003 4.01523 23.3095 4.7334 24.2123 4.7334C24.6636 4.7334 25.0828 4.53753 25.3729 4.24373C25.3729 4.24373 25.3729 4.24373 25.3729 4.27638C25.3729 5.5495 24.3412 6.59411 23.0839 6.59411C21.8265 6.59411 20.7948 5.5495 20.7948 4.27638C20.7303 2.97061 21.762 1.926 23.0516 1.926Z" fill="url(#paint6_linear_3626_279)"/>
  <path d="M7.89912 21.5125C5.57782 21.5125 3.70789 23.4059 3.70789 25.7563C3.70789 28.1067 5.57782 30 7.89912 30C8.38272 30 8.86633 29.9021 9.28545 29.7715C9.25321 29.7389 9.22097 29.7062 9.15649 29.6736C7.93136 28.4331 7.51224 26.8662 8.25376 26.148C8.96305 25.4298 10.5428 25.8542 11.7357 27.062C11.768 27.0947 11.8002 27.1273 11.8324 27.1926C11.9936 26.7682 12.0581 26.2786 12.0581 25.7889C12.1226 23.4059 10.2204 21.5125 7.89912 21.5125Z" fill="url(#paint7_linear_3626_279)"/>
  <path d="M28.0811 21.5125C25.7598 21.5125 23.8899 23.4059 23.8899 25.7563C23.8899 26.2459 23.9866 26.7356 24.1156 27.16C24.1478 27.1273 24.1801 27.062 24.2123 27.0294C25.4374 25.7889 26.985 25.3645 27.6942 26.1154C28.4035 26.8335 27.9844 28.4331 26.7915 29.6409C26.7593 29.6736 26.727 29.7062 26.6626 29.7389C27.0817 29.9021 27.5653 29.9674 28.0489 29.9674C30.3702 29.9674 32.2401 28.074 32.2401 25.7236C32.2724 23.4059 30.3702 21.5125 28.0811 21.5125Z" fill="url(#paint8_linear_3626_279)"/>
  <defs>
    <linearGradient id="paint0_linear_3626_279" x1="10.4961" y1="27.5001" x2="27.017" y2="5.44261" gradientUnits="userSpaceOnUse">
      <stop stop-color="#FF7700"/>
      <stop offset="0.7423" stop-color="#FF3554"/>
    </linearGradient>
    <linearGradient id="paint1_linear_3626_279" x1="-0.741121" y1="19.0835" x2="15.7798" y2="-2.97396" gradientUnits="userSpaceOnUse">
      <stop stop-color="#FF7700"/>
      <stop offset="0.7423" stop-color="#FF3554"/>
    </linearGradient>
    <linearGradient id="paint2_linear_3626_279" x1="1.19034" y1="20.53" x2="17.7112" y2="-1.52747" gradientUnits="userSpaceOnUse">
      <stop stop-color="#FF7700"/>
      <stop offset="0.7423" stop-color="#FF3554"/>
    </linearGradient>
    <linearGradient id="paint3_linear_3626_279" x1="15.5008" y1="31.2485" x2="32.0216" y2="9.19107" gradientUnits="userSpaceOnUse">
      <stop stop-color="#FF7700"/>
      <stop offset="0.7423" stop-color="#FF3554"/>
    </linearGradient>
    <linearGradient id="paint4_linear_3626_279" x1="20.5484" y1="35.0293" x2="37.0693" y2="12.9718" gradientUnits="userSpaceOnUse">
      <stop stop-color="#FF7700"/>
      <stop offset="0.7423" stop-color="#FF3554"/>
    </linearGradient>
    <linearGradient id="paint5_linear_3626_279" x1="1.09214" y1="20.4568" x2="17.613" y2="-1.60072" gradientUnits="userSpaceOnUse">
      <stop stop-color="#FF7700"/>
      <stop offset="0.7423" stop-color="#FF3554"/>
    </linearGradient>
    <linearGradient id="paint6_linear_3626_279" x1="7.62131" y1="25.3468" x2="24.1422" y2="3.28937" gradientUnits="userSpaceOnUse">
      <stop stop-color="#FF7700"/>
      <stop offset="0.7423" stop-color="#FF3554"/>
    </linearGradient>
    <linearGradient id="paint7_linear_3626_279" x1="7.93117" y1="25.5787" x2="24.452" y2="3.52121" gradientUnits="userSpaceOnUse">
      <stop stop-color="#FF7700"/>
      <stop offset="0.7423" stop-color="#FF3554"/>
    </linearGradient>
    <linearGradient id="paint8_linear_3626_279" x1="21.0348" y1="35.3935" x2="37.5556" y2="13.336" gradientUnits="userSpaceOnUse">
      <stop stop-color="#FF7700"/>
      <stop offset="0.7423" stop-color="#FF3554"/>
    </linearGradient>
  </defs>
</svg>
