<svg width="90" height="75" viewBox="0 0 90 75" fill="none" xmlns="http://www.w3.org/2000/svg">
<mask id="mask0_1615_194346" style="mask-type:alpha" maskUnits="userSpaceOnUse" x="0" y="0" width="90" height="75">
<path d="M19.7871 53.7725C25.584 53.7725 30.281 58.5227 30.2812 64.3857C30.2812 65.6195 30.0645 66.7963 29.6826 67.8975C29.5914 67.7937 29.5002 67.6898 29.4033 67.5918C26.3537 64.5074 22.4376 63.4698 20.6592 65.2686C18.8809 67.0731 19.9066 71.028 22.9561 74.1123C23.053 74.2103 23.1503 74.3023 23.2529 74.3945C22.1699 74.7808 21.0069 75 19.7871 75C13.99 75 9.29297 70.249 9.29297 64.3857C9.29319 58.5227 13.9901 53.7725 19.7871 53.7725ZM70.2031 53.7725C76 53.7726 80.697 58.5228 80.6973 64.3857C80.6973 70.2489 76.0001 74.9999 70.2031 75C68.989 75 67.826 74.7808 66.7373 74.3945C66.8341 74.3024 66.9364 74.2102 67.0332 74.1123C70.0826 71.0281 71.1091 67.0675 69.3311 65.2686C67.5469 63.4698 63.6365 64.5074 60.5869 67.5918C60.4843 67.6956 60.3987 67.7937 60.3018 67.8975C59.9198 66.7963 59.7031 65.6195 59.7031 64.3857C59.7033 58.5227 64.4003 53.7725 70.1973 53.7725H70.2031ZM44.999 23.6719C54.1136 23.6719 62.641 25.8398 69.0195 29.7832C74.9761 33.4614 78.2597 38.1946 78.2598 43.1123C78.2598 46.0928 77.0341 48.9985 74.7656 51.6504C73.3182 51.1144 71.7793 50.8263 70.1895 50.8262C66.6113 50.8273 63.2444 52.2343 60.7031 54.7988C58.9532 56.5745 57.7506 58.7881 57.1748 61.1748C53.3443 62.0742 49.2399 62.5644 44.999 62.5645C40.7581 62.5645 36.6538 62.0742 32.8232 61.1748C32.2475 58.7881 31.0448 56.5745 29.2949 54.7988C26.7526 52.2333 23.3893 50.8262 19.8096 50.8262C18.2193 50.8262 16.6802 51.12 15.2324 51.6504C12.9582 48.9985 11.7383 46.0928 11.7383 43.1123C11.7384 38.1946 15.0219 33.4671 20.9785 29.7832C27.357 25.8456 35.8845 23.6719 44.999 23.6719ZM79.4727 33.3525C85.2639 33.3526 89.9775 38.1084 89.9775 43.96L89.9727 43.9658V45.459H82.1455C84.1861 47.1654 85.503 49.5407 85.8564 52.21C86.227 55.0234 85.4973 57.8141 83.793 60.0684L83.1377 60.9326C82.5391 58.6324 81.3644 56.5226 79.6602 54.7988C79.2042 54.3377 78.7143 53.9282 78.207 53.542C80.1963 50.9535 81.4328 48.1344 81.8262 45.1885C81.9174 44.5024 81.9746 43.8099 81.9746 43.1123C81.9745 39.6707 80.8404 36.3676 78.7031 33.3525H79.4727ZM11.2754 33.3457C9.13786 36.3609 8.00297 39.6647 8.00293 43.1064C8.00293 43.8039 8.0602 44.4957 8.15137 45.1816C8.54468 48.1277 9.78118 50.9476 11.7705 53.5361L11.7656 53.5303C11.2583 53.9165 10.7675 54.3259 10.3115 54.7871C8.60733 56.5108 7.4335 58.6208 6.83496 60.9209L6.17871 60.0566C4.47436 57.8024 3.74472 55.0117 4.11523 52.1982C4.46867 49.529 5.78556 47.1537 7.82617 45.4414H0V43.9541C9.82001e-06 38.1024 4.71447 33.3457 10.5059 33.3457H11.2754ZM37.5312 31.9736C37.5312 36.1361 40.8776 39.5205 44.9932 39.5205H44.999C49.1088 39.5204 52.4609 36.1361 52.4609 31.9736H37.5312ZM15.0498 22.8242C17.2443 22.8243 19.462 23.5167 21.3486 24.9521L21.377 24.9746C20.6132 25.3724 19.8608 25.7827 19.1426 26.2266H19.1475C16.0468 28.1463 13.55 30.354 11.709 32.7637L5.76953 28.2441L6.65332 27.0566C8.71109 24.2836 11.8577 22.8242 15.0498 22.8242ZM74.9404 22.8242C78.1325 22.8242 81.285 24.2836 83.3428 27.0566L84.2266 28.2441L78.2861 32.7637C76.445 30.354 73.9484 28.1463 70.8477 26.2266C70.1294 25.7826 69.3771 25.3782 68.6133 24.9746L68.6416 24.9521C70.5283 23.5166 72.7459 22.8242 74.9404 22.8242ZM32.3555 0C38.1409 0.000133035 42.8552 4.7677 42.8555 10.6191C42.8555 16.4708 38.1411 21.2391 32.3555 21.2393C26.5641 21.2393 21.8555 16.4766 21.8555 10.6191C21.8557 4.76185 26.5699 0 32.3555 0ZM57.625 0C63.4104 0.000135424 68.1248 4.7677 68.125 10.6191C68.125 16.4708 63.4106 21.2391 57.625 21.2393C51.8336 21.2393 47.125 16.4766 47.125 10.6191C47.1252 4.76185 51.8394 0 57.625 0ZM32.3555 4.79688C29.1749 4.79688 26.5979 7.40234 26.5977 10.6191C26.5977 13.8361 29.1748 16.4424 32.3555 16.4424C35.5361 16.4423 38.1123 13.8361 38.1123 10.6191V10.5615C37.3828 11.3224 36.3627 11.7958 35.2285 11.7959C32.9997 11.7959 31.1924 9.96808 31.1924 7.71387C31.1924 6.56672 31.6597 5.54057 32.4062 4.79688H32.3555ZM57.625 4.79688C54.4444 4.79688 51.8674 7.40234 51.8672 10.6191C51.8672 13.8361 54.4443 16.4424 57.625 16.4424C60.8056 16.4422 63.3818 13.8361 63.3818 10.6191V10.5615C62.6466 11.3224 61.6322 11.7958 60.498 11.7959C58.2693 11.7959 56.4619 9.96808 56.4619 7.71387C56.4619 6.56672 56.9292 5.54057 57.6758 4.79688H57.625Z" fill="white"/>
</mask>
<g mask="url(#mask0_1615_194346)">
<rect width="18.1715" height="101.888" transform="matrix(0.708492 0.705719 -0.317345 0.94831 25.9297 -40)" fill="#F85149"/>
<rect width="17.2629" height="101.888" transform="matrix(0.708492 0.705719 -0.317345 0.94831 38.8008 -27.176)" fill="#FF965E"/>
<rect width="18.1715" height="101.888" transform="matrix(0.708492 0.705719 -0.317345 0.94831 51.0352 -14.9933)" fill="#FFE55E"/>
<rect width="16.3543" height="101.888" transform="matrix(0.708492 0.705719 -0.317345 0.94831 63.9102 -2.16931)" fill="#5FFA74"/>
<rect width="18.1715" height="101.888" transform="matrix(0.708492 0.705719 -0.317345 0.94831 75.4961 9.37231)" fill="#59D2F4"/>
<rect width="17.2629" height="101.888" transform="matrix(0.708492 0.705719 -0.317345 0.94831 88.3672 22.1962)" fill="#DF56F2"/>
</g>
</svg>
