<svg xmlns="http://www.w3.org/2000/svg" width="21" height="21" viewBox="0 0 21 21" fill="none">
<path d="M3.29167 19.3333V14.75M3.29167 5.58333V1M1 3.29167H5.58333M1 17.0417H5.58333M11.0833 1.91667L9.49367 6.04979C9.23516 6.72192 9.1059 7.05798 8.9049 7.34066C8.72676 7.5912 8.50786 7.81009 8.25733 7.98824C7.97465 8.18924 7.63858 8.31849 6.96646 8.577L2.83333 10.1667L6.96646 11.7563C7.63858 12.0148 7.97465 12.1441 8.25733 12.3451C8.50787 12.5232 8.72676 12.7421 8.9049 12.9927C9.1059 13.2754 9.23516 13.6114 9.49367 14.2835L11.0833 18.4167L12.673 14.2835C12.9315 13.6114 13.0608 13.2754 13.2618 12.9927C13.4399 12.7421 13.6588 12.5232 13.9093 12.3451C14.192 12.1441 14.5281 12.0148 15.2002 11.7563L19.3333 10.1667L15.2002 8.577C14.5281 8.31849 14.192 8.18924 13.9093 7.98824C13.6588 7.81009 13.4399 7.5912 13.2618 7.34066C13.0608 7.05798 12.9315 6.72192 12.673 6.04979L11.0833 1.91667Z" stroke="white" stroke-width="2" stroke-linecap="round" stroke-linejoin="round"/>
</svg>
