<svg width="22" height="22" viewBox="0 0 22 22" fill="none" xmlns="http://www.w3.org/2000/svg">
<path d="M11.9167 6.41667L10.8941 4.37151C10.5998 3.7829 10.4526 3.48859 10.2331 3.27357C10.0389 3.08342 9.80496 2.93881 9.54807 2.8502C9.25757 2.75 8.92852 2.75 8.27043 2.75H4.76667C3.7399 2.75 3.22652 2.75 2.83435 2.94982C2.48939 3.12559 2.20892 3.40605 2.03315 3.75102C1.83333 4.14319 1.83333 4.65657 1.83333 5.68333V6.41667M1.83333 6.41667H15.7667C17.3068 6.41667 18.0769 6.41667 18.6651 6.7164C19.1826 6.98005 19.6033 7.40075 19.8669 7.91819C20.1667 8.50645 20.1667 9.27652 20.1667 10.8167V14.85C20.1667 16.3901 20.1667 17.1602 19.8669 17.7485C19.6033 18.2659 19.1826 18.6866 18.6651 18.9503C18.0769 19.25 17.3068 19.25 15.7667 19.25H6.23333C4.69319 19.25 3.92312 19.25 3.33486 18.9503C2.81741 18.6866 2.39672 18.2659 2.13306 17.7485C1.83333 17.1602 1.83333 16.3901 1.83333 14.85V6.41667ZM8.25 12.8333L10.0833 14.6667L14.2083 10.5417" stroke="currentColor" stroke-width="1.5" stroke-linecap="round" stroke-linejoin="round"/>
</svg>
