<svg width="22" height="22" viewBox="0 0 22 22" fill="none" xmlns="http://www.w3.org/2000/svg">
<path d="M16.266 2.57841C17.1504 1.66497 18.6116 1.65315 19.5106 2.55217C20.385 3.42656 20.4013 4.83911 19.5473 5.73342L17.0002 8.4007C16.8005 8.60977 16.7007 8.7143 16.6392 8.83673C16.5847 8.94511 16.5523 9.06322 16.5439 9.18422C16.5343 9.3209 16.5668 9.46174 16.6318 9.74341L18.2157 16.607C18.2824 16.8961 18.3158 17.0407 18.305 17.1805C18.2955 17.3043 18.2609 17.4249 18.2034 17.5349C18.1384 17.6592 18.0335 17.7641 17.8237 17.9739L17.4838 18.3138C16.9282 18.8694 16.6503 19.1472 16.366 19.1975C16.1177 19.2414 15.8623 19.1811 15.6599 19.0308C15.428 18.8587 15.3038 18.4859 15.0553 17.7405L13.213 12.2136L10.1465 15.2802C9.96344 15.4632 9.87191 15.5547 9.81069 15.6625C9.75645 15.758 9.71981 15.8625 9.70252 15.9709C9.68299 16.0933 9.69729 16.2219 9.72587 16.4792L9.89427 17.9948C9.92286 18.2521 9.93716 18.3808 9.91763 18.5032C9.90034 18.6116 9.8637 18.7161 9.80946 18.8115C9.74824 18.9193 9.65671 19.0108 9.47367 19.1939L9.29262 19.3749C8.85899 19.8086 8.64217 20.0254 8.40122 20.0882C8.18989 20.1433 7.96583 20.1211 7.7694 20.0256C7.54545 19.9168 7.37537 19.6617 7.03519 19.1514L5.59756 16.995C5.53679 16.9038 5.5064 16.8582 5.47112 16.8169C5.43978 16.7802 5.40559 16.746 5.36887 16.7146C5.32753 16.6793 5.28195 16.649 5.19078 16.5882L3.03434 15.1506C2.52408 14.8104 2.26895 14.6403 2.16012 14.4163C2.06467 14.2199 2.04249 13.9959 2.09756 13.7845C2.16035 13.5436 2.37717 13.3268 2.81081 12.8931L2.99186 12.7121C3.1749 12.529 3.26643 12.4375 3.37421 12.3763C3.46969 12.3221 3.57414 12.2854 3.68258 12.2681C3.80499 12.2486 3.93363 12.2629 4.19091 12.2915L5.70652 12.4599C5.9638 12.4885 6.09244 12.5028 6.21485 12.4832C6.32329 12.4659 6.42774 12.4293 6.52323 12.3751C6.63101 12.3138 6.72253 12.2223 6.90557 12.0393L9.97212 8.97272L4.44528 7.13044C3.69982 6.88196 3.32709 6.75771 3.15495 6.52588C3.00463 6.32345 2.94433 6.06803 2.98825 5.81974C3.03854 5.5354 3.31636 5.25758 3.87199 4.70195L4.21187 4.36208C4.42168 4.15226 4.52659 4.04735 4.65089 3.98237C4.7609 3.92485 4.88144 3.89028 5.00521 3.88075C5.14506 3.86998 5.28962 3.90334 5.57875 3.97006L12.4163 5.54795C12.7004 5.61352 12.8425 5.6463 12.9796 5.63655C13.1121 5.62713 13.2409 5.58907 13.3571 5.52498C13.4775 5.4586 13.579 5.35385 13.7818 5.14436L16.266 2.57841Z" stroke="currentColor" stroke-width="1.5" stroke-linecap="round" stroke-linejoin="round"/>
</svg>
