<svg width="22" height="22" viewBox="0 0 22 22" fill="none" xmlns="http://www.w3.org/2000/svg">
<path d="M9.16669 16.5V5.5C9.16669 4.64577 9.16669 4.21866 9.02713 3.88175C8.84106 3.43253 8.48416 3.07563 8.03494 2.88955C7.69803 2.75 7.27091 2.75 6.41669 2.75C5.56246 2.75 5.13535 2.75 4.79843 2.88955C4.34922 3.07563 3.99231 3.43253 3.80624 3.88175C3.66669 4.21866 3.66669 4.64577 3.66669 5.5V16.5C3.66669 17.3542 3.66669 17.7813 3.80624 18.1183C3.99231 18.5675 4.34922 18.9244 4.79843 19.1104C5.13535 19.25 5.56246 19.25 6.41669 19.25C7.27091 19.25 7.69803 19.25 8.03494 19.1104C8.48416 18.9244 8.84106 18.5675 9.02713 18.1183C9.16669 17.7813 9.16669 17.3542 9.16669 16.5Z" stroke="currentColor" stroke-width="1.5" stroke-linecap="round" stroke-linejoin="round"/>
<path d="M18.3334 12.8333V5.5C18.3334 4.64577 18.3334 4.21866 18.1938 3.88175C18.0077 3.43253 17.6508 3.07563 17.2016 2.88955C16.8647 2.75 16.4376 2.75 15.5834 2.75C14.7291 2.75 14.302 2.75 13.9651 2.88955C13.5159 3.07563 13.159 3.43253 12.9729 3.88175C12.8334 4.21866 12.8334 4.64577 12.8334 5.5V12.8333C12.8334 13.6876 12.8334 14.1147 12.9729 14.4516C13.159 14.9008 13.5159 15.2577 13.9651 15.4438C14.302 15.5833 14.7291 15.5833 15.5834 15.5833C16.4376 15.5833 16.8647 15.5833 17.2016 15.4438C17.6508 15.2577 18.0077 14.9008 18.1938 14.4516C18.3334 14.1147 18.3334 13.6876 18.3334 12.8333Z" stroke="currentColor" stroke-width="1.5" stroke-linecap="round" stroke-linejoin="round"/>
</svg>
