<svg width="22" height="22" viewBox="0 0 22 22" fill="none" xmlns="http://www.w3.org/2000/svg">
<path d="M16.5 9.16667C17.3542 9.16667 17.7813 9.16667 18.1183 9.02712C18.5675 8.84104 18.9244 8.48414 19.1104 8.03492C19.25 7.69801 19.25 7.2709 19.25 6.41667C19.25 5.56245 19.25 5.13533 19.1104 4.79842C18.9244 4.3492 18.5675 3.9923 18.1183 3.80623C17.7813 3.66667 17.3542 3.66667 16.5 3.66667L9.16667 3.66667C8.31244 3.66667 7.88533 3.66667 7.54841 3.80623C7.0992 3.9923 6.74229 4.3492 6.55622 4.79842C6.41667 5.13533 6.41667 5.56245 6.41667 6.41667C6.41667 7.2709 6.41667 7.69801 6.55622 8.03492C6.74229 8.48414 7.0992 8.84104 7.54841 9.02712C7.88533 9.16667 8.31244 9.16667 9.16667 9.16667L16.5 9.16667Z" stroke="currentColor" stroke-width="1.5" stroke-linecap="round" stroke-linejoin="round"/>
<path d="M16.5 18.3333C17.3542 18.3333 17.7813 18.3333 18.1183 18.1938C18.5675 18.0077 18.9244 17.6508 19.1104 17.2016C19.25 16.8647 19.25 16.4376 19.25 15.5833C19.25 14.7291 19.25 14.302 19.1104 13.9651C18.9244 13.5159 18.5675 13.159 18.1183 12.9729C17.7813 12.8333 17.3542 12.8333 16.5 12.8333H5.5C4.64577 12.8333 4.21866 12.8333 3.88175 12.9729C3.43253 13.159 3.07563 13.5159 2.88955 13.9651C2.75 14.302 2.75 14.7291 2.75 15.5833C2.75 16.4376 2.75 16.8647 2.88955 17.2016C3.07563 17.6508 3.43253 18.0077 3.88175 18.1938C4.21866 18.3333 4.64577 18.3333 5.5 18.3333L16.5 18.3333Z" stroke="currentColor" stroke-width="1.5" stroke-linecap="round" stroke-linejoin="round"/>
</svg>
