<svg width="22" height="22" viewBox="0 0 22 22" fill="none" xmlns="http://www.w3.org/2000/svg">
<path d="M9.16666 16.5V5.5C9.16666 4.64577 9.16666 4.21866 9.0271 3.88175C8.84103 3.43253 8.48413 3.07563 8.03491 2.88955C7.698 2.75 7.27088 2.75 6.41666 2.75C5.56243 2.75 5.13532 2.75 4.7984 2.88955C4.34919 3.07563 3.99228 3.43253 3.80621 3.88175C3.66666 4.21866 3.66666 4.64577 3.66666 5.5V16.5C3.66666 17.3542 3.66666 17.7813 3.80621 18.1183C3.99228 18.5675 4.34919 18.9244 4.7984 19.1104C5.13532 19.25 5.56243 19.25 6.41666 19.25C7.27088 19.25 7.698 19.25 8.03491 19.1104C8.48413 18.9244 8.84103 18.5675 9.0271 18.1183C9.16666 17.7813 9.16666 17.3542 9.16666 16.5Z" stroke="currentColor" stroke-width="1.5" stroke-linecap="round" stroke-linejoin="round"/>
<path d="M18.3333 16.5V9.16667C18.3333 8.31244 18.3333 7.88533 18.1938 7.54841C18.0077 7.0992 17.6508 6.74229 17.2016 6.55622C16.8647 6.41667 16.4375 6.41667 15.5833 6.41667C14.7291 6.41667 14.302 6.41667 13.9651 6.55622C13.5159 6.74229 13.1589 7.0992 12.9729 7.54841C12.8333 7.88533 12.8333 8.31244 12.8333 9.16667V16.5C12.8333 17.3542 12.8333 17.7813 12.9729 18.1183C13.1589 18.5675 13.5159 18.9244 13.9651 19.1104C14.302 19.25 14.7291 19.25 15.5833 19.25C16.4375 19.25 16.8647 19.25 17.2016 19.1104C17.6508 18.9244 18.0077 18.5675 18.1938 18.1183C18.3333 17.7813 18.3333 17.3542 18.3333 16.5Z" stroke="currentColor" stroke-width="1.5" stroke-linecap="round" stroke-linejoin="round"/>
</svg>
