<svg width="22" height="22" viewBox="0 0 22 22" fill="none" xmlns="http://www.w3.org/2000/svg">
<path d="M12.8333 9.16667C13.6876 9.16667 14.1147 9.16667 14.4516 9.02712C14.9008 8.84104 15.2577 8.48414 15.4438 8.03492C15.5833 7.69801 15.5833 7.2709 15.5833 6.41667C15.5833 5.56245 15.5833 5.13533 15.4438 4.79842C15.2577 4.3492 14.9008 3.9923 14.4516 3.80623C14.1147 3.66667 13.6876 3.66667 12.8333 3.66667L5.5 3.66667C4.64577 3.66667 4.21866 3.66667 3.88175 3.80623C3.43253 3.9923 3.07563 4.3492 2.88955 4.79842C2.75 5.13533 2.75 5.56245 2.75 6.41667C2.75 7.2709 2.75 7.69801 2.88955 8.03492C3.07563 8.48414 3.43253 8.84104 3.88175 9.02712C4.21866 9.16667 4.64577 9.16667 5.5 9.16667L12.8333 9.16667Z" stroke="currentColor" stroke-width="1.5" stroke-linecap="round" stroke-linejoin="round"/>
<path d="M16.5 18.3333C17.3542 18.3333 17.7813 18.3333 18.1183 18.1938C18.5675 18.0077 18.9244 17.6508 19.1104 17.2016C19.25 16.8647 19.25 16.4376 19.25 15.5833C19.25 14.7291 19.25 14.302 19.1104 13.9651C18.9244 13.5159 18.5675 13.159 18.1183 12.9729C17.7813 12.8333 17.3542 12.8333 16.5 12.8333H5.5C4.64577 12.8333 4.21866 12.8333 3.88175 12.9729C3.43253 13.159 3.07563 13.5159 2.88955 13.9651C2.75 14.302 2.75 14.7291 2.75 15.5833C2.75 16.4376 2.75 16.8647 2.88955 17.2016C3.07563 17.6508 3.43253 18.0077 3.88175 18.1938C4.21866 18.3333 4.64577 18.3333 5.5 18.3333L16.5 18.3333Z" stroke="currentColor" stroke-width="1.5" stroke-linecap="round" stroke-linejoin="round"/>
</svg>
