<svg width="22" height="22" viewBox="0 0 22 22" fill="none" xmlns="http://www.w3.org/2000/svg">
<path d="M14.6667 9.16667C15.5209 9.16667 15.948 9.16667 16.2849 9.02712C16.7341 8.84104 17.091 8.48414 17.2771 8.03492C17.4167 7.69801 17.4167 7.2709 17.4167 6.41667C17.4167 5.56245 17.4167 5.13533 17.2771 4.79842C17.091 4.3492 16.7341 3.9923 16.2849 3.80623C15.948 3.66667 15.5209 3.66667 14.6667 3.66667L7.33333 3.66667C6.47911 3.66667 6.05199 3.66667 5.71508 3.80623C5.26586 3.9923 4.90896 4.3492 4.72289 4.79842C4.58333 5.13533 4.58333 5.56245 4.58333 6.41667C4.58333 7.2709 4.58333 7.69801 4.72289 8.03492C4.90896 8.48414 5.26586 8.84104 5.71508 9.02712C6.05199 9.16667 6.47911 9.16667 7.33333 9.16667L14.6667 9.16667Z" stroke="currentColor" stroke-width="1.5" stroke-linecap="round" stroke-linejoin="round"/>
<path d="M16.5 18.3333C17.3542 18.3333 17.7813 18.3333 18.1183 18.1938C18.5675 18.0077 18.9244 17.6508 19.1104 17.2016C19.25 16.8647 19.25 16.4376 19.25 15.5833C19.25 14.7291 19.25 14.302 19.1104 13.9651C18.9244 13.5159 18.5675 13.159 18.1183 12.9729C17.7813 12.8333 17.3542 12.8333 16.5 12.8333H5.5C4.64577 12.8333 4.21866 12.8333 3.88175 12.9729C3.43253 13.159 3.07563 13.5159 2.88955 13.9651C2.75 14.302 2.75 14.7291 2.75 15.5833C2.75 16.4376 2.75 16.8647 2.88955 17.2016C3.07563 17.6508 3.43253 18.0077 3.88175 18.1938C4.21866 18.3333 4.64577 18.3333 5.5 18.3333L16.5 18.3333Z" stroke="currentColor" stroke-width="1.5" stroke-linecap="round" stroke-linejoin="round"/>
</svg>
