<svg width="22" height="22" viewBox="0 0 22 22" fill="none" xmlns="http://www.w3.org/2000/svg">
<path d="M9.16666 16.5V5.5C9.16666 4.64577 9.16666 4.21866 9.0271 3.88175C8.84103 3.43253 8.48413 3.07563 8.03491 2.88955C7.698 2.75 7.27088 2.75 6.41666 2.75C5.56243 2.75 5.13532 2.75 4.7984 2.88955C4.34919 3.07563 3.99228 3.43253 3.80621 3.88175C3.66666 4.21866 3.66666 4.64577 3.66666 5.5V16.5C3.66666 17.3542 3.66666 17.7813 3.80621 18.1183C3.99228 18.5675 4.34919 18.9244 4.7984 19.1104C5.13532 19.25 5.56243 19.25 6.41666 19.25C7.27088 19.25 7.698 19.25 8.03491 19.1104C8.48413 18.9244 8.84103 18.5675 9.0271 18.1183C9.16666 17.7813 9.16666 17.3542 9.16666 16.5Z" stroke="currentColor" stroke-width="1.5" stroke-linecap="round" stroke-linejoin="round"/>
<path d="M18.3333 14.6667V7.33333C18.3333 6.47911 18.3333 6.05199 18.1938 5.71508C18.0077 5.26586 17.6508 4.90896 17.2016 4.72289C16.8647 4.58333 16.4375 4.58333 15.5833 4.58333C14.7291 4.58333 14.302 4.58333 13.9651 4.72289C13.5159 4.90896 13.1589 5.26586 12.9729 5.71508C12.8333 6.05199 12.8333 6.47911 12.8333 7.33333V14.6667C12.8333 15.5209 12.8333 15.948 12.9729 16.2849C13.1589 16.7341 13.5159 17.091 13.9651 17.2771C14.302 17.4167 14.7291 17.4167 15.5833 17.4167C16.4375 17.4167 16.8647 17.4167 17.2016 17.2771C17.6508 17.091 18.0077 16.7341 18.1938 16.2849C18.3333 15.948 18.3333 15.5209 18.3333 14.6667Z" stroke="currentColor" stroke-width="1.5" stroke-linecap="round" stroke-linejoin="round"/>
</svg>
