<svg width="22" height="22" viewBox="0 0 22 22" fill="none" xmlns="http://www.w3.org/2000/svg">
<path d="M3.08333 18.3878C2.20887 18.3878 1.5 17.6786 1.5 16.8044V5.19332C1.5 4.31886 2.20887 3.60999 3.08333 3.60999H18.9167C19.7908 3.60999 20.5 4.31886 20.5 5.19332V5.27347H18.0095L17.4488 6.84262L16.8913 5.27347H13.6851V7.35721L12.7582 5.27347H10.1655L7.47049 11.365H9.64097V16.7681H16.3602L17.4125 15.6103L18.4648 16.7681H20.5V16.8044C20.5 17.6786 19.7908 18.3878 18.9167 18.3878H3.08333ZM17.4191 14.5614L16.0271 16.0886H14.3811L16.6076 13.7235L14.3811 11.332H16.0766L17.4455 12.8725L18.8309 11.332H20.5L18.2569 13.7103L20.5 16.0886H18.8045L17.4191 14.5614ZM20.5 12.348V15.0957L19.2036 13.7136L20.5 12.348ZM11.6465 14.9935H14.3844V16.0886H10.3601V11.365H14.3844V12.4569H11.6465V13.1957H14.3151V14.2612H11.6465V14.9968V14.9935ZM19.2234 7.36051L18.0063 10.6789H16.8715L15.6576 7.3704V10.6789H14.3811V5.952H16.3998L17.4521 8.89766L18.5142 5.952H20.5V10.6789H19.2234V7.36051ZM12.5339 9.73221H10.3601L9.96754 10.6789H8.54913L10.6075 5.952H12.2964L14.3844 10.6789H12.9297L12.5339 9.73221ZM11.4453 7.12301L10.8021 8.67005H12.0852L11.4453 7.12301Z" fill="currentColor"/>
</svg>
