<svg width="22" height="22" viewBox="0 0 22 22" fill="none" xmlns="http://www.w3.org/2000/svg">
<path d="M11 18.3333H19.25M2.75 18.3333H4.285C4.73341 18.3333 4.95762 18.3333 5.16862 18.2827C5.35568 18.2378 5.53451 18.1637 5.69855 18.0632C5.88356 17.9498 6.0421 17.7912 6.35918 17.4742L17.875 5.95832C18.6344 5.19893 18.6344 3.96771 17.875 3.20832C17.1156 2.44893 15.8844 2.44893 15.125 3.20832L3.60916 14.7242C3.29208 15.0412 3.13354 15.1998 3.02016 15.3848C2.91964 15.5488 2.84557 15.7277 2.80066 15.9147C2.75 16.1257 2.75 16.3499 2.75 16.7983V18.3333Z" stroke="currentColor" stroke-width="1.5" stroke-linecap="round" stroke-linejoin="round"/>
</svg>
