<svg width="22" height="22" viewBox="0 0 22 22" fill="none" xmlns="http://www.w3.org/2000/svg">
<path d="M20.1667 7.33332V11M9.39583 5.04165H6.23333C4.69318 5.04165 3.92311 5.04165 3.33485 5.34138C2.81741 5.60503 2.39671 6.02573 2.13306 6.54317C1.83333 7.13143 1.83333 7.9015 1.83333 9.44165L1.83333 10.5416C1.83333 11.3959 1.83333 11.823 1.97288 12.1599C2.15896 12.6091 2.51586 12.966 2.96508 13.1521C3.30199 13.2916 3.7291 13.2916 4.58333 13.2916V17.1875C4.58333 17.4003 4.58333 17.5067 4.59216 17.5963C4.67789 18.4668 5.36654 19.1554 6.23697 19.2412C6.3266 19.25 6.43301 19.25 6.64583 19.25C6.85865 19.25 6.96506 19.25 7.0547 19.2412C7.92512 19.1554 8.61377 18.4668 8.6995 17.5963C8.70833 17.5067 8.70833 17.4003 8.70833 17.1875V13.2916H9.39583C11.0151 13.2916 12.9958 14.1596 14.5239 14.9927C15.4154 15.4786 15.8612 15.7216 16.1531 15.6859C16.4238 15.6527 16.6285 15.5312 16.7872 15.3093C16.9583 15.0701 16.9583 14.5915 16.9583 13.6342V4.69907C16.9583 3.74181 16.9583 3.26318 16.7872 3.02396C16.6285 2.80214 16.4238 2.68059 16.1531 2.64743C15.8612 2.61167 15.4154 2.85466 14.5239 3.34064C12.9958 4.17367 11.0151 5.04165 9.39583 5.04165Z" stroke="currentColor" stroke-width="1.5" stroke-linecap="round" stroke-linejoin="round"/>
</svg>
