<svg width="22" height="22" viewBox="0 0 22 22" fill="none" xmlns="http://www.w3.org/2000/svg">
<path d="M11.1667 14.4583H7.04167C5.7624 14.4583 5.12277 14.4583 4.60229 14.6162C3.43042 14.9717 2.51337 15.8887 2.15789 17.0606C2 17.5811 2 18.2207 2 19.5M13.4583 7.125C13.4583 9.40317 11.6115 11.25 9.33333 11.25C7.05516 11.25 5.20833 9.40317 5.20833 7.125C5.20833 4.84683 7.05516 3 9.33333 3C11.6115 3 13.4583 4.84683 13.4583 7.125Z" stroke="currentColor" stroke-width="1.5" stroke-linecap="round" stroke-linejoin="round"/>
<path d="M16.865 17.5978C17.4722 17.5978 17.9645 17.1055 17.9645 16.4983C17.9645 15.8911 17.4722 15.3988 16.865 15.3988C16.2578 15.3988 15.7655 15.8911 15.7655 16.4983C15.7655 17.1055 16.2578 17.5978 16.865 17.5978Z" stroke="currentColor" stroke-linecap="round" stroke-linejoin="round"/>
<path d="M19.3306 17.4979C19.2862 17.5984 19.273 17.7098 19.2926 17.8179C19.3122 17.926 19.3637 18.0257 19.4405 18.1042L19.4605 18.1242C19.5225 18.1861 19.5716 18.2596 19.6051 18.3405C19.6387 18.4214 19.6559 18.5081 19.6559 18.5957C19.6559 18.6833 19.6387 18.77 19.6051 18.8509C19.5716 18.9318 19.5225 19.0053 19.4605 19.0671C19.3986 19.1291 19.3251 19.1783 19.2442 19.2118C19.1633 19.2453 19.0766 19.2626 18.989 19.2626C18.9015 19.2626 18.8148 19.2453 18.7339 19.2118C18.653 19.1783 18.5795 19.1291 18.5176 19.0671L18.4976 19.0472C18.4191 18.9703 18.3193 18.9188 18.2113 18.8992C18.1032 18.8796 17.9917 18.8929 17.8912 18.9372C17.7927 18.9794 17.7086 19.0496 17.6494 19.139C17.5902 19.2283 17.5585 19.3331 17.558 19.4403V19.4969C17.558 19.6737 17.4878 19.8432 17.3629 19.9681C17.2379 20.0931 17.0684 20.1633 16.8917 20.1633C16.7149 20.1633 16.5454 20.0931 16.4205 19.9681C16.2955 19.8432 16.2253 19.6737 16.2253 19.4969V19.467C16.2227 19.3567 16.187 19.2497 16.1229 19.16C16.0587 19.0703 15.969 19.0019 15.8655 18.9639C15.765 18.9195 15.6535 18.9063 15.5454 18.9259C15.4373 18.9455 15.3376 18.997 15.2591 19.0738L15.2391 19.0938C15.1772 19.1558 15.1037 19.2049 15.0228 19.2384C14.9419 19.272 14.8552 19.2892 14.7676 19.2892C14.6801 19.2892 14.5934 19.272 14.5125 19.2384C14.4316 19.2049 14.3581 19.1558 14.2962 19.0938C14.2342 19.0319 14.1851 18.9584 14.1515 18.8775C14.118 18.7966 14.1007 18.7099 14.1007 18.6223C14.1007 18.5348 14.118 18.4481 14.1515 18.3672C14.1851 18.2863 14.2342 18.2128 14.2962 18.1509L14.3162 18.1309C14.393 18.0524 14.4445 17.9526 14.4641 17.8446C14.4837 17.7365 14.4705 17.625 14.4261 17.5245C14.3839 17.426 14.3138 17.3419 14.2244 17.2827C14.135 17.2235 14.0302 17.1918 13.923 17.1913H13.8664C13.6896 17.1913 13.5202 17.1211 13.3952 16.9962C13.2702 16.8712 13.2 16.7017 13.2 16.525C13.2 16.3482 13.2702 16.1787 13.3952 16.0538C13.5202 15.9288 13.6896 15.8586 13.8664 15.8586H13.8964C14.0066 15.856 14.1136 15.8203 14.2033 15.7562C14.293 15.692 14.3614 15.6023 14.3995 15.4988C14.4438 15.3983 14.457 15.2868 14.4375 15.1787C14.4179 15.0706 14.3663 14.9709 14.2895 14.8924L14.2695 14.8724C14.2076 14.8105 14.1584 14.737 14.1249 14.6561C14.0914 14.5752 14.0741 14.4885 14.0741 14.4009C14.0741 14.3134 14.0914 14.2267 14.1249 14.1458C14.1584 14.0649 14.2076 13.9914 14.2695 13.9295C14.3314 13.8675 14.4049 13.8184 14.4858 13.7848C14.5667 13.7513 14.6534 13.734 14.741 13.734C14.8285 13.734 14.9153 13.7513 14.9962 13.7848C15.0771 13.8184 15.1505 13.8675 15.2124 13.9295L15.2324 13.9495C15.3109 14.0263 15.4107 14.0778 15.5188 14.0974C15.6268 14.117 15.7383 14.1038 15.8388 14.0594H15.8655C15.964 14.0172 16.0481 13.9471 16.1073 13.8577C16.1665 13.7683 16.1982 13.6635 16.1986 13.5563V13.4997C16.1986 13.3229 16.2689 13.1535 16.3938 13.0285C16.5188 12.9035 16.6883 12.8333 16.865 12.8333C17.0417 12.8333 17.2112 12.9035 17.3362 13.0285C17.4612 13.1535 17.5314 13.3229 17.5314 13.4997V13.5297C17.5318 13.6369 17.5636 13.7416 17.6228 13.831C17.682 13.9204 17.766 13.9905 17.8646 14.0328C17.9651 14.0771 18.0765 14.0903 18.1846 14.0708C18.2927 14.0512 18.3924 13.9996 18.4709 13.9228L18.4909 13.9028C18.5528 13.8409 18.6263 13.7917 18.7072 13.7582C18.7881 13.7247 18.8748 13.7074 18.9624 13.7074C19.05 13.7074 19.1367 13.7247 19.2176 13.7582C19.2985 13.7917 19.372 13.8409 19.4338 13.9028C19.4958 13.9647 19.545 14.0382 19.5785 14.1191C19.612 14.2 19.6293 14.2867 19.6293 14.3743C19.6293 14.4618 19.612 14.5486 19.5785 14.6295C19.545 14.7104 19.4958 14.7838 19.4338 14.8457L19.4139 14.8657C19.337 14.9442 19.2855 15.044 19.2659 15.1521C19.2463 15.2601 19.2596 15.3716 19.3039 15.4721V15.4988C19.3461 15.5973 19.4163 15.6814 19.5057 15.7406C19.595 15.7998 19.6998 15.8315 19.807 15.8319H19.8636C20.0404 15.8319 20.2099 15.9022 20.3348 16.0271C20.4598 16.1521 20.53 16.3216 20.53 16.4983C20.53 16.675 20.4598 16.8445 20.3348 16.9695C20.2099 17.0945 20.0404 17.1647 19.8636 17.1647H19.8337C19.7264 17.1651 19.6217 17.1969 19.5323 17.2561C19.4429 17.3153 19.3728 17.3993 19.3306 17.4979Z" stroke="currentColor" stroke-linecap="round" stroke-linejoin="round"/>
</svg>
