<svg width="22" height="22" viewBox="0 0 22 22" fill="none" xmlns="http://www.w3.org/2000/svg">
<path d="M3.66665 7.33021C3.51631 7.32633 3.40713 7.31763 3.30898 7.29811C2.58171 7.15344 2.0132 6.58493 1.86854 5.85767C1.83331 5.68057 1.83331 5.4676 1.83331 5.04167C1.83331 4.61573 1.83331 4.40277 1.86854 4.22567C2.0132 3.4984 2.58171 2.92989 3.30898 2.78523C3.48608 2.75 3.69905 2.75 4.12498 2.75H17.875C18.3009 2.75 18.5139 2.75 18.691 2.78523C19.4182 2.92989 19.9868 3.4984 20.1314 4.22567C20.1666 4.40277 20.1666 4.61573 20.1666 5.04167C20.1666 5.4676 20.1666 5.68057 20.1314 5.85767C19.9868 6.58493 19.4182 7.15344 18.691 7.29811C18.5928 7.31763 18.4837 7.32633 18.3333 7.33021M9.16665 11.9167H12.8333M3.66665 7.33333H18.3333V14.85C18.3333 16.3901 18.3333 17.1602 18.0336 17.7485C17.7699 18.2659 17.3492 18.6866 16.8318 18.9503C16.2435 19.25 15.4735 19.25 13.9333 19.25H8.06665C6.5265 19.25 5.75643 19.25 5.16817 18.9503C4.65073 18.6866 4.23003 18.2659 3.96638 17.7485C3.66665 17.1602 3.66665 16.3901 3.66665 14.85V7.33333Z" stroke="currentColor" stroke-width="1.5" stroke-linecap="round" stroke-linejoin="round"/>
</svg>
