<svg width="22" height="22" viewBox="0 0 22 22" fill="none" xmlns="http://www.w3.org/2000/svg">
<path d="M4.58333 8.24999V15.5833M8.70833 8.24999V15.5833M13.2917 8.24999V15.5833M17.4167 8.24999V15.5833M2.75 17.05L2.75 17.7833C2.75 18.2967 2.75 18.5534 2.84991 18.7495C2.93779 18.922 3.07803 19.0622 3.25051 19.1501C3.44659 19.25 3.70329 19.25 4.21667 19.25H17.7833C18.2967 19.25 18.5534 19.25 18.7495 19.1501C18.922 19.0622 19.0622 18.922 19.1501 18.7495C19.25 18.5534 19.25 18.2967 19.25 17.7833V17.05C19.25 16.5366 19.25 16.2799 19.1501 16.0838C19.0622 15.9114 18.922 15.7711 18.7495 15.6832C18.5534 15.5833 18.2967 15.5833 17.7833 15.5833H4.21667C3.70329 15.5833 3.44659 15.5833 3.25051 15.6832C3.07803 15.7711 2.93779 15.9114 2.84991 16.0838C2.75 16.2799 2.75 16.5366 2.75 17.05ZM10.6818 2.8207L3.8985 4.3281C3.4887 4.41917 3.28379 4.46471 3.13084 4.5749C2.99593 4.67209 2.89 4.80415 2.82439 4.95693C2.75 5.13014 2.75 5.34004 2.75 5.75984L2.75 6.78333C2.75 7.29671 2.75 7.5534 2.84991 7.74948C2.93779 7.92197 3.07803 8.0622 3.25051 8.15008C3.44659 8.24999 3.70329 8.24999 4.21667 8.24999H17.7833C18.2967 8.24999 18.5534 8.24999 18.7495 8.15008C18.922 8.0622 19.0622 7.92197 19.1501 7.74948C19.25 7.5534 19.25 7.29671 19.25 6.78333V5.75985C19.25 5.34004 19.25 5.13014 19.1756 4.95693C19.11 4.80415 19.0041 4.67209 18.8692 4.5749C18.7162 4.46471 18.5113 4.41917 18.1015 4.3281L11.3182 2.8207C11.1994 2.79431 11.1401 2.78112 11.0801 2.77586C11.0268 2.77119 10.9732 2.77119 10.9199 2.77586C10.8599 2.78112 10.8006 2.79431 10.6818 2.8207Z" stroke="currentColor" stroke-width="1.5" stroke-linecap="round" stroke-linejoin="round"/>
</svg>
