<svg width="22" height="22" viewBox="0 0 22 22" fill="none" xmlns="http://www.w3.org/2000/svg">
<path d="M18.3333 17.4167V14.6667H6.41667C4.89789 14.6667 3.66667 15.8979 3.66667 17.4167M8.06667 20.1667H15.4C16.4268 20.1667 16.9401 20.1667 17.3323 19.9668C17.6773 19.7911 17.9577 19.5106 18.1335 19.1656C18.3333 18.7735 18.3333 18.2601 18.3333 17.2333V4.76666C18.3333 3.7399 18.3333 3.22652 18.1335 2.83435C17.9577 2.48938 17.6773 2.20892 17.3323 2.03315C16.9401 1.83333 16.4268 1.83333 15.4 1.83333H8.06667C6.52653 1.83333 5.75646 1.83333 5.1682 2.13306C4.65075 2.39671 4.23006 2.81741 3.9664 3.33485C3.66667 3.92311 3.66667 4.69318 3.66667 6.23333V15.7667C3.66667 17.3068 3.66667 18.0769 3.9664 18.6651C4.23006 19.1826 4.65075 19.6033 5.1682 19.8669C5.75646 20.1667 6.52653 20.1667 8.06667 20.1667Z" stroke="currentColor" stroke-width="1.5" stroke-linecap="round" stroke-linejoin="round"/>
</svg>
