<svg width="22" height="22" viewBox="0 0 22 22" fill="none" xmlns="http://www.w3.org/2000/svg">
<path d="M18.7917 7.33333V14.85C18.7917 16.3901 18.7917 17.1602 18.4919 17.7485C18.2283 18.2659 17.8076 18.6866 17.2902 18.9503C16.7019 19.25 15.9318 19.25 14.3917 19.25H7.60834C6.0682 19.25 5.29813 19.25 4.70987 18.9503C4.19242 18.6866 3.77173 18.2659 3.50808 17.7485C3.20834 17.1602 3.20834 16.3901 3.20834 14.85V7.33333M3.30001 2.75H18.7C19.2134 2.75 19.4701 2.75 19.6662 2.84991C19.8386 2.93779 19.9789 3.07803 20.0668 3.25051C20.1667 3.44659 20.1667 3.70329 20.1667 4.21667V5.86667C20.1667 6.38005 20.1667 6.63674 20.0668 6.83282C19.9789 7.00531 19.8386 7.14554 19.6662 7.23342C19.4701 7.33333 19.2134 7.33333 18.7 7.33333H3.30001C2.78663 7.33333 2.52994 7.33333 2.33385 7.23342C2.16137 7.14554 2.02114 7.00531 1.93325 6.83282C1.83334 6.63674 1.83334 6.38005 1.83334 5.86667V4.21667C1.83334 3.70329 1.83334 3.44659 1.93325 3.25051C2.02114 3.07803 2.16137 2.93779 2.33385 2.84991C2.52994 2.75 2.78663 2.75 3.30001 2.75ZM8.80001 10.5417H13.2C13.7134 10.5417 13.9701 10.5417 14.1662 10.6416C14.3386 10.7295 14.4789 10.8697 14.5668 11.0422C14.6667 11.2383 14.6667 11.495 14.6667 12.0083V12.7417C14.6667 13.255 14.6667 13.5117 14.5668 13.7078C14.4789 13.8803 14.3386 14.0205 14.1662 14.1084C13.9701 14.2083 13.7134 14.2083 13.2 14.2083H8.80001C8.28663 14.2083 8.02994 14.2083 7.83385 14.1084C7.66137 14.0205 7.52114 13.8803 7.43325 13.7078C7.33334 13.5117 7.33334 13.255 7.33334 12.7417V12.0083C7.33334 11.495 7.33334 11.2383 7.43325 11.0422C7.52114 10.8697 7.66137 10.7295 7.83385 10.6416C8.02994 10.5417 8.28663 10.5417 8.80001 10.5417Z" stroke="currentColor" stroke-width="1.5" stroke-linecap="round" stroke-linejoin="round"/>
</svg>
