<svg width="22" height="22" viewBox="0 0 22 22" fill="none" xmlns="http://www.w3.org/2000/svg">
<path d="M7.33334 19.25V6.41667C7.33334 5.56419 7.33334 5.13796 7.42705 4.78825C7.68133 3.83924 8.42259 3.09799 9.37159 2.8437C9.7213 2.75 10.1475 2.75 11 2.75C11.8525 2.75 12.2787 2.75 12.6284 2.8437C13.5774 3.09799 14.3187 3.83924 14.573 4.78825C14.6667 5.13796 14.6667 5.56419 14.6667 6.41667V19.25M4.76668 19.25H17.2333C18.2601 19.25 18.7735 19.25 19.1657 19.0502C19.5106 18.8744 19.7911 18.5939 19.9669 18.249C20.1667 17.8568 20.1667 17.3434 20.1667 16.3167V9.35C20.1667 8.32324 20.1667 7.80986 19.9669 7.41768C19.7911 7.07272 19.5106 6.79226 19.1657 6.61649C18.7735 6.41667 18.2601 6.41667 17.2333 6.41667H4.76668C3.73991 6.41667 3.22653 6.41667 2.83436 6.61649C2.4894 6.79226 2.20893 7.07272 2.03316 7.41768C1.83334 7.80986 1.83334 8.32324 1.83334 9.35V16.3167C1.83334 17.3434 1.83334 17.8568 2.03316 18.249C2.20893 18.5939 2.4894 18.8744 2.83436 19.0502C3.22653 19.25 3.73991 19.25 4.76668 19.25Z" stroke="currentColor" stroke-width="1.5" stroke-linecap="round" stroke-linejoin="round"/>
</svg>
