<svg width="22" height="22" viewBox="0 0 22 22" fill="none" xmlns="http://www.w3.org/2000/svg">
<path d="M19.25 9.16666H2.75M14.6667 1.83333V5.49999M7.33333 1.83333V5.49999M7.15 20.1667H14.85C16.3901 20.1667 17.1602 20.1667 17.7485 19.8669C18.2659 19.6033 18.6866 19.1826 18.9503 18.6651C19.25 18.0769 19.25 17.3068 19.25 15.7667V8.06666C19.25 6.52652 19.25 5.75644 18.9503 5.16819C18.6866 4.65074 18.2659 4.23005 17.7485 3.96639C17.1602 3.66666 16.3901 3.66666 14.85 3.66666H7.15C5.60986 3.66666 4.83978 3.66666 4.25153 3.96639C3.73408 4.23005 3.31338 4.65074 3.04973 5.16819C2.75 5.75644 2.75 6.52652 2.75 8.06666V15.7667C2.75 17.3068 2.75 18.0769 3.04973 18.6651C3.31338 19.1826 3.73408 19.6033 4.25153 19.8669C4.83978 20.1667 5.60986 20.1667 7.15 20.1667Z" stroke="currentColor" stroke-width="1.5" stroke-linecap="round" stroke-linejoin="round"/>
</svg>
