<svg width="22" height="22" viewBox="0 0 22 22" fill="none" xmlns="http://www.w3.org/2000/svg">
<path d="M14.9167 11.25L11.25 7.58333M11.25 7.58333L7.58333 11.25M11.25 7.58333V14.9167M7.4 19.5H15.1C16.6401 19.5 17.4102 19.5 17.9985 19.2003C18.5159 18.9366 18.9366 18.5159 19.2003 17.9985C19.5 17.4102 19.5 16.6401 19.5 15.1V7.4C19.5 5.85986 19.5 5.08978 19.2003 4.50153C18.9366 3.98408 18.5159 3.56338 17.9985 3.29973C17.4102 3 16.6401 3 15.1 3H7.4C5.85986 3 5.08978 3 4.50153 3.29973C3.98408 3.56338 3.56338 3.98408 3.29973 4.50153C3 5.08978 3 5.85986 3 7.4V15.1C3 16.6401 3 17.4102 3.29973 17.9985C3.56338 18.5159 3.98408 18.9366 4.50153 19.2003C5.08978 19.5 5.85986 19.5 7.4 19.5Z" stroke="currentColor" stroke-width="1.5" stroke-linecap="round" stroke-linejoin="round"/>
</svg>
