<svg width="22" height="22" viewBox="0 0 22 22" fill="none" xmlns="http://www.w3.org/2000/svg">
<path d="M5.95833 18.3333H4.58333C3.57081 18.3333 2.75 17.5125 2.75 16.5V3.66665C2.75 2.65412 3.57081 1.83331 4.58333 1.83331H17.4167C18.4292 1.83331 19.25 2.65412 19.25 3.66665V16.5C19.25 17.5125 18.4292 18.3333 17.4167 18.3333H16.0417M11 17.4166C12.5188 17.4166 13.75 16.1854 13.75 14.6666C13.75 13.1479 12.5188 11.9166 11 11.9166C9.48122 11.9166 8.25 13.1479 8.25 14.6666C8.25 16.1854 9.48122 17.4166 11 17.4166ZM11 17.4166L11.0197 17.4165L8.09295 20.3432L5.50022 17.7504L8.26801 14.9826M11 17.4166L13.9267 20.3432L16.5195 17.7504L13.7517 14.9826M8.25 5.49998H13.75M6.41667 8.70831H15.5833" stroke="currentColor" stroke-width="1.5" stroke-linecap="round" stroke-linejoin="round"/>
</svg>
