<svg width="22" height="22" viewBox="0 0 22 22" fill="none" xmlns="http://www.w3.org/2000/svg">
<path d="M19.25 19.25H4.21667C3.70329 19.25 3.44659 19.25 3.25051 19.1501C3.07803 19.0622 2.93779 18.922 2.84991 18.7495C2.75 18.5534 2.75 18.2967 2.75 17.7833V2.75M19.25 6.41667L14.2685 11.3981C14.087 11.5796 13.9963 11.6704 13.8916 11.7044C13.7996 11.7343 13.7004 11.7343 13.6084 11.7044C13.5037 11.6704 13.413 11.5796 13.2315 11.3981L11.5185 9.68521C11.337 9.5037 11.2463 9.41295 11.1416 9.37895C11.0496 9.34904 10.9504 9.34904 10.8584 9.37895C10.7537 9.41295 10.663 9.5037 10.4815 9.68521L6.41667 13.75M19.25 6.41667H15.5833M19.25 6.41667V10.0833" stroke="currentColor" stroke-width="1.5" stroke-linecap="round" stroke-linejoin="round"/>
</svg>
