<svg width="22" height="22" viewBox="0 0 22 22" fill="none" xmlns="http://www.w3.org/2000/svg">
<path d="M14.6667 3.66665C15.5192 3.66665 15.9454 3.66665 16.2951 3.76035C17.2441 4.01463 17.9854 4.75589 18.2397 5.70489C18.3334 6.0546 18.3334 6.48084 18.3334 7.33331V15.7666C18.3334 17.3068 18.3334 18.0769 18.0336 18.6651C17.77 19.1826 17.3493 19.6033 16.8318 19.8669C16.2436 20.1666 15.4735 20.1666 13.9334 20.1666H8.06669C6.52654 20.1666 5.75647 20.1666 5.16821 19.8669C4.65077 19.6033 4.23007 19.1826 3.96642 18.6651C3.66669 18.0769 3.66669 17.3068 3.66669 15.7666V7.33331C3.66669 6.48084 3.66669 6.0546 3.76039 5.70489C4.01468 4.75589 4.75593 4.01463 5.70493 3.76035C6.05464 3.66665 6.48088 3.66665 7.33335 3.66665M8.25002 13.75L10.0834 15.5833L14.2084 11.4583M8.80002 5.49998H13.2C13.7134 5.49998 13.9701 5.49998 14.1662 5.40007C14.3387 5.31219 14.4789 5.17195 14.5668 4.99947C14.6667 4.80339 14.6667 4.54669 14.6667 4.03331V3.29998C14.6667 2.7866 14.6667 2.52991 14.5668 2.33382C14.4789 2.16134 14.3387 2.02111 14.1662 1.93322C13.9701 1.83331 13.7134 1.83331 13.2 1.83331H8.80002C8.28664 1.83331 8.02995 1.83331 7.83386 1.93322C7.66138 2.02111 7.52115 2.16134 7.43326 2.33382C7.33335 2.52991 7.33335 2.7866 7.33335 3.29998V4.03331C7.33335 4.54669 7.33335 4.80339 7.43326 4.99947C7.52115 5.17195 7.66138 5.31219 7.83386 5.40007C8.02995 5.49998 8.28664 5.49998 8.80002 5.49998Z" stroke="currentColor" stroke-width="1.5" stroke-linecap="round" stroke-linejoin="round"/>
</svg>
