<svg width="22" height="22" viewBox="0 0 22 22" fill="none" xmlns="http://www.w3.org/2000/svg">
<path d="M14.6667 3.66666C15.5192 3.66666 15.9454 3.66666 16.2951 3.76037C17.2441 4.01465 17.9854 4.75591 18.2397 5.70491C18.3334 6.05462 18.3334 6.48085 18.3334 7.33333V15.7667C18.3334 17.3068 18.3334 18.0769 18.0336 18.6651C17.77 19.1826 17.3493 19.6033 16.8318 19.8669C16.2436 20.1667 15.4735 20.1667 13.9334 20.1667H8.06669C6.52654 20.1667 5.75647 20.1667 5.16821 19.8669C4.65077 19.6033 4.23007 19.1826 3.96642 18.6651C3.66669 18.0769 3.66669 17.3068 3.66669 15.7667V7.33333C3.66669 6.48085 3.66669 6.05462 3.76039 5.70491C4.01468 4.75591 4.75593 4.01465 5.70493 3.76037C6.05464 3.66666 6.48088 3.66666 7.33335 3.66666M8.80002 5.49999H13.2C13.7134 5.49999 13.9701 5.49999 14.1662 5.40008C14.3387 5.3122 14.4789 5.17197 14.5668 4.99949C14.6667 4.8034 14.6667 4.54671 14.6667 4.03333V3.29999C14.6667 2.78661 14.6667 2.52992 14.5668 2.33384C14.4789 2.16136 14.3387 2.02112 14.1662 1.93324C13.9701 1.83333 13.7134 1.83333 13.2 1.83333H8.80002C8.28664 1.83333 8.02995 1.83333 7.83386 1.93324C7.66138 2.02112 7.52115 2.16136 7.43326 2.33384C7.33335 2.52992 7.33335 2.78661 7.33335 3.29999V4.03333C7.33335 4.54671 7.33335 4.8034 7.43326 4.99949C7.52115 5.17197 7.66138 5.3122 7.83386 5.40008C8.02995 5.49999 8.28664 5.49999 8.80002 5.49999Z" stroke="currentColor" stroke-width="1.5" stroke-linecap="round" stroke-linejoin="round"/>
</svg>
