<svg width="22" height="22" viewBox="0 0 22 22" fill="none" xmlns="http://www.w3.org/2000/svg">
<path d="M5.55504 17.2213C6.66421 17.7255 8.07588 17.7255 9.18504 17.2213C10.2942 16.7172 11.7059 16.7172 12.815 17.2213C13.9242 17.7255 15.3359 17.7255 16.445 17.2213M1.92508 14.013C3.03425 13.5088 4.44591 13.5088 5.55508 14.013C6.66425 14.5172 8.07591 14.5172 9.18508 14.013C10.2942 13.5088 11.7059 13.5088 12.8151 14.013C13.9242 14.5172 15.3359 14.5172 16.4451 14.013C17.5542 13.5088 18.9659 13.5088 20.0751 14.013" stroke="currentColor" stroke-width="1.5" stroke-linecap="round" stroke-linejoin="round"/>
<path d="M17.1023 10.6349V10.081L18.3967 8.88245C18.5068 8.77591 18.5991 8.68003 18.6737 8.5948C18.7495 8.50958 18.8069 8.42613 18.846 8.34445C18.885 8.26159 18.9045 8.17222 18.9045 8.07634C18.9045 7.9698 18.8803 7.87807 18.8317 7.80113C18.7832 7.723 18.7169 7.66322 18.6329 7.62179C18.5488 7.57918 18.4536 7.55787 18.347 7.55787C18.2357 7.55787 18.1387 7.58036 18.0558 7.62534C17.973 7.67032 17.909 7.73484 17.8641 7.81888C17.8191 7.90292 17.7966 8.00295 17.7966 8.11895H17.0668C17.0668 7.88103 17.1207 7.67447 17.2284 7.49928C17.3361 7.32409 17.4871 7.18855 17.6812 7.09267C17.8753 6.99679 18.099 6.94885 18.3523 6.94885C18.6128 6.94885 18.8394 6.99502 19.0324 7.08735C19.2265 7.17849 19.3774 7.30515 19.4852 7.46732C19.5929 7.62949 19.6467 7.81533 19.6467 8.02485C19.6467 8.16216 19.6195 8.29769 19.5651 8.43145C19.5118 8.56521 19.4165 8.71377 19.2792 8.87712C19.1419 9.03929 18.9483 9.23401 18.6986 9.46128L18.1677 9.98152V10.0064H19.6947V10.6349H17.1023Z" fill="currentColor"/>
<path d="M16.3514 7.36222C16.3514 8.07599 16.2161 8.68324 15.9455 9.18395C15.677 9.68466 15.3105 10.0671 14.846 10.3313C14.3837 10.5934 13.8638 10.7244 13.2864 10.7244C12.7047 10.7244 12.1827 10.5923 11.7203 10.3281C11.258 10.0639 10.8926 9.68146 10.6241 9.18075C10.3556 8.68004 10.2214 8.07386 10.2214 7.36222C10.2214 6.64844 10.3556 6.04119 10.6241 5.54048C10.8926 5.03977 11.258 4.65838 11.7203 4.39631C12.1827 4.1321 12.7047 4 13.2864 4C13.8638 4 14.3837 4.1321 14.846 4.39631C15.3105 4.65838 15.677 5.03977 15.9455 5.54048C16.2161 6.04119 16.3514 6.64844 16.3514 7.36222ZM14.9483 7.36222C14.9483 6.89986 14.8791 6.50994 14.7406 6.19247C14.6042 5.875 14.4114 5.63423 14.1621 5.47017C13.9128 5.30611 13.6209 5.22408 13.2864 5.22408C12.9519 5.22408 12.66 5.30611 12.4107 5.47017C12.1614 5.63423 11.9675 5.875 11.829 6.19247C11.6926 6.50994 11.6245 6.89986 11.6245 7.36222C11.6245 7.82457 11.6926 8.21449 11.829 8.53196C11.9675 8.84943 12.1614 9.0902 12.4107 9.25426C12.66 9.41832 12.9519 9.50036 13.2864 9.50036C13.6209 9.50036 13.9128 9.41832 14.1621 9.25426C14.4114 9.0902 14.6042 8.84943 14.7406 8.53196C14.8791 8.21449 14.9483 7.82457 14.9483 7.36222Z" fill="currentColor"/>
<path d="M9.3441 6.38104H7.94424C7.91867 6.19993 7.86647 6.03906 7.78763 5.89844C7.7088 5.75568 7.60759 5.63423 7.48401 5.53409C7.36043 5.43395 7.21768 5.35724 7.05574 5.30398C6.89594 5.25071 6.72229 5.22408 6.53479 5.22408C6.19601 5.22408 5.90092 5.30824 5.64949 5.47656C5.39807 5.64276 5.20312 5.88565 5.06462 6.20526C4.92613 6.52273 4.85688 6.90838 4.85688 7.36222C4.85688 7.82884 4.92613 8.22088 5.06462 8.53835C5.20525 8.85582 5.40127 9.09553 5.65269 9.25746C5.90411 9.41939 6.19495 9.50036 6.5252 9.50036C6.71057 9.50036 6.88209 9.47585 7.03976 9.42685C7.19957 9.37784 7.34126 9.30646 7.46484 9.21271C7.58842 9.11683 7.69069 9.00071 7.77165 8.86435C7.85475 8.72798 7.91228 8.57244 7.94424 8.39773L9.3441 8.40412C9.30788 8.70455 9.21732 8.99432 9.07244 9.27344C8.92968 9.55043 8.73685 9.79865 8.49396 10.0181C8.25319 10.2354 7.96555 10.408 7.63103 10.5359C7.29864 10.6616 6.92258 10.7244 6.50283 10.7244C5.91903 10.7244 5.39701 10.5923 4.93678 10.3281C4.47868 10.0639 4.11647 9.68146 3.85013 9.18075C3.58593 8.68004 3.45383 8.07386 3.45383 7.36222C3.45383 6.64844 3.58806 6.04119 3.85653 5.54048C4.12499 5.03977 4.48934 4.65838 4.94957 4.39631C5.40979 4.1321 5.92755 4 6.50283 4C6.88209 4 7.23366 4.05327 7.55752 4.1598C7.88351 4.26634 8.17222 4.42188 8.42364 4.62642C8.67506 4.82884 8.87961 5.07706 9.03728 5.37109C9.19708 5.66513 9.29935 6.00178 9.3441 6.38104Z" fill="currentColor"/>
</svg>
