<svg width="22" height="22" viewBox="0 0 22 22" fill="none" xmlns="http://www.w3.org/2000/svg">
<path d="M20.1667 8.25H1.83334M12.8333 16.0417L15.125 13.75L12.8333 11.4583M9.16667 11.4583L6.875 13.75L9.16667 16.0417M1.83334 7.15L1.83334 14.85C1.83334 16.3901 1.83334 17.1602 2.13307 17.7485C2.39672 18.2659 2.81742 18.6866 3.33486 18.9503C3.92312 19.25 4.69319 19.25 6.23333 19.25H15.7667C17.3068 19.25 18.0769 19.25 18.6651 18.9503C19.1826 18.6866 19.6033 18.2659 19.8669 17.7485C20.1667 17.1602 20.1667 16.3901 20.1667 14.85V7.15C20.1667 5.60986 20.1667 4.83978 19.8669 4.25153C19.6033 3.73408 19.1826 3.31339 18.6651 3.04973C18.0769 2.75 17.3068 2.75 15.7667 2.75L6.23334 2.75C4.69319 2.75 3.92312 2.75 3.33486 3.04973C2.81742 3.31338 2.39672 3.73408 2.13307 4.25153C1.83334 4.83978 1.83334 5.60986 1.83334 7.15Z" stroke="currentColor" stroke-width="1.5" stroke-linecap="round" stroke-linejoin="round"/>
</svg>
