<svg width="22" height="22" viewBox="0 0 22 22" fill="none" xmlns="http://www.w3.org/2000/svg">
<path d="M12.8334 2.08038V5.86671C12.8334 6.38009 12.8334 6.63678 12.9333 6.83287C13.0211 7.00535 13.1614 7.14558 13.3339 7.23347C13.5299 7.33338 13.7866 7.33338 14.3 7.33338H18.0863M12.8334 1.83331H8.06669C6.52654 1.83331 5.75647 1.83331 5.16821 2.13305C4.65077 2.3967 4.23007 2.81739 3.96642 3.33484C3.66669 3.9231 3.66669 4.69317 3.66669 6.23331V15.7666C3.66669 17.3068 3.66669 18.0769 3.96642 18.6651C4.23007 19.1826 4.65077 19.6033 5.16821 19.8669C5.75647 20.1666 6.52654 20.1666 8.06669 20.1666H13.9334C15.4735 20.1666 16.2436 20.1666 16.8318 19.8669C17.3493 19.6033 17.77 19.1826 18.0336 18.6651C18.3334 18.0769 18.3334 17.3068 18.3334 15.7666V7.33331L12.8334 1.83331Z" stroke="currentColor" stroke-width="1.5" stroke-linecap="round" stroke-linejoin="round"/>
<path d="M13 16L15.5 13.5L13 11M9 11L6.5 13.5L9 16" stroke="currentColor" stroke-width="1.5" stroke-linecap="round" stroke-linejoin="round"/>
</svg>
