<svg width="22" height="22" viewBox="0 0 22 22" fill="none" xmlns="http://www.w3.org/2000/svg">
<path d="M11 13.75C12.5188 13.75 13.75 12.5188 13.75 11C13.75 9.4812 12.5188 8.24998 11 8.24998C9.48121 8.24998 8.24999 9.4812 8.24999 11C8.24999 12.5188 9.48121 13.75 11 13.75Z" stroke="currentColor" stroke-width="1.5" stroke-linecap="round" stroke-linejoin="round"/>
<path d="M17.1667 13.5C17.0557 13.7513 17.0226 14.0301 17.0717 14.3005C17.1207 14.5708 17.2495 14.8202 17.4417 15.0166L17.4917 15.0666C17.6466 15.2214 17.7696 15.4052 17.8534 15.6076C17.9373 15.8099 17.9805 16.0268 17.9805 16.2458C17.9805 16.4648 17.9373 16.6817 17.8534 16.884C17.7696 17.0864 17.6466 17.2702 17.4917 17.425C17.3369 17.5799 17.1531 17.7029 16.9507 17.7867C16.7484 17.8706 16.5315 17.9138 16.3125 17.9138C16.0935 17.9138 15.8766 17.8706 15.6743 17.7867C15.4719 17.7029 15.2881 17.5799 15.1333 17.425L15.0833 17.375C14.8869 17.1829 14.6375 17.054 14.3672 17.005C14.0968 16.956 13.818 16.989 13.5667 17.1C13.3202 17.2056 13.11 17.381 12.9619 17.6046C12.8139 17.8282 12.7344 18.0902 12.7333 18.3583V18.5C12.7333 18.942 12.5577 19.3659 12.2452 19.6785C11.9326 19.9911 11.5087 20.1666 11.0667 20.1666C10.6246 20.1666 10.2007 19.9911 9.88815 19.6785C9.57559 19.3659 9.39999 18.942 9.39999 18.5V18.425C9.39354 18.1492 9.30426 17.8816 9.14375 17.6572C8.98325 17.4328 8.75894 17.2619 8.49999 17.1666C8.24865 17.0557 7.96983 17.0226 7.6995 17.0716C7.42918 17.1207 7.17973 17.2495 6.98333 17.4416L6.93333 17.4916C6.77854 17.6466 6.59473 17.7695 6.3924 17.8534C6.19007 17.9373 5.97319 17.9805 5.75416 17.9805C5.53514 17.9805 5.31826 17.9373 5.11593 17.8534C4.9136 17.7695 4.72978 17.6466 4.57499 17.4916C4.42003 17.3369 4.2971 17.153 4.21323 16.9507C4.12935 16.7484 4.08618 16.5315 4.08618 16.3125C4.08618 16.0935 4.12935 15.8766 4.21323 15.6742C4.2971 15.4719 4.42003 15.2881 4.57499 15.1333L4.62499 15.0833C4.81711 14.8869 4.94598 14.6375 4.995 14.3671C5.04401 14.0968 5.01092 13.818 4.89999 13.5666C4.79436 13.3202 4.61896 13.11 4.39538 12.9619C4.17181 12.8138 3.90982 12.7344 3.64166 12.7333H3.49999C3.05797 12.7333 2.63404 12.5577 2.32148 12.2452C2.00892 11.9326 1.83333 11.5087 1.83333 11.0666C1.83333 10.6246 2.00892 10.2007 2.32148 9.88813C2.63404 9.57557 3.05797 9.39998 3.49999 9.39998H3.57499C3.85082 9.39353 4.11833 9.30425 4.34274 9.14374C4.56716 8.98323 4.73809 8.75893 4.83333 8.49998C4.94426 8.24863 4.97735 7.96982 4.92833 7.69949C4.87932 7.42916 4.75044 7.17971 4.55833 6.98331L4.50833 6.93331C4.35337 6.77852 4.23044 6.59471 4.14656 6.39238C4.06269 6.19005 4.01952 5.97317 4.01952 5.75415C4.01952 5.53512 4.06269 5.31824 4.14656 5.11591C4.23044 4.91358 4.35337 4.72977 4.50833 4.57498C4.66312 4.42002 4.84693 4.29709 5.04926 4.21321C5.25159 4.12934 5.46847 4.08617 5.68749 4.08617C5.90652 4.08617 6.1234 4.12934 6.32573 4.21321C6.52806 4.29709 6.71187 4.42002 6.86666 4.57498L6.91666 4.62498C7.11306 4.81709 7.36251 4.94597 7.63284 4.99498C7.90317 5.044 8.18198 5.01091 8.43333 4.89998H8.49999C8.74647 4.79434 8.95668 4.61894 9.10474 4.39537C9.2528 4.17179 9.33226 3.9098 9.33333 3.64165V3.49998C9.33333 3.05795 9.50892 2.63403 9.82148 2.32147C10.134 2.00891 10.558 1.83331 11 1.83331C11.442 1.83331 11.8659 2.00891 12.1785 2.32147C12.4911 2.63403 12.6667 3.05795 12.6667 3.49998V3.57498C12.6677 3.84314 12.7472 4.10513 12.8953 4.3287C13.0433 4.55228 13.2535 4.72768 13.5 4.83331C13.7513 4.94424 14.0302 4.97733 14.3005 4.92832C14.5708 4.8793 14.8203 4.75043 15.0167 4.55831L15.0667 4.50831C15.2214 4.35335 15.4053 4.23042 15.6076 4.14655C15.8099 4.06267 16.0268 4.0195 16.2458 4.0195C16.4649 4.0195 16.6817 4.06267 16.8841 4.14655C17.0864 4.23042 17.2702 4.35335 17.425 4.50831C17.58 4.6631 17.7029 4.84692 17.7868 5.04925C17.8706 5.25158 17.9138 5.46845 17.9138 5.68748C17.9138 5.90651 17.8706 6.12338 17.7868 6.32571C17.7029 6.52804 17.58 6.71186 17.425 6.86665L17.375 6.91665C17.1829 7.11305 17.054 7.36249 17.005 7.63282C16.956 7.90315 16.9891 8.18197 17.1 8.43331V8.49998C17.2056 8.74645 17.381 8.95666 17.6046 9.10472C17.8282 9.25279 18.0902 9.33224 18.3583 9.33331H18.5C18.942 9.33331 19.3659 9.50891 19.6785 9.82147C19.9911 10.134 20.1667 10.558 20.1667 11C20.1667 11.442 19.9911 11.8659 19.6785 12.1785C19.3659 12.4911 18.942 12.6666 18.5 12.6666H18.425C18.1568 12.6677 17.8948 12.7472 17.6713 12.8952C17.4477 13.0433 17.2723 13.2535 17.1667 13.5Z" stroke="currentColor" stroke-width="1.5" stroke-linecap="round" stroke-linejoin="round"/>
</svg>
