<svg width="22" height="22" viewBox="0 0 22 22" fill="none" xmlns="http://www.w3.org/2000/svg">
<path d="M12.402 7.65585C11.8773 8.02993 11.2352 8.24998 10.5416 8.24998C8.76973 8.24998 7.33331 6.81356 7.33331 5.04165C7.33331 3.26973 8.76973 1.83331 10.5416 1.83331C11.6902 1.83331 12.6978 2.43686 13.2646 3.34411M5.49998 18.4132H7.89275C8.20472 18.4132 8.51479 18.4503 8.81722 18.5246L11.3455 19.139C11.894 19.2726 12.4655 19.2856 13.0198 19.1779L15.8152 18.6341C16.5536 18.4902 17.2329 18.1366 17.7653 17.6188L19.743 15.6949C20.3078 15.1464 20.3078 14.2564 19.743 13.707C19.2345 13.2123 18.4293 13.1566 17.854 13.5761L15.549 15.2578C15.2189 15.4991 14.8173 15.629 14.4042 15.629H12.1784L13.5951 15.6289C14.3937 15.6289 15.0405 14.9997 15.0405 14.2229V13.9417C15.0405 13.2967 14.5892 12.7343 13.9462 12.5784L11.7595 12.0466C11.4037 11.9603 11.0392 11.9166 10.6729 11.9166C9.78845 11.9166 8.18755 12.6489 8.18755 12.6489L5.49998 13.7728M18.3333 5.95831C18.3333 7.73023 16.8969 9.16665 15.125 9.16665C13.3531 9.16665 11.9166 7.73023 11.9166 5.95831C11.9166 4.1864 13.3531 2.74998 15.125 2.74998C16.8969 2.74998 18.3333 4.1864 18.3333 5.95831ZM1.83331 13.3833L1.83331 18.7C1.83331 19.2134 1.83331 19.47 1.93322 19.6661C2.02111 19.8386 2.16134 19.9788 2.33382 20.0667C2.52991 20.1666 2.7866 20.1666 3.29998 20.1666H4.03331C4.54669 20.1666 4.80338 20.1666 4.99947 20.0667C5.17195 19.9789 5.31218 19.8386 5.40007 19.6661C5.49998 19.4701 5.49998 19.2134 5.49998 18.7V13.3833C5.49998 12.8699 5.49998 12.6132 5.40007 12.4172C5.31218 12.2447 5.17195 12.1044 4.99947 12.0166C4.80339 11.9166 4.54669 11.9166 4.03331 11.9166L3.29998 11.9166C2.7866 11.9166 2.52991 11.9166 2.33382 12.0166C2.16134 12.1044 2.02111 12.2447 1.93322 12.4172C1.83331 12.6132 1.83331 12.8699 1.83331 13.3833Z" stroke="currentColor" stroke-width="1.5" stroke-linecap="round" stroke-linejoin="round"/>
</svg>
