<svg width="22" height="22" viewBox="0 0 22 22" fill="none" xmlns="http://www.w3.org/2000/svg">
<path d="M18.7916 6.67128L11 11M11 11L3.2083 6.67128M11 11L11 19.7083M19.25 14.7203V7.27966C19.25 6.96558 19.25 6.80853 19.2037 6.66847C19.1628 6.54455 19.0959 6.43081 19.0074 6.33485C18.9075 6.22637 18.7702 6.1501 18.4956 5.99757L11.7123 2.22905C11.4523 2.08462 11.3223 2.01241 11.1847 1.98409C11.0628 1.95904 10.9372 1.95904 10.8153 1.98409C10.6777 2.01241 10.5477 2.08462 10.2877 2.22905L3.50439 5.99757C3.22983 6.1501 3.09254 6.22637 2.99258 6.33485C2.90414 6.43081 2.83722 6.54456 2.79628 6.66847C2.75 6.80853 2.75 6.96558 2.75 7.27967V14.7203C2.75 15.0344 2.75 15.1915 2.79628 15.3315C2.83722 15.4555 2.90414 15.5692 2.99258 15.6652C3.09255 15.7736 3.22983 15.8499 3.50439 16.0024L10.2877 19.771C10.5477 19.9154 10.6777 19.9876 10.8153 20.0159C10.9372 20.041 11.0628 20.041 11.1847 20.0159C11.3223 19.9876 11.4523 19.9154 11.7123 19.771L18.4956 16.0024C18.7702 15.8499 18.9075 15.7736 19.0074 15.6652C19.0959 15.5692 19.1628 15.4555 19.2037 15.3315C19.25 15.1915 19.25 15.0344 19.25 14.7203Z" stroke="currentColor" stroke-width="1.5" stroke-linecap="round" stroke-linejoin="round"/>
</svg>
