<svg width="22" height="22" viewBox="0 0 22 22" fill="none" xmlns="http://www.w3.org/2000/svg">
<path d="M8.25001 1.83334V3.66668M13.75 1.83334V3.66668M8.25001 18.3333V20.1667M13.75 18.3333V20.1667M18.3333 8.25001H20.1667M18.3333 12.8333H20.1667M1.83334 8.25001H3.66668M1.83334 12.8333H3.66668M8.06668 18.3333H13.9333C15.4735 18.3333 16.2436 18.3333 16.8318 18.0336C17.3493 17.77 17.77 17.3493 18.0336 16.8318C18.3333 16.2436 18.3333 15.4735 18.3333 13.9333V8.06668C18.3333 6.52653 18.3333 5.75646 18.0336 5.1682C17.77 4.65076 17.3493 4.23006 16.8318 3.96641C16.2436 3.66668 15.4735 3.66668 13.9333 3.66668H8.06668C6.52653 3.66668 5.75646 3.66668 5.1682 3.96641C4.65076 4.23006 4.23006 4.65076 3.96641 5.1682C3.66668 5.75646 3.66668 6.52653 3.66668 8.06668V13.9333C3.66668 15.4735 3.66668 16.2436 3.96641 16.8318C4.23006 17.3493 4.65076 17.77 5.1682 18.0336C5.75646 18.3333 6.52653 18.3333 8.06668 18.3333ZM9.71668 13.75H12.2833C12.7967 13.75 13.0534 13.75 13.2495 13.6501C13.422 13.5622 13.5622 13.422 13.6501 13.2495C13.75 13.0534 13.75 12.7967 13.75 12.2833V9.71668C13.75 9.2033 13.75 8.9466 13.6501 8.75052C13.5622 8.57804 13.422 8.4378 13.2495 8.34992C13.0534 8.25001 12.7967 8.25001 12.2833 8.25001H9.71668C9.2033 8.25001 8.9466 8.25001 8.75052 8.34992C8.57804 8.4378 8.4378 8.57804 8.34992 8.75052C8.25001 8.9466 8.25001 9.2033 8.25001 9.71668V12.2833C8.25001 12.7967 8.25001 13.0534 8.34992 13.2495C8.4378 13.422 8.57804 13.5622 8.75052 13.6501C8.9466 13.75 9.2033 13.75 9.71668 13.75Z" stroke="currentColor" stroke-width="1.5" stroke-linecap="round" stroke-linejoin="round"/>
</svg>
