<svg width="22" height="22" viewBox="0 0 22 22" fill="none" xmlns="http://www.w3.org/2000/svg">
<path d="M20.1667 9.16668H1.83334M10.0833 12.8333H5.5M1.83334 7.51668L1.83334 14.4833C1.83334 15.5101 1.83334 16.0235 2.03316 16.4157C2.20893 16.7606 2.48939 17.0411 2.83435 17.2169C3.22652 17.4167 3.73991 17.4167 4.76667 17.4167L17.2333 17.4167C18.2601 17.4167 18.7735 17.4167 19.1657 17.2169C19.5106 17.0411 19.7911 16.7606 19.9668 16.4157C20.1667 16.0235 20.1667 15.5101 20.1667 14.4833V7.51668C20.1667 6.48992 20.1667 5.97653 19.9668 5.58436C19.7911 5.2394 19.5106 4.95893 19.1657 4.78317C18.7735 4.58334 18.2601 4.58334 17.2333 4.58334L4.76667 4.58334C3.73991 4.58334 3.22653 4.58334 2.83435 4.78316C2.48939 4.95893 2.20893 5.2394 2.03316 5.58436C1.83334 5.97653 1.83334 6.48991 1.83334 7.51668Z" stroke="currentColor" stroke-width="1.5" stroke-linecap="round" stroke-linejoin="round"/>
</svg>
