<svg width="22" height="22" viewBox="0 0 22 22" fill="none" xmlns="http://www.w3.org/2000/svg">
<path d="M7.79167 13.4444C7.79167 14.6257 8.74928 15.5833 9.93055 15.5833H11.9167C13.1823 15.5833 14.2083 14.5573 14.2083 13.2916C14.2083 12.026 13.1823 11 11.9167 11H10.0833C8.81768 11 7.79167 9.97397 7.79167 8.70831C7.79167 7.44266 8.81768 6.41665 10.0833 6.41665H12.0694C13.2507 6.41665 14.2083 7.37426 14.2083 8.55554M11 5.04165V6.41665M11 15.5833V16.9583M20.1667 11C20.1667 16.0626 16.0626 20.1666 11 20.1666C5.93739 20.1666 1.83333 16.0626 1.83333 11C1.83333 5.93737 5.93739 1.83331 11 1.83331C16.0626 1.83331 20.1667 5.93737 20.1667 11Z" stroke="currentColor" stroke-width="1.5" stroke-linecap="round" stroke-linejoin="round"/>
</svg>
