<svg width="22" height="22" viewBox="0 0 22 22" fill="none" xmlns="http://www.w3.org/2000/svg">
<path d="M16.5 9.16668L13.3519 12.3148C13.1704 12.4963 13.0796 12.5871 12.975 12.6211C12.8829 12.651 12.7838 12.651 12.6917 12.6211C12.5871 12.5871 12.4963 12.4963 12.3148 12.3148L9.68522 9.68522C9.50371 9.50371 9.41296 9.41296 9.30831 9.37896C9.21626 9.34905 9.1171 9.34905 9.02504 9.37896C8.92039 9.41296 8.82964 9.50371 8.64813 9.68522L5.50001 12.8333M20.1667 11C20.1667 16.0626 16.0626 20.1667 11 20.1667C5.9374 20.1667 1.83334 16.0626 1.83334 11C1.83334 5.9374 5.9374 1.83334 11 1.83334C16.0626 1.83334 20.1667 5.9374 20.1667 11Z" stroke="currentColor" stroke-width="1.5" stroke-linecap="round" stroke-linejoin="round"/>
</svg>
