<svg width="22" height="22" viewBox="0 0 22 22" fill="none" xmlns="http://www.w3.org/2000/svg">
<path d="M3.66668 16.5V16.3166C3.66668 14.7765 3.66668 14.0064 3.96641 13.4182C4.23006 12.9007 4.65076 12.48 5.1682 12.2164C5.75646 11.9166 6.52653 11.9166 8.06668 11.9166H13.9333C15.4735 11.9166 16.2436 11.9166 16.8318 12.2164C17.3493 12.48 17.77 12.9007 18.0336 13.4182C18.3333 14.0064 18.3333 14.7765 18.3333 16.3166V16.5M3.66668 16.5C2.65415 16.5 1.83334 17.3208 1.83334 18.3333C1.83334 19.3458 2.65415 20.1666 3.66668 20.1666C4.6792 20.1666 5.50001 19.3458 5.50001 18.3333C5.50001 17.3208 4.6792 16.5 3.66668 16.5ZM18.3333 16.5C17.3208 16.5 16.5 17.3208 16.5 18.3333C16.5 19.3458 17.3208 20.1666 18.3333 20.1666C19.3459 20.1666 20.1667 19.3458 20.1667 18.3333C20.1667 17.3208 19.3459 16.5 18.3333 16.5ZM11 16.5C9.98749 16.5 9.16668 17.3208 9.16668 18.3333C9.16668 19.3458 9.98749 20.1666 11 20.1666C12.0125 20.1666 12.8333 19.3458 12.8333 18.3333C12.8333 17.3208 12.0125 16.5 11 16.5ZM11 16.5V7.33331M5.50001 7.33331H16.5C17.3542 7.33331 17.7813 7.33331 18.1183 7.19376C18.5675 7.00769 18.9244 6.65078 19.1105 6.20157C19.25 5.86465 19.25 5.43754 19.25 4.58331C19.25 3.72909 19.25 3.30197 19.1105 2.96506C18.9244 2.51584 18.5675 2.15894 18.1183 1.97287C17.7813 1.83331 17.3542 1.83331 16.5 1.83331H5.50001C4.64578 1.83331 4.21867 1.83331 3.88176 1.97287C3.43254 2.15894 3.07564 2.51584 2.88956 2.96506C2.75001 3.30197 2.75001 3.72909 2.75001 4.58331C2.75001 5.43754 2.75001 5.86465 2.88956 6.20157C3.07564 6.65078 3.43254 7.00769 3.88176 7.19376C4.21867 7.33331 4.64578 7.33331 5.50001 7.33331Z" stroke="currentColor" stroke-width="1.5" stroke-linecap="round" stroke-linejoin="round"/>
</svg>
