<svg width="22" height="22" viewBox="0 0 22 22" fill="none" xmlns="http://www.w3.org/2000/svg">
<path d="M12.8333 18.3333C12.8333 19.3458 12.0125 20.1666 11 20.1666C9.98748 20.1666 9.16667 19.3458 9.16667 18.3333M12.8333 18.3333C12.8333 17.3208 12.0125 16.5 11 16.5M12.8333 18.3333H19.25M9.16667 18.3333C9.16667 17.3208 9.98748 16.5 11 16.5M9.16667 18.3333H2.75M11 16.5V12.8333M19.25 4.58331C19.25 6.1021 15.5563 7.33331 11 7.33331C6.44365 7.33331 2.75 6.1021 2.75 4.58331M19.25 4.58331C19.25 3.06453 15.5563 1.83331 11 1.83331C6.44365 1.83331 2.75 3.06453 2.75 4.58331M19.25 4.58331V10.0833C19.25 11.605 15.5833 12.8333 11 12.8333M2.75 4.58331V10.0833C2.75 11.605 6.41667 12.8333 11 12.8333" stroke="currentColor" stroke-width="1.5" stroke-linecap="round" stroke-linejoin="round"/>
</svg>
