<svg width="22" height="22" viewBox="0 0 22 22" fill="none" xmlns="http://www.w3.org/2000/svg">
<path d="M15.5833 18.3333H15.4C13.8599 18.3333 13.0898 18.3333 12.5015 18.0336C11.9841 17.7699 11.5634 17.3492 11.2997 16.8318C11 16.2435 11 15.4735 11 13.9333V8.06665C11 6.5265 11 5.75643 11.2997 5.16817C11.5634 4.65073 11.9841 4.23003 12.5015 3.96638C13.0898 3.66665 13.8599 3.66665 15.4 3.66665H15.5833M15.5833 18.3333C15.5833 19.3458 16.4041 20.1666 17.4167 20.1666C18.4292 20.1666 19.25 19.3458 19.25 18.3333C19.25 17.3208 18.4292 16.5 17.4167 16.5C16.4041 16.5 15.5833 17.3208 15.5833 18.3333ZM15.5833 3.66665C15.5833 4.67917 16.4041 5.49998 17.4167 5.49998C18.4292 5.49998 19.25 4.67917 19.25 3.66665C19.25 2.65412 18.4292 1.83331 17.4167 1.83331C16.4041 1.83331 15.5833 2.65412 15.5833 3.66665ZM6.41667 11L15.5833 11M6.41667 11C6.41667 12.0125 5.59586 12.8333 4.58333 12.8333C3.57081 12.8333 2.75 12.0125 2.75 11C2.75 9.98746 3.57081 9.16665 4.58333 9.16665C5.59586 9.16665 6.41667 9.98746 6.41667 11ZM15.5833 11C15.5833 12.0125 16.4041 12.8333 17.4167 12.8333C18.4292 12.8333 19.25 12.0125 19.25 11C19.25 9.98746 18.4292 9.16665 17.4167 9.16665C16.4041 9.16665 15.5833 9.98746 15.5833 11Z" stroke="currentColor" stroke-width="1.5" stroke-linecap="round" stroke-linejoin="round"/>
</svg>
