<svg width="22" height="22" viewBox="0 0 22 22" fill="none" xmlns="http://www.w3.org/2000/svg">
<path d="M10.0833 4.12498H16.775C17.8018 4.12498 18.3152 4.12498 18.7073 4.3248C19.0523 4.50057 19.3328 4.78103 19.5085 5.126C19.7083 5.51817 19.7083 6.03155 19.7083 7.05831V8.24998C19.7083 9.10421 19.7083 9.53132 19.5688 9.86823C19.3827 10.3175 19.0258 10.6744 18.5766 10.8604C18.2397 11 17.8126 11 16.9583 11M11.9167 17.875H5.22501C4.19825 17.875 3.68487 17.875 3.29269 17.6752C2.94773 17.4994 2.66727 17.2189 2.4915 16.874C2.29168 16.4818 2.29168 15.9684 2.29168 14.9416V13.75C2.29168 12.8958 2.29168 12.4686 2.43123 12.1317C2.6173 11.6825 2.97421 11.3256 3.42342 11.1395C3.76034 11 4.18745 11 5.04168 11M9.44168 13.2916H12.5583C12.815 13.2916 12.9434 13.2916 13.0414 13.2417C13.1277 13.1977 13.1978 13.1276 13.2417 13.0414C13.2917 12.9433 13.2917 12.815 13.2917 12.5583V9.44165C13.2917 9.18496 13.2917 9.05661 13.2417 8.95857C13.1978 8.87233 13.1277 8.80221 13.0414 8.75827C12.9434 8.70831 12.815 8.70831 12.5583 8.70831H9.44168C9.18499 8.70831 9.05664 8.70831 8.9586 8.75827C8.87236 8.80221 8.80224 8.87233 8.7583 8.95857C8.70834 9.05661 8.70834 9.18496 8.70834 9.44165V12.5583C8.70834 12.815 8.70834 12.9433 8.7583 13.0414C8.80224 13.1276 8.87236 13.1977 8.9586 13.2417C9.05664 13.2916 9.18499 13.2916 9.44168 13.2916ZM16.3167 20.1666H19.4333C19.69 20.1666 19.8184 20.1666 19.9164 20.1167C20.0027 20.0727 20.0728 20.0026 20.1167 19.9164C20.1667 19.8183 20.1667 19.69 20.1667 19.4333V16.3166C20.1667 16.06 20.1667 15.9316 20.1167 15.8336C20.0728 15.7473 20.0027 15.6772 19.9164 15.6333C19.8184 15.5833 19.69 15.5833 19.4333 15.5833H16.3167C16.06 15.5833 15.9316 15.5833 15.8336 15.6333C15.7474 15.6772 15.6772 15.7473 15.6333 15.8336C15.5833 15.9316 15.5833 16.06 15.5833 16.3166V19.4333C15.5833 19.69 15.5833 19.8183 15.6333 19.9164C15.6772 20.0026 15.7474 20.0727 15.8336 20.1167C15.9316 20.1666 16.06 20.1666 16.3167 20.1666ZM2.56668 6.41665H5.68334C5.94003 6.41665 6.06838 6.41665 6.16642 6.36669C6.25266 6.32275 6.32278 6.25263 6.36672 6.16639C6.41668 6.06835 6.41668 5.94 6.41668 5.68331V2.56665C6.41668 2.30996 6.41668 2.18161 6.36672 2.08357C6.32278 1.99733 6.25266 1.92721 6.16642 1.88327C6.06838 1.83331 5.94003 1.83331 5.68334 1.83331H2.56668C2.30999 1.83331 2.18164 1.83331 2.0836 1.88327C1.99736 1.92721 1.92724 1.99733 1.8833 2.08357C1.83334 2.18161 1.83334 2.30996 1.83334 2.56665V5.68331C1.83334 5.94 1.83334 6.06835 1.8833 6.16639C1.92724 6.25263 1.99736 6.32275 2.0836 6.36669C2.18164 6.41665 2.30999 6.41665 2.56668 6.41665Z" stroke="currentColor" stroke-width="1.5" stroke-linecap="round" stroke-linejoin="round"/>
</svg>
