<svg width="22" height="22" viewBox="0 0 22 22" fill="none" xmlns="http://www.w3.org/2000/svg">
<path d="M19.25 4.58334C19.25 6.10213 15.5563 7.33334 11 7.33334C6.44365 7.33334 2.75 6.10213 2.75 4.58334M19.25 4.58334C19.25 3.06456 15.5563 1.83334 11 1.83334C6.44365 1.83334 2.75 3.06456 2.75 4.58334M19.25 4.58334V17.4167C19.25 18.9383 15.5833 20.1667 11 20.1667C6.41667 20.1667 2.75 18.9383 2.75 17.4167V4.58334M19.25 8.91021C19.25 10.4319 15.5833 11.6602 11 11.6602C6.41667 11.6602 2.75 10.4319 2.75 8.91021M19.25 13.2367C19.25 14.7583 15.5833 15.9867 11 15.9867C6.41667 15.9867 2.75 14.7583 2.75 13.2367" stroke="currentColor" stroke-width="1.5" stroke-linecap="round" stroke-linejoin="round"/>
</svg>
