<svg width="22" height="22" viewBox="0 0 22 22" fill="none" xmlns="http://www.w3.org/2000/svg">
<path d="M11 3.66668V13.9333C11 15.4735 11 16.2436 11.2997 16.8318C11.5634 17.3493 11.9841 17.77 12.5015 18.0336C13.0898 18.3333 13.8599 18.3333 15.4 18.3333H15.5833M15.5833 18.3333C15.5833 19.3459 16.4041 20.1667 17.4167 20.1667C18.4292 20.1667 19.25 19.3459 19.25 18.3333C19.25 17.3208 18.4292 16.5 17.4167 16.5C16.4041 16.5 15.5833 17.3208 15.5833 18.3333ZM6.41667 3.66668L15.5833 3.66668M6.41667 3.66668C6.41667 4.6792 5.59586 5.50001 4.58333 5.50001C3.57081 5.50001 2.75 4.6792 2.75 3.66668C2.75 2.65415 3.57081 1.83334 4.58333 1.83334C5.59586 1.83334 6.41667 2.65415 6.41667 3.66668ZM15.5833 3.66668C15.5833 4.6792 16.4041 5.50001 17.4167 5.50001C18.4292 5.50001 19.25 4.6792 19.25 3.66668C19.25 2.65415 18.4292 1.83334 17.4167 1.83334C16.4041 1.83334 15.5833 2.65415 15.5833 3.66668ZM11 11H15.5833M15.5833 11C15.5833 12.0125 16.4041 12.8333 17.4167 12.8333C18.4292 12.8333 19.25 12.0125 19.25 11C19.25 9.98749 18.4292 9.16668 17.4167 9.16668C16.4041 9.16668 15.5833 9.98749 15.5833 11Z" stroke="currentColor" stroke-width="1.5" stroke-linecap="round" stroke-linejoin="round"/>
</svg>
