<svg width="22" height="22" viewBox="0 0 22 22" fill="none" xmlns="http://www.w3.org/2000/svg">
<path d="M19.25 5.06462C19.25 6.4695 15.5563 7.60837 11 7.60837C6.44365 7.60837 2.75 6.4695 2.75 5.06462M19.25 5.06462C19.25 3.65975 15.5563 2.52087 11 2.52087C6.44365 2.52087 2.75 3.65975 2.75 5.06462M19.25 5.06462V11M2.75 5.06462V16.9355C2.75 18.343 5.91667 19.5 10.5 19.5M10.5 11.6315C5.91667 11.6315 2.75 10.4745 2.75 9.06697M10.5 15.6335C5.91667 15.6335 2.75 14.4765 2.75 13.069" stroke="currentColor" stroke-width="1.5" stroke-linecap="round" stroke-linejoin="round"/>
<path d="M13 15.4954C13 15.4954 13.044 15.1926 14.3181 13.9397C15.5921 12.6868 17.6578 12.6868 18.9319 13.9397C19.3833 14.3836 19.6748 14.9253 19.8063 15.4954M13 15.4954V13.3565M13 15.4954H15.175M20.25 17.75C20.25 17.75 20.206 18.0527 18.9319 19.3057C17.6579 20.5586 15.5922 20.5586 14.3181 19.3057C13.8667 18.8618 13.5752 18.3201 13.4437 17.75M20.25 17.75V19.8889M20.25 17.75H18.075" stroke="currentColor" stroke-width="1.3" stroke-linecap="round" stroke-linejoin="round"/>
</svg>
