<svg width="22" height="22" viewBox="0 0 22 22" fill="none" xmlns="http://www.w3.org/2000/svg">
<path d="M14.6667 5.50001V4.76668C14.6667 3.73991 14.6667 3.22653 14.4668 2.83436C14.2911 2.4894 14.0106 2.20893 13.6656 2.03316C13.2735 1.83334 12.7601 1.83334 11.7333 1.83334H10.2667C9.2399 1.83334 8.72652 1.83334 8.33435 2.03316C7.98939 2.20893 7.70892 2.4894 7.53315 2.83436C7.33333 3.22653 7.33333 3.73991 7.33333 4.76668V5.50001M9.16667 10.5417V15.125M12.8333 10.5417V15.125M2.75 5.50001H19.25M17.4167 5.50001V15.7667C17.4167 17.3068 17.4167 18.0769 17.1169 18.6652C16.8533 19.1826 16.4326 19.6033 15.9151 19.8669C15.3269 20.1667 14.5568 20.1667 13.0167 20.1667H8.98333C7.44319 20.1667 6.67312 20.1667 6.08486 19.8669C5.56741 19.6033 5.14672 19.1826 4.88307 18.6652C4.58333 18.0769 4.58333 17.3068 4.58333 15.7667V5.50001" stroke="currentColor" stroke-width="1.5" stroke-linecap="round" stroke-linejoin="round"/>
</svg>
