<svg width="22" height="22" viewBox="0 0 22 22" fill="none" xmlns="http://www.w3.org/2000/svg">
<path d="M4.75 13.2625C3.05292 14.0111 2 15.0544 2 16.2083C2 18.4865 6.10406 20.3333 11.1667 20.3333C16.2293 20.3333 20.3333 18.4865 20.3333 16.2083C20.3333 15.0544 19.2804 14.0111 17.5833 13.2625M16.6667 7.5C16.6667 11.2251 12.5417 13 11.1667 15.75C9.79167 13 5.66667 11.2251 5.66667 7.5C5.66667 4.46243 8.1291 2 11.1667 2C14.2042 2 16.6667 4.46243 16.6667 7.5ZM12.0833 7.5C12.0833 8.00626 11.6729 8.41667 11.1667 8.41667C10.6604 8.41667 10.25 8.00626 10.25 7.5C10.25 6.99374 10.6604 6.58333 11.1667 6.58333C11.6729 6.58333 12.0833 6.99374 12.0833 7.5Z" stroke="currentColor" stroke-width="1.5" stroke-linecap="round" stroke-linejoin="round"/>
</svg>
