<svg width="22" height="22" viewBox="0 0 22 22" fill="none" xmlns="http://www.w3.org/2000/svg">
<path d="M12.8334 2.08041V5.86674C12.8334 6.38012 12.8334 6.63681 12.9333 6.8329C13.0211 7.00538 13.1614 7.14561 13.3339 7.2335C13.5299 7.33341 13.7866 7.33341 14.3 7.33341H18.0863M12.8334 15.5833H7.33335M14.6667 11.9167H7.33335M18.3334 9.15588V15.7667C18.3334 17.3068 18.3334 18.0769 18.0336 18.6651C17.77 19.1826 17.3493 19.6033 16.8318 19.8669C16.2436 20.1667 15.4735 20.1667 13.9334 20.1667H8.06669C6.52654 20.1667 5.75647 20.1667 5.16821 19.8669C4.65077 19.6033 4.23007 19.1826 3.96642 18.6651C3.66669 18.0769 3.66669 17.3068 3.66669 15.7667V6.23334C3.66669 4.6932 3.66669 3.92313 3.96642 3.33487C4.23007 2.81742 4.65077 2.39673 5.16821 2.13308C5.75647 1.83334 6.52654 1.83334 8.06669 1.83334H11.0108C11.6834 1.83334 12.0198 1.83334 12.3362 1.90933C12.6168 1.97669 12.8851 2.0878 13.1311 2.23858C13.4087 2.40865 13.6465 2.64646 14.1221 3.12207L17.0446 6.04461C17.5202 6.52023 17.758 6.75804 17.9281 7.03556C18.0789 7.28161 18.19 7.54986 18.2574 7.83046C18.3334 8.14695 18.3334 8.48326 18.3334 9.15588Z" stroke="currentColor" stroke-width="1.5" stroke-linecap="round" stroke-linejoin="round"/>
</svg>
