<svg width="22" height="22" viewBox="0 0 22 22" fill="none" xmlns="http://www.w3.org/2000/svg">
<path fill-rule="evenodd" clip-rule="evenodd" d="M8.5 7C7.67 7 7 7.67 7 8.5C7 9.33 7.67 10 8.5 10C9.33 10 10 9.33 10 8.5C10 7.67 9.33 7 8.5 7ZM8.5 12C7.67 12 7 12.67 7 13.5C7 14.33 7.67 15 8.5 15C9.33 15 10 14.33 10 13.5C10 12.67 9.33 12 8.5 12ZM8.5 17C7.67 17 7 17.67 7 18.5C7 19.33 7.67 20 8.5 20C9.33 20 10 19.33 10 18.5C10 17.67 9.33 17 8.5 17ZM13.5 5C14.33 5 15 4.33 15 3.5C15 2.67 14.33 2 13.5 2C12.67 2 12 2.67 12 3.5C12 4.33 12.67 5 13.5 5ZM8.5 2C7.67 2 7 2.67 7 3.5C7 4.33 7.67 5 8.5 5C9.33 5 10 4.33 10 3.5C10 2.67 9.33 2 8.5 2ZM13.5 12C12.67 12 12 12.67 12 13.5C12 14.33 12.67 15 13.5 15C14.33 15 15 14.33 15 13.5C15 12.67 14.33 12 13.5 12ZM13.5 17C12.67 17 12 17.67 12 18.5C12 19.33 12.67 20 13.5 20C14.33 20 15 19.33 15 18.5C15 17.67 14.33 17 13.5 17ZM13.5 7C12.67 7 12 7.67 12 8.5C12 9.33 12.67 10 13.5 10C14.33 10 15 9.33 15 8.5C15 7.67 14.33 7 13.5 7Z" fill="currentColor"/>
</svg>
