<svg width="22" height="22" viewBox="0 0 22 22" fill="none" xmlns="http://www.w3.org/2000/svg">
<path d="M14.6667 14.6666V17.2333C14.6667 18.2601 14.6667 18.7735 14.4669 19.1656C14.2911 19.5106 14.0106 19.7911 13.6657 19.9668C13.2735 20.1666 12.7601 20.1666 11.7333 20.1666H4.76668C3.73991 20.1666 3.22653 20.1666 2.83436 19.9668C2.4894 19.7911 2.20893 19.5106 2.03316 19.1656C1.83334 18.7735 1.83334 18.2601 1.83334 17.2333V10.2666C1.83334 9.23988 1.83334 8.7265 2.03316 8.33433C2.20893 7.98937 2.4894 7.7089 2.83436 7.53313C3.22653 7.33331 3.73991 7.33331 4.76668 7.33331H7.33334M10.2667 14.6666H17.2333C18.2601 14.6666 18.7735 14.6666 19.1657 14.4668C19.5106 14.2911 19.7911 14.0106 19.9669 13.6656C20.1667 13.2735 20.1667 12.7601 20.1667 11.7333V4.76665C20.1667 3.73988 20.1667 3.2265 19.9669 2.83433C19.7911 2.48937 19.5106 2.2089 19.1657 2.03313C18.7735 1.83331 18.2601 1.83331 17.2333 1.83331H10.2667C9.23991 1.83331 8.72653 1.83331 8.33436 2.03313C7.9894 2.2089 7.70893 2.48937 7.53316 2.83433C7.33334 3.2265 7.33334 3.73988 7.33334 4.76665V11.7333C7.33334 12.7601 7.33334 13.2735 7.53316 13.6656C7.70893 14.0106 7.9894 14.2911 8.33436 14.4668C8.72653 14.6666 9.23991 14.6666 10.2667 14.6666Z" stroke="currentColor" stroke-width="1.5" stroke-linecap="round" stroke-linejoin="round"/>
</svg>
