<svg width="22" height="22" viewBox="0 0 22 22" fill="none" xmlns="http://www.w3.org/2000/svg">
<path d="M19.25 19.25H11.9167M2.29164 19.7083L7.37847 17.7519C7.70383 17.6267 7.86651 17.5641 8.01872 17.4824C8.15391 17.4099 8.28279 17.3261 8.40401 17.2321C8.54049 17.1262 8.66373 17.0029 8.91023 16.7564L19.25 6.41666C20.2625 5.40414 20.2625 3.76252 19.25 2.74999C18.2375 1.73747 16.5959 1.73747 15.5833 2.74999L5.24357 13.0897C4.99707 13.3362 4.87382 13.4595 4.76792 13.596C4.67385 13.7172 4.59009 13.8461 4.51752 13.9813C4.43582 14.1335 4.37325 14.2961 4.24811 14.6215L2.29164 19.7083ZM2.29164 19.7083L4.17825 14.8032C4.31326 14.4522 4.38076 14.2767 4.49654 14.1963C4.59772 14.126 4.72292 14.0995 4.84391 14.1226C4.98236 14.149 5.11533 14.282 5.38125 14.5479L7.45208 16.6187C7.71801 16.8847 7.85097 17.0176 7.87741 17.1561C7.90051 17.2771 7.87395 17.4023 7.80369 17.5035C7.7233 17.6192 7.5478 17.6867 7.19679 17.8217L2.29164 19.7083Z" stroke="currentColor" stroke-width="1.5" stroke-linecap="round" stroke-linejoin="round"/>
</svg>
