<svg width="22" height="22" viewBox="0 0 22 22" fill="none" xmlns="http://www.w3.org/2000/svg">
<path d="M8.25 11L10.0833 12.8333L14.2083 8.70834M16.4094 4.58197C16.5982 5.0385 16.9605 5.40138 17.4167 5.59083L19.0165 6.25349C19.473 6.4426 19.8357 6.80534 20.0248 7.2619C20.2139 7.71846 20.2139 8.23144 20.0248 8.688L19.3627 10.2867C19.1735 10.7434 19.1732 11.2569 19.3633 11.7135L20.0243 13.3117C20.118 13.5378 20.1663 13.7802 20.1663 14.025C20.1664 14.2698 20.1182 14.5122 20.0245 14.7383C19.9308 14.9645 19.7935 15.17 19.6204 15.343C19.4473 15.5161 19.2418 15.6533 19.0156 15.7469L17.417 16.4091C16.9605 16.5979 16.5976 16.9602 16.4082 17.4165L15.7455 19.0163C15.5564 19.4728 15.1937 19.8356 14.7372 20.0247C14.2806 20.2138 13.7677 20.2138 13.3111 20.0247L11.7125 19.3625C11.256 19.1739 10.7432 19.1742 10.2869 19.3636L8.68715 20.0253C8.23086 20.214 7.71834 20.2138 7.26217 20.0248C6.806 19.8359 6.44348 19.4736 6.25424 19.0175L5.59141 17.4172C5.40265 16.9607 5.04033 16.5978 4.58411 16.4084L2.98436 15.7457C2.52801 15.5567 2.1654 15.1942 1.97622 14.7379C1.78705 14.2816 1.78679 13.7688 1.97551 13.3123L2.63767 11.7137C2.82631 11.2571 2.82593 10.7443 2.6366 10.288L1.97539 8.68706C1.88164 8.46093 1.83337 8.21855 1.83333 7.97376C1.83329 7.72896 1.88149 7.48656 1.97516 7.26041C2.06884 7.03425 2.20615 6.82877 2.37927 6.6557C2.55238 6.48263 2.7579 6.34538 2.98408 6.25177L4.58269 5.58958C5.0388 5.40098 5.40144 5.03911 5.59103 4.5834L6.25367 2.98359C6.44277 2.52703 6.80549 2.16429 7.26204 1.97518C7.71858 1.78607 8.23154 1.78607 8.68809 1.97518L10.2867 2.63737C10.7432 2.82601 11.256 2.82563 11.7123 2.63629L13.3127 1.97621C13.7692 1.7872 14.2821 1.78724 14.7385 1.97631C15.195 2.16539 15.5576 2.52802 15.7468 2.98446L16.4096 4.58475L16.4094 4.58197Z" stroke="currentColor" stroke-width="1.5" stroke-linecap="round" stroke-linejoin="round"/>
</svg>
