<svg width="22" height="22" viewBox="0 0 22 22" fill="none" xmlns="http://www.w3.org/2000/svg">
<path d="M19.7083 16.5L13.619 11M8.38095 11L2.2917 16.5M1.83334 6.41666L9.31784 11.6558C9.92392 12.0801 10.227 12.2922 10.5566 12.3744C10.8477 12.4469 11.1523 12.4469 11.4434 12.3744C11.773 12.2922 12.0761 12.0801 12.6822 11.6558L20.1667 6.41666M6.23334 18.3333H15.7667C17.3068 18.3333 18.0769 18.3333 18.6651 18.0336C19.1826 17.7699 19.6033 17.3492 19.8669 16.8318C20.1667 16.2435 20.1667 15.4735 20.1667 13.9333V8.06666C20.1667 6.52651 20.1667 5.75644 19.8669 5.16818C19.6033 4.65074 19.1826 4.23004 18.6651 3.96639C18.0769 3.66666 17.3068 3.66666 15.7667 3.66666H6.23334C4.69319 3.66666 3.92312 3.66666 3.33486 3.96639C2.81742 4.23004 2.39672 4.65074 2.13307 5.16818C1.83334 5.75644 1.83334 6.52651 1.83334 8.06666V13.9333C1.83334 15.4735 1.83334 16.2435 2.13307 16.8318C2.39672 17.3492 2.81742 17.7699 3.33486 18.0336C3.92312 18.3333 4.69319 18.3333 6.23334 18.3333Z" stroke="currentColor" stroke-width="1.5" stroke-linecap="round" stroke-linejoin="round"/>
</svg>
