<svg width="22" height="22" viewBox="0 0 22 22" fill="none" xmlns="http://www.w3.org/2000/svg">
<path d="M9.8477 4.66796C10.2202 4.61288 10.6046 4.58333 11.0004 4.58333C15.68 4.58333 18.7507 8.71277 19.7823 10.3463C19.9072 10.544 19.9696 10.6428 20.0045 10.7953C20.0308 10.9098 20.0308 11.0904 20.0045 11.2049C19.9695 11.3574 19.9067 11.4569 19.7809 11.6559C19.5061 12.091 19.087 12.7023 18.5318 13.3654M6.16396 6.15545C4.18206 7.49989 2.83658 9.36776 2.21935 10.3448C2.09393 10.5434 2.03122 10.6427 1.99626 10.7951C1.97001 10.9096 1.97 11.0902 1.99624 11.2047C2.03118 11.3572 2.0936 11.4561 2.21846 11.6537C3.25008 13.2872 6.32079 17.4167 11.0004 17.4167C12.8873 17.4167 14.5126 16.7453 15.8481 15.8369M2.75038 2.75L19.2504 19.25M9.05584 9.05546C8.55818 9.55311 8.25038 10.2406 8.25038 11C8.25038 12.5188 9.4816 13.75 11.0004 13.75C11.7598 13.75 12.4473 13.4422 12.9449 12.9445" stroke="currentColor" stroke-width="1.5" stroke-linecap="round" stroke-linejoin="round"/>
</svg>
