<svg width="22" height="22" viewBox="0 0 22 22" fill="none" xmlns="http://www.w3.org/2000/svg">
<path d="M2.21845 11.6538C2.09361 11.4561 2.03119 11.3573 1.99625 11.2048C1.97 11.0903 1.97 10.9097 1.99625 10.7952C2.03119 10.6428 2.09361 10.5439 2.21845 10.3463C3.25007 8.71278 6.32078 4.58334 11.0004 4.58334C15.68 4.58334 18.7507 8.71278 19.7823 10.3463C19.9071 10.5439 19.9696 10.6428 20.0045 10.7952C20.0307 10.9097 20.0307 11.0903 20.0045 11.2048C19.9696 11.3573 19.9071 11.4561 19.7823 11.6538C18.7507 13.2872 15.68 17.4167 11.0004 17.4167C6.32078 17.4167 3.25007 13.2872 2.21845 11.6538Z" stroke="currentColor" stroke-width="1.5" stroke-linecap="round" stroke-linejoin="round"/>
<path d="M11.0004 13.75C12.5192 13.75 13.7504 12.5188 13.7504 11C13.7504 9.48123 12.5192 8.25001 11.0004 8.25001C9.48159 8.25001 8.25037 9.48123 8.25037 11C8.25037 12.5188 9.48159 13.75 11.0004 13.75Z" stroke="currentColor" stroke-width="1.5" stroke-linecap="round" stroke-linejoin="round"/>
</svg>
