<svg width="22" height="22" viewBox="0 0 22 22" fill="none" xmlns="http://www.w3.org/2000/svg">
<path d="M11.9166 6.41667L10.8941 4.37151C10.5998 3.7829 10.4526 3.48859 10.2331 3.27357C10.0389 3.08342 9.80494 2.93881 9.54805 2.8502C9.25755 2.75 8.9285 2.75 8.27041 2.75H4.76665C3.73988 2.75 3.2265 2.75 2.83433 2.94982C2.48937 3.12559 2.2089 3.40605 2.03313 3.75102C1.83331 4.14319 1.83331 4.65657 1.83331 5.68333V6.41667M1.83331 6.41667H15.7666C17.3068 6.41667 18.0769 6.41667 18.6651 6.7164C19.1826 6.98005 19.6033 7.40075 19.8669 7.91819C20.1666 8.50645 20.1666 9.27652 20.1666 10.8167V14.85C20.1666 16.3901 20.1666 17.1602 19.8669 17.7485C19.6033 18.2659 19.1826 18.6866 18.6651 18.9503C18.0769 19.25 17.3068 19.25 15.7666 19.25H6.23331C4.69317 19.25 3.9231 19.25 3.33484 18.9503C2.81739 18.6866 2.3967 18.2659 2.13305 17.7485C1.83331 17.1602 1.83331 16.3901 1.83331 14.85V6.41667Z" stroke="currentColor" stroke-width="1.5" stroke-linecap="round" stroke-linejoin="round"/>
</svg>
