<svg width="22" height="22" viewBox="0 0 22 22" fill="none" xmlns="http://www.w3.org/2000/svg">
<path d="M14.6667 16.5L17.4167 13.75M17.4167 13.75L20.1667 16.5M17.4167 13.75V19.25M11 14.2083H6.875C5.59573 14.2083 4.9561 14.2083 4.43562 14.3662C3.26375 14.7217 2.3467 15.6388 1.99122 16.8106C1.83333 17.3311 1.83333 17.9707 1.83333 19.25M13.2917 6.875C13.2917 9.15317 11.4448 11 9.16667 11C6.88849 11 5.04167 9.15317 5.04167 6.875C5.04167 4.59683 6.88849 2.75 9.16667 2.75C11.4448 2.75 13.2917 4.59683 13.2917 6.875Z" stroke="currentColor" stroke-width="1.5" stroke-linecap="round" stroke-linejoin="round"/>
</svg>
