<svg width="22" height="22" viewBox="0 0 22 22" fill="none" xmlns="http://www.w3.org/2000/svg">
<path d="M11 14.2083H6.87498C5.59571 14.2083 4.95608 14.2083 4.4356 14.3662C3.26373 14.7217 2.34668 15.6388 1.9912 16.8106C1.83331 17.3311 1.83331 17.9707 1.83331 19.25M14.6666 16.5L17.4166 19.25M17.4166 19.25L20.1666 16.5M17.4166 19.25V13.75M13.2916 6.875C13.2916 9.15317 11.4448 11 9.16665 11C6.88847 11 5.04165 9.15317 5.04165 6.875C5.04165 4.59683 6.88847 2.75 9.16665 2.75C11.4448 2.75 13.2916 4.59683 13.2916 6.875Z" stroke="currentColor" stroke-width="1.5" stroke-linecap="round" stroke-linejoin="round"/>
</svg>
