<svg width="22" height="22" viewBox="0 0 22 22" fill="none" xmlns="http://www.w3.org/2000/svg">
<path d="M11 5.50001V20.1667M11 5.50001H7.75893C7.28138 5.50001 6.82339 5.30686 6.48572 4.96304C6.14804 4.61922 5.95833 4.15291 5.95833 3.66668C5.95833 3.18045 6.14804 2.71413 6.48572 2.37031C6.82339 2.0265 7.28138 1.83334 7.75893 1.83334C10.2798 1.83334 11 5.50001 11 5.50001ZM11 5.50001H14.2411C14.7186 5.50001 15.1766 5.30686 15.5143 4.96304C15.852 4.61922 16.0417 4.15291 16.0417 3.66668C16.0417 3.18045 15.852 2.71413 15.5143 2.37031C15.1766 2.0265 14.7186 1.83334 14.2411 1.83334C11.7202 1.83334 11 5.50001 11 5.50001ZM18.3333 10.0833V17.2333C18.3333 18.2601 18.3333 18.7735 18.1335 19.1657C17.9577 19.5106 17.6773 19.7911 17.3323 19.9669C16.9401 20.1667 16.4268 20.1667 15.4 20.1667L6.6 20.1667C5.57324 20.1667 5.05986 20.1667 4.66768 19.9669C4.32272 19.7911 4.04226 19.5106 3.86649 19.1657C3.66667 18.7735 3.66667 18.2601 3.66667 17.2333V10.0833M1.83333 6.96668L1.83333 8.61668C1.83333 9.13006 1.83333 9.38675 1.93324 9.58283C2.02113 9.75532 2.16136 9.89555 2.33384 9.98343C2.52993 10.0833 2.78662 10.0833 3.3 10.0833L18.7 10.0833C19.2134 10.0833 19.4701 10.0833 19.6662 9.98343C19.8386 9.89555 19.9789 9.75532 20.0668 9.58283C20.1667 9.38675 20.1667 9.13006 20.1667 8.61668V6.96668C20.1667 6.4533 20.1667 6.1966 20.0668 6.00052C19.9789 5.82804 19.8386 5.68781 19.6662 5.59992C19.4701 5.50001 19.2134 5.50001 18.7 5.50001L3.3 5.50001C2.78662 5.50001 2.52993 5.50001 2.33384 5.59992C2.16136 5.6878 2.02113 5.82804 1.93324 6.00052C1.83333 6.1966 1.83333 6.4533 1.83333 6.96668Z" stroke="currentColor" stroke-width="1.5" stroke-linecap="round" stroke-linejoin="round"/>
</svg>
