<svg width="22" height="22" viewBox="0 0 22 22" fill="none" xmlns="http://www.w3.org/2000/svg">
<path d="M16.5 13.75C14.9812 13.75 13.75 14.9812 13.75 16.5C13.75 18.0188 14.9812 19.25 16.5 19.25C18.0188 19.25 19.25 18.0188 19.25 16.5C19.25 14.9812 18.0188 13.75 16.5 13.75ZM16.5 13.75V7.33333C16.5 6.8471 16.3068 6.38079 15.963 6.03697C15.6192 5.69315 15.1529 5.5 14.6667 5.5H11.9167M5.5 8.25C7.01878 8.25 8.25 7.01878 8.25 5.5C8.25 3.98122 7.01878 2.75 5.5 2.75C3.98122 2.75 2.75 3.98122 2.75 5.5C2.75 7.01878 3.98122 8.25 5.5 8.25ZM5.5 8.25V19.25" stroke="currentColor" stroke-width="1.5" stroke-linecap="round" stroke-linejoin="round"/>
</svg>
