<svg width="22" height="22" viewBox="0 0 22 22" fill="none" xmlns="http://www.w3.org/2000/svg">
<path d="M5.5 2.75V13.75M5.5 13.75C3.98122 13.75 2.75 14.9812 2.75 16.5C2.75 18.0188 3.98122 19.25 5.5 19.25C7.01878 19.25 8.25 18.0188 8.25 16.5M5.5 13.75C7.01878 13.75 8.25 14.9812 8.25 16.5M16.5 8.25C18.0188 8.25 19.25 7.01878 19.25 5.5C19.25 3.98122 18.0188 2.75 16.5 2.75C14.9812 2.75 13.75 3.98122 13.75 5.5C13.75 7.01878 14.9812 8.25 16.5 8.25ZM16.5 8.25C16.5 10.438 15.6308 12.5365 14.0836 14.0836C12.5365 15.6308 10.438 16.5 8.25 16.5" stroke="currentColor" stroke-width="1.5" stroke-linecap="round" stroke-linejoin="round"/>
</svg>
