<svg width="22" height="22" viewBox="0 0 22 22" fill="none" xmlns="http://www.w3.org/2000/svg">
<path d="M5.5 2.75V13.75M5.5 13.75C3.98122 13.75 2.75 14.9812 2.75 16.5C2.75 18.0188 3.98122 19.25 5.5 19.25C7.01878 19.25 8.25 18.0188 8.25 16.5M5.5 13.75C7.01878 13.75 8.25 14.9812 8.25 16.5M16.5 9.5C16 11.5 15.6308 12.5365 14.0836 14.0836C12.5365 15.6308 10.438 16.5 8.25 16.5" stroke="currentColor" stroke-width="1.5" stroke-linecap="round" stroke-linejoin="round"/>
<path fill-rule="evenodd" clip-rule="evenodd" d="M18.5 4H17.5V3C17.5 2.45 17.05 2 16.5 2C15.95 2 15.5 2.45 15.5 3V4H14.5C13.95 4 13.5 4.45 13.5 5C13.5 5.55 13.95 6 14.5 6H15.5V7C15.5 7.55 15.95 8 16.5 8C17.05 8 17.5 7.55 17.5 7V6H18.5C19.05 6 19.5 5.55 19.5 5C19.5 4.45 19.05 4 18.5 4Z" fill="currentColor"/>
</svg>
