<svg width="22" height="22" viewBox="0 0 22 22" fill="none" xmlns="http://www.w3.org/2000/svg">
<path fill-rule="evenodd" clip-rule="evenodd" d="M12.3477 7.82389C12.6405 8.11679 13.1154 8.11679 13.4083 7.82389C13.7012 7.531 13.7012 7.05613 13.4083 6.76323L12.4169 5.7718H15.3768C15.6599 5.7718 15.9314 5.88426 16.1316 6.08444C16.3318 6.28462 16.4442 6.55613 16.4442 6.83922V12.5313C14.8849 12.8742 13.7181 14.264 13.7181 15.9263C13.7181 17.8462 15.2744 19.4025 17.1942 19.4025C19.114 19.4025 20.6704 17.8462 20.6704 15.9263C20.6704 14.264 19.5035 12.8742 17.9442 12.5313V6.83922C17.9442 6.1583 17.6737 5.50527 17.1922 5.02378C16.7108 4.54229 16.0577 4.2718 15.3768 4.2718H12.4168L13.4083 3.28033C13.7012 2.98744 13.7012 2.51256 13.4083 2.21967C13.1154 1.92678 12.6405 1.92678 12.3477 2.21967L10.0759 4.49145C9.78298 4.78434 9.78298 5.25922 10.0759 5.55211L12.3477 7.82389ZM15.2181 15.9263C15.2181 14.835 16.1028 13.9502 17.1942 13.9502C18.2856 13.9502 19.1704 14.835 19.1704 15.9263C19.1704 17.0177 18.2856 17.9025 17.1942 17.9025C16.1028 17.9025 15.2181 17.0177 15.2181 15.9263Z" fill="currentColor"/>
<path fill-rule="evenodd" clip-rule="evenodd" d="M8.89124 13.5786C8.59835 13.2857 8.12347 13.2857 7.83058 13.5786C7.53769 13.8715 7.53769 14.3464 7.83058 14.6393L8.82197 15.6307H6.29355C6.01045 15.6307 5.73895 15.5182 5.53877 15.318C5.33859 15.1179 5.22613 14.8464 5.22613 14.5633V8.87116C6.78543 8.52825 7.95226 7.13846 7.95226 5.47614C7.95226 3.55632 6.39594 2 4.47613 2C2.55631 2 0.999989 3.55632 0.999989 5.47614C0.999989 7.13846 2.16682 8.52825 3.72613 8.87116V14.5633C3.72613 15.2442 3.99662 15.8972 4.47811 16.3787C4.95959 16.8602 5.61263 17.1307 6.29355 17.1307H8.82209L7.83058 18.1222C7.53769 18.4151 7.53769 18.89 7.83058 19.1829C8.12347 19.4758 8.59835 19.4758 8.89124 19.1829L11.163 16.9111C11.4559 16.6182 11.4559 16.1433 11.163 15.8504L8.89124 13.5786ZM6.45226 5.47614C6.45226 6.56753 5.56752 7.45228 4.47613 7.45228C3.38474 7.45228 2.49999 6.56753 2.49999 5.47614C2.49999 4.38475 3.38474 3.5 4.47613 3.5C5.56752 3.5 6.45226 4.38475 6.45226 5.47614Z" fill="currentColor"/>
</svg>
