<svg width="22" height="22" viewBox="0 0 22 22" fill="none" xmlns="http://www.w3.org/2000/svg">
<path d="M7.85504 16.7988C7.85504 16.8773 7.76694 16.9402 7.65585 16.9402C7.52944 16.952 7.44133 16.8891 7.44133 16.7988C7.44133 16.7202 7.52944 16.6573 7.64052 16.6573C7.75544 16.6455 7.85504 16.7084 7.85504 16.7988ZM6.66371 16.622C6.6369 16.7006 6.71351 16.7909 6.82843 16.8145C6.92802 16.8538 7.04294 16.8145 7.06593 16.7359C7.08891 16.6573 7.01613 16.567 6.90121 16.5316C6.80161 16.5041 6.69052 16.5434 6.66371 16.622ZM8.35685 16.5552C8.24577 16.5827 8.16915 16.6573 8.18064 16.7477C8.19214 16.8263 8.29173 16.8773 8.40665 16.8498C8.51774 16.8223 8.59435 16.7477 8.58286 16.6691C8.57137 16.5945 8.46794 16.5434 8.35685 16.5552ZM10.8774 1.5C5.56431 1.5 1.5 5.63703 1.5 11.0863C1.5 15.4433 4.17379 19.1718 7.99294 20.484C8.48327 20.5744 8.65565 20.264 8.65565 20.0086C8.65565 19.765 8.64415 18.4214 8.64415 17.5963C8.64415 17.5963 5.9627 18.1856 5.3996 16.4255C5.3996 16.4255 4.9629 15.2823 4.33468 14.9876C4.33468 14.9876 3.45746 14.3708 4.39597 14.3826C4.39597 14.3826 5.3498 14.4611 5.8746 15.3962C6.71351 16.9127 8.11936 16.4766 8.66714 16.2173C8.75524 15.5887 9.00423 15.1526 9.28004 14.8933C7.13871 14.6497 4.97823 14.3315 4.97823 10.552C4.97823 9.47155 5.26936 8.92937 5.88226 8.2379C5.78266 7.98253 5.45706 6.92961 5.98185 5.57024C6.78246 5.31487 8.625 6.63102 8.625 6.63102C9.39113 6.41101 10.2147 6.29707 11.0306 6.29707C11.8466 6.29707 12.6702 6.41101 13.4363 6.63102C13.4363 6.63102 15.2788 5.31094 16.0794 5.57024C16.6042 6.93354 16.2786 7.98253 16.179 8.2379C16.7919 8.9333 17.1673 9.47548 17.1673 10.552C17.1673 14.3433 14.9111 14.6458 12.7698 14.8933C13.1222 15.2037 13.421 15.793 13.421 16.7163C13.421 18.0403 13.4095 19.6786 13.4095 20.0007C13.4095 20.2561 13.5857 20.5665 14.0722 20.4761C17.9028 19.1718 20.5 15.4433 20.5 11.0863C20.5 5.63703 16.1905 1.5 10.8774 1.5ZM5.22339 15.0505C5.17359 15.0897 5.18508 15.1801 5.2502 15.2548C5.31149 15.3176 5.3996 15.3451 5.4494 15.294C5.49919 15.2548 5.4877 15.1644 5.42258 15.0897C5.36129 15.0269 5.27319 14.9994 5.22339 15.0505ZM4.80968 14.7322C4.78286 14.7833 4.82117 14.8462 4.89778 14.8854C4.95907 14.9247 5.03569 14.9129 5.0625 14.8579C5.08931 14.8069 5.05101 14.744 4.9744 14.7047C4.89778 14.6811 4.83649 14.6929 4.80968 14.7322ZM6.05081 16.1309C5.98952 16.1819 6.0125 16.2998 6.10061 16.3745C6.18871 16.4648 6.2998 16.4766 6.3496 16.4137C6.39939 16.3627 6.37641 16.2448 6.2998 16.1702C6.21552 16.0798 6.10061 16.068 6.05081 16.1309ZM5.61411 15.5533C5.55282 15.5926 5.55282 15.6948 5.61411 15.7851C5.6754 15.8755 5.77883 15.9148 5.82863 15.8755C5.88992 15.8244 5.88992 15.7223 5.82863 15.6319C5.775 15.5416 5.6754 15.5023 5.61411 15.5533Z" fill="currentColor"/>
</svg>
