<svg width="22" height="22" viewBox="0 0 22 22" fill="none" xmlns="http://www.w3.org/2000/svg">
<path d="M2.81966 6.85926L6.75037 9.66686C6.9549 9.81295 7.05717 9.886 7.1642 9.90283C7.25837 9.91764 7.35482 9.90271 7.44012 9.86013C7.53706 9.81174 7.61246 9.7112 7.76327 9.51012L8.59386 8.40265C8.63651 8.34579 8.65783 8.31736 8.6829 8.29283C8.70515 8.27105 8.72957 8.2516 8.75577 8.23477C8.78527 8.21582 8.81775 8.20139 8.8827 8.17252L12.4289 6.59643C12.5759 6.53109 12.6494 6.49842 12.7048 6.44741C12.7539 6.40228 12.7924 6.34701 12.8179 6.28545C12.8467 6.21584 12.8521 6.13559 12.8628 5.97508L13.1224 2.0803M12.375 12.375L14.773 13.4027C15.0512 13.522 15.1904 13.5816 15.264 13.6806C15.3287 13.7675 15.3605 13.8745 15.3538 13.9826C15.3462 14.1058 15.2622 14.2317 15.0943 14.4835L13.9677 16.1735C13.8881 16.2929 13.8483 16.3526 13.7957 16.3958C13.7492 16.434 13.6956 16.4627 13.6379 16.4802C13.5728 16.5 13.501 16.5 13.3575 16.5H11.5286C11.3385 16.5 11.2435 16.5 11.1626 16.4682C11.0912 16.4401 11.028 16.3946 10.9788 16.3357C10.923 16.2691 10.893 16.1789 10.8329 15.9986L10.1794 14.0382C10.1439 13.9318 10.1262 13.8787 10.1216 13.8246C10.1174 13.7767 10.1209 13.7284 10.1317 13.6816C10.144 13.6287 10.1691 13.5786 10.2192 13.4783L10.7156 12.4855C10.8164 12.2838 10.8669 12.183 10.9445 12.1204C11.013 12.0652 11.0959 12.0309 11.1833 12.0215C11.2825 12.0108 11.3894 12.0465 11.6034 12.1178L12.375 12.375ZM20.1667 11C20.1667 16.0626 16.0626 20.1667 11 20.1667C5.9374 20.1667 1.83334 16.0626 1.83334 11C1.83334 5.9374 5.9374 1.83334 11 1.83334C16.0626 1.83334 20.1667 5.9374 20.1667 11Z" stroke="currentColor" stroke-width="1.5" stroke-linecap="round" stroke-linejoin="round"/>
</svg>
