<svg width="22" height="22" viewBox="0 0 22 22" fill="none" xmlns="http://www.w3.org/2000/svg">
<path d="M1.83334 11H20.1667M1.83334 11C1.83334 16.0626 5.9374 20.1667 11 20.1667M1.83334 11C1.83334 5.9374 5.9374 1.83334 11 1.83334M20.1667 11C20.1667 16.0626 16.0626 20.1667 11 20.1667M20.1667 11C20.1667 5.9374 16.0626 1.83334 11 1.83334M11 1.83334C13.2928 4.3435 14.5959 7.60104 14.6667 11C14.5959 14.399 13.2928 17.6565 11 20.1667M11 1.83334C8.70717 4.3435 7.40415 7.60104 7.33334 11C7.40415 14.399 8.70717 17.6565 11 20.1667" stroke="currentColor" stroke-width="1.5" stroke-linecap="round" stroke-linejoin="round"/>
</svg>
