<svg width="22" height="22" viewBox="0 0 22 22" fill="none" xmlns="http://www.w3.org/2000/svg">
<path d="M13 1H7.8C6.11984 1 5.27976 1 4.63803 1.32698C4.07354 1.6146 3.6146 2.07354 3.32698 2.63803C3 3.27976 3 4.11984 3 5.8V16.2C3 17.8802 3 18.7202 3.32698 19.362C3.6146 19.9265 4.07354 20.3854 4.63803 20.673C5.27976 21 6.11984 21 7.8 21H14.2C15.8802 21 16.7202 21 17.362 20.673C17.9265 20.3854 18.3854 19.9265 18.673 19.362C19 18.7202 19 17.8802 19 16.2V7M13 1L19 7M13 1V7H19M11 17C11 17 14 15.5701 14 13.4252V10.9229L11.8124 10.1412C11.2868 9.95293 10.712 9.95293 10.1864 10.1412L8 10.9229V13.4252C8 15.5701 11 17 11 17Z" stroke="currentColor" stroke-width="1.5" stroke-linecap="round" stroke-linejoin="round"/>
</svg>
