<svg width="22" height="22" viewBox="0 0 22 22" fill="none" xmlns="http://www.w3.org/2000/svg">
<path d="M18.3334 9.99998V7.51665C18.3334 6.53224 18.3334 6.04004 18.1816 5.69065C18.0274 5.33553 17.8737 5.14662 17.5574 4.92331C17.2463 4.7036 16.6363 4.57674 15.4162 4.323C14.0716 4.04334 13.0389 3.53835 12.0949 2.80802C11.6422 2.45781 11.4158 2.2827 11.2387 2.23494C11.0518 2.18454 10.9483 2.18454 10.7614 2.23494C10.5842 2.2827 10.3579 2.45781 9.90517 2.80802C8.9611 3.53835 7.92845 4.04334 6.5838 4.323C5.36378 4.57674 4.75377 4.7036 4.4426 4.92331C4.12632 5.14662 3.97266 5.33553 3.81843 5.69065C3.66669 6.04004 3.66669 6.53224 3.66669 7.51665V11C3.66669 15.4994 8.57449 18.7718 10.3602 19.8136C10.5631 19.932 10.6646 19.9912 10.8078 20.0219C10.9189 20.0458 11.0811 20.0458 11.1922 20.0219C11.3354 19.9912 11.4369 19.932 11.6398 19.8136" stroke="currentColor" stroke-width="1.5" stroke-linecap="round" stroke-linejoin="round"/>
<path d="M19.25 19.25L17.4778 17.4778M18.4352 15.1759C18.4352 16.976 16.976 18.4352 15.1759 18.4352C13.3759 18.4352 11.9167 16.976 11.9167 15.1759C11.9167 13.3759 13.3759 11.9167 15.1759 11.9167C16.976 11.9167 18.4352 13.3759 18.4352 15.1759Z" stroke="currentColor" stroke-width="1.5" stroke-linecap="round" stroke-linejoin="round"/>
</svg>
