<svg width="22" height="22" viewBox="0 0 22 22" fill="none" xmlns="http://www.w3.org/2000/svg">
<path d="M8.25 19.25V12.4667C8.25 11.9533 8.25 11.6966 8.34991 11.5005C8.43779 11.328 8.57803 11.1878 8.75051 11.0999C8.94659 11 9.20329 11 9.71667 11H12.2833C12.7967 11 13.0534 11 13.2495 11.0999C13.422 11.1878 13.5622 11.328 13.6501 11.5005C13.75 11.6966 13.75 11.9533 13.75 12.4667V19.25M10.0996 2.53367L3.88244 7.3692C3.46685 7.69243 3.25906 7.85405 3.10936 8.05645C2.97675 8.23574 2.87797 8.43772 2.81786 8.65246C2.75 8.89489 2.75 9.15814 2.75 9.68463V16.3167C2.75 17.3434 2.75 17.8568 2.94982 18.249C3.12559 18.5939 3.40605 18.8744 3.75102 19.0502C4.14319 19.25 4.65657 19.25 5.68333 19.25H16.3167C17.3434 19.25 17.8568 19.25 18.249 19.0502C18.5939 18.8744 18.8744 18.5939 19.0502 18.249C19.25 17.8568 19.25 17.3434 19.25 16.3167V9.68463C19.25 9.15814 19.25 8.89489 19.1821 8.65246C19.122 8.43772 19.0232 8.23574 18.8906 8.05645C18.7409 7.85405 18.5331 7.69243 18.1176 7.3692L11.9004 2.53367C11.5784 2.28318 11.4174 2.15794 11.2396 2.1098C11.0827 2.06732 10.9173 2.06732 10.7604 2.1098C10.5826 2.15794 10.4216 2.28318 10.0996 2.53367Z" stroke="currentColor" stroke-width="1.5" stroke-linecap="round" stroke-linejoin="round"/>
</svg>
