<svg width="22" height="22" viewBox="0 0 22 22" fill="none" xmlns="http://www.w3.org/2000/svg">
<path d="M9.16669 14.6666H12.8334M8.06669 20.1666H13.9334C15.4735 20.1666 16.2436 20.1666 16.8318 19.8669C17.3493 19.6033 17.77 19.1826 18.0336 18.6651C18.3334 18.0769 18.3334 17.3068 18.3334 15.7666V6.23331C18.3334 4.69317 18.3334 3.9231 18.0336 3.33484C17.77 2.81739 17.3493 2.3967 16.8318 2.13305C16.2436 1.83331 15.4735 1.83331 13.9334 1.83331H8.06669C6.52654 1.83331 5.75647 1.83331 5.16821 2.13305C4.65077 2.3967 4.23007 2.81739 3.96642 3.33484C3.66669 3.9231 3.66669 4.69317 3.66669 6.23331V15.7666C3.66669 17.3068 3.66669 18.0769 3.96642 18.6651C4.23007 19.1826 4.65077 19.6033 5.16821 19.8669C5.75647 20.1666 6.52654 20.1666 8.06669 20.1666ZM13.75 8.24998C13.75 9.76876 12.5188 11 11 11C9.48124 11 8.25002 9.76876 8.25002 8.24998C8.25002 6.7312 9.48124 5.49998 11 5.49998C12.5188 5.49998 13.75 6.7312 13.75 8.24998Z" stroke="currentColor" stroke-width="1.5" stroke-linecap="round" stroke-linejoin="round"/>
</svg>
