<svg width="22" height="22" viewBox="0 0 22 22" fill="none" xmlns="http://www.w3.org/2000/svg">
<path d="M2.29167 11H5.3918C6.01991 11 6.5941 11.3549 6.875 11.9167C7.1559 12.4785 7.73009 12.8334 8.3582 12.8334H13.6418C14.2699 12.8334 14.8441 12.4785 15.125 11.9167C15.4059 11.3549 15.9801 11 16.6082 11H19.7083M8.21935 3.66669H13.7806C14.7678 3.66669 15.2614 3.66669 15.6971 3.81699C16.0824 3.9499 16.4334 4.16682 16.7246 4.45204C17.0539 4.77457 17.2747 5.21604 17.7161 6.09895L19.7021 10.071C19.8754 10.4175 19.962 10.5907 20.0231 10.7723C20.0773 10.9335 20.1165 11.0994 20.1401 11.2679C20.1667 11.4576 20.1667 11.6513 20.1667 12.0387V13.9334C20.1667 15.4735 20.1667 16.2436 19.8669 16.8318C19.6033 17.3493 19.1826 17.77 18.6651 18.0336C18.0769 18.3334 17.3068 18.3334 15.7667 18.3334H6.23333C4.69319 18.3334 3.92312 18.3334 3.33486 18.0336C2.81741 17.77 2.39672 17.3493 2.13307 16.8318C1.83333 16.2436 1.83333 15.4735 1.83333 13.9334V12.0387C1.83333 11.6513 1.83333 11.4576 1.85989 11.2679C1.88348 11.0994 1.92265 10.9335 1.9769 10.7723C2.03799 10.5907 2.12461 10.4175 2.29785 10.071L4.28387 6.09895C4.72533 5.21603 4.94606 4.77457 5.27537 4.45204C5.56658 4.16682 5.91755 3.9499 6.3029 3.81699C6.73865 3.66669 7.23222 3.66669 8.21935 3.66669Z" stroke="currentColor" stroke-width="1.5" stroke-linecap="round" stroke-linejoin="round"/>
</svg>
