<svg width="22" height="22" viewBox="0 0 22 22" fill="none" xmlns="http://www.w3.org/2000/svg">
<path d="M6.5 21H14.2C15.8802 21 16.7202 21 17.362 20.673C17.9265 20.3854 18.3854 19.9265 18.673 19.362C19 18.7202 19 17.8802 19 16.2V8.98822C19 8.25445 19 7.88757 18.9171 7.5423C18.8436 7.2362 18.7224 6.94356 18.5579 6.67515C18.3724 6.3724 18.113 6.11296 17.5941 5.59411L14.4059 2.40589C13.887 1.88703 13.6276 1.6276 13.3249 1.44208C13.0564 1.27759 12.7638 1.15638 12.4577 1.08289C12.1124 1 11.7455 1 11.0118 1H6.5C6.03558 1 5.80337 1 5.60842 1.02567C4.26222 1.2029 3.2029 2.26222 3.02567 3.60842C3 3.80337 3 17.0356 3 17.5C3 17.9644 3 18.1966 3.02567 18.3916C3.2029 19.7378 4.26222 20.7971 5.60842 20.9743C5.80337 21 6.03558 21 6.5 21Z" stroke="currentColor" stroke-width="1.5" stroke-linecap="round" stroke-linejoin="round"/>
<path d="M11.8057 17C12.4293 17 12.9352 16.4885 12.9352 15.857V13.5715L14 12L12.9352 10.4285V8.143C12.9352 7.5115 12.4298 7 11.8057 7M9.19431 7C8.57025 7 8.06477 7.5115 8.06477 8.143V10.4285L7 12L8.06477 13.5715V15.857C8.06477 16.4885 8.57025 17 9.19431 17" stroke="currentColor" stroke-width="1.5" stroke-linecap="round" stroke-linejoin="round"/>
</svg>
