<svg width="22" height="22" viewBox="0 0 22 22" fill="none" xmlns="http://www.w3.org/2000/svg">
<path d="M19.4333 20.1666C19.69 20.1666 19.8184 20.1666 19.9164 20.1167C20.0026 20.0727 20.0728 20.0026 20.1167 19.9164C20.1667 19.8183 20.1667 19.69 20.1667 19.4333V9.89998C20.1667 9.64329 20.1667 9.51494 20.1167 9.4169C20.0728 9.33066 20.0026 9.26055 19.9164 9.2166C19.8184 9.16665 19.69 9.16665 19.4333 9.16665L17.2333 9.16665C16.9766 9.16665 16.8483 9.16665 16.7502 9.2166C16.664 9.26054 16.5939 9.33066 16.5499 9.4169C16.5 9.51494 16.5 9.64329 16.5 9.89998V12.1C16.5 12.3567 16.5 12.485 16.45 12.5831C16.4061 12.6693 16.336 12.7394 16.2497 12.7834C16.1517 12.8333 16.0234 12.8333 15.7667 12.8333H13.5667C13.31 12.8333 13.1816 12.8333 13.0836 12.8833C12.9973 12.9272 12.9272 12.9973 12.8833 13.0836C12.8333 13.1816 12.8333 13.31 12.8333 13.5666V15.7666C12.8333 16.0233 12.8333 16.1517 12.7834 16.2497C12.7394 16.336 12.6693 16.4061 12.5831 16.45C12.485 16.5 12.3567 16.5 12.1 16.5H9.89999C9.6433 16.5 9.51496 16.5 9.41692 16.5499C9.33067 16.5939 9.26056 16.664 9.21662 16.7502C9.16666 16.8483 9.16666 16.9766 9.16666 17.2333V19.4333C9.16666 19.69 9.16666 19.8183 9.21662 19.9164C9.26056 20.0026 9.33067 20.0727 9.41692 20.1167C9.51496 20.1666 9.6433 20.1666 9.89999 20.1666L19.4333 20.1666Z" stroke="currentColor" stroke-width="1.5" stroke-linecap="round" stroke-linejoin="round"/>
<path d="M9.16666 6.23331C9.16666 5.97662 9.16666 5.84828 9.21662 5.75023C9.26056 5.66399 9.33067 5.59388 9.41692 5.54993C9.51496 5.49998 9.6433 5.49998 9.89999 5.49998H12.1C12.3567 5.49998 12.485 5.49998 12.5831 5.54993C12.6693 5.59388 12.7394 5.66399 12.7834 5.75023C12.8333 5.84828 12.8333 5.97662 12.8333 6.23331V8.43331C12.8333 8.69 12.8333 8.81835 12.7834 8.91639C12.7394 9.00263 12.6693 9.07275 12.5831 9.11669C12.485 9.16665 12.3567 9.16665 12.1 9.16665H9.89999C9.6433 9.16665 9.51496 9.16665 9.41692 9.11669C9.33067 9.07275 9.26056 9.00263 9.21662 8.91639C9.16666 8.81835 9.16666 8.69 9.16666 8.43331V6.23331Z" stroke="currentColor" stroke-width="1.5" stroke-linecap="round" stroke-linejoin="round"/>
<path d="M2.74999 11.7333C2.74999 11.4766 2.74999 11.3483 2.79995 11.2502C2.84389 11.164 2.91401 11.0939 3.00025 11.0499C3.09829 11 3.22664 11 3.48333 11H5.68333C5.94002 11 6.06836 11 6.16641 11.0499C6.25265 11.0939 6.32276 11.164 6.36671 11.2502C6.41666 11.3483 6.41666 11.4766 6.41666 11.7333V13.9333C6.41666 14.19 6.41666 14.3183 6.36671 14.4164C6.32276 14.5026 6.25265 14.5727 6.16641 14.6167C6.06836 14.6666 5.94002 14.6666 5.68333 14.6666H3.48333C3.22664 14.6666 3.09829 14.6666 3.00025 14.6167C2.91401 14.5727 2.84389 14.5026 2.79995 14.4164C2.74999 14.3183 2.74999 14.19 2.74999 13.9333V11.7333Z" stroke="currentColor" stroke-width="1.5" stroke-linecap="round" stroke-linejoin="round"/>
<path d="M1.83333 2.56665C1.83333 2.30996 1.83333 2.18161 1.88328 2.08357C1.92723 1.99733 1.99734 1.92721 2.08358 1.88327C2.18163 1.83331 2.30997 1.83331 2.56666 1.83331H4.76666C5.02335 1.83331 5.1517 1.83331 5.24974 1.88327C5.33598 1.92721 5.4061 1.99733 5.45004 2.08357C5.49999 2.18161 5.49999 2.30996 5.49999 2.56665V4.76665C5.49999 5.02334 5.49999 5.15168 5.45004 5.24973C5.4061 5.33597 5.33598 5.40608 5.24974 5.45002C5.1517 5.49998 5.02335 5.49998 4.76666 5.49998H2.56666C2.30997 5.49998 2.18163 5.49998 2.08358 5.45002C1.99734 5.40608 1.92723 5.33597 1.88328 5.24973C1.83333 5.15168 1.83333 5.02334 1.83333 4.76665V2.56665Z" stroke="currentColor" stroke-width="1.5" stroke-linecap="round" stroke-linejoin="round"/>
</svg>
