<svg width="22" height="22" viewBox="0 0 22 22" fill="none" xmlns="http://www.w3.org/2000/svg">
<path fill-rule="evenodd" clip-rule="evenodd" d="M11.0108 2.58329C11.6337 2.58329 11.8882 2.58702 12.0834 2.62221V5.86669L12.0834 5.89226C12.0833 6.12693 12.0833 6.34601 12.0983 6.52983C12.1146 6.72906 12.1522 6.95194 12.265 7.17334C12.4248 7.48694 12.6798 7.74191 12.9934 7.9017C13.2148 8.0145 13.4376 8.05209 13.6369 8.06837C13.8207 8.08339 14.0398 8.08337 14.2745 8.08335H14.2745L14.3 8.08335H17.5444C17.5796 8.27854 17.5834 8.53304 17.5834 9.15583V12.8333C17.5834 13.2475 17.9191 13.5833 18.3334 13.5833C18.7476 13.5833 19.0834 13.2475 19.0834 12.8333V9.15583L19.0834 9.07301C19.0836 8.48022 19.0837 8.05962 18.9866 7.65532C18.9358 7.44344 18.8653 7.2371 18.7763 7.03891C18.7718 7.02833 18.7671 7.01788 18.7621 7.00756C18.7045 6.88271 18.6396 6.76118 18.5676 6.64363C18.3503 6.28911 18.0528 5.99181 17.6335 5.57279L17.6335 5.57278L17.575 5.51423L14.6524 2.59169L14.5939 2.53311L14.5939 2.53311C14.1748 2.1138 13.8775 1.8163 13.523 1.59905C13.405 1.52671 13.2829 1.46154 13.1575 1.40382C13.1483 1.39944 13.1391 1.39523 13.1297 1.3912C12.9309 1.3018 12.7239 1.23103 12.5113 1.17999C12.107 1.08293 11.6864 1.08307 11.0936 1.08327L11.0108 1.08329H8.06669L8.0349 1.08329C7.29181 1.08328 6.68865 1.08327 6.19942 1.12325C5.69447 1.1645 5.2452 1.25205 4.82772 1.46477C4.16915 1.80032 3.63372 2.33575 3.29816 2.99432C3.08545 3.4118 2.9979 3.86107 2.95664 4.36602C2.91667 4.85525 2.91668 5.45841 2.91669 6.20149V6.2015V6.23329V15.7666V15.7984V15.7984C2.91668 16.5415 2.91667 17.1447 2.95664 17.6339C2.9979 18.1388 3.08545 18.5881 3.29816 19.0056C3.63372 19.6642 4.16915 20.1996 4.82772 20.5351C5.2452 20.7479 5.69447 20.8354 6.19942 20.8767C6.68863 20.9166 7.29176 20.9166 8.0348 20.9166H8.03488H8.06669H12.3362C12.7505 20.9166 13.0862 20.5808 13.0862 20.1666C13.0862 19.7524 12.7505 19.4166 12.3362 19.4166H8.06669C7.28424 19.4166 6.74251 19.416 6.32157 19.3816C5.90938 19.348 5.67948 19.2856 5.50871 19.1986C5.13238 19.0069 4.82642 18.7009 4.63467 18.3246C4.54766 18.1538 4.48534 17.9239 4.45166 17.5117C4.41727 17.0908 4.41669 16.5491 4.41669 15.7666V6.23329C4.41669 5.45084 4.41727 4.90911 4.45166 4.48817C4.48534 4.07598 4.54766 3.84608 4.63467 3.67531C4.82642 3.29898 5.13238 2.99302 5.50871 2.80128C5.67948 2.71426 5.90938 2.65194 6.32157 2.61826C6.74251 2.58387 7.28424 2.58329 8.06669 2.58329H11.0108ZM13.5834 5.86669V3.64395L13.5918 3.65235L16.5143 6.57489L16.5228 6.58335H14.3C14.031 6.58335 13.8743 6.58277 13.759 6.57336C13.7049 6.56893 13.6774 6.56356 13.6667 6.56104C13.6414 6.54641 13.6203 6.52535 13.6057 6.49998C13.6031 6.48934 13.5978 6.46183 13.5934 6.40768C13.5839 6.29245 13.5834 6.13575 13.5834 5.86669ZM6.87502 4.29162C6.46081 4.29162 6.12502 4.62741 6.12502 5.04162C6.12502 5.45584 6.46081 5.79162 6.87502 5.79162H9.62502C10.0392 5.79162 10.375 5.45584 10.375 5.04162C10.375 4.62741 10.0392 4.29162 9.62502 4.29162H6.87502ZM6.87502 7.04162C6.46081 7.04162 6.12502 7.37741 6.12502 7.79162C6.12502 8.20583 6.46081 8.54162 6.87502 8.54162H9.62502C10.0392 8.54162 10.375 8.20583 10.375 7.79162C10.375 7.37741 10.0392 7.04162 9.62502 7.04162H6.87502ZM6.87502 9.79162C6.46081 9.79162 6.12502 10.1274 6.12502 10.5416C6.12502 10.9558 6.46081 11.2916 6.87502 11.2916H10.0834C10.4976 11.2916 10.8334 10.9558 10.8334 10.5416C10.8334 10.1274 10.4976 9.79162 10.0834 9.79162H6.87502ZM15.3737 14.9368C15.3737 13.7928 14.5275 12.8465 13.427 12.6895L13.8194 13.0819L13.8338 13.0963L13.8338 13.0963C13.9208 13.1833 14.015 13.2774 14.0898 13.3655C14.1744 13.4652 14.2773 13.6053 14.3387 13.7944C14.4205 14.0462 14.4205 14.3173 14.3387 14.5691C14.2773 14.7582 14.1744 14.8983 14.0898 14.998C14.015 15.0861 13.9208 15.1802 13.8338 15.2672L13.8338 15.2672L13.8194 15.2816L13.4483 15.6527L13.434 15.667L13.4339 15.667C13.347 15.7541 13.2528 15.8482 13.1647 15.923C13.065 16.0076 12.9249 16.1105 12.7358 16.172C12.4841 16.2538 12.2129 16.2538 11.9612 16.172C11.772 16.1105 11.6319 16.0076 11.5322 15.923C11.4441 15.8482 11.35 15.7541 11.263 15.667L11.263 15.667L11.2487 15.6527L10.8562 15.2602C11.0132 16.3608 11.9595 17.207 13.1035 17.207C13.2904 17.207 13.4711 17.1846 13.6433 17.1426L13.6563 17.1394C13.7682 17.1122 13.8733 17.0866 13.9598 17.0692C14.04 17.0531 14.1737 17.0284 14.3192 17.0384C14.5032 17.051 14.6465 17.0911 14.8102 17.176C14.9897 17.269 15.1434 17.4246 15.2409 17.5233L15.2709 17.5536L16.5825 18.8652C16.7066 18.9893 16.9078 18.9893 17.0319 18.8652C17.156 18.7411 17.156 18.5399 17.0319 18.4158L15.7436 17.1274L15.7435 17.1274L15.7433 17.1272L15.743 17.1268L15.7393 17.1231L15.7203 17.1042L15.6901 17.0742C15.5913 16.9767 15.4357 16.823 15.3427 16.6435C15.2579 16.4798 15.2177 16.3364 15.2051 16.1525C15.1952 16.007 15.2198 15.8732 15.2359 15.793C15.2533 15.7066 15.2789 15.6015 15.3062 15.4896L15.3093 15.4766C15.3513 15.3043 15.3737 15.1237 15.3737 14.9368ZM16.7667 15.8316C16.7507 15.8973 16.7382 15.9489 16.7283 15.9907L16.781 16.0435L16.781 16.0435L16.7911 16.0536L16.8 16.0625L16.8036 16.0661L16.804 16.0665L16.8042 16.0667L16.8042 16.0667L16.8042 16.0667L16.8042 16.0667L16.8042 16.0668L16.8202 16.0827L16.9273 16.1898L17.2804 16.5429L18.0926 17.3551C18.8025 18.065 18.8025 19.216 18.0926 19.9258C17.3827 20.6357 16.2317 20.6357 15.5218 19.9258L14.2102 18.6142L14.1575 18.5616C14.1157 18.5714 14.0641 18.584 13.9984 18.6C13.7108 18.67 13.411 18.707 13.1035 18.707C11.0213 18.707 9.33333 17.019 9.33333 14.9368C9.33333 14.385 9.45237 13.8589 9.66688 13.3846C9.76834 13.1602 9.97348 12.9999 10.2157 12.9558C10.458 12.9116 10.7065 12.9892 10.8806 13.1633L12.3093 14.592L12.3485 14.6312L12.3876 14.592L12.7587 14.2209L12.7979 14.1817L12.7587 14.1426L11.33 12.7138C11.1559 12.5397 11.0783 12.2912 11.1225 12.049C11.1667 11.8067 11.3269 11.6016 11.5513 11.5001C12.0256 11.2856 12.5517 11.1666 13.1035 11.1666C15.1857 11.1666 16.8737 12.8546 16.8737 14.9368C16.8737 15.2442 16.8368 15.544 16.7667 15.8316Z" fill="currentColor"/>
</svg>
