<svg width="22" height="22" viewBox="0 0 22 22" fill="none" xmlns="http://www.w3.org/2000/svg">
<path fill-rule="evenodd" clip-rule="evenodd" d="M8.25 2.58331C7.65169 2.58331 7.16667 3.06834 7.16667 3.66665C7.16667 4.26495 7.65169 4.74998 8.25 4.74998C8.84831 4.74998 9.33333 4.26495 9.33333 3.66665C9.33333 3.06834 8.84831 2.58331 8.25 2.58331ZM5.66667 3.66665C5.66667 2.23991 6.82326 1.08331 8.25 1.08331C9.67673 1.08331 10.8333 2.23991 10.8333 3.66665C10.8333 4.83255 10.061 5.81805 9 6.13943V7.58052C9.79044 7.7531 10.481 8.19277 10.9725 8.80022L13.0365 7.76823C13.0125 7.62683 13 7.48153 13 7.33331C13 5.90658 14.1566 4.74998 15.5833 4.74998C17.0101 4.74998 18.1667 5.90658 18.1667 7.33331C18.1667 8.76005 17.0101 9.91665 15.5833 9.91665C14.8447 9.91665 14.1785 9.60666 13.7077 9.10968L11.644 10.1415C11.7132 10.4162 11.75 10.7038 11.75 11C11.75 11.2962 11.7132 11.5838 11.644 11.8584L13.7077 12.8903C14.1785 12.3933 14.8447 12.0833 15.5833 12.0833C17.0101 12.0833 18.1667 13.2399 18.1667 14.6666C18.1667 16.0934 17.0101 17.25 15.5833 17.25C14.1566 17.25 13 16.0934 13 14.6666C13 14.5184 13.0125 14.3731 13.0365 14.2317L10.9725 13.1997C10.481 13.8072 9.79044 14.2469 9 14.4194V15.8605C10.061 16.1819 10.8333 17.1674 10.8333 18.3333C10.8333 19.76 9.67673 20.9166 8.25 20.9166C6.82326 20.9166 5.66667 19.76 5.66667 18.3333C5.66667 17.1674 6.43903 16.1819 7.5 15.8605V14.4194C5.92741 14.0761 4.75 12.6755 4.75 11C4.75 9.32442 5.92741 7.92386 7.5 7.58052V6.13943C6.43903 5.81806 5.66667 4.83255 5.66667 3.66665ZM15.5833 6.24998C14.985 6.24998 14.5 6.735 14.5 7.33331C14.5 7.93162 14.985 8.41665 15.5833 8.41665C16.1816 8.41665 16.6667 7.93162 16.6667 7.33331C16.6667 6.735 16.1816 6.24998 15.5833 6.24998ZM14.5 14.6666C14.5 14.0683 14.985 13.5833 15.5833 13.5833C16.1816 13.5833 16.6667 14.0683 16.6667 14.6666C16.6667 15.265 16.1816 15.75 15.5833 15.75C14.985 15.75 14.5 15.265 14.5 14.6666ZM8.25 8.99998C7.14543 8.99998 6.25 9.89541 6.25 11C6.25 12.1045 7.14543 13 8.25 13C9.35457 13 10.25 12.1045 10.25 11C10.25 9.89541 9.35457 8.99998 8.25 8.99998ZM7.16667 18.3333C7.16667 17.735 7.65169 17.25 8.25 17.25C8.84831 17.25 9.33333 17.735 9.33333 18.3333C9.33333 18.9316 8.84831 19.4166 8.25 19.4166C7.65169 19.4166 7.16667 18.9316 7.16667 18.3333Z" fill="currentColor"/>
</svg>
