<svg width="22" height="22" viewBox="0 0 22 22" fill="none" xmlns="http://www.w3.org/2000/svg">
<path d="M15.5833 8.24995C15.5833 7.78077 15.4043 7.3116 15.0464 6.95364C14.6884 6.59566 14.2192 6.41667 13.75 6.41667M13.75 13.75C16.7876 13.75 19.25 11.2876 19.25 8.25C19.25 5.21243 16.7876 2.75 13.75 2.75C10.7124 2.75 8.25 5.21243 8.25 8.25C8.25 8.50087 8.2668 8.74782 8.29933 8.98978C8.35283 9.38775 8.37958 9.58673 8.36157 9.71262C8.34282 9.84377 8.31893 9.91444 8.2543 10.0301C8.19225 10.1411 8.0829 10.2504 7.8642 10.4691L3.17958 15.1538C3.02104 15.3123 2.94177 15.3916 2.88508 15.4841C2.83482 15.5661 2.79778 15.6555 2.77533 15.749C2.75 15.8545 2.75 15.9666 2.75 16.1908V17.7833C2.75 18.2967 2.75 18.5534 2.84991 18.7495C2.93779 18.922 3.07803 19.0622 3.25051 19.1501C3.44659 19.25 3.70329 19.25 4.21667 19.25H6.41667V17.4167H8.25V15.5833H10.0833L11.5309 14.1358C11.7496 13.9171 11.8589 13.8078 11.9699 13.7457C12.0856 13.6811 12.1562 13.6572 12.2874 13.6384C12.4133 13.6204 12.6123 13.6472 13.0102 13.7007C13.2522 13.7332 13.4991 13.75 13.75 13.75Z" stroke="currentColor" stroke-width="1.5" stroke-linecap="round" stroke-linejoin="round"/>
</svg>
