<svg width="22" height="22" viewBox="0 0 22 22" fill="none" xmlns="http://www.w3.org/2000/svg">
<path d="M1.83333 11L10.672 15.4194C10.7923 15.4795 10.8524 15.5096 10.9155 15.5214C10.9713 15.5319 11.0287 15.5319 11.0845 15.5214C11.1476 15.5096 11.2077 15.4795 11.328 15.4194L20.1667 11M1.83333 15.5834L10.672 20.0027C10.7923 20.0628 10.8524 20.0929 10.9155 20.1047C10.9713 20.1152 11.0287 20.1152 11.0845 20.1047C11.1476 20.0929 11.2077 20.0628 11.328 20.0027L20.1667 15.5834M1.83333 6.41669L10.672 1.99733C10.7923 1.93721 10.8524 1.90714 10.9155 1.89531C10.9713 1.88483 11.0287 1.88483 11.0845 1.89531C11.1476 1.90714 11.2077 1.93721 11.328 1.99733L20.1667 6.41669L11.328 10.836C11.2077 10.8962 11.1476 10.9262 11.0845 10.9381C11.0287 10.9485 10.9713 10.9485 10.9155 10.9381C10.8524 10.9262 10.7923 10.8962 10.672 10.836L1.83333 6.41669Z" stroke="currentColor" stroke-width="1.5" stroke-linecap="round" stroke-linejoin="round"/>
</svg>
