<svg width="22" height="22" viewBox="0 0 22 22" fill="none" xmlns="http://www.w3.org/2000/svg">
<path d="M15.5833 13.2917V10.5366C15.5833 10.3721 15.5833 10.2898 15.5583 10.2172C15.5361 10.1529 15.5 10.0944 15.4524 10.0459C15.3987 9.99103 15.3251 9.95424 15.178 9.88066L11 7.79169M3.66666 8.70835V14.9477C3.66666 15.2887 3.66666 15.4591 3.71984 15.6084C3.76686 15.7403 3.84349 15.8597 3.94384 15.9574C4.05736 16.068 4.21233 16.139 4.52223 16.281L10.3889 18.9699C10.6137 19.073 10.7261 19.1245 10.8432 19.1448C10.947 19.1628 11.053 19.1628 11.1568 19.1448C11.2739 19.1245 11.3863 19.073 11.6111 18.9699L17.4778 16.281C17.7877 16.139 17.9426 16.068 18.0561 15.9574C18.1565 15.8597 18.2331 15.7403 18.2801 15.6084C18.3333 15.4591 18.3333 15.2887 18.3333 14.9478V8.70835M1.83333 7.79169L10.672 3.37233C10.7923 3.31221 10.8524 3.28214 10.9155 3.27031C10.9713 3.25983 11.0287 3.25983 11.0845 3.27031C11.1476 3.28214 11.2077 3.31221 11.328 3.37233L20.1667 7.79169L11.328 12.211C11.2077 12.2712 11.1476 12.3012 11.0845 12.3131C11.0287 12.3235 10.9713 12.3235 10.9155 12.3131C10.8524 12.3012 10.7923 12.2712 10.672 12.211L1.83333 7.79169Z" stroke="currentColor" stroke-width="1.5" stroke-linecap="round" stroke-linejoin="round"/>
</svg>
