<svg width="22" height="22" viewBox="0 0 22 22" fill="none" xmlns="http://www.w3.org/2000/svg">
<path d="M7.75906 7.75911L4.51817 4.51822M4.51817 17.4818L7.75908 14.2409M14.2409 14.2409L17.4818 17.4818M17.4818 4.51818L14.2409 7.75909M20.1666 11C20.1666 16.0626 16.0626 20.1667 11 20.1667C5.93737 20.1667 1.83331 16.0626 1.83331 11C1.83331 5.9374 5.93737 1.83334 11 1.83334C16.0626 1.83334 20.1666 5.9374 20.1666 11ZM15.5833 11C15.5833 13.5313 13.5313 15.5833 11 15.5833C8.46867 15.5833 6.41665 13.5313 6.41665 11C6.41665 8.4687 8.46867 6.41668 11 6.41668C13.5313 6.41668 15.5833 8.4687 15.5833 11Z" stroke="currentColor" stroke-width="1.5" stroke-linecap="round" stroke-linejoin="round"/>
</svg>
