<svg width="22" height="22" viewBox="0 0 22 22" fill="none" xmlns="http://www.w3.org/2000/svg">
<path d="M8.33248 8.25004C8.54799 7.6374 8.97337 7.12081 9.53327 6.79175C10.0932 6.46269 10.7515 6.3424 11.3916 6.45219C12.0316 6.56199 12.6122 6.89477 13.0305 7.39161C13.4487 7.88844 13.6776 8.51727 13.6766 9.16671C13.6766 11 10.9266 11.9167 10.9266 11.9167M11 16.5C11 16.5 10.9964 15.3892 11 15M20.1666 11C20.1666 16.0627 16.0626 20.1667 11 20.1667C5.93737 20.1667 1.83331 16.0627 1.83331 11C1.83331 5.93743 5.93737 1.83337 11 1.83337C16.0626 1.83337 20.1666 5.93743 20.1666 11Z" stroke="currentColor" stroke-width="1.5" stroke-linecap="round" stroke-linejoin="round"/>
</svg>
