<svg width="22" height="22" viewBox="0 0 22 22" fill="none" xmlns="http://www.w3.org/2000/svg">
<path d="M8.70834 20.1666H13.2917M13.75 14.0492C15.9179 13.0193 17.4167 10.8097 17.4167 8.24998C17.4167 4.70615 14.5438 1.83331 11 1.83331C7.45618 1.83331 4.58334 4.70615 4.58334 8.24998C4.58334 10.8097 6.08214 13.0193 8.25001 14.0492V14.6666C8.25001 15.5209 8.25001 15.948 8.38956 16.2849C8.57564 16.7341 8.93254 17.091 9.38176 17.2771C9.71867 17.4166 10.1458 17.4166 11 17.4166C11.8542 17.4166 12.2813 17.4166 12.6183 17.2771C13.0675 17.091 13.4244 16.7341 13.6105 16.2849C13.75 15.948 13.75 15.5209 13.75 14.6666V14.0492Z" stroke="currentColor" stroke-width="1.5" stroke-linecap="round" stroke-linejoin="round"/>
</svg>
