<svg width="22" height="22" viewBox="0 0 22 22" fill="none" xmlns="http://www.w3.org/2000/svg">
<path d="M8.41667 14.4583H7.04167C5.7624 14.4583 5.12277 14.4583 4.60229 14.6162C3.43042 14.9717 2.51337 15.8887 2.15789 17.0606C2 17.5811 2 18.2207 2 19.5M13.4583 7.125C13.4583 9.40317 11.6115 11.25 9.33333 11.25C7.05516 11.25 5.20833 9.40317 5.20833 7.125C5.20833 4.84683 7.05516 3 9.33333 3C11.6115 3 13.4583 4.84683 13.4583 7.125Z" stroke="currentColor" stroke-width="1.5" stroke-linecap="round" stroke-linejoin="round"/>
<path d="M15.8443 18.0984L15.1557 18.787C14.205 19.7377 12.6637 19.7377 11.713 18.787C10.7623 17.8363 10.7623 16.295 11.713 15.3443L12.4016 14.6557M18.5984 15.3443L19.287 14.6557C20.2377 13.705 20.2377 12.1637 19.287 11.213C18.3363 10.2623 16.795 10.2623 15.8443 11.213L15.1557 11.9016M13.7959 16.704L17.2041 13.2959" stroke="currentColor" stroke-width="1.5" stroke-linecap="round" stroke-linejoin="round"/>
</svg>
