<svg width="22" height="22" viewBox="0 0 22 22" fill="none" xmlns="http://www.w3.org/2000/svg">
<path d="M9.16667 11.9167C9.56033 12.4429 10.0626 12.8784 10.6393 13.1935C11.2161 13.5086 11.8539 13.696 12.5094 13.743C13.165 13.7899 13.823 13.6953 14.4387 13.4656C15.0545 13.2359 15.6137 12.8765 16.0783 12.4117L18.8283 9.66166C19.6632 8.79723 20.1252 7.63947 20.1148 6.43773C20.1043 5.236 19.6223 4.08644 18.7725 3.23665C17.9227 2.38687 16.7732 1.90484 15.5714 1.8944C14.3697 1.88396 13.2119 2.34593 12.3475 3.18082L10.7708 4.74832M12.8333 10.0833C12.4397 9.55704 11.9374 9.12157 11.3607 8.80646C10.7839 8.49135 10.1461 8.30396 9.49057 8.25702C8.83502 8.21007 8.17704 8.30465 7.56127 8.53436C6.94549 8.76406 6.38631 9.12351 5.92167 9.58832L3.17167 12.3383C2.33678 13.2027 1.8748 14.3605 1.88524 15.5622C1.89569 16.764 2.37771 17.9135 3.2275 18.7633C4.07729 19.6131 5.22684 20.0951 6.42858 20.1056C7.63031 20.116 8.78807 19.654 9.6525 18.8192L11.22 17.2517" stroke="currentColor" stroke-width="1.5" stroke-linecap="round" stroke-linejoin="round"/>
</svg>
