<svg width="22" height="22" viewBox="0 0 22 22" fill="none" xmlns="http://www.w3.org/2000/svg">
<path d="M19.25 8.25L19.25 2.75M19.25 2.75H13.75M19.25 2.75L11.9167 10.0833M9.16667 4.58333H7.15C5.60986 4.58333 4.83978 4.58333 4.25153 4.88307C3.73408 5.14672 3.31338 5.56741 3.04973 6.08486C2.75 6.67312 2.75 7.44319 2.75 8.98333V14.85C2.75 16.3901 2.75 17.1602 3.04973 17.7485C3.31338 18.2659 3.73408 18.6866 4.25153 18.9503C4.83978 19.25 5.60986 19.25 7.15 19.25H13.0167C14.5568 19.25 15.3269 19.25 15.9151 18.9503C16.4326 18.6866 16.8533 18.2659 17.1169 17.7485C17.4167 17.1602 17.4167 16.3901 17.4167 14.85V12.8333" stroke="currentColor" stroke-width="1.5" stroke-linecap="round" stroke-linejoin="round"/>
</svg>
