<svg width="22" height="22" viewBox="0 0 22 22" fill="none" xmlns="http://www.w3.org/2000/svg">
<path d="M16.0417 10.0833H11.4583M16.0417 13.75H11.4583M16.0417 6.41667H11.4583M8.25 2.75L8.25 19.25M7.15 2.75H14.85C16.3901 2.75 17.1602 2.75 17.7485 3.04973C18.2659 3.31338 18.6866 3.73408 18.9503 4.25153C19.25 4.83978 19.25 5.60986 19.25 7.15V14.85C19.25 16.3901 19.25 17.1602 18.9503 17.7485C18.6866 18.2659 18.2659 18.6866 17.7485 18.9503C17.1602 19.25 16.3901 19.25 14.85 19.25H7.15C5.60986 19.25 4.83978 19.25 4.25153 18.9503C3.73408 18.6866 3.31338 18.2659 3.04973 17.7485C2.75 17.1602 2.75 16.3901 2.75 14.85V7.15C2.75 5.60986 2.75 4.83978 3.04973 4.25153C3.31338 3.73408 3.73408 3.31338 4.25153 3.04973C4.83978 2.75 5.60986 2.75 7.15 2.75Z" stroke="currentColor" stroke-width="1.5" stroke-linecap="round" stroke-linejoin="round"/>
</svg>
