<svg width="22" height="22" viewBox="0 0 22 22" fill="none" xmlns="http://www.w3.org/2000/svg">
<path d="M15.5834 9.16667V7.33333C15.5834 4.80203 13.5313 2.75 11 2.75C8.46872 2.75 6.41669 4.80203 6.41669 7.33333V9.16667M11 13.2917V15.125M8.06669 19.25H13.9334C15.4735 19.25 16.2436 19.25 16.8318 18.9503C17.3493 18.6866 17.77 18.2659 18.0336 17.7485C18.3334 17.1602 18.3334 16.3901 18.3334 14.85V13.5667C18.3334 12.0265 18.3334 11.2564 18.0336 10.6682C17.77 10.1507 17.3493 9.73005 16.8318 9.4664C16.2436 9.16667 15.4735 9.16667 13.9334 9.16667H8.06669C6.52654 9.16667 5.75647 9.16667 5.16821 9.4664C4.65077 9.73005 4.23007 10.1507 3.96642 10.6682C3.66669 11.2564 3.66669 12.0265 3.66669 13.5667V14.85C3.66669 16.3901 3.66669 17.1602 3.96642 17.7485C4.23007 18.2659 4.65077 18.6866 5.16821 18.9503C5.75647 19.25 6.52654 19.25 8.06669 19.25Z" stroke="currentColor" stroke-width="1.5" stroke-linecap="round" stroke-linejoin="round"/>
</svg>
