<svg width="22" height="22" viewBox="0 0 22 22" fill="none" xmlns="http://www.w3.org/2000/svg">
<path d="M8.41667 14.4583H7.04167C5.7624 14.4583 5.12277 14.4583 4.60229 14.6162C3.43042 14.9717 2.51337 15.8888 2.15789 17.0606C2 17.5811 2 18.2207 2 19.5M13.4583 7.125C13.4583 9.40317 11.6115 11.25 9.33333 11.25C7.05516 11.25 5.20833 9.40317 5.20833 7.125C5.20833 4.84683 7.05516 3 9.33333 3C11.6115 3 13.4583 4.84683 13.4583 7.125ZM10.25 19.5L13.0929 18.6877C13.229 18.6488 13.2971 18.6294 13.3606 18.6002C13.417 18.5744 13.4706 18.5428 13.5206 18.5061C13.5769 18.4648 13.627 18.4147 13.7271 18.3146L19.6459 12.3959C20.2787 11.763 20.2787 10.737 19.6459 10.1041C19.013 9.47133 17.987 9.47133 17.3542 10.1042L11.4354 16.0229C11.3353 16.123 11.2852 16.1731 11.2439 16.2294C11.2072 16.2794 11.1756 16.333 11.1498 16.3894C11.1206 16.4529 11.1012 16.521 11.0623 16.6571L10.25 19.5Z" stroke="currentColor" stroke-width="1.5" stroke-linecap="round" stroke-linejoin="round"/>
</svg>
