<svg width="22" height="22" viewBox="0 0 22 22" fill="none" xmlns="http://www.w3.org/2000/svg">
<path d="M11 18.3333H4.76668C3.73991 18.3333 3.22653 18.3333 2.83436 18.1335C2.4894 17.9577 2.20893 17.6773 2.03316 17.3323C1.83334 16.9401 1.83334 16.4268 1.83334 15.4V6.6C1.83334 5.57324 1.83334 5.05986 2.03316 4.66769C2.20893 4.32273 2.4894 4.04226 2.83436 3.86649C3.22653 3.66667 3.73991 3.66667 4.76668 3.66667H5.13334C7.18687 3.66667 8.21363 3.66667 8.99797 4.06631C9.6879 4.41785 10.2488 4.97878 10.6004 5.66871C11 6.45305 11 7.47981 11 9.53334M11 18.3333V9.53334M11 18.3333H17.2333C18.2601 18.3333 18.7735 18.3333 19.1657 18.1335C19.5106 17.9577 19.7911 17.6773 19.9669 17.3323C20.1667 16.9401 20.1667 16.4268 20.1667 15.4V6.6C20.1667 5.57324 20.1667 5.05986 19.9669 4.66769C19.7911 4.32273 19.5106 4.04226 19.1657 3.86649C18.7735 3.66667 18.2601 3.66667 17.2333 3.66667H16.8667C14.8132 3.66667 13.7864 3.66667 13.002 4.06631C12.3121 4.41785 11.7512 4.97878 11.3997 5.66871C11 6.45305 11 7.47981 11 9.53334" stroke="currentColor" stroke-width="1.5" stroke-linecap="round" stroke-linejoin="round"/>
</svg>
