<svg width="22" height="22" viewBox="0 0 22 22" fill="none" xmlns="http://www.w3.org/2000/svg">
<path d="M17.429 16.0556C17.429 16.28 17.2773 16.4416 17.0595 16.4416C16.8352 16.4416 16.6901 16.2701 16.6901 16.0556C16.6901 15.8412 16.8352 15.6697 17.0595 15.6697C17.2773 15.6697 17.429 15.8412 17.429 16.0556ZM7.17691 15.6697C6.94271 15.6697 6.80747 15.8412 6.80747 16.0556C6.80747 16.2701 6.94271 16.4416 7.17691 16.4416C7.39132 16.4416 7.53646 16.28 7.53646 16.0556C7.53316 15.8412 7.39132 15.6697 7.17691 15.6697ZM11.0528 15.6598C10.8747 15.6598 10.7658 15.7753 10.7394 15.9468H11.3694C11.3398 15.7588 11.2243 15.6598 11.0528 15.6598ZM14.6087 15.6697C14.3844 15.6697 14.2491 15.8412 14.2491 16.0556C14.2491 16.2701 14.3844 16.4416 14.6087 16.4416C14.833 16.4416 14.9781 16.28 14.9781 16.0556C14.9781 15.8412 14.833 15.6697 14.6087 15.6697ZM18.1019 16.5306C18.1019 16.5405 18.1118 16.5471 18.1118 16.5669C18.1118 16.5768 18.1019 16.5834 18.1019 16.6032C18.092 16.6131 18.092 16.6197 18.0854 16.6296C18.0755 16.6395 18.0689 16.6461 18.0491 16.6461C18.0392 16.656 18.0326 16.656 18.0128 16.656C18.003 16.656 17.9964 16.656 17.9766 16.6461C17.9667 16.6461 17.9601 16.6362 17.9502 16.6296C17.9403 16.6197 17.9337 16.6131 17.9337 16.6032C17.9238 16.5867 17.9238 16.5768 17.9238 16.5669C17.9238 16.5504 17.9238 16.5405 17.9337 16.5306C17.9337 16.5142 17.9436 16.5043 17.9502 16.4944C17.9601 16.4845 17.9667 16.4845 17.9766 16.4779C17.9931 16.468 18.003 16.468 18.0128 16.468C18.0293 16.468 18.0392 16.468 18.0491 16.4779C18.0656 16.4878 18.0755 16.4878 18.0854 16.4944C18.0953 16.501 18.092 16.5142 18.1019 16.5306ZM18.0293 16.5768C18.0458 16.5768 18.0458 16.5669 18.0557 16.5669C18.0656 16.557 18.0656 16.5504 18.0656 16.5405C18.0656 16.5306 18.0656 16.524 18.0557 16.5142C18.0458 16.5142 18.0392 16.5043 18.0194 16.5043H17.9667V16.6197H17.9931V16.5735H18.003L18.0392 16.6197H18.0656L18.0293 16.5768ZM20.5 5.19332V16.8044C20.5 17.6786 19.7908 18.3878 18.9167 18.3878H3.08333C2.2092 18.3878 1.5 17.6786 1.5 16.8044V5.19332C1.5 4.31919 2.2092 3.60999 3.08333 3.60999H18.9167C19.7908 3.60999 20.5 4.31919 20.5 5.19332ZM3.61111 9.79818C3.61111 12.3216 5.65955 14.3668 8.17969 14.3668C9.07691 14.3668 9.95764 14.0963 10.7031 13.6048C8.29844 11.6487 8.31493 7.95755 10.7031 6.00148C9.95764 5.50669 9.07691 5.2395 8.17969 5.2395C5.65955 5.2362 3.61111 7.28464 3.61111 9.79818ZM11 13.3871C13.3255 11.5728 13.3156 8.03672 11 6.21259C8.68438 8.03672 8.67448 11.5761 11 13.3871ZM6.30608 15.9039C6.30608 15.6169 6.11806 15.4289 5.82118 15.419C5.66944 15.419 5.50781 15.4652 5.39896 15.6334C5.31979 15.4982 5.18455 15.419 4.99653 15.419C4.87118 15.419 4.74583 15.4652 4.64688 15.5971V15.452H4.37639V16.6626H4.64688C4.64688 16.0392 4.56441 15.6664 4.94375 15.6664C5.28021 15.6664 5.21424 16.0029 5.21424 16.6626H5.47483C5.47483 16.0589 5.39236 15.6664 5.7717 15.6664C6.10816 15.6664 6.04219 15.9963 6.04219 16.6626H6.31267V15.9039H6.30608ZM7.78715 15.452H7.52656V15.5971C7.4375 15.4883 7.31215 15.419 7.14062 15.419C6.80087 15.419 6.54028 15.6895 6.54028 16.0556C6.54028 16.4251 6.80087 16.6923 7.14062 16.6923C7.31215 16.6923 7.4375 16.6296 7.52656 16.5142V16.6659H7.78715V15.452ZM9.12309 16.2964C9.12309 15.8017 8.36771 16.026 8.36771 15.7951C8.36771 15.607 8.76024 15.6367 8.97795 15.7588L9.08681 15.5444C8.77674 15.3431 8.09063 15.3464 8.09063 15.8148C8.09063 16.2865 8.84601 16.0886 8.84601 16.3096C8.84601 16.5175 8.40069 16.501 8.16319 16.336L8.04774 16.5438C8.41719 16.7945 9.12309 16.7418 9.12309 16.2964ZM10.2908 16.6032L10.2182 16.3789C10.0929 16.4482 9.8158 16.524 9.8158 16.2437V15.6961H10.2479V15.452H9.8158V15.0826H9.54531V15.452H9.29462V15.6928H9.54531V16.2437C9.54531 16.8242 10.116 16.7187 10.2908 16.6032ZM10.7295 16.1612H11.6366C11.6366 15.6268 11.3925 15.4157 11.0627 15.4157C10.713 15.4157 10.4623 15.6763 10.4623 16.0523C10.4623 16.7286 11.2078 16.8407 11.5773 16.5207L11.4519 16.3228C11.1946 16.5339 10.8054 16.5142 10.7295 16.1612ZM12.679 15.452C12.5273 15.386 12.2964 15.3926 12.1776 15.5971V15.452H11.9071V16.6626H12.1776V15.9798C12.1776 15.5971 12.491 15.6466 12.5998 15.7027L12.679 15.452ZM13.0286 16.0556C13.0286 15.6796 13.4113 15.5576 13.7115 15.7786L13.8368 15.5642C13.4542 15.264 12.7582 15.4289 12.7582 16.0589C12.7582 16.7121 13.497 16.844 13.8368 16.5537L13.7115 16.3393C13.408 16.5537 13.0286 16.4251 13.0286 16.0556ZM15.2288 15.452H14.9583V15.5971C14.6845 15.2343 13.972 15.4388 13.972 16.0556C13.972 16.689 14.7109 16.8704 14.9583 16.5142V16.6659H15.2288V15.452ZM16.3405 15.452C16.2613 15.4124 15.9776 15.3563 15.8391 15.5971V15.452H15.5785V16.6626H15.8391V15.9798C15.8391 15.6169 16.1359 15.64 16.2613 15.7027L16.3405 15.452ZM17.6698 14.9605H17.4092V15.5971C17.1387 15.2376 16.4229 15.4289 16.4229 16.0556C16.4229 16.6956 17.1651 16.8671 17.4092 16.5142V16.6659H17.6698V14.9605ZM17.9205 12.4832V12.635H17.9469V12.4832H18.0095V12.4569H17.8578V12.4832H17.9205ZM18.1382 16.5669C18.1382 16.5504 18.1382 16.5306 18.1283 16.5142C18.1184 16.5043 18.1118 16.4878 18.1019 16.4779C18.092 16.468 18.0755 16.4614 18.0656 16.4515C18.0491 16.4515 18.0293 16.4416 18.0128 16.4416C18.003 16.4416 17.9865 16.4515 17.9667 16.4515C17.9502 16.4614 17.9403 16.468 17.9304 16.4779C17.9139 16.4878 17.904 16.5043 17.904 16.5142C17.8941 16.5306 17.8941 16.5504 17.8941 16.5669C17.8941 16.5768 17.8941 16.5933 17.904 16.6131C17.904 16.623 17.9139 16.6395 17.9304 16.6494C17.9403 16.6593 17.9469 16.6659 17.9667 16.6758C17.9832 16.6857 18.003 16.6857 18.0128 16.6857C18.0293 16.6857 18.0491 16.6857 18.0656 16.6758C18.0755 16.6659 18.092 16.6593 18.1019 16.6494C18.1118 16.6395 18.1184 16.623 18.1283 16.6131C18.1382 16.5933 18.1382 16.5768 18.1382 16.5669ZM18.2438 12.4536H18.1976L18.1448 12.569L18.092 12.4536H18.0458V12.6317H18.0722V12.4964L18.125 12.6119H18.1613L18.2075 12.4964V12.6317H18.2438V12.4536ZM18.3889 9.79818C18.3889 7.28464 16.3405 5.2362 13.8203 5.2362C12.9231 5.2362 12.0424 5.50669 11.2969 5.99818C13.6752 7.95426 13.7115 11.6553 11.2969 13.6015C12.0424 14.0963 12.9297 14.3635 13.8203 14.3635C16.3405 14.3668 18.3889 12.3216 18.3889 9.79818Z" fill="currentColor"/>
</svg>
