<svg width="22" height="22" viewBox="0 0 22 22" fill="none" xmlns="http://www.w3.org/2000/svg">
<path fill-rule="evenodd" clip-rule="evenodd" d="M5.23536 15.4972L3.91647 15.5057C3.42543 15.5052 3.44186 15.4567 3.52734 14.0059L18.4894 13.973C18.5091 14.3101 18.5717 15.2294 18.4336 15.4795L17.092 15.5057C16.6252 15.5057 16.7973 15.5133 16.6493 15.167C16.5621 14.9634 16.4195 14.8287 16.1522 14.7809C15.483 14.6608 15.4227 15.1496 15.2159 15.4939L14.3067 15.5004C14.1007 15.1567 14.0507 14.7598 13.4996 14.7697C12.881 14.7809 12.9235 15.1722 12.7001 15.4926C11.6214 15.5561 11.8003 15.5205 11.6531 15.1715C11.5608 14.953 11.4766 14.8388 11.1592 14.7831C10.4251 14.6545 10.421 15.201 10.2181 15.4894L9.31612 15.4967C9.08089 15.1793 9.11438 14.8155 8.57199 14.7706C7.92339 14.7172 7.93838 15.1299 7.73871 15.4803L6.80544 15.4951C6.62443 15.0903 6.56128 14.7872 6.04616 14.7694C5.40282 14.747 5.43216 15.1125 5.23536 15.4972ZM16.7593 6.52163C17.2434 6.52163 18.2396 6.37131 18.4388 6.74122C18.6327 7.10124 18.4603 7.32354 18.2932 7.49254C18.1023 7.68563 18.0306 7.7742 17.8942 8.02427C17.6663 8.44174 17.5008 9.02278 17.5201 9.61403C17.5795 11.4365 18.9011 11.4384 18.4468 12.5173L3.57231 12.486C3.08271 11.4745 4.46412 11.5158 4.49554 9.61387C4.52919 7.57089 3.21317 7.60105 3.56338 6.80426C3.75715 6.36333 4.66395 6.52163 5.18082 6.52163H16.7593ZM2.05104 7.81856C2.14115 8.31359 2.66105 8.3404 2.92371 8.94043C3.15958 9.47998 2.96789 10.0993 2.69597 10.4514C2.24784 11.0313 2.03509 10.6132 2.04179 11.8027C2.04562 12.4666 2.04243 13.1312 2.04243 13.7951C2.04243 15.2323 1.75026 16.8104 2.8671 16.962C3.45111 17.0413 13.6406 16.9718 14.763 16.9718C20.5886 16.9718 19.973 17.4044 19.973 14.26L19.9677 11.2686C19.8907 10.5626 18.7517 10.583 19.0142 9.22114C19.1506 8.51403 19.6324 8.43567 19.867 8.06528C20.0952 7.70526 19.9955 6.69047 19.8244 6.28561C19.6171 5.79473 19.3217 5.4877 18.86 5.25598C18.0884 4.86867 16.1406 5.03591 15.1623 5.03591C12.5004 5.03591 9.83874 5.03591 7.17703 5.03591C6.27995 5.03591 4.01902 4.92852 3.33214 5.17922C2.42964 5.50876 1.81405 6.51637 2.05104 7.81856Z" fill="currentColor"/>
<path fill-rule="evenodd" clip-rule="evenodd" d="M15.4628 10.8733C15.5406 10.5773 15.543 8.59734 15.4849 8.22152C15.3494 7.34333 14.2169 7.29769 14.0546 8.13327C13.9839 8.4968 13.9833 10.3732 14.0351 10.8034C14.138 11.6551 15.2258 11.7743 15.4628 10.8733Z" fill="currentColor"/>
<path fill-rule="evenodd" clip-rule="evenodd" d="M11.6962 11.0061C11.7924 10.7528 11.7836 8.74527 11.7551 8.3495C11.6817 7.33758 10.5524 7.33886 10.3422 7.98629C10.2387 8.30498 10.2483 10.2528 10.2807 10.6781C10.363 11.7593 11.4509 11.6524 11.6962 11.0061Z" fill="currentColor"/>
<path fill-rule="evenodd" clip-rule="evenodd" d="M7.96535 10.9397C8.04142 10.6828 8.04015 8.67298 8.00618 8.29014C7.92644 7.39424 6.81678 7.28444 6.57709 8.06608C6.49798 8.32413 6.50038 10.3934 6.53753 10.7407C6.63705 11.6712 7.73379 11.7205 7.96535 10.9397Z" fill="currentColor"/>
</svg>
