<svg width="22" height="22" viewBox="0 0 22 22" fill="none" xmlns="http://www.w3.org/2000/svg">
<path d="M9.62498 1.83591C9.00618 1.84429 8.6347 1.88012 8.33433 2.03316C7.98937 2.20893 7.7089 2.4894 7.53313 2.83436C7.38009 3.13473 7.34426 3.50621 7.33588 4.12501M17.875 1.83591C18.4938 1.84429 18.8653 1.88012 19.1656 2.03316C19.5106 2.20893 19.7911 2.4894 19.9668 2.83436C20.1199 3.13473 20.1557 3.50621 20.1641 4.125M20.1641 12.375C20.1557 12.9938 20.1199 13.3653 19.9668 13.6657C19.7911 14.0106 19.5106 14.2911 19.1656 14.4669C18.8653 14.6199 18.4938 14.6557 17.875 14.6641M20.1666 7.33334V9.16667M12.8334 1.83334H14.6666M4.76665 20.1667H11.7333C12.7601 20.1667 13.2735 20.1667 13.6656 19.9669C14.0106 19.7911 14.2911 19.5106 14.4668 19.1657C14.6666 18.7735 14.6666 18.2601 14.6666 17.2333V10.2667C14.6666 9.23991 14.6666 8.72653 14.4668 8.33436C14.2911 7.9894 14.0106 7.70893 13.6656 7.53316C13.2735 7.33334 12.7601 7.33334 11.7333 7.33334H4.76665C3.73988 7.33334 3.2265 7.33334 2.83433 7.53316C2.48937 7.70893 2.2089 7.9894 2.03313 8.33436C1.83331 8.72653 1.83331 9.23991 1.83331 10.2667V17.2333C1.83331 18.2601 1.83331 18.7735 2.03313 19.1657C2.2089 19.5106 2.48937 19.7911 2.83433 19.9669C3.2265 20.1667 3.73988 20.1667 4.76665 20.1667Z" stroke="currentColor" stroke-width="1.5" stroke-linecap="round" stroke-linejoin="round"/>
</svg>
