<svg width="22" height="22" viewBox="0 0 22 22" fill="none" xmlns="http://www.w3.org/2000/svg">
<path fill-rule="evenodd" clip-rule="evenodd" d="M7.32 1.25H7.28828H7.28827C6.55914 1.24999 5.96647 1.24999 5.48557 1.28928C4.98896 1.32985 4.54587 1.41604 4.13373 1.62603C3.48457 1.95679 2.95679 2.48457 2.62603 3.13373C2.41604 3.54587 2.32985 3.98896 2.28928 4.48557C2.24999 4.96647 2.24999 5.55914 2.25 6.28827V6.28828V6.32V15.68V15.7117C2.24999 16.4409 2.24999 17.0335 2.28928 17.5144C2.32985 18.011 2.41604 18.4541 2.62603 18.8663C2.95679 19.5154 3.48457 20.0432 4.13373 20.374C4.54586 20.584 4.98896 20.6701 5.48557 20.7107C5.96645 20.75 6.55909 20.75 7.28818 20.75H7.28826H7.32H9.75C10.1642 20.75 10.5 20.4142 10.5 20C10.5 19.5858 10.1642 19.25 9.75 19.25H7.32C6.55155 19.25 6.02033 19.2494 5.60772 19.2157C5.20387 19.1827 4.98015 19.1218 4.81472 19.0375C4.4478 18.8505 4.14949 18.5522 3.96254 18.1853C3.87825 18.0199 3.81729 17.7961 3.78429 17.3923C3.75058 16.9797 3.75 16.4484 3.75 15.68V6.32C3.75 5.55155 3.75058 5.02033 3.78429 4.60772C3.81729 4.20387 3.87825 3.98015 3.96254 3.81472C4.14949 3.4478 4.4478 3.14949 4.81472 2.96254C4.98015 2.87825 5.20387 2.81729 5.60772 2.78429C6.02033 2.75058 6.55155 2.75 7.32 2.75H13.08C13.8484 2.75 14.3797 2.75058 14.7923 2.78429C15.1961 2.81729 15.4199 2.87825 15.5853 2.96254C15.9522 3.14949 16.2505 3.4478 16.4375 3.81472C16.5218 3.98015 16.5827 4.20387 16.6157 4.60772C16.6494 5.02033 16.65 5.55155 16.65 6.32V9.65C16.65 10.0642 16.9858 10.4 17.4 10.4C17.8142 10.4 18.15 10.0642 18.15 9.65V6.32V6.28826C18.15 5.55913 18.15 4.96647 18.1107 4.48557C18.0701 3.98896 17.984 3.54586 17.774 3.13373C17.4432 2.48457 16.9154 1.95679 16.2663 1.62603C15.8541 1.41604 15.411 1.32985 14.9144 1.28928C14.4335 1.24999 13.8409 1.24999 13.1117 1.25H13.08H7.32ZM6.6 5.75C6.18579 5.75 5.85 6.08579 5.85 6.5C5.85 6.91421 6.18579 7.25 6.6 7.25H13.8C14.2142 7.25 14.55 6.91421 14.55 6.5C14.55 6.08579 14.2142 5.75 13.8 5.75H6.6ZM6.6 9.35C6.18579 9.35 5.85 9.68579 5.85 10.1C5.85 10.5142 6.18579 10.85 6.6 10.85H12C12.4142 10.85 12.75 10.5142 12.75 10.1C12.75 9.68579 12.4142 9.35 12 9.35H6.6ZM6.6 12.95C6.18579 12.95 5.85 13.2858 5.85 13.7C5.85 14.1142 6.18579 14.45 6.6 14.45H8.4C8.81421 14.45 9.15 14.1142 9.15 13.7C9.15 13.2858 8.81421 12.95 8.4 12.95H6.6ZM12.8349 12.2322L12.8157 12.2242C12.7199 12.1842 12.607 12.1371 12.5088 12.1061C12.428 12.0805 12.1815 12.0025 11.9043 12.0923C11.6139 12.1864 11.3863 12.414 11.2923 12.7043C11.2024 12.9816 11.2804 13.2281 11.306 13.3089C11.3371 13.4071 11.3842 13.5199 11.4241 13.6158L11.4321 13.635L13.6542 18.9685L13.6625 18.9885L13.6625 18.9885C13.7058 19.0926 13.7553 19.2114 13.8048 19.3063L13.8063 19.309C13.8455 19.3842 13.9707 19.6242 14.2418 19.7552C14.5237 19.8915 14.8547 19.8803 15.1268 19.7254C15.3885 19.5764 15.4973 19.3286 15.5313 19.2509L15.5326 19.2481C15.5757 19.15 15.617 19.0282 15.6532 18.9215L15.6602 18.901L16.0101 17.8708L17.7473 19.608C18.0402 19.9009 18.515 19.9009 18.8079 19.608C19.1008 19.3151 19.1008 18.8402 18.8079 18.5473L17.0707 16.8101L18.1009 16.4602L18.1214 16.4533C18.2282 16.417 18.35 16.3757 18.448 16.3326L18.4509 16.3314C18.5285 16.2973 18.7764 16.1886 18.9254 15.9269C19.0803 15.6547 19.0914 15.3238 18.9552 15.0419C18.8241 14.7707 18.5842 14.6455 18.509 14.6063L18.5062 14.6049C18.4113 14.5553 18.2926 14.5059 18.1885 14.4626L18.1685 14.4542L12.8349 12.2322ZM14.6037 17.3473L13.2158 14.0158L16.5472 15.4038L15.5971 15.7265L15.5917 15.7282C15.5605 15.7381 15.4265 15.7808 15.3076 15.8625C15.2116 15.9285 15.1285 16.0116 15.0624 16.1077C14.9808 16.2265 14.9381 16.3605 14.9282 16.3917L14.9282 16.3917L14.9264 16.3972L14.6037 17.3473ZM17.8131 15.9351L17.8152 15.9363C17.8152 15.9363 17.815 15.9361 17.8144 15.9359C17.8141 15.9357 17.8137 15.9354 17.8131 15.9351ZM17.846 14.9588L17.8481 14.9578C17.8481 14.9578 17.8474 14.9581 17.846 14.9588Z" fill="currentColor"/>
</svg>
