<svg width="22" height="22" viewBox="0 0 22 22" fill="none" xmlns="http://www.w3.org/2000/svg">
<path d="M20.1667 13.2916C20.1667 11.1434 18.5245 9.37866 16.4269 9.1844C15.9978 6.57443 13.7315 4.58331 11 4.58331C8.26857 4.58331 6.00217 6.57443 5.57311 9.1844C3.47556 9.37866 1.83334 11.1434 1.83334 13.2916C1.83334 15.5698 3.68017 17.4166 5.95834 17.4166H10.5001" stroke="currentColor" stroke-width="1.5" stroke-linecap="round" stroke-linejoin="round"/>
<path d="M16.2322 18.9099L16.7678 19.4454C17.5072 20.1849 18.706 20.1849 19.4454 19.4454C20.1849 18.706 20.1849 17.5072 19.4454 16.7678L18.9099 16.2322M14.0901 16.7678L13.5546 16.2322C12.8151 15.4928 12.8151 14.294 13.5546 13.5546C14.294 12.8151 15.4928 12.8151 16.2322 13.5546L16.7678 14.0901M17.8254 17.8254L15.1746 15.1746" stroke="currentColor" stroke-width="1.5" stroke-linecap="round" stroke-linejoin="round"/>
</svg>
