<svg width="22" height="22" viewBox="0 0 22 22" fill="none" xmlns="http://www.w3.org/2000/svg">
<path d="M20.1666 9.62502L19.7318 6.14593C19.5612 4.78137 19.4759 4.09907 19.1548 3.58492C18.8719 3.13192 18.4631 2.77111 17.9785 2.54656C17.4285 2.29169 16.7409 2.29169 15.3657 2.29169H6.63422C5.25903 2.29169 4.57143 2.29169 4.02142 2.54656C3.53682 2.77111 3.12811 3.13192 2.84518 3.58492C2.52406 4.09907 2.43877 4.78136 2.2682 6.14593L1.83331 9.62502M5.04165 13.2917H16.9583M5.04165 13.2917C3.26973 13.2917 1.83331 11.8553 1.83331 10.0834C1.83331 8.31144 3.26973 6.87502 5.04165 6.87502H16.9583C18.7302 6.87502 20.1666 8.31144 20.1666 10.0834C20.1666 11.8553 18.7302 13.2917 16.9583 13.2917M5.04165 13.2917C3.26973 13.2917 1.83331 14.7281 1.83331 16.5C1.83331 18.2719 3.26973 19.7084 5.04165 19.7084H16.9583C18.7302 19.7084 20.1666 18.2719 20.1666 16.5C20.1666 14.7281 18.7302 13.2917 16.9583 13.2917M5.49998 10.0834H5.50915M5.49998 16.5H5.50915M11 10.0834H16.5M11 16.5H16.5" stroke="currentColor" stroke-width="1.5" stroke-linecap="round" stroke-linejoin="round"/>
</svg>
