<svg width="22" height="22" viewBox="0 0 22 22" fill="none" xmlns="http://www.w3.org/2000/svg">
<path d="M8.57489 19.25C9.22126 19.8205 10.0703 20.1666 11.0002 20.1666C11.9301 20.1666 12.7792 19.8205 13.4256 19.25M2.10296 5.33488C2.08981 4.00448 2.80708 2.76212 3.96582 2.10831M19.8939 5.33489C19.907 4.00448 19.1897 2.76213 18.031 2.10832M16.5002 7.33331C16.5002 5.87462 15.9208 4.47568 14.8893 3.44423C13.8579 2.41278 12.4589 1.83331 11.0002 1.83331C9.54154 1.83331 8.14259 2.41278 7.11114 3.44423C6.07969 4.47568 5.50023 5.87462 5.50023 7.33331C5.50023 10.166 4.78566 12.1054 3.98742 13.3883C3.31409 14.4704 2.97743 15.0114 2.98978 15.1623C3.00345 15.3295 3.03885 15.3932 3.17352 15.4931C3.29515 15.5833 3.84344 15.5833 4.94001 15.5833H17.0604C18.157 15.5833 18.7053 15.5833 18.8269 15.4931C18.9616 15.3932 18.997 15.3295 19.0107 15.1623C19.023 15.0114 18.6864 14.4704 18.013 13.3883C17.2148 12.1054 16.5002 10.166 16.5002 7.33331Z" stroke="currentColor" stroke-width="1.5" stroke-linecap="round" stroke-linejoin="round"/>
</svg>
