<svg width="22" height="22" viewBox="0 0 22 22" fill="none" xmlns="http://www.w3.org/2000/svg">
<path d="M8.57467 19.25C9.22104 19.8205 10.0701 20.1666 11 20.1666C11.9299 20.1666 12.779 19.8205 13.4253 19.25M16.5 7.33331C16.5 5.87462 15.9205 4.47568 14.8891 3.44423C13.8576 2.41278 12.4587 1.83331 11 1.83331C9.54132 1.83331 8.14237 2.41278 7.11092 3.44423C6.07947 4.47568 5.50001 5.87462 5.50001 7.33331C5.50001 10.166 4.78544 12.1054 3.9872 13.3883C3.31387 14.4704 2.97721 15.0114 2.98955 15.1623C3.00322 15.3295 3.03863 15.3932 3.1733 15.4931C3.29493 15.5833 3.84322 15.5833 4.93979 15.5833H17.0602C18.1568 15.5833 18.7051 15.5833 18.8267 15.4931C18.9614 15.3932 18.9968 15.3295 19.0105 15.1623C19.0228 15.0114 18.6861 14.4704 18.0128 13.3883C17.2146 12.1054 16.5 10.166 16.5 7.33331Z" stroke="currentColor" stroke-width="1.5" stroke-linecap="round" stroke-linejoin="round"/>
</svg>
