<svg width="22" height="22" viewBox="0 0 22 22" fill="none" xmlns="http://www.w3.org/2000/svg">
<path d="M11.9167 10.0833H16.3167C17.3434 10.0833 17.8568 10.0833 18.249 10.2832C18.5939 10.4589 18.8744 10.7394 19.0502 11.0844C19.25 11.4765 19.25 11.9899 19.25 13.0167V19.25M11.9167 19.25V5.68333C11.9167 4.65657 11.9167 4.14319 11.7168 3.75102C11.5411 3.40605 11.2606 3.12559 10.9157 2.94982C10.5235 2.75 10.0101 2.75 8.98334 2.75H5.68334C4.65657 2.75 4.14319 2.75 3.75102 2.94982C3.40606 3.12559 3.12559 3.40605 2.94982 3.75102C2.75 4.14319 2.75 4.65657 2.75 5.68333V19.25M20.1667 19.25H1.83334M5.95834 6.41667H8.70834M5.95834 10.0833H8.70834M5.95834 13.75H8.70834" stroke="currentColor" stroke-width="1.5" stroke-linecap="round" stroke-linejoin="round"/>
</svg>
