<svg width="22" height="22" viewBox="0 0 22 22" fill="none" xmlns="http://www.w3.org/2000/svg">
<path d="M6.50837 3.27018C7.87346 2.46314 9.46598 2 11.1667 2C16.2293 2 20.3333 6.10406 20.3333 11.1667C20.3333 11.197 20.3332 11.2274 20.3329 11.2577M3.26605 6.51536C2.46156 7.8789 2 9.46888 2 11.1667C2 15.438 4.92135 19.0269 8.875 20.0445M19.1487 15.6772C17.9383 17.8145 15.8942 19.4176 13.4583 20.0445M13.0819 6.00929C12.4855 5.78773 11.8402 5.66667 11.1667 5.66667C8.1291 5.66667 5.66667 8.1291 5.66667 11.1667C5.66667 11.8439 5.78905 12.4925 6.01291 13.0916M16.323 9.2487C16.5452 9.84587 16.6667 10.4921 16.6667 11.1667C16.6667 14.2042 14.2042 16.6667 11.1667 16.6667C10.4976 16.6667 9.85649 16.5472 9.26342 16.3285M11.1667 9.33333V13" stroke="currentColor" stroke-width="1.5" stroke-linecap="round" stroke-linejoin="round"/>
</svg>
