<svg width="22" height="22" viewBox="0 0 22 22" fill="none" xmlns="http://www.w3.org/2000/svg">
<path d="M18.7916 6.67128L11 11M11 11L3.2083 6.67128M11 11L11 19.7083M12.8333 19.1482L11.7123 19.771C11.4523 19.9154 11.3223 19.9876 11.1847 20.0159C11.0628 20.041 10.9372 20.041 10.8153 20.0159C10.6777 19.9876 10.5477 19.9154 10.2877 19.771L3.50439 16.0024C3.22984 15.8499 3.09254 15.7736 2.99258 15.6652C2.90414 15.5692 2.83722 15.4555 2.79628 15.3315C2.75 15.1915 2.75 15.0344 2.75 14.7203V7.27967C2.75 6.96558 2.75 6.80853 2.79628 6.66847C2.83722 6.54456 2.90414 6.43081 2.99258 6.33485C3.09254 6.22637 3.22983 6.1501 3.50439 5.99757L10.2877 2.22905C10.5477 2.08462 10.6777 2.01241 10.8153 1.98409C10.9372 1.95904 11.0628 1.95904 11.1847 1.98409C11.3223 2.01241 11.4523 2.08462 11.7123 2.22905L18.4956 5.99757C18.7702 6.1501 18.9075 6.22637 19.0074 6.33485C19.0959 6.43081 19.1628 6.54455 19.2037 6.66847C19.25 6.80853 19.25 6.96558 19.25 7.27966L19.25 11.4583M6.875 4.12501L15.125 8.70834M14.6667 16.5L16.5 18.3333L20.1667 14.6667" stroke="currentColor" stroke-width="1.5" stroke-linecap="round" stroke-linejoin="round"/>
</svg>
