<svg width="22" height="22" viewBox="0 0 22 22" fill="none" xmlns="http://www.w3.org/2000/svg">
<path d="M20.1667 19.25V17.4167C20.1667 15.7081 18.9981 14.2726 17.4167 13.8655M14.2083 3.01653C15.5521 3.56047 16.5 4.87787 16.5 6.41667C16.5 7.95547 15.5521 9.27287 14.2083 9.8168M15.5833 19.25C15.5833 17.5415 15.5833 16.6873 15.3042 16.0135C14.9321 15.1151 14.2183 14.4013 13.3198 14.0291C12.646 13.75 11.7918 13.75 10.0833 13.75H7.33334C5.62489 13.75 4.77066 13.75 4.09684 14.0291C3.1984 14.4013 2.4846 15.1151 2.11245 16.0135C1.83334 16.6873 1.83334 17.5415 1.83334 19.25M12.375 6.41667C12.375 8.44171 10.7334 10.0833 8.70834 10.0833C6.6833 10.0833 5.04168 8.44171 5.04168 6.41667C5.04168 4.39162 6.6833 2.75 8.70834 2.75C10.7334 2.75 12.375 4.39162 12.375 6.41667Z" stroke="currentColor" stroke-width="1.5" stroke-linecap="round" stroke-linejoin="round"/>
</svg>
