<svg width="22" height="22" viewBox="0 0 22 22" fill="none" xmlns="http://www.w3.org/2000/svg">
<path d="M18.3333 19.25C18.3333 17.9707 18.3333 17.3311 18.1754 16.8106C17.82 15.6387 16.9029 14.7217 15.731 14.3662C15.2106 14.2083 14.5709 14.2083 13.2917 14.2083H8.70833C7.42906 14.2083 6.78942 14.2083 6.26894 14.3662C5.09707 14.7217 4.18003 15.6387 3.82454 16.8106C3.66666 17.3311 3.66666 17.9707 3.66666 19.25M15.125 6.875C15.125 9.15317 13.2782 11 11 11C8.72182 11 6.87499 9.15317 6.87499 6.875C6.87499 4.59683 8.72182 2.75 11 2.75C13.2782 2.75 15.125 4.59683 15.125 6.875Z" stroke="currentColor" stroke-width="1.5" stroke-linecap="round" stroke-linejoin="round"/>
</svg>
