<svg width="22" height="22" viewBox="0 0 22 22" fill="none" xmlns="http://www.w3.org/2000/svg">
<path d="M7.68192 8.11545C8.31992 9.44427 9.18964 10.6897 10.2911 11.7911C11.3925 12.8926 12.638 13.7623 13.9668 14.4003C14.0811 14.4552 14.1382 14.4826 14.2105 14.5037C14.4675 14.5786 14.7831 14.5248 15.0007 14.369C15.062 14.3251 15.1144 14.2727 15.2192 14.1679C15.5396 13.8475 15.6999 13.6872 15.861 13.5825C16.4687 13.1874 17.252 13.1874 17.8597 13.5825C18.0208 13.6872 18.181 13.8475 18.5015 14.1679L18.6801 14.3466C19.1673 14.8337 19.4109 15.0773 19.5432 15.3389C19.8063 15.8592 19.8063 16.4736 19.5432 16.9938C19.4109 17.2554 19.1673 17.499 18.6801 17.9862L18.5356 18.1307C18.0502 18.6161 17.8074 18.8589 17.4774 19.0443C17.1112 19.25 16.5424 19.3979 16.1223 19.3967C15.7438 19.3955 15.4851 19.3221 14.9677 19.1753C12.1871 18.386 9.56325 16.8969 7.37427 14.708C5.18529 12.519 3.69619 9.89514 2.90697 7.11453C2.76011 6.59712 2.68668 6.33841 2.68555 5.95988C2.6843 5.53984 2.83222 4.97106 3.03794 4.60484C3.22333 4.27481 3.46608 4.03207 3.95156 3.54658L4.09606 3.40208C4.58322 2.91493 4.8268 2.67135 5.08839 2.53904C5.60866 2.27589 6.22307 2.27589 6.74333 2.53904C7.00493 2.67135 7.24851 2.91493 7.73567 3.40208L7.9143 3.58071C8.23477 3.90119 8.395 4.06142 8.49977 4.22255C8.89484 4.8302 8.89485 5.61357 8.49977 6.22122C8.395 6.38235 8.23477 6.54258 7.9143 6.86306C7.80951 6.96784 7.75712 7.02024 7.71326 7.08148C7.55742 7.29912 7.50361 7.61469 7.57852 7.87169C7.5996 7.944 7.62704 8.00115 7.68192 8.11545Z" stroke="currentColor" stroke-width="1.5" stroke-linecap="round" stroke-linejoin="round"/>
</svg>
