<svg width="22" height="22" viewBox="0 0 22 22" fill="none" xmlns="http://www.w3.org/2000/svg">
<path d="M19.4429 14.5659C18.8597 15.945 17.9476 17.1602 16.7863 18.1054C15.6249 19.0505 14.2498 19.6968 12.7809 19.9877C11.3121 20.2786 9.79443 20.2053 8.36051 19.7742C6.92659 19.343 5.62012 18.5672 4.55531 17.5145C3.49051 16.4617 2.69979 15.1642 2.2523 13.7353C1.8048 12.3064 1.71414 10.7896 1.98826 9.3176C2.26238 7.84557 2.89292 6.4631 3.82476 5.29105C4.75659 4.119 5.96136 3.19306 7.33371 2.59419M19.4693 7.49209C19.8362 8.37802 20.0613 9.31461 20.1377 10.2675C20.1566 10.5029 20.166 10.6206 20.1193 10.7266C20.0802 10.8152 20.0029 10.899 19.9177 10.945C19.8158 11 19.6884 11 19.4337 11H11.7337C11.477 11 11.3487 11 11.2506 10.9501C11.1644 10.9061 11.0943 10.836 11.0503 10.7498C11.0004 10.6517 11.0004 10.5234 11.0004 10.2667V2.56669C11.0004 2.31198 11.0004 2.18462 11.0554 2.08267C11.1014 1.99751 11.1853 1.92015 11.2738 1.88111C11.3798 1.83437 11.4975 1.8438 11.7329 1.86267C12.6858 1.93907 13.6224 2.16417 14.5083 2.53113C15.6205 2.9918 16.631 3.66701 17.4822 4.51821C18.3334 5.36941 19.0086 6.37994 19.4693 7.49209Z" stroke="currentColor" stroke-width="1.5" stroke-linecap="round" stroke-linejoin="round"/>
</svg>
