<svg width="22" height="22" viewBox="0 0 22 22" fill="none" xmlns="http://www.w3.org/2000/svg">
<path d="M7.67867 14.315L2.49323 19.5004M10.7199 6.08838L9.28908 7.51919C9.17236 7.63591 9.114 7.69426 9.04752 7.74063C8.9885 7.78179 8.92485 7.81586 8.85787 7.84213C8.7824 7.87173 8.70148 7.88792 8.53962 7.92029L5.18053 8.59211C4.30759 8.7667 3.87111 8.85399 3.66691 9.08412C3.48902 9.28461 3.40779 9.55291 3.44459 9.8184C3.48684 10.1231 3.80159 10.4379 4.43108 11.0674L10.9263 17.5626C11.5558 18.1921 11.8706 18.5069 12.1753 18.5491C12.4408 18.5859 12.7091 18.5047 12.9096 18.3268C13.1397 18.1226 13.227 17.6861 13.4016 16.8132L14.0734 13.4541C14.1058 13.2922 14.122 13.2113 14.1516 13.1359C14.1779 13.0689 14.2119 13.0052 14.2531 12.9462C14.2995 12.8797 14.3578 12.8214 14.4745 12.7046L15.9053 11.2738C15.98 11.1992 16.0173 11.1619 16.0583 11.1293C16.0947 11.1004 16.1333 11.0743 16.1737 11.0512C16.2192 11.0252 16.2677 11.0044 16.3647 10.9628L18.6512 9.98292C19.3182 9.69703 19.6518 9.55409 19.8033 9.32311C19.9358 9.12111 19.9832 8.87499 19.9352 8.63824C19.8803 8.36751 19.6237 8.11092 19.1105 7.59775L14.396 2.8832C13.8828 2.37003 13.6262 2.11344 13.3555 2.05856C13.1187 2.01057 12.8726 2.05797 12.6706 2.19045C12.4396 2.34196 12.2967 2.67549 12.0108 3.34255L11.0309 5.62904C10.9893 5.72604 10.9685 5.77454 10.9425 5.82002C10.9195 5.86042 10.8933 5.899 10.8644 5.93543C10.8318 5.97645 10.7945 6.01376 10.7199 6.08838Z" stroke="currentColor" stroke-width="1.5" stroke-linecap="round" stroke-linejoin="round"/>
</svg>
