<svg width="22" height="22" viewBox="0 0 22 22" fill="none" xmlns="http://www.w3.org/2000/svg">
<path d="M11.1667 20.3333C16.2293 20.3333 20.3333 16.2293 20.3333 11.1667C20.3333 6.10406 16.2293 2 11.1667 2C6.10406 2 2 6.10406 2 11.1667C2 16.2293 6.10406 20.3333 11.1667 20.3333Z" stroke="currentColor" stroke-width="1.5" stroke-linecap="round" stroke-linejoin="round"/>
<path d="M8.875 8.38489C8.875 7.94738 8.875 7.72862 8.96643 7.6065C9.04611 7.50007 9.16807 7.43348 9.30068 7.42401C9.45285 7.41314 9.63686 7.53144 10.0049 7.76802L14.3321 10.5498C14.6515 10.7551 14.8111 10.8578 14.8663 10.9883C14.9145 11.1023 14.9145 11.231 14.8663 11.3451C14.8111 11.4756 14.6515 11.5782 14.3321 11.7835L10.0049 14.5653C9.63686 14.8019 9.45285 14.9202 9.30068 14.9093C9.16807 14.8999 9.04611 14.8333 8.96643 14.7268C8.875 14.6047 8.875 14.386 8.875 13.9484V8.38489Z" stroke="currentColor" stroke-width="1.5" stroke-linecap="round" stroke-linejoin="round"/>
</svg>
