<svg width="22" height="22" viewBox="0 0 22 22" fill="none" xmlns="http://www.w3.org/2000/svg">
<path fill-rule="evenodd" clip-rule="evenodd" d="M4.50399 2.88368C4.33953 3.12962 4.27549 3.45224 4.27549 3.66146V6.73461H11.6515V3.66146C11.6515 3.23352 11.765 2.60041 12.1331 2.04991C12.5281 1.45917 13.1979 1 14.1766 1C15.1553 1 15.8252 1.45917 16.2202 2.04991C16.5883 2.60041 16.7018 3.23352 16.7018 3.66146C16.7018 4.07567 16.366 4.41146 15.9518 4.41146C15.5376 4.41146 15.2018 4.07567 15.2018 3.66146C15.2018 3.45224 15.1377 3.12962 14.9733 2.88368C14.8357 2.67798 14.6181 2.5 14.1766 2.5C13.7352 2.5 13.5175 2.67798 13.38 2.88368C13.2155 3.12962 13.1515 3.45224 13.1515 3.66146V13.2188C13.1515 13.633 12.8157 13.9688 12.4015 13.9688C11.9873 13.9688 11.6515 13.633 11.6515 13.2188V12.0576H4.27549V13.2188C4.27549 13.633 3.9397 13.9688 3.52549 13.9688C3.11128 13.9688 2.77549 13.633 2.77549 13.2188V11.3206L2.77538 11.3076L2.77549 11.2945V7.49764L2.77538 7.48461L2.77549 7.47158V3.66146C2.77549 3.23352 2.88896 2.60041 3.25705 2.04991C3.65206 1.45917 4.32194 1 5.30064 1C6.27933 1 6.94922 1.45917 7.34422 2.04991C7.71231 2.60041 7.82578 3.23352 7.82578 3.66146C7.82578 4.07567 7.49 4.41146 7.07578 4.41146C6.66157 4.41146 6.32578 4.07567 6.32578 3.66146C6.32578 3.45224 6.26174 3.12962 6.09729 2.88368C5.95975 2.67798 5.74206 2.5 5.30064 2.5C4.85922 2.5 4.64153 2.67798 4.50399 2.88368ZM11.6515 10.5576V8.23461H4.27549V10.5576H11.6515ZM2.43039 14.8146C2.25591 14.4389 1.80993 14.2758 1.43425 14.4503C1.05858 14.6248 0.895485 15.0708 1.06997 15.4465C1.4421 16.2477 2.69307 17.7915 4.85668 17.7915C6.01841 17.7915 6.90471 17.2107 7.50758 16.6037C7.63341 16.4771 7.83399 16.3879 8.05259 16.3774C8.26974 16.367 8.43598 16.4357 8.53303 16.5319C9.12375 17.1175 10.0092 17.7915 11.0697 17.7915C12.2596 17.7915 13.2372 16.9428 13.8408 16.2887C14.0159 16.0989 14.3365 16.0989 14.5116 16.2887C15.1152 16.9428 16.0928 17.7915 17.2827 17.7915C18.2135 17.7915 19.0334 17.378 19.6452 16.93C20.2616 16.4786 20.7399 15.9392 21.0046 15.5593C21.2414 15.2194 21.1578 14.7519 20.8179 14.5151C20.4781 14.2784 20.0106 14.3619 19.7738 14.7018C19.5948 14.9588 19.2298 15.375 18.7589 15.7198C18.2834 16.0681 17.772 16.2915 17.2827 16.2915C16.7784 16.2915 16.1881 15.8937 15.6139 15.2714C14.8449 14.438 13.5075 14.438 12.7384 15.2714C12.1643 15.8937 11.574 16.2915 11.0697 16.2915C10.6314 16.2915 10.1168 15.9899 9.58908 15.4667C9.13822 15.0197 8.53352 14.8527 7.98078 14.8791C7.42949 14.9056 6.86123 15.126 6.44335 15.5467C6.00869 15.9843 5.48247 16.2915 4.85668 16.2915C3.47001 16.2915 2.64998 15.2874 2.43039 14.8146ZM2.43039 18.1594C2.25591 17.7837 1.80993 17.6206 1.43425 17.7951C1.05858 17.9696 0.895485 18.4155 1.06997 18.7912C1.4421 19.5924 2.69307 21.1363 4.85668 21.1363C6.01841 21.1363 6.90471 20.5554 7.50758 19.9485C7.63341 19.8218 7.83399 19.7327 8.05259 19.7222C8.26974 19.7118 8.43598 19.7805 8.53303 19.8767C9.12375 20.4623 10.0092 21.1363 11.0697 21.1363C12.2596 21.1363 13.2372 20.2876 13.8408 19.6334C14.0159 19.4437 14.3365 19.4437 14.5116 19.6334C15.1152 20.2876 16.0928 21.1363 17.2827 21.1363C18.2135 21.1363 19.0334 20.7228 19.6452 20.2748C20.2616 19.8233 20.7399 19.284 21.0046 18.904C21.2414 18.5641 21.1578 18.0967 20.8179 17.8599C20.4781 17.6231 20.0106 17.7067 19.7738 18.0466C19.5948 18.3036 19.2298 18.7197 18.7589 19.0646C18.2834 19.4128 17.772 19.6363 17.2827 19.6363C16.7784 19.6363 16.1881 19.2384 15.6139 18.6162C14.8449 17.7828 13.5075 17.7828 12.7384 18.6162C12.1643 19.2384 11.574 19.6363 11.0697 19.6363C10.6314 19.6363 10.1168 19.3346 9.58908 18.8114C9.13822 18.3645 8.53352 18.1974 7.98078 18.2239C7.42949 18.2503 6.86123 18.4707 6.44335 18.8914C6.00869 19.329 5.48247 19.6363 4.85668 19.6363C3.47001 19.6363 2.64998 18.6321 2.43039 18.1594Z" fill="currentColor"/>
</svg>
