<svg width="22" height="22" viewBox="0 0 22 22" fill="none" xmlns="http://www.w3.org/2000/svg">
<path d="M4.29167 20.3333V15.75M4.29167 6.58333V2M2 4.29167H6.58333M2 18.0417H6.58333M12.0833 2.91667L10.4937 7.04979C10.2352 7.72192 10.1059 8.05798 9.9049 8.34066C9.72676 8.5912 9.50786 8.81009 9.25733 8.98824C8.97465 9.18924 8.63858 9.31849 7.96646 9.577L3.83333 11.1667L7.96646 12.7563C8.63858 13.0148 8.97465 13.1441 9.25733 13.3451C9.50787 13.5232 9.72676 13.7421 9.9049 13.9927C10.1059 14.2754 10.2352 14.6114 10.4937 15.2835L12.0833 19.4167L13.673 15.2835C13.9315 14.6114 14.0608 14.2754 14.2618 13.9927C14.4399 13.7421 14.6588 13.5232 14.9093 13.3451C15.192 13.1441 15.5281 13.0148 16.2002 12.7563L20.3333 11.1667L16.2002 9.577C15.5281 9.31849 15.192 9.18924 14.9093 8.98824C14.6588 8.81009 14.4399 8.5912 14.2618 8.34066C14.0608 8.05798 13.9315 7.72192 13.673 7.04979L12.0833 2.91667Z" stroke="currentColor" stroke-width="1.5" stroke-linecap="round" stroke-linejoin="round"/>
</svg>
