<svg width="22" height="22" viewBox="0 0 22 22" fill="none" xmlns="http://www.w3.org/2000/svg">
<path d="M19.25 11L8.25 11M19.25 5.49998L8.25 5.49998M19.25 16.5L8.25 16.5M4.58333 11C4.58333 11.5062 4.17293 11.9166 3.66667 11.9166C3.16041 11.9166 2.75 11.5062 2.75 11C2.75 10.4937 3.16041 10.0833 3.66667 10.0833C4.17293 10.0833 4.58333 10.4937 4.58333 11ZM4.58333 5.49998C4.58333 6.00624 4.17293 6.41665 3.66667 6.41665C3.16041 6.41665 2.75 6.00624 2.75 5.49998C2.75 4.99372 3.16041 4.58331 3.66667 4.58331C4.17293 4.58331 4.58333 4.99372 4.58333 5.49998ZM4.58333 16.5C4.58333 17.0062 4.17293 17.4166 3.66667 17.4166C3.16041 17.4166 2.75 17.0062 2.75 16.5C2.75 15.9937 3.16041 15.5833 3.66667 15.5833C4.17293 15.5833 4.58333 15.9937 4.58333 16.5Z" stroke="currentColor" stroke-width="1.5" stroke-linecap="round" stroke-linejoin="round"/>
</svg>
