<svg width="22" height="22" viewBox="0 0 22 22" fill="none" xmlns="http://www.w3.org/2000/svg">
<path d="M6.87499 4.12498C6.87499 2.85933 7.90101 1.83331 9.16666 1.83331C10.4323 1.83331 11.4583 2.85933 11.4583 4.12498V5.49998H12.375C13.6563 5.49998 14.297 5.49998 14.8024 5.70931C15.4762 5.98842 16.0116 6.52377 16.2907 7.1976C16.5 7.70297 16.5 8.34364 16.5 9.62498H17.875C19.1406 9.62498 20.1667 10.651 20.1667 11.9166C20.1667 13.1823 19.1406 14.2083 17.875 14.2083H16.5V15.7666C16.5 17.3068 16.5 18.0769 16.2003 18.6651C15.9366 19.1826 15.5159 19.6033 14.9985 19.8669C14.4102 20.1666 13.6401 20.1666 12.1 20.1666H11.4583V18.5625C11.4583 17.4234 10.5349 16.5 9.39583 16.5C8.25674 16.5 7.33333 17.4234 7.33333 18.5625V20.1666H6.23333C4.69318 20.1666 3.92311 20.1666 3.33485 19.8669C2.81741 19.6033 2.39671 19.1826 2.13306 18.6651C1.83333 18.0769 1.83333 17.3068 1.83333 15.7666V14.2083H3.20833C4.47398 14.2083 5.49999 13.1823 5.49999 11.9166C5.49999 10.651 4.47398 9.62498 3.20833 9.62498H1.83333C1.83333 8.34364 1.83333 7.70297 2.04266 7.1976C2.32177 6.52377 2.85712 5.98842 3.53095 5.70931C4.03632 5.49998 4.67699 5.49998 5.95833 5.49998H6.87499V4.12498Z" stroke="currentColor" stroke-width="1.5" stroke-linecap="round" stroke-linejoin="round"/>
</svg>
