<svg width="22" height="22" viewBox="0 0 22 22" fill="none" xmlns="http://www.w3.org/2000/svg">
<path fill-rule="evenodd" clip-rule="evenodd" d="M3.5 4.58331C3.5 4.53192 3.53056 4.36359 3.86256 4.10195C4.18609 3.84697 4.70074 3.58455 5.40354 3.35028C6.8013 2.88436 8.78 2.58331 11 2.58331C13.22 2.58331 15.1987 2.88436 16.5965 3.35028C17.2993 3.58455 17.8139 3.84697 18.1374 4.10195C18.4694 4.36359 18.5 4.53192 18.5 4.58331C18.5 4.63471 18.4694 4.80304 18.1374 5.06468C17.8139 5.31965 17.2993 5.58208 16.5965 5.81634C15.1987 6.28227 13.22 6.58331 11 6.58331C8.78 6.58331 6.8013 6.28227 5.40354 5.81634C4.70074 5.58208 4.18609 5.31965 3.86256 5.06468C3.53056 4.80304 3.5 4.63471 3.5 4.58331ZM17.0708 7.23937C17.5989 7.06335 18.0838 6.85751 18.5 6.62003V8.91018C18.5 8.96481 18.4682 9.13364 18.1397 9.394C17.8186 9.64842 17.307 9.91045 16.6063 10.1444C15.2125 10.6097 13.2341 10.9102 11 10.9102C8.76591 10.9102 6.78752 10.6097 5.39375 10.1444C4.69299 9.91045 4.1814 9.64842 3.86033 9.394C3.53177 9.13364 3.5 8.96481 3.5 8.91018V6.62003C3.91623 6.85751 4.40114 7.06335 4.9292 7.23937C6.51735 7.76875 8.66365 8.08331 11 8.08331C13.3364 8.08331 15.4827 7.76875 17.0708 7.23937ZM4.91875 11.5672C4.39461 11.3922 3.91342 11.1876 3.5 10.9516V13.2366C3.5 13.2913 3.53177 13.4601 3.86033 13.7205C4.1814 13.9749 4.69299 14.2369 5.39375 14.4709C6.78752 14.9362 8.76591 15.2366 11 15.2366C11.4142 15.2366 11.75 15.5724 11.75 15.9866C11.75 16.4009 11.4142 16.7366 11 16.7366C8.65076 16.7366 6.50415 16.423 4.91875 15.8937C4.39461 15.7187 3.91342 15.5141 3.5 15.2781V17.4166C3.5 17.4713 3.53177 17.6401 3.86033 17.9005C4.1814 18.1549 4.69299 18.4169 5.39375 18.6509C6.78752 19.1162 8.76591 19.4166 11 19.4166C11.4142 19.4166 11.75 19.7524 11.75 20.1666C11.75 20.5809 11.4142 20.9166 11 20.9166C8.65076 20.9166 6.50415 20.603 4.91875 20.0737C4.12993 19.8103 3.43839 19.48 2.92873 19.0761C2.42656 18.6782 2 18.1228 2 17.4166V13.2366V8.91018V4.58331C2 3.87532 2.43114 3.3202 2.9341 2.92383C3.4455 2.5208 4.13904 2.19064 4.9292 1.92726C6.51735 1.39787 8.66365 1.08331 11 1.08331C13.3364 1.08331 15.4827 1.39787 17.0708 1.92726C17.861 2.19064 18.5545 2.5208 19.0659 2.92383C19.5689 3.3202 20 3.87532 20 4.58331V8.91018C20 9.61638 19.5734 10.1717 19.0713 10.5696C18.5616 10.9735 17.8701 11.3039 17.0812 11.5672C15.4958 12.0965 13.3492 12.4102 11 12.4102C8.65076 12.4102 6.50415 12.0965 4.91875 11.5672ZM14.4773 16.6364C14.4773 15.444 15.444 14.4773 16.6364 14.4773C17.8288 14.4773 18.7955 15.444 18.7955 16.6364C18.7955 17.2099 18.5718 17.7312 18.207 18.1179C18.1911 18.1314 18.1756 18.1456 18.1606 18.1606C18.1456 18.1756 18.1314 18.1911 18.1179 18.207C17.7312 18.5718 17.2099 18.7955 16.6364 18.7955C15.444 18.7955 14.4773 17.8288 14.4773 16.6364ZM20.2955 16.6364C20.2955 17.3755 20.0763 18.0635 19.6995 18.6388L20.8031 19.7424C21.096 20.0353 21.096 20.5102 20.8031 20.8031C20.5102 21.096 20.0353 21.096 19.7424 20.8031L18.6388 19.6995C18.0635 20.0763 17.3755 20.2955 16.6364 20.2955C14.6155 20.2955 12.9773 18.6572 12.9773 16.6364C12.9773 14.6155 14.6155 12.9773 16.6364 12.9773C18.6572 12.9773 20.2955 14.6155 20.2955 16.6364Z" fill="currentColor"/>
</svg>
