<svg width="22" height="22" viewBox="0 0 22 22" fill="none" xmlns="http://www.w3.org/2000/svg">
<path d="M14.0005 19.9919L14.7492 20.0356L14.0005 19.9919ZM14.281 20.1826L14.5698 20.8748L14.281 20.1826ZM16.1583 19.3987L16.7667 19.8373L16.1583 19.3987ZM16.157 19.3998L16.4458 20.0919L16.157 19.3998ZM14.1172 18.0094L14.7256 18.4479L14.1172 18.0094ZM14.1161 18.0125L14.8648 18.0562L14.1161 18.0125ZM17.35 13.5244L17.9584 13.963L17.35 13.5244ZM19.3916 14.9131L18.7832 14.4746L19.3916 14.9131ZM16.7416 13.0859L13.5088 17.5708L14.7256 18.4479L17.9584 13.963L16.7416 13.0859ZM16.7667 19.8373L20 15.3517L18.7832 14.4746L15.5499 18.9602L16.7667 19.8373ZM13.3674 17.9688L13.2518 19.9481L14.7492 20.0356L14.8648 18.0562L13.3674 17.9688ZM14.5698 20.8748L16.4458 20.0919L15.8681 18.7076L13.9921 19.4905L14.5698 20.8748ZM13.2518 19.9481C13.2088 20.6839 13.9545 21.1315 14.5698 20.8748L13.9921 19.4905C14.3313 19.349 14.7752 19.5913 14.7492 20.0356L13.2518 19.9481ZM15.5499 18.9602C15.6316 18.8468 15.7424 18.7601 15.8681 18.7076L16.4458 20.0919C16.5726 20.039 16.6843 19.9517 16.7667 19.8373L15.5499 18.9602ZM13.5088 17.5708C13.4259 17.6858 13.3758 17.8235 13.3674 17.9688L14.8648 18.0562C14.8565 18.1992 14.8072 18.3348 14.7256 18.4479L13.5088 17.5708ZM19.5145 12.5971C18.6148 11.9852 17.3778 12.2032 16.7416 13.0859L17.9584 13.963C18.1195 13.7394 18.443 13.6824 18.6709 13.8374L19.5145 12.5971ZM18.6709 13.8374C18.8855 13.9834 18.935 14.2639 18.7832 14.4746L20 15.3517C20.6456 14.456 20.4274 13.2181 19.5145 12.5971L18.6709 13.8374Z" fill="currentColor"/>
<path d="M19.25 4.58337C19.25 6.10216 15.5563 7.33337 11 7.33337C6.44365 7.33337 2.75 6.10216 2.75 4.58337M19.25 4.58337C19.25 3.06459 15.5563 1.83337 11 1.83337C6.44365 1.83337 2.75 3.06459 2.75 4.58337M19.25 4.58337V9.00004M2.75 4.58337V17.4167C2.75 18.9384 6.41667 20.1667 11 20.1667M19.25 8.91024C19.25 10.4319 15.5833 11.6602 11 11.6602C6.41667 11.6602 2.75 10.4319 2.75 8.91024M11 15.9867C6.41667 15.9867 2.75 14.7584 2.75 13.2367" stroke="currentColor" stroke-width="1.5" stroke-linecap="round" stroke-linejoin="round"/>
</svg>
