<svg width="22" height="22" viewBox="0 0 22 22" fill="none" xmlns="http://www.w3.org/2000/svg">
<path d="M8.33248 8.25001C8.54799 7.63737 8.97337 7.12077 9.53327 6.79172C10.0932 6.46266 10.7515 6.34237 11.3916 6.45216C12.0316 6.56196 12.6122 6.89474 13.0305 7.39158C13.4487 7.88841 13.6776 8.51724 13.6766 9.16668C13.6766 11 10.9266 11.9167 10.9266 11.9167M11 16.5C11 16.5 10.9964 15.3892 11 15M20.1666 11C20.1666 16.0626 16.0626 20.1667 11 20.1667C5.93737 20.1667 1.83331 16.0626 1.83331 11C1.83331 5.9374 5.93737 1.83334 11 1.83334C16.0626 1.83334 20.1666 5.9374 20.1666 11Z" stroke="currentColor" stroke-width="1.5" stroke-linecap="round" stroke-linejoin="round"/>
</svg>
