<svg width="22" height="22" viewBox="0 0 22 22" fill="none" xmlns="http://www.w3.org/2000/svg">
<path d="M5.49998 5.49998L7.33331 3.66665M7.33331 3.66665L5.49998 1.83331M7.33331 3.66665H5.49998C3.47494 3.66665 1.83331 5.30827 1.83331 7.33331M16.5 16.5L14.6666 18.3333M14.6666 18.3333L16.5 20.1666M14.6666 18.3333H16.5C18.525 18.3333 20.1666 16.6917 20.1666 14.6666M9.33992 5.95831C9.95048 3.58613 12.1039 1.83331 14.6666 1.83331C17.7042 1.83331 20.1666 4.29575 20.1666 7.33331C20.1666 9.89607 18.4139 12.0494 16.0417 12.66M12.8333 14.6666C12.8333 17.7042 10.3709 20.1666 7.33331 20.1666C4.29575 20.1666 1.83331 17.7042 1.83331 14.6666C1.83331 11.6291 4.29575 9.16665 7.33331 9.16665C10.3709 9.16665 12.8333 11.6291 12.8333 14.6666Z" stroke="currentColor" stroke-width="1.5" stroke-linecap="round" stroke-linejoin="round"/>
</svg>
