<svg width="22" height="22" viewBox="0 0 22 22" fill="none" xmlns="http://www.w3.org/2000/svg">
<path d="M9.20655 3.70831C9.20655 4.60578 7.44002 5.33331 5.2609 5.33331C3.08178 5.33331 1.31525 4.60578 1.31525 3.70831M9.20655 3.70831C9.20655 2.81085 7.44002 2.08331 5.2609 2.08331C3.08178 2.08331 1.31525 2.81085 1.31525 3.70831M9.20655 3.70831V11.2916C9.20655 12.1908 7.45293 12.9166 5.2609 12.9166C3.06887 12.9166 1.31525 12.1908 1.31525 11.2916V3.70831M9.20655 6.2651C9.20655 7.16426 7.45293 7.8901 5.2609 7.8901C3.06887 7.8901 1.31525 7.16426 1.31525 6.2651M9.20655 8.82165C9.20655 9.72081 7.45293 10.4466 5.2609 10.4466C3.06887 10.4466 1.31525 9.72081 1.31525 8.82165" stroke="currentColor" stroke-width="1.5" stroke-linecap="round" stroke-linejoin="round"/>
<path d="M20.5652 10.7083C20.5652 11.6058 18.6381 12.3333 16.2608 12.3333C13.8836 12.3333 11.9565 11.6058 11.9565 10.7083M20.5652 10.7083C20.5652 9.81085 18.6381 9.08331 16.2608 9.08331C13.8836 9.08331 11.9565 9.81085 11.9565 10.7083M20.5652 10.7083V18.2916C20.5652 19.1908 18.6521 19.9166 16.2608 19.9166C13.8695 19.9166 11.9565 19.1908 11.9565 18.2916V10.7083M20.5652 13.2651C20.5652 14.1643 18.6521 14.8901 16.2608 14.8901C13.8695 14.8901 11.9565 14.1643 11.9565 13.2651M20.5652 15.8216C20.5652 16.7208 18.6521 17.4466 16.2608 17.4466C13.8695 17.4466 11.9565 16.7208 11.9565 15.8216" stroke="currentColor" stroke-width="1.5" stroke-linecap="round" stroke-linejoin="round"/>
<path d="M9.27606 19.449C5.26085 20.5 4.19728 18.8575 3.34799 15.9999M5.26116 16.2505L3.11629 15.0597L2.10791 17.7972" stroke="currentColor" stroke-width="1.5" stroke-linecap="round" stroke-linejoin="round"/>
<path d="M12.0145 1.77367C16.0297 0.722656 17.0932 2.36516 17.9425 5.22274M16.0294 4.97215L18.1742 6.16299L19.1826 3.4255" stroke="currentColor" stroke-width="1.5" stroke-linecap="round" stroke-linejoin="round"/>
</svg>
