<svg width="22" height="22" viewBox="0 0 22 22" fill="none" xmlns="http://www.w3.org/2000/svg">
<path d="M9.272 5.6895H10.022V4.9395V3.09H10.255V18.92H10.022V16.204V15.454H9.272H7.10575C6.80213 15.454 6.556 15.2079 6.556 14.9042C6.556 14.6006 6.80213 14.3545 7.10575 14.3545H9.272H10.022V13.6045V11.8715V11.1215H9.272H5.37275C5.06913 11.1215 4.823 10.8754 4.823 10.5717C4.823 10.2681 5.06913 10.022 5.37275 10.022H9.272H10.022V9.272V7.539V6.789H9.272H3.63975C3.33613 6.789 3.09 6.54287 3.09 6.23925C3.09 5.93563 3.33613 5.6895 3.63975 5.6895H9.272ZM13.488 5.9395C13.488 5.80143 13.5999 5.6895 13.738 5.6895H14.3375C14.4756 5.6895 14.5875 5.80143 14.5875 5.9395V6.539C14.5875 6.67707 14.4756 6.789 14.3375 6.789H13.738C13.5999 6.789 13.488 6.67707 13.488 6.539V5.9395ZM13.488 10.5717C13.488 10.2681 13.7341 10.022 14.0377 10.022H15.7707C16.0744 10.022 16.3205 10.2681 16.3205 10.5717C16.3205 10.8754 16.0744 11.1215 15.7707 11.1215H14.0377C13.7341 11.1215 13.488 10.8754 13.488 10.5717ZM13.488 14.9042C13.488 14.6006 13.7341 14.3545 14.0377 14.3545H18.3702C18.6739 14.3545 18.92 14.6006 18.92 14.9042C18.92 15.2079 18.6739 15.454 18.3702 15.454H14.0377C13.7341 15.454 13.488 15.2079 13.488 14.9042Z" stroke="currentColor" stroke-width="1.5"/>
</svg>
