<svg width="22" height="22" viewBox="0 0 22 22" fill="none" xmlns="http://www.w3.org/2000/svg">
<path d="M9.62458 12.375L19.2496 2.75004M9.74153 12.6758L12.1506 18.8706C12.3629 19.4163 12.469 19.6892 12.6219 19.7689C12.7544 19.8379 12.9123 19.838 13.045 19.7691C13.198 19.6896 13.3044 19.4169 13.5173 18.8714L19.5584 3.39097C19.7506 2.89855 19.8466 2.65234 19.7941 2.49502C19.7484 2.35839 19.6412 2.25117 19.5046 2.20553C19.3473 2.15297 19.1011 2.24905 18.6087 2.44121L3.12822 8.48236C2.58273 8.69523 2.30999 8.80167 2.23051 8.95466C2.1616 9.08729 2.1617 9.24519 2.23075 9.37774C2.31042 9.53064 2.58329 9.63675 3.12902 9.84898L9.32386 12.2581C9.43463 12.3012 9.49002 12.3227 9.53666 12.356C9.578 12.3855 9.61415 12.4216 9.64364 12.463C9.67691 12.5096 9.69845 12.565 9.74153 12.6758Z" stroke="currentColor" stroke-width="1.5" stroke-linecap="round" stroke-linejoin="round"/>
</svg>
