<svg width="22" height="22" viewBox="0 0 22 22" fill="none" xmlns="http://www.w3.org/2000/svg">
<path d="M20.1667 16.0417L19.5326 6.84727C19.433 5.40378 19.3833 4.68204 19.0704 4.13492C18.795 3.65322 18.3802 3.26612 17.8807 3.02447C17.3134 2.75 16.5899 2.75 15.143 2.75H6.85701C5.4101 2.75 4.68664 2.75 4.11929 3.02447C3.61978 3.26612 3.20506 3.65322 2.92962 4.13492C2.61677 4.68204 2.56699 5.40378 2.46744 6.84727L1.83334 16.0417M20.1667 16.0417C20.1667 17.8136 18.7303 19.25 16.9583 19.25H5.04168C3.26976 19.25 1.83334 17.8136 1.83334 16.0417M20.1667 16.0417C20.1667 14.2698 18.7303 12.8333 16.9583 12.8333H5.04168C3.26976 12.8333 1.83334 14.2698 1.83334 16.0417M5.50001 16.0417H5.50918M11 16.0417H16.5" stroke="currentColor" stroke-width="1.5" stroke-linecap="round" stroke-linejoin="round"/>
</svg>
