<svg width="22" height="22" viewBox="0 0 22 22" fill="none" xmlns="http://www.w3.org/2000/svg">
<path d="M2.75 7.33331L13.75 7.33331M13.75 7.33331C13.75 8.8521 14.9812 10.0833 16.5 10.0833C18.0188 10.0833 19.25 8.8521 19.25 7.33331C19.25 5.81453 18.0188 4.58331 16.5 4.58331C14.9812 4.58331 13.75 5.81453 13.75 7.33331ZM8.25 14.6666L19.25 14.6666M8.25 14.6666C8.25 16.1854 7.01878 17.4166 5.5 17.4166C3.98122 17.4166 2.75 16.1854 2.75 14.6666C2.75 13.1479 3.98122 11.9166 5.5 11.9166C7.01878 11.9166 8.25 13.1479 8.25 14.6666Z" stroke="currentColor" stroke-width="1.5" stroke-linecap="round" stroke-linejoin="round"/>
</svg>
