<svg width="22" height="22" viewBox="0 0 22 22" fill="none" xmlns="http://www.w3.org/2000/svg">
<path d="M19.25 5.5H16.3167C14.7765 5.5 14.0065 5.5 13.4182 5.79973C12.9007 6.06338 12.4801 6.48408 12.2164 7.00153C11.9167 7.58978 11.9167 8.35986 11.9167 9.9V11M19.25 5.5L16.5 2.75M19.25 5.5L16.5 8.25M9.16667 2.75H7.15C5.60986 2.75 4.83978 2.75 4.25153 3.04973C3.73408 3.31338 3.31338 3.73408 3.04973 4.25153C2.75 4.83978 2.75 5.60986 2.75 7.15V14.85C2.75 16.3901 2.75 17.1602 3.04973 17.7485C3.31338 18.2659 3.73408 18.6866 4.25153 18.9503C4.83978 19.25 5.60986 19.25 7.15 19.25H14.85C16.3901 19.25 17.1602 19.25 17.7485 18.9503C18.2659 18.6866 18.6866 18.2659 18.9503 17.7485C19.25 17.1602 19.25 16.3901 19.25 14.85V12.8333" stroke="currentColor" stroke-width="1.5" stroke-linecap="round" stroke-linejoin="round"/>
</svg>
