<svg width="22" height="22" viewBox="0 0 22 22" fill="none" xmlns="http://www.w3.org/2000/svg">
<path d="M8.25002 10.5417L10.0834 12.375L14.2084 8.25002M18.3334 11C18.3334 15.4994 13.4256 18.7719 11.6398 19.8137C11.4369 19.9321 11.3354 19.9913 11.1922 20.022C11.0811 20.0458 10.9189 20.0458 10.8078 20.022C10.6646 19.9913 10.5631 19.9321 10.3602 19.8137C8.57448 18.7719 3.66669 15.4994 3.66669 11V6.61616C3.66669 5.88327 3.66669 5.51683 3.78655 5.20184C3.89244 4.92357 4.0645 4.67528 4.28787 4.47843C4.54072 4.25559 4.88384 4.12693 5.57006 3.86959L10.485 2.02648C10.6756 1.95501 10.7709 1.91928 10.8689 1.90511C10.9559 1.89255 11.0442 1.89255 11.1311 1.90511C11.2291 1.91928 11.3244 1.95501 11.515 2.02647L16.43 3.86959C17.1162 4.12693 17.4593 4.25559 17.7122 4.47843C17.9355 4.67528 18.1076 4.92357 18.2135 5.20184C18.3334 5.51683 18.3334 5.88327 18.3334 6.61616V11Z" stroke="currentColor" stroke-width="1.5" stroke-linecap="round" stroke-linejoin="round"/>
</svg>
