<svg width="22" height="22" viewBox="0 0 22 22" fill="none" xmlns="http://www.w3.org/2000/svg">
<path fill-rule="evenodd" clip-rule="evenodd" d="M12.2925 11L16.225 7.0675C16.3992 6.9025 16.5 6.67333 16.5 6.41667C16.5 5.9125 16.0875 5.5 15.5833 5.5C15.3267 5.5 15.0975 5.60083 14.9325 5.76583L11 9.7075L7.0675 5.76583C6.9025 5.60083 6.67333 5.5 6.41667 5.5C5.9125 5.5 5.5 5.9125 5.5 6.41667C5.5 6.67333 5.60083 6.9025 5.76583 7.0675L9.7075 11L5.775 14.9325C5.60083 15.0975 5.5 15.3267 5.5 15.5833C5.5 16.0875 5.9125 16.5 6.41667 16.5C6.67333 16.5 6.9025 16.3992 7.0675 16.2342L11 12.2925L14.9325 16.225C15.0975 16.3992 15.3267 16.5 15.5833 16.5C16.0875 16.5 16.5 16.0875 16.5 15.5833C16.5 15.3267 16.3992 15.0975 16.2342 14.9325L12.2925 11Z" fill="currentColor"/>
</svg>
