<svg width="22" height="22" viewBox="0 0 22 22" fill="none" xmlns="http://www.w3.org/2000/svg">
<path d="M4.58333 11C4.58333 7.45618 7.45617 4.58334 11 4.58334M15.1249 6.87501L10.9999 11M20.1667 11C20.1667 16.0626 16.0626 20.1667 11 20.1667C5.93738 20.1667 1.83333 16.0626 1.83333 11C1.83333 5.9374 5.93738 1.83334 11 1.83334C16.0626 1.83334 20.1667 5.9374 20.1667 11ZM11.9167 11C11.9167 11.5063 11.5063 11.9167 11 11.9167C10.4937 11.9167 10.0833 11.5063 10.0833 11C10.0833 10.4937 10.4937 10.0833 11 10.0833C11.5063 10.0833 11.9167 10.4937 11.9167 11Z" stroke="currentColor" stroke-width="1.5" stroke-linecap="round" stroke-linejoin="round"/>
</svg>
