<svg width="22" height="22" viewBox="0 0 22 22" fill="none" xmlns="http://www.w3.org/2000/svg">
<path d="M11.1667 20.3333C16.2293 20.3333 20.3333 16.2293 20.3333 11.1667C20.3333 6.10406 16.2293 2 11.1667 2C6.10406 2 2 6.10406 2 11.1667C2 16.2293 6.10406 20.3333 11.1667 20.3333Z" stroke="currentColor" stroke-width="1.5" stroke-linecap="round" stroke-linejoin="round"/>
<path d="M7.5 8.96667C7.5 8.45329 7.5 8.19659 7.59991 8.00051C7.68779 7.82803 7.82803 7.68779 8.00051 7.59991C8.19659 7.5 8.45329 7.5 8.96667 7.5H13.3667C13.88 7.5 14.1367 7.5 14.3328 7.59991C14.5053 7.68779 14.6455 7.82803 14.7334 8.00051C14.8333 8.19659 14.8333 8.45329 14.8333 8.96667V13.3667C14.8333 13.88 14.8333 14.1367 14.7334 14.3328C14.6455 14.5053 14.5053 14.6455 14.3328 14.7334C14.1367 14.8333 13.88 14.8333 13.3667 14.8333H8.96667C8.45329 14.8333 8.19659 14.8333 8.00051 14.7334C7.82803 14.6455 7.68779 14.5053 7.59991 14.3328C7.5 14.1367 7.5 13.88 7.5 13.3667V8.96667Z" stroke="currentColor" stroke-width="1.5" stroke-linecap="round" stroke-linejoin="round"/>
</svg>
