<svg width="22" height="22" viewBox="0 0 22 22" fill="none" xmlns="http://www.w3.org/2000/svg">
<path d="M7.33333 7.33331H7.3425M1.83333 4.76665L1.83333 8.86828C1.83333 9.3167 1.83333 9.54091 1.88399 9.7519C1.9289 9.93897 2.00297 10.1178 2.10349 10.2818C2.21687 10.4668 2.37541 10.6254 2.69248 10.9425L9.72206 17.972C10.8111 19.0611 11.3556 19.6056 11.9835 19.8096C12.5359 19.9891 13.1308 19.9891 13.6831 19.8096C14.311 19.6056 14.8556 19.0611 15.9446 17.972L17.9721 15.9446C19.0611 14.8555 19.6056 14.311 19.8096 13.6831C19.9891 13.1308 19.9891 12.5358 19.8096 11.9835C19.6056 11.3556 19.0611 10.8111 17.9721 9.72204L10.9425 2.69247C10.6254 2.37539 10.4669 2.21685 10.2819 2.10347C10.1178 2.00295 9.93899 1.92888 9.75192 1.88397C9.54093 1.83331 9.31672 1.83331 8.8683 1.83331L4.76667 1.83331C3.7399 1.83331 3.22652 1.83331 2.83435 2.03313C2.48939 2.2089 2.20892 2.48937 2.03315 2.83433C1.83333 3.2265 1.83333 3.73988 1.83333 4.76665ZM7.79167 7.33331C7.79167 7.58644 7.58646 7.79165 7.33333 7.79165C7.0802 7.79165 6.875 7.58644 6.875 7.33331C6.875 7.08018 7.0802 6.87498 7.33333 6.87498C7.58646 6.87498 7.79167 7.08018 7.79167 7.33331Z" stroke="currentColor" stroke-width="1.5" stroke-linecap="round" stroke-linejoin="round"/>
</svg>
