<svg width="22" height="22" viewBox="0 0 22 22" fill="none" xmlns="http://www.w3.org/2000/svg">
<path d="M6.41666 20.1666V10.0833M1.83333 11.9166V18.3333C1.83333 19.3458 2.65414 20.1666 3.66666 20.1666H15.9741C17.3314 20.1666 18.4857 19.1763 18.6921 17.8348L19.6793 11.4181C19.9355 9.7523 18.6467 8.24998 16.9612 8.24998H13.75C13.2437 8.24998 12.8333 7.83957 12.8333 7.33331V4.09367C12.8333 2.84531 11.8213 1.83331 10.573 1.83331C10.2752 1.83331 10.0054 2.00867 9.88446 2.28076L6.6586 9.53894C6.51148 9.86997 6.1832 10.0833 5.82094 10.0833H3.66666C2.65414 10.0833 1.83333 10.9041 1.83333 11.9166Z" stroke="currentColor" stroke-width="1.5" stroke-linecap="round" stroke-linejoin="round"/>
</svg>
