<svg width="22" height="22" viewBox="0 0 22 22" fill="none" xmlns="http://www.w3.org/2000/svg">
<path d="M15.5833 1.83331V11.9166M20.1667 8.98331V4.76665C20.1667 3.73988 20.1667 3.2265 19.9668 2.83433C19.7911 2.48937 19.5106 2.2089 19.1656 2.03313C18.7735 1.83331 18.2601 1.83331 17.2333 1.83331H7.44151C6.10182 1.83331 5.43197 1.83331 4.89095 2.07846C4.41411 2.29452 4.00886 2.6422 3.7228 3.08064C3.39824 3.57809 3.29638 4.24015 3.09267 5.56426L2.61319 8.68093C2.3445 10.4273 2.21016 11.3006 2.46932 11.98C2.69678 12.5764 3.12459 13.075 3.67943 13.3905C4.31157 13.75 5.19505 13.75 6.96202 13.75H7.7C8.21338 13.75 8.47007 13.75 8.66616 13.8499C8.83864 13.9378 8.97887 14.078 9.06675 14.2505C9.16666 14.4466 9.16666 14.7033 9.16666 15.2166V17.9063C9.16666 19.1547 10.1787 20.1666 11.427 20.1666C11.7248 20.1666 11.9946 19.9913 12.1155 19.7192L15.1962 12.7876C15.3363 12.4724 15.4064 12.3147 15.5171 12.1992C15.615 12.097 15.7352 12.0189 15.8684 11.9709C16.019 11.9166 16.1915 11.9166 16.5365 11.9166H17.2333C18.2601 11.9166 18.7735 11.9166 19.1656 11.7168C19.5106 11.5411 19.7911 11.2606 19.9668 10.9156C20.1667 10.5235 20.1667 10.0101 20.1667 8.98331Z" stroke="currentColor" stroke-width="1.5" stroke-linecap="round" stroke-linejoin="round"/>
</svg>
