<svg width="22" height="22" viewBox="0 0 22 22" fill="none" xmlns="http://www.w3.org/2000/svg">
<path d="M9.16668 7.33332V6.41666M9.16668 11.4583V10.5417M9.16668 15.5833V14.6667M4.76668 3.66666H17.2333C18.2601 3.66666 18.7735 3.66666 19.1657 3.86648C19.5106 4.04225 19.7911 4.32271 19.9669 4.66767C20.1667 5.05985 20.1667 5.57323 20.1667 6.59999V7.79166C18.3948 7.79166 16.9583 9.22808 16.9583 11C16.9583 12.7719 18.3948 14.2083 20.1667 14.2083V15.4C20.1667 16.4268 20.1667 16.9401 19.9669 17.3323C19.7911 17.6773 19.5106 17.9577 19.1657 18.1335C18.7735 18.3333 18.2601 18.3333 17.2333 18.3333H4.76668C3.73991 18.3333 3.22653 18.3333 2.83436 18.1335C2.4894 17.9577 2.20893 17.6773 2.03316 17.3323C1.83334 16.9401 1.83334 16.4268 1.83334 15.4V14.2083C3.60526 14.2083 5.04168 12.7719 5.04168 11C5.04168 9.22808 3.60526 7.79166 1.83334 7.79166V6.59999C1.83334 5.57323 1.83334 5.05985 2.03316 4.66767C2.20893 4.32271 2.4894 4.04225 2.83436 3.86648C3.22653 3.66666 3.73991 3.66666 4.76668 3.66666Z" stroke="currentColor" stroke-width="1.5" stroke-linecap="round" stroke-linejoin="round"/>
</svg>
