<svg width="22" height="22" viewBox="0 0 22 22" fill="none" xmlns="http://www.w3.org/2000/svg">
<path d="M19.25 19.25H4.21667C3.70329 19.25 3.44659 19.25 3.25051 19.1501C3.07803 19.0622 2.93779 18.922 2.84991 18.7495C2.75 18.5534 2.75 18.2967 2.75 17.7833V2.75M18.3333 7.33333L14.741 11.1674C14.6049 11.3127 14.5368 11.3854 14.4547 11.4229C14.3822 11.4561 14.3023 11.4698 14.223 11.4626C14.133 11.4545 14.0447 11.4086 13.868 11.3169L10.882 9.76647C10.7053 9.67471 10.617 9.62883 10.527 9.62072C10.4477 9.61357 10.3678 9.62724 10.2953 9.66039C10.2132 9.69794 10.1451 9.77059 10.009 9.9159L6.41667 13.75" stroke="currentColor" stroke-width="1.5" stroke-linecap="round" stroke-linejoin="round"/>
</svg>
