<svg width="22" height="22" viewBox="0 0 22 22" fill="none" xmlns="http://www.w3.org/2000/svg">
<path d="M8.25 6.41667H4.21667C3.70329 6.41667 3.44659 6.41667 3.25051 6.51658C3.07803 6.60446 2.93779 6.74469 2.84991 6.91718C2.75 7.11326 2.75 7.36995 2.75 7.88333V17.7833C2.75 18.2967 2.75 18.5534 2.84991 18.7495C2.93779 18.922 3.07803 19.0622 3.25051 19.1501C3.44659 19.25 3.70329 19.25 4.21667 19.25H8.25M8.25 19.25H13.75M8.25 19.25L8.25 4.21667C8.25 3.70329 8.25 3.44659 8.34991 3.25051C8.43779 3.07803 8.57803 2.93779 8.75051 2.84991C8.94659 2.75 9.20329 2.75 9.71667 2.75L12.2833 2.75C12.7967 2.75 13.0534 2.75 13.2495 2.84991C13.422 2.93779 13.5622 3.07803 13.6501 3.25051C13.75 3.44659 13.75 3.70329 13.75 4.21667V19.25M13.75 10.0833H17.7833C18.2967 10.0833 18.5534 10.0833 18.7495 10.1832C18.922 10.2711 19.0622 10.4114 19.1501 10.5838C19.25 10.7799 19.25 11.0366 19.25 11.55V17.7833C19.25 18.2967 19.25 18.5534 19.1501 18.7495C19.0622 18.922 18.922 19.0622 18.7495 19.1501C18.5534 19.25 18.2967 19.25 17.7833 19.25H13.75" stroke="currentColor" stroke-width="1.5" stroke-linecap="round" stroke-linejoin="round"/>
</svg>
