<svg width="22" height="22" viewBox="0 0 22 22" fill="none" xmlns="http://www.w3.org/2000/svg">
<path d="M18.3333 18.3333V11.9167M11 18.3333V9.16667M3.66666 18.3333L3.66666 14.6667M12.2894 4.60855L17.0272 6.3852M9.89886 4.95085L4.76687 8.79984M19.3056 5.90273C19.8426 6.4397 19.8426 7.3103 19.3056 7.84727C18.7686 8.38424 17.898 8.38424 17.3611 7.84727C16.8241 7.3103 16.8241 6.4397 17.3611 5.90273C17.898 5.36576 18.7686 5.36576 19.3056 5.90273ZM4.63893 8.65273C5.1759 9.1897 5.1759 10.0603 4.63893 10.5973C4.10196 11.1342 3.23136 11.1342 2.69438 10.5973C2.15741 10.0603 2.15741 9.1897 2.69438 8.65273C3.23136 8.11576 4.10196 8.11576 4.63893 8.65273ZM11.9723 3.15273C12.5092 3.6897 12.5092 4.5603 11.9723 5.09727C11.4353 5.63424 10.5647 5.63424 10.0277 5.09727C9.49075 4.5603 9.49075 3.6897 10.0277 3.15273C10.5647 2.61576 11.4353 2.61576 11.9723 3.15273Z" stroke="currentColor" stroke-width="1.5" stroke-linecap="round" stroke-linejoin="round"/>
</svg>
