<svg width="22" height="22" viewBox="0 0 22 22" fill="none" xmlns="http://www.w3.org/2000/svg">
<path d="M5.66667 5.66667L9.79167 9.79167M5.66667 5.66667H2.91667L2 2.91667L2.91667 2L5.66667 2.91667V5.66667ZM17.8207 2.67926L15.4121 5.08791C15.0491 5.45093 14.8676 5.63243 14.7996 5.84173C14.7397 6.02584 14.7397 6.22416 14.7996 6.40827C14.8676 6.61757 15.0491 6.79907 15.4121 7.16209L15.6296 7.37958C15.9926 7.74259 16.1741 7.9241 16.3834 7.99211C16.5675 8.05193 16.7658 8.05193 16.9499 7.99211C17.1592 7.9241 17.3407 7.74259 17.7038 7.37958L19.9568 5.12649C20.1995 5.71698 20.3333 6.36369 20.3333 7.04167C20.3333 9.8261 18.0761 12.0833 15.2917 12.0833C14.956 12.0833 14.6279 12.0505 14.3106 11.9879C13.865 11.9001 13.6422 11.8561 13.5071 11.8696C13.3635 11.8839 13.2927 11.9054 13.1655 11.9735C13.0458 12.0375 12.9257 12.1576 12.6856 12.3977L6.125 18.9583C5.36561 19.7177 4.13439 19.7177 3.375 18.9583C2.61561 18.1989 2.61561 16.9677 3.375 16.2083L9.93561 9.64772C10.1757 9.40761 10.2958 9.28755 10.3598 9.16786C10.4279 9.04062 10.4495 8.96985 10.4638 8.82624C10.4772 8.69117 10.4333 8.46835 10.3454 8.02272C10.2828 7.70539 10.25 7.37736 10.25 7.04167C10.25 4.25723 12.5072 2 15.2917 2C16.2134 2 17.0773 2.24734 17.8207 2.67926ZM11.1667 13.9166L16.2083 18.9582C16.9677 19.7176 18.1989 19.7176 18.9583 18.9582C19.7177 18.1988 19.7177 16.9676 18.9583 16.2082L14.8107 12.0607C14.5171 12.0329 14.2308 11.9799 13.9541 11.904C13.5974 11.8061 13.2062 11.8771 12.9447 12.1386L11.1667 13.9166Z" stroke="currentColor" stroke-width="1.5" stroke-linecap="round" stroke-linejoin="round"/>
</svg>
