<svg width="22" height="22" viewBox="0 0 22 22" fill="none" xmlns="http://www.w3.org/2000/svg">
<path d="M6.41667 9.16667V7.33333C6.41667 4.80203 8.4687 2.75 11 2.75C12.8795 2.75 14.4947 3.88125 15.202 5.5M11 13.2917V15.125M8.06667 19.25H13.9333C15.4735 19.25 16.2436 19.25 16.8318 18.9503C17.3493 18.6866 17.77 18.2659 18.0336 17.7485C18.3333 17.1602 18.3333 16.3901 18.3333 14.85V13.5667C18.3333 12.0265 18.3333 11.2564 18.0336 10.6682C17.77 10.1507 17.3493 9.73005 16.8318 9.4664C16.2436 9.16667 15.4735 9.16667 13.9333 9.16667H8.06667C6.52653 9.16667 5.75646 9.16667 5.1682 9.4664C4.65075 9.73005 4.23006 10.1507 3.9664 10.6682C3.66667 11.2564 3.66667 12.0265 3.66667 13.5667V14.85C3.66667 16.3901 3.66667 17.1602 3.9664 17.7485C4.23006 18.2659 4.65075 18.6866 5.1682 18.9503C5.75646 19.25 6.52653 19.25 8.06667 19.25Z" stroke="currentColor" stroke-width="1.5" stroke-linecap="round" stroke-linejoin="round"/>
</svg>
