<svg width="22" height="22" viewBox="0 0 22 22" fill="none" xmlns="http://www.w3.org/2000/svg">
<path d="M17.0068 10.1841C17.0068 10.1841 17.2575 11.4112 17.3135 11.6685H16.2118C16.3207 11.3749 16.7396 10.2336 16.7396 10.2336C16.733 10.2435 16.8484 9.93342 16.9144 9.7421L17.0068 10.1841ZM20.5 5.19332V16.8044C20.5 17.6786 19.7908 18.3878 18.9167 18.3878H3.08333C2.2092 18.3878 1.5 17.6786 1.5 16.8044V5.19332C1.5 4.31919 2.2092 3.60999 3.08333 3.60999H18.9167C19.7908 3.60999 20.5 4.31919 20.5 5.19332ZM6.53038 13.4794L8.6151 8.35999H7.21319L5.91684 11.8565L5.775 11.1473L5.31319 8.7921C5.23733 8.46554 5.00313 8.37318 4.71285 8.35999H2.57865L2.55556 8.46224C3.07674 8.59419 3.54184 8.78551 3.94757 9.0263L5.12847 13.4794H6.53038ZM9.64427 13.486L10.4755 8.35999H9.14948L8.32153 13.486H9.64427ZM14.259 11.8103C14.2656 11.2265 13.9094 10.7812 13.1474 10.415C12.6823 10.1808 12.3986 10.0225 12.3986 9.78169C12.4052 9.56398 12.6394 9.33967 13.1606 9.33967C13.5927 9.32978 13.9094 9.43203 14.1469 9.53429L14.2656 9.59037L14.447 8.48203C14.1865 8.37978 13.7708 8.26433 13.2595 8.26433C11.95 8.26433 11.0297 8.96363 11.0231 9.95981C11.0132 10.6954 11.6828 11.1044 12.1842 11.3518C12.6955 11.6025 12.8703 11.7675 12.8703 11.9885C12.8637 12.3315 12.4547 12.4898 12.0753 12.4898C11.5476 12.4898 11.2639 12.4074 10.8318 12.2161L10.6569 12.1336L10.4722 13.2848C10.7823 13.4267 11.3562 13.552 11.95 13.5586C13.342 13.5619 14.2491 12.8725 14.259 11.8103ZM18.9167 13.486L17.8479 8.35999H16.822C16.5054 8.35999 16.2646 8.45235 16.1293 8.78551L14.1601 13.486H15.5521C15.5521 13.486 15.7797 12.8527 15.8292 12.7175H17.5312C17.5708 12.8989 17.6896 13.486 17.6896 13.486H18.9167Z" fill="currentColor"/>
</svg>
