<svg width="22" height="22" viewBox="0 0 22 22" fill="none" xmlns="http://www.w3.org/2000/svg">
<path d="M10.9998 8.25V11.9167M10.9998 16L11.009 14.5M9.73049 3.56741L2.19101 16.5901C1.77283 17.3125 1.56373 17.6736 1.59464 17.9701C1.62159 18.2286 1.75705 18.4635 1.96729 18.6164C2.20834 18.7917 2.62566 18.7917 3.46031 18.7917H18.5393C19.3739 18.7917 19.7912 18.7917 20.0323 18.6164C20.2425 18.4635 20.378 18.2286 20.4049 17.9701C20.4358 17.6736 20.2267 17.3125 19.8086 16.5901L12.2691 3.56741C11.8524 2.84768 11.644 2.48781 11.3722 2.36694C11.1351 2.26152 10.8644 2.26152 10.6273 2.36694C10.3555 2.48781 10.1472 2.84768 9.73049 3.56741Z" stroke="currentColor" stroke-width="1.5" stroke-linecap="round" stroke-linejoin="round"/>
</svg>
