<svg width="170" height="170" viewBox="0 0 170 170" fill="none" xmlns="http://www.w3.org/2000/svg">
<circle cx="85" cy="85" r="80.5" fill="#05080E" stroke="#F85149" stroke-width="9"/>
<path d="M110.205 98.2623C111.795 98.2623 113.335 98.5531 114.783 99.0776C117.052 96.455 118.278 93.5816 118.278 90.6341C118.278 85.7709 114.994 81.0902 109.036 77.4528C102.656 73.5531 94.1273 71.4094 85.011 71.4094C75.8947 71.4094 67.3656 73.5588 60.9859 77.4528C55.0281 81.0959 51.7441 85.7709 51.7441 90.6341C51.7441 93.5816 52.9642 96.455 55.239 99.0776C56.6871 98.5531 58.2265 98.2623 59.8171 98.2623C63.3975 98.2623 66.7612 99.6534 69.304 102.191C71.0543 103.946 72.2573 106.136 72.8331 108.496C76.6643 109.385 80.7692 109.87 85.011 109.87C89.2527 109.87 93.3576 109.385 97.1888 108.496C97.7647 106.136 98.9676 103.946 100.718 102.191C103.261 99.6534 106.63 98.2623 110.211 98.2623H110.205ZM85.0053 87.0822C80.889 87.0822 77.5423 83.7355 77.5423 79.6192H92.4739C92.4739 83.7355 89.1216 87.0822 85.011 87.0822H85.0053Z" fill="white"/>
<path d="M59.1447 73.935C59.863 73.496 60.6156 73.0912 61.3796 72.6979L61.3511 72.6751C59.4639 71.2554 57.2462 70.5713 55.0512 70.5713C51.8585 70.5713 48.7114 72.0137 46.6532 74.756L45.7695 75.9305L51.7102 80.4003C53.5517 78.0171 56.0489 75.8335 59.1504 73.935H59.1447Z" fill="white"/>
<path d="M51.7731 100.942C49.7834 98.3877 48.5462 95.5941 48.1528 92.6808C48.0616 92.0023 48.0046 91.3182 48.0046 90.6283C48.0046 87.2304 49.1391 83.9578 51.2771 80.9761H50.5074C44.7149 80.9761 40 85.6796 40 91.4664V92.9373H47.8278C45.7868 94.6306 44.4698 96.9795 44.1163 99.6192C43.7457 102.401 44.4755 105.161 46.1802 107.39L46.8358 108.245C47.4344 105.97 48.6089 103.884 50.3136 102.179C50.7697 101.723 51.26 101.318 51.7674 100.936L51.7731 100.942Z" fill="white"/>
<path d="M118.307 80.4003L124.248 75.9305L123.364 74.756C121.306 72.0137 118.153 70.5713 114.96 70.5713C112.765 70.5713 110.547 71.2554 108.66 72.6751L108.632 72.6979C109.396 73.0969 110.148 73.496 110.867 73.935C113.968 75.8335 116.465 78.0171 118.307 80.4003Z" fill="white"/>
<path d="M130 91.472C130 85.6852 125.285 80.9817 119.492 80.9817H118.723C120.861 83.9634 121.995 87.2303 121.995 90.6339C121.995 91.3238 121.938 92.0079 121.847 92.6864C121.453 95.5997 120.216 98.3876 118.227 100.947C118.734 101.329 119.224 101.734 119.68 102.19C121.385 103.895 122.56 105.982 123.158 108.256L123.814 107.401C125.518 105.172 126.248 102.413 125.878 99.6305C125.524 96.9908 124.207 94.6419 122.166 92.9543H129.994V91.4777L130 91.472Z" fill="white"/>
<path d="M72.366 69.0034C78.1527 69.0034 82.8677 64.2885 82.8677 58.5017C82.8677 52.7149 78.1527 48 72.366 48C66.5792 48 61.8643 52.7092 61.8643 58.5017C61.8643 64.2942 66.5735 69.0034 72.366 69.0034ZM72.3717 52.7434C72.3717 52.7434 72.4059 52.7434 72.423 52.7434C71.6761 53.4789 71.2086 54.4937 71.2086 55.6283C71.2086 57.8575 73.0159 59.6648 75.2451 59.6648C76.3797 59.6648 77.4002 59.1973 78.1299 58.4447C78.1299 58.4618 78.1299 58.4789 78.1299 58.5017C78.1299 61.683 75.553 64.26 72.3717 64.26C69.1904 64.26 66.6134 61.683 66.6134 58.5017C66.6134 55.3204 69.1904 52.7434 72.3717 52.7434Z" fill="white"/>
<path d="M97.6394 69.0034C103.426 69.0034 108.141 64.2885 108.141 58.5017C108.141 52.7149 103.426 48 97.6394 48C91.8526 48 87.1377 52.7092 87.1377 58.5017C87.1377 64.2942 91.8469 69.0034 97.6394 69.0034ZM97.6394 52.7434C97.6394 52.7434 97.6736 52.7434 97.6907 52.7434C96.9439 53.4789 96.4764 54.4937 96.4764 55.6283C96.4764 57.8575 98.2836 59.6648 100.513 59.6648C101.647 59.6648 102.668 59.1973 103.398 58.4447C103.398 58.4618 103.398 58.4789 103.398 58.5017C103.398 61.683 100.821 64.26 97.6394 64.26C94.4581 64.26 91.8811 61.683 91.8811 58.5017C91.8811 55.3204 94.4581 52.7434 97.6394 52.7434Z" fill="white"/>
<path d="M59.7997 101.176C54.0015 101.176 49.3037 105.873 49.3037 111.672C49.3037 117.47 54.0015 122.168 59.7997 122.168C61.0198 122.168 62.1828 121.951 63.2661 121.569C63.1692 121.478 63.0665 121.386 62.9696 121.29C59.9194 118.239 58.8932 114.328 60.672 112.544C62.4508 110.765 66.3676 111.791 69.4177 114.841C69.5147 114.938 69.6059 115.041 69.6971 115.144C70.0791 114.055 70.2957 112.892 70.2957 111.672C70.2957 105.873 65.5979 101.176 59.7997 101.176Z" fill="white"/>
<path d="M110.223 101.176C104.424 101.176 99.7266 105.873 99.7266 111.672C99.7266 112.892 99.9432 114.055 100.325 115.144C100.422 115.041 100.508 114.944 100.605 114.841C103.655 111.791 107.566 110.765 109.35 112.544C111.129 114.323 110.103 118.239 107.053 121.29C106.956 121.386 106.853 121.478 106.756 121.569C107.845 121.951 109.008 122.168 110.223 122.168C116.021 122.168 120.719 117.47 120.719 111.672C120.719 105.873 116.021 101.176 110.223 101.176Z" fill="white"/>
</svg>
