<svg width="200" height="200" viewBox="0 0 200 200" fill="none" xmlns="http://www.w3.org/2000/svg">
<g clip-path="url(#clip0_76_79)">
<path d="M100 200C155.232 200 200 155.232 200 100C200 44.7677 155.232 0 100 0C44.7677 0 0 44.7677 0 100C0 155.232 44.7677 200 100 200Z" fill="url(#paint0_linear_76_79)"/>
<path d="M159.945 64.5675C159.945 63.9132 159.782 63.3135 159.564 62.7138C159.509 62.5502 159.455 62.3866 159.345 62.2776C159.127 61.8414 158.855 61.4053 158.527 61.0236C158.418 60.9146 158.364 60.8055 158.255 60.6965C157.873 60.3149 157.382 59.9332 156.891 59.7151L102.345 33.4907C101.636 33.1636 100.873 33 100.109 33C99.8364 33 99.6182 33.0545 99.3455 33.109C98.8545 33.1636 98.3636 33.2726 97.8727 33.4362C97.7636 33.4362 97.6545 33.4362 97.6 33.4907L43.0545 59.7151C42.7273 59.8787 42.4545 60.0968 42.1818 60.2603C42.0727 60.3149 41.9636 60.3694 41.8545 60.4784C41.8 60.5329 41.6909 60.642 41.6364 60.6965C41.5273 60.8055 41.4727 60.9146 41.3636 61.0236C41.0909 61.2962 40.8727 61.6234 40.6545 62.005C40.6545 62.005 40.5455 62.114 40.5455 62.1686C40.5455 62.2231 40.5455 62.2776 40.4909 62.3866C40.4364 62.4957 40.3818 62.6592 40.3273 62.7683C40.1636 63.1499 40.1091 63.5316 40.0545 63.9677C40.0545 64.1313 40 64.2403 40 64.4039C40 64.4584 40 64.513 40 64.622V147.493C40 150.492 42.4545 152.945 45.4545 152.945C48.4545 152.945 50.9091 150.492 50.9091 147.493V106.221L97.4909 130.428C98.3091 130.865 99.1273 131.028 100 131.028C100.818 131.028 101.582 130.81 102.291 130.483C102.345 130.483 102.4 130.483 102.509 130.483L149.091 106.276V147.548C149.091 150.547 151.545 153 154.545 153C157.545 153 160 150.547 160 147.548V64.6765L159.945 64.5675ZM99.9455 44.4493L142.273 64.7856L99.9455 86.7574L57.6182 64.7856L99.9455 44.4493ZM99.9455 119.47L50.8545 93.9541V73.6179L97.4364 97.8251C97.4364 97.8251 97.9273 97.9886 98.1455 98.0977C98.3091 98.0977 98.4182 98.2067 98.5818 98.2612C99.0182 98.3703 99.5091 98.4248 99.9455 98.4248C100.382 98.4248 100.873 98.3703 101.309 98.2612C101.473 98.2612 101.582 98.1522 101.745 98.0977C101.964 97.9886 102.236 97.9341 102.455 97.8251L149.036 73.6179V93.9541L99.9455 119.47Z" fill="white"/>
</g>
<defs>
<linearGradient id="paint0_linear_76_79" x1="100" y1="0" x2="100" y2="200" gradientUnits="userSpaceOnUse">
<stop stop-color="#5247F4"/>
<stop offset="1" stop-color="#7F80FF"/>
</linearGradient>
<clipPath id="clip0_76_79">
<rect width="200" height="200" fill="white"/>
</clipPath>
</defs>
</svg>
