<svg width="170" height="170" viewBox="0 0 170 170" fill="none" xmlns="http://www.w3.org/2000/svg">
<circle cx="85" cy="85" r="80.5" fill="white" stroke="#DF56F2" stroke-width="9"/>
<path d="M78.926 46.4536C77.8921 45.3984 76.4566 44.7485 74.8576 44.7485C73.2622 44.7485 71.8385 45.3984 70.8175 46.4536H70.7908C69.7602 47.5009 69.1205 48.9626 69.1205 50.5777C69.1205 52.2024 69.7602 53.655 70.7908 54.6919L70.8175 54.7206C71.8385 55.7667 73.2622 56.4075 74.8576 56.4075C76.4566 56.4075 77.8921 55.7667 78.926 54.7206L78.9377 54.6919C79.9731 53.655 80.6042 52.2024 80.6042 50.5777C80.6042 48.9626 79.9731 47.5009 78.9377 46.4536H78.926ZM74.8576 126.251C76.4566 126.251 77.8921 125.589 78.926 124.554L78.9377 124.524C79.9731 123.49 80.6042 122.028 80.6042 120.422C80.6042 118.797 79.9731 117.342 78.9377 116.289H78.926C77.8921 115.224 76.4566 114.58 74.8576 114.58C73.2622 114.58 71.8385 115.224 70.8175 116.289H70.7908C69.7602 117.342 69.1205 118.797 69.1205 120.422C69.1205 122.028 69.7602 123.49 70.7908 124.524L70.8175 124.554C71.8385 125.589 73.2622 126.251 74.8576 126.251ZM106.116 108.589C107.537 108.209 108.824 107.283 109.609 105.881L109.715 105.676C110.413 104.349 110.541 102.815 110.168 101.453C109.791 99.9993 108.869 98.7093 107.492 97.9072L107.412 97.8518C106.07 97.103 104.543 96.9399 103.141 97.3285C101.714 97.6904 100.431 98.656 99.6504 100.046C98.8593 101.426 98.6941 103.014 99.0722 104.475C99.4636 105.913 100.378 107.211 101.746 108.022H101.755C103.126 108.824 104.676 108.967 106.116 108.589ZM80.7423 79.526C79.2362 78.0002 77.1579 77.0437 74.8576 77.0437C72.5605 77.0437 70.4881 78.0002 68.9852 79.526C67.4861 81.0504 66.5625 83.1529 66.5625 85.4901C66.5625 87.8273 67.4861 89.939 68.9852 91.4813C70.4881 92.998 72.5605 93.9456 74.8576 93.9456C77.1579 93.9456 79.2362 92.998 80.7423 91.4813C82.244 89.939 83.1676 87.8273 83.1676 85.4901C83.1676 83.1529 82.244 81.0504 80.7423 79.526ZM77.4332 69.5912C80.7716 70.15 83.7705 71.7747 86.0621 74.1207H86.0797C86.4444 74.4897 86.799 74.8962 87.1284 75.3027L92.857 71.9361C92.0863 69.5718 92.0509 67.0998 92.6698 64.7805C93.4864 61.6769 95.4675 58.8974 98.4368 57.1563L98.5341 57.0934C101.471 55.4049 104.81 55.0537 107.823 55.883C110.875 56.714 113.628 58.736 115.342 61.7486V61.7574C117.048 64.7538 117.394 68.1925 116.58 71.2873C115.768 74.3913 113.78 77.1888 110.813 78.9208L110.031 79.3898H109.951C107.207 80.7172 104.19 80.9248 101.42 80.1836C99.1444 79.5707 97.0575 78.2795 95.4231 76.4488L89.7036 79.8054C90.3609 81.5732 90.7241 83.4773 90.7241 85.4901C90.7241 87.4926 90.3609 89.4249 89.7036 91.2015L95.4231 94.5494C97.0575 92.6899 99.1444 91.4274 101.42 90.8134C104.473 89.9657 107.856 90.3259 110.813 92.0774L111.003 92.1671V92.1759C113.859 93.9365 115.777 96.6519 116.58 99.7197C117.394 102.797 117.048 106.237 115.342 109.239L115.239 109.448L115.227 109.43C113.514 112.325 110.813 114.286 107.832 115.115C104.774 115.934 101.39 115.584 98.4367 113.858V113.834C95.4674 112.09 93.4863 109.305 92.6697 106.207C92.0508 103.898 92.0862 101.426 92.8569 99.062L87.1283 95.7042C86.7989 96.1107 86.4443 96.4992 86.0796 96.8682L86.062 96.8862C83.7704 99.2234 80.7715 100.848 77.4331 101.389V108.114C79.8127 108.619 81.9423 109.828 83.6115 111.524L83.6206 111.542C85.8578 113.804 87.243 116.956 87.243 120.422C87.243 123.875 85.8578 127.009 83.6206 129.284L83.6115 129.319C81.3583 131.592 78.2685 133 74.8575 133C71.4646 133 68.3658 131.592 66.1184 129.319H66.1094V129.284C63.8696 127.009 62.4812 123.875 62.4812 120.422C62.4812 116.956 63.8696 113.804 66.1094 111.542V111.524H66.1184C67.7861 109.828 69.92 108.619 72.2914 108.114V101.389C68.9526 100.848 65.9596 99.2234 63.6711 96.8862L63.6476 96.8682C60.79 93.9544 59 89.939 59 85.4901C59 81.0504 60.79 77.0346 63.6476 74.1207H63.6711C65.9596 71.7747 68.9526 70.15 72.2914 69.5912V62.8948C69.9201 62.372 67.7861 61.1629 66.1185 59.4756H66.1095V59.4576C63.8697 57.1742 62.4813 54.0435 62.4813 50.5777C62.4813 47.1302 63.8697 43.9721 66.1095 41.6981L66.1185 41.689C68.3659 39.4068 71.4646 38 74.8576 38C78.2686 38 81.3584 39.4068 83.6116 41.689V41.6981H83.6206C85.8578 43.9721 87.2431 47.1302 87.2431 50.5777C87.2431 54.0435 85.8578 57.1742 83.6206 59.4576L83.6116 59.4756C81.9424 61.1629 79.8127 62.372 77.4332 62.8948V69.5912ZM109.609 65.1244L109.561 65.0511C108.771 63.699 107.51 62.7964 106.116 62.4074C104.676 62.0193 103.126 62.1818 101.746 62.986H101.755C100.378 63.7795 99.4577 65.0782 99.0722 66.5319C98.6941 67.9757 98.8592 69.5718 99.6503 70.9618L99.6766 70.9977C100.47 72.3693 101.731 73.2898 103.141 73.6604C104.555 74.0669 106.133 73.8952 107.492 73.091L107.566 73.0551C108.904 72.2437 109.796 70.9618 110.168 69.5538C110.547 68.1013 110.395 66.514 109.609 65.1244Z" fill="#05080E"/>
</svg>
