<svg width="48" height="48" viewBox="0 0 48 48" fill="none" xmlns="http://www.w3.org/2000/svg">
<path d="M23.9583 0C10.7685 0 0 10.7685 0 24.0417C0 37.2315 10.7685 48 23.9583 48C37.1481 48 48 37.2315 48 24.0417C48 10.7685 37.2315 0 23.9583 0Z" fill="#DCEAEF"/>
<path d="M36.1222 36.1219C42.8165 29.4276 42.8165 18.5734 36.1222 11.8782C29.4279 5.18301 18.5735 5.18399 11.8783 11.8782C5.18299 18.5724 5.18397 29.4266 11.8783 36.1219C18.5726 42.8171 29.4269 42.8161 36.1222 36.1219ZM13.7748 12.8299C19.6832 6.92156 29.263 6.92156 35.1705 12.8299C41.0779 18.7383 41.0789 28.317 35.1705 34.2253C29.2621 40.1337 19.6822 40.1337 13.7748 34.2253C7.86738 28.317 7.8664 18.7373 13.7748 12.8299Z" fill="#1B75BC"/>
<path d="M17.4802 12.3374C12.4589 17.3587 12.4589 25.4984 17.4802 30.5197C22.5015 35.541 30.6413 35.541 35.6626 30.5197C40.6838 25.4984 40.6838 17.3587 35.6626 12.3374C30.6413 7.31609 22.5015 7.31609 17.4802 12.3374ZM34.2398 29.8069C29.8082 34.2385 22.6246 34.2385 18.193 29.8069C13.7615 25.3753 13.7615 18.1917 18.193 13.7602C22.6246 9.32861 29.8082 9.32861 34.2398 13.7602C38.6713 18.1917 38.6713 25.3753 34.2398 29.8069Z" fill="#1B75BC"/>
<path d="M29.9354 30.7926C33.4501 27.278 33.4501 21.5792 29.9354 18.0646C26.4208 14.5499 20.722 14.5499 17.2074 18.0646C13.6927 21.5792 13.6927 27.278 17.2074 30.7926C20.722 34.3073 26.4208 34.3073 29.9354 30.7926ZM18.2032 18.5639C21.3056 15.4615 26.3347 15.4615 29.4361 18.5639C32.5375 21.6663 32.5385 26.6954 29.4361 29.7969C26.3337 32.8983 21.3046 32.8993 18.2032 29.7969C15.1017 26.6944 15.1007 21.6653 18.2032 18.5639Z" fill="#1B75BC"/>
<path d="M27.0001 25.7143C29.6037 25.7143 31.7143 23.6037 31.7143 21.0001C31.7143 18.3964 29.6037 16.2858 27.0001 16.2858C24.3964 16.2858 22.2858 18.3964 22.2858 21.0001C22.2858 23.6037 24.3964 25.7143 27.0001 25.7143Z" fill="#1B75BC"/>
</svg>
