<svg width="48" height="48" viewBox="0 0 48 48" fill="none" xmlns="http://www.w3.org/2000/svg">
<path d="M24 48C37.2548 48 48 37.2548 48 24C48 10.7452 37.2548 0 24 0C10.7452 0 0 10.7452 0 24C0 37.2548 10.7452 48 24 48Z" fill="url(#paint0_linear_698_686)"/>
<path d="M27.7918 38.5714H26.8994C26.5017 38.5714 26.1622 38.2909 26.0943 37.8943L24.9011 31.3261C24.8817 31.2003 24.8817 31.0745 24.9205 30.9585L25.745 28.0661C25.8712 27.6308 26.3271 27.3793 26.7636 27.5051C27.2001 27.6308 27.4523 28.0855 27.3262 28.5208L26.5502 31.2293L27.5881 36.9366H27.7918C28.2477 36.9366 28.6163 37.3042 28.6163 37.7589C28.6163 38.2135 28.2477 38.5714 27.7918 38.5714ZM23.4461 38.5714H22.5537C22.1074 38.5714 21.7388 38.2135 21.7291 37.7685L21.5739 31.2003C21.5739 31.1132 21.5836 31.0262 21.6127 30.9488L23.0193 26.2572C23.0581 26.1411 23.1066 26.0444 23.1842 25.9573C23.2424 25.8799 23.32 25.8219 23.417 25.7735C24.1639 25.3672 26.2301 24.1677 26.8897 23.4712C26.9091 23.4519 26.9285 23.4325 26.9479 23.4132C27.0352 23.3358 27.1419 23.2778 27.2486 23.2391C27.3553 23.2004 27.4717 23.1907 27.5881 23.2101C27.6172 23.2101 27.6463 23.2197 27.6754 23.2294C29.2953 23.568 30.634 23.3261 31.7689 22.4942C34.5044 20.4918 35.0476 15.7519 35.0767 15.4907C35.1058 15.1908 35.2901 14.9199 35.5811 14.8039L38.5009 13.6044C38.3651 13.3722 38.0644 13.1207 37.4048 13.0143C37.3757 13.0046 37.3466 13.0046 37.3175 12.9949C36.2407 12.6951 34.9021 12.3565 34.6305 12.3468C34.0485 12.3468 33.6702 12.6273 33.5247 13.1787C33.4277 14.059 32.6516 19.5245 29.3244 19.5245C27.3068 19.5245 26.7345 18.4217 26.2689 17.5414C25.7935 16.6321 25.3473 15.7615 23.0872 15.3939C22.8544 15.3552 22.6507 15.2198 22.5246 15.0264C22.0783 14.3395 20.6039 12.5403 19.1101 12.4919C18.3049 12.4726 17.5192 12.9853 16.7723 14.0106C16.6656 14.1557 16.5492 14.3202 16.4328 14.4943C15.7247 15.51 14.7643 16.8933 13.4354 17.7639C13.3578 17.822 13.2511 17.88 13.1347 17.9477C12.3393 18.412 10.826 19.3117 10.3798 21.0335C10.3798 21.0432 10.3701 21.0626 10.3701 21.0722C10.2925 21.3721 10.2537 21.7107 10.2537 22.0589C10.2537 23.9452 12.5527 25.1834 13.2608 25.522C13.6682 25.7155 13.8428 26.2088 13.6488 26.6151C13.4548 27.0214 12.9601 27.1955 12.5527 27.002C12.0192 26.7505 10.9909 26.1991 10.1276 25.3382C10.0791 25.2898 10.0306 25.2415 9.98211 25.1931C9.99181 25.5994 10.0015 26.0153 10.0209 26.4507C10.0791 27.6985 9.20609 29.1108 8.03236 29.6622C7.62495 29.8557 7.13023 29.6816 6.93623 29.2656C6.74222 28.8593 6.91683 28.366 7.33394 28.1725C7.96446 27.8823 8.40097 27.0601 8.38157 26.528C8.29426 24.7772 8.29427 22.3491 8.77928 20.6756C9.3807 18.2669 11.4469 17.0384 12.3005 16.5354C12.3975 16.4774 12.4848 16.429 12.5333 16.3903C13.6003 15.6938 14.4636 14.4556 15.0845 13.556C15.2106 13.3722 15.3367 13.1981 15.4434 13.0433C16.5298 11.5439 17.7811 10.8087 19.1683 10.8474C20.3226 10.8765 21.4769 11.4569 22.6119 12.5596C23.1066 13.0433 23.4849 13.527 23.708 13.8268C26.492 14.3782 27.2098 15.7519 27.7433 16.7676C28.1604 17.5705 28.3156 17.8607 29.3341 17.8607C30.2848 17.8607 30.925 16.6321 31.2936 15.5971C31.7398 14.3395 31.9047 13.0433 31.9144 12.9272C31.9144 12.8982 31.9241 12.8692 31.9338 12.8305C31.9338 12.8208 31.9338 12.8208 31.9338 12.8111C32.0308 12.4049 32.1957 12.0566 32.4188 11.7567C32.2054 11.2537 32.1084 10.5863 32.4867 9.87042C32.7001 9.47381 33.1949 9.30936 33.5926 9.52218C33.9903 9.73499 34.1552 10.2283 33.9418 10.6249C33.9127 10.6733 33.8933 10.7217 33.8836 10.77C34.1261 10.712 34.388 10.6733 34.6596 10.6733C35.2028 10.6733 36.9683 11.1473 37.7443 11.3698C39.3351 11.6503 40.2857 12.6564 40.2857 14.0687C40.2857 14.3976 40.082 14.6975 39.7716 14.8232L36.6579 16.1001C36.4444 17.5414 35.5908 21.701 32.7583 23.7808C31.3421 24.8158 29.6737 25.1834 27.7627 24.8836C26.8315 25.6865 25.2018 26.6441 24.5034 27.0311L23.2327 31.2777L23.3685 36.9173H23.4558C23.9117 36.9173 24.2803 37.2849 24.2803 37.7395C24.2803 38.1942 23.902 38.5714 23.4461 38.5714ZM17.3834 38.5714H16.491C16.1515 38.5714 15.8508 38.3683 15.7247 38.0491L13.1638 31.4905C13.0668 31.2583 13.0959 30.9875 13.222 30.7747L15.6374 26.7699C15.8702 26.3829 16.3746 26.2572 16.7626 26.4893C17.1506 26.7215 17.2767 27.2245 17.0439 27.6115L14.8322 31.2777L17.0439 36.9366H17.3737C17.8296 36.9366 18.1982 37.3042 18.1982 37.7589C18.1982 38.2135 17.8393 38.5714 17.3834 38.5714ZM12.7176 38.5714H11.8252C11.4275 38.5714 11.0879 38.2909 11.02 37.8943L9.79781 31.0068C9.75901 30.794 9.80751 30.5812 9.92391 30.4071L11.4081 28.2015C11.6603 27.8243 12.1744 27.7275 12.543 27.9791C12.9213 28.2306 13.0183 28.7433 12.7661 29.1108L11.4663 31.0455L12.5042 36.9366H12.7079C13.1638 36.9366 13.5324 37.3042 13.5324 37.7589C13.5324 38.2135 13.1735 38.5714 12.7176 38.5714ZM19.7988 25.8799C17.3931 25.8799 15.0457 25.106 13.0959 23.6647C12.7273 23.3939 12.6594 22.8812 12.9213 22.5232C13.1929 22.1557 13.707 22.0879 14.0659 22.3491C15.909 23.7131 18.1691 24.3709 20.439 24.2258C20.8949 24.1967 21.2829 24.5353 21.312 24.99C21.3411 25.4446 21.0016 25.8316 20.5457 25.8606C20.3032 25.8703 20.051 25.8799 19.7988 25.8799ZM19.76 23.0359C17.8005 23.0359 15.8702 22.3491 14.3375 21.0916C13.9883 20.8014 13.9398 20.2887 14.2308 19.9404C14.5218 19.5922 15.036 19.5438 15.3852 19.834C16.8596 21.0529 18.7221 21.5946 20.6136 21.3431C22.1462 21.1496 23.5237 20.4628 24.6004 19.3697C24.9205 19.0505 25.4346 19.0408 25.7644 19.36C26.0846 19.6793 26.0943 20.192 25.7741 20.5209C24.4355 21.8848 22.7186 22.7264 20.8173 22.9682C20.4778 23.0166 20.1189 23.0359 19.76 23.0359ZM19.7697 20.3274C18.3922 20.3274 17.0536 19.8244 16.006 18.9054C15.6665 18.6055 15.6374 18.0928 15.9381 17.7446C16.2388 17.406 16.7529 17.377 17.1021 17.6769C17.9751 18.4507 19.1392 18.8087 20.2838 18.6636C21.0986 18.5571 21.8552 18.2089 22.4664 17.6575C22.8059 17.3576 23.32 17.377 23.6304 17.7156C23.9311 18.0541 23.9117 18.5668 23.5722 18.8764C22.7089 19.6502 21.6515 20.1436 20.4972 20.2887C20.245 20.308 20.0025 20.3274 19.7697 20.3274Z" fill="white"/>
<defs>
<linearGradient id="paint0_linear_698_686" x1="10.8112" y1="35.147" x2="41.4286" y2="9.26953" gradientUnits="userSpaceOnUse">
<stop stop-color="#FECE0D"/>
<stop offset="1" stop-color="#FCB310"/>
</linearGradient>
</defs>
</svg>
