<svg width="170" height="170" viewBox="0 0 170 170" fill="none" xmlns="http://www.w3.org/2000/svg">
<circle cx="85" cy="85" r="80.5" fill="white" stroke="#FDCD12" stroke-width="9"/>
<path d="M53.3401 48.3608C53.3401 47.9088 53.7168 47.4568 54.2441 47.4568H60.8734C61.3254 47.4568 61.7774 47.8335 61.7774 48.3608V121.961C61.7774 122.413 61.4008 122.865 60.8734 122.865H54.2441C53.7921 122.865 53.3401 122.489 53.3401 121.961V48.3608Z" fill="#05080E"/>
<path d="M70.064 48.3608C70.064 47.9088 70.4406 47.4568 70.968 47.4568H77.5973C78.0493 47.4568 78.5013 47.8335 78.5013 48.3608V121.961C78.5013 122.413 78.1246 122.865 77.5973 122.865H70.968C70.516 122.865 70.064 122.489 70.064 121.961V48.3608Z" fill="#05080E"/>
<path d="M86.7881 48.3608C86.7881 47.9088 87.1648 47.4568 87.6921 47.4568H94.3214C94.7734 47.4568 95.2254 47.8335 95.2254 48.3608V121.961C95.2254 122.413 94.8488 122.865 94.3214 122.865H87.6921C87.2401 122.865 86.7881 122.489 86.7881 121.961V48.3608Z" fill="#05080E"/>
<path d="M103.512 48.3608C103.512 47.9088 103.889 47.4568 104.416 47.4568H111.045C111.497 47.4568 111.949 47.8335 111.949 48.3608V121.961C111.949 122.413 111.573 122.865 111.045 122.865H104.416C103.964 122.865 103.512 122.489 103.512 121.961V48.3608Z" fill="#05080E"/>
<path d="M120.311 77.6652C120.311 77.2132 120.688 76.7612 121.215 76.7612H127.845C128.297 76.7612 128.749 77.1379 128.749 77.6652V92.6566C128.749 93.1086 128.372 93.5606 127.845 93.5606H121.215C120.763 93.5606 120.311 93.1839 120.311 92.6566V77.6652Z" fill="#05080E"/>
</svg>
