<svg width="170" height="170" viewBox="0 0 170 170" fill="none" xmlns="http://www.w3.org/2000/svg">
<circle cx="85" cy="85" r="80.5" fill="white" stroke="#0AB060" stroke-width="9"/>
<path d="M46.4422 105.758C50.1177 112.109 55.383 117.414 61.7029 121.136C68.0228 124.859 75.3973 127 83.2519 127C94.9788 127 105.62 122.239 113.301 114.549C120.99 106.868 125.752 96.2189 125.752 84.5C125.752 72.7731 120.99 62.1324 113.301 54.4509C105.62 46.7616 94.9788 42 83.2519 42C81.4496 42 79.9857 43.4639 79.9857 45.2662C79.9857 47.0685 81.4496 48.5324 83.2519 48.5324C93.1923 48.5324 102.164 52.5542 108.681 59.063C115.19 65.5796 119.212 74.5519 119.212 84.4921C119.212 94.4324 115.19 103.405 108.681 109.921C102.164 116.438 93.1923 120.452 83.2519 120.452C76.5857 120.452 70.3681 118.642 65.0242 115.494C59.6802 112.345 55.2098 107.844 52.101 102.468C51.1959 100.902 49.1968 100.375 47.6306 101.28C46.0644 102.185 45.5371 104.184 46.4422 105.75V105.758Z" fill="#05080E"/>
<path d="M97.9622 59.0158C93.484 56.4343 88.3919 55.0728 83.2289 55.0728C78.2391 55.0728 73.1627 56.3478 68.5428 59.0158C63.8284 61.7311 60.1451 65.5797 57.6423 70.0028C55.1396 74.426 53.8252 79.4394 53.8252 84.5236C53.8252 89.5135 55.1002 94.5899 57.7683 99.2098C60.4835 103.916 64.3322 107.607 68.7553 110.11C73.1784 112.613 78.184 113.927 83.2761 113.927C88.2659 113.927 93.3423 112.652 97.9622 109.984C99.5284 109.079 100.064 107.08 99.1585 105.522C98.2534 103.956 96.2544 103.42 94.696 104.326C91.0835 106.411 87.1562 107.395 83.2761 107.395C79.3252 107.395 75.4136 106.364 71.9743 104.42C68.5349 102.476 65.5599 99.6269 63.4349 95.9436C61.3493 92.3311 60.3655 88.4116 60.3655 84.5236C60.3655 80.5728 61.3965 76.6611 63.3405 73.2218C65.2845 69.7824 68.1335 66.8074 71.8169 64.6824C75.4294 62.5968 79.3489 61.613 83.2368 61.613C87.2585 61.613 91.2252 62.6755 94.7118 64.6824C96.278 65.5875 98.2771 65.0445 99.1743 63.4783C100.071 61.9121 99.5284 59.913 97.9622 59.0158Z" fill="#05080E"/>
<path d="M83.2525 100.847C87.7544 100.847 91.8627 99.0131 94.8141 96.0617C97.7655 93.1103 99.6072 89.0098 99.5993 84.5001C99.5993 79.9982 97.7655 75.8899 94.8141 72.9386C91.8627 69.9871 87.7623 68.1455 83.2525 68.1533C81.4502 68.1533 79.9863 69.6173 79.9863 71.4195C79.9863 73.2219 81.4502 74.6857 83.2525 74.6857C85.9678 74.6857 88.3998 75.7798 90.1863 77.5585C91.965 79.345 93.059 81.7769 93.059 84.4923C93.059 87.2075 91.965 89.6394 90.1863 91.4261C88.3998 93.2048 85.9678 94.2987 83.2525 94.2987C81.4502 94.2987 79.9863 95.7626 79.9863 97.5649C79.9863 99.3673 81.4502 100.847 83.2525 100.847Z" fill="#05080E"/>
</svg>
