<svg width="48" height="48" viewBox="0 0 48 48" fill="none" xmlns="http://www.w3.org/2000/svg">
<path d="M24 48C37.2558 48 48 37.2558 48 24C48 10.7442 37.2558 0 24 0C10.7442 0 0 10.7442 0 24C0 37.2558 10.7442 48 24 48Z" fill="url(#paint0_linear_698_712)"/>
<path fill-rule="evenodd" clip-rule="evenodd" d="M24.8609 15.8607L24.8091 15.9481C24.5215 16.4335 23.8133 16.4346 23.5254 15.9424C23.1672 15.3302 22.6757 14.8058 22.0873 14.4088C21.8392 14.2414 21.718 13.9399 21.7813 13.6474L21.8434 13.3604C21.9355 12.9352 22.3667 12.6753 22.7856 12.7926C23.6047 13.022 24.4712 13.0252 25.2864 12.81C25.7865 12.678 26.2778 13.0092 26.3595 13.4808L26.3936 13.6776C26.4465 13.983 26.3235 14.3031 26.0698 14.4979C25.5854 14.8698 25.1736 15.3328 24.8609 15.8607ZM19.8887 12.9372C20.2244 11.3865 21.797 10.4389 23.3249 10.8667C23.7974 10.999 24.3015 11.0015 24.7759 10.8762C26.3914 10.4498 28.0451 11.4933 28.3302 13.1395L28.3643 13.3364C28.5448 14.3791 28.1271 15.4398 27.2878 16.0843C27.0044 16.3018 26.7637 16.5728 26.5815 16.8802L26.5297 16.9676C25.4635 18.7672 22.8553 18.7578 21.7991 16.9523C21.5923 16.5987 21.3084 16.2959 20.9688 16.0668C20.0426 15.442 19.5902 14.3162 19.8266 13.2242L19.8887 12.9372ZM9.16678 16.5887L17.4734 19.5987C17.5055 19.6104 17.5261 19.6418 17.524 19.6759C17.5214 19.7168 17.4872 19.7486 17.4462 19.748L8.76028 19.6303C8.1675 19.6223 7.62607 19.2923 7.34737 18.769L7.32004 18.7177C7.0965 18.298 7.08376 17.7975 7.28567 17.367C7.61715 16.6602 8.43282 16.3227 9.16678 16.5887ZM5.47492 16.5178C6.24555 14.8746 8.14184 14.09 9.84816 14.7083L18.1548 17.7184C19.022 18.0326 19.5781 18.8812 19.52 19.8017C19.4504 20.9067 18.5262 21.7628 17.4191 21.7478L8.7332 21.6302C7.41118 21.6123 6.20371 20.8762 5.58216 19.7092L5.55483 19.6579C5.03512 18.6822 5.00551 17.5187 5.47492 16.5178ZM38.8331 16.5887L30.5265 19.5987C30.4943 19.6104 30.4737 19.6418 30.4759 19.6759C30.4785 19.7168 30.5127 19.7486 30.5537 19.748L39.2396 19.6303C39.8324 19.6223 40.3738 19.2923 40.6525 18.769L40.6798 18.7177C40.9034 18.298 40.9161 17.7975 40.7142 17.367C40.3827 16.6602 39.567 16.3227 38.8331 16.5887ZM42.5249 16.5178C41.7543 14.8746 39.858 14.09 38.1517 14.7083L29.8451 17.7184C28.9779 18.0326 28.4218 18.8812 28.4798 19.8017C28.5495 20.9067 29.4737 21.7628 30.5808 21.7478L39.2667 21.6302C40.5887 21.6123 41.7962 20.8762 42.4177 19.7092L42.445 19.6579C42.9647 18.6822 42.9944 17.5187 42.5249 16.5178ZM16.6756 25.2546L9.85166 27.1864C9.56959 27.2662 9.26651 27.1825 9.06546 26.9691C8.84828 26.7386 8.79061 26.4004 8.91915 26.1109L8.94406 26.0549C9.07982 25.7492 9.37741 25.5471 9.71161 25.5337L16.6756 25.2546ZM10.3964 29.1107C9.39668 29.3938 8.32249 29.0969 7.6099 28.3407C6.84015 27.5239 6.63573 26.3249 7.09133 25.2991L7.11624 25.243C7.56114 24.2413 8.53633 23.5793 9.63149 23.5353L17.41 23.2235C18.4145 23.1832 19.2771 23.9311 19.3797 24.9311C19.4741 25.8507 18.8941 26.7051 18.0047 26.9569L10.3964 29.1107ZM38.1484 27.1864L31.3245 25.2546L38.2885 25.5337C38.6227 25.5471 38.9202 25.7492 39.056 26.0549L39.0809 26.1109C39.2095 26.4004 39.1518 26.7386 38.9346 26.9691C38.7336 27.1825 38.4305 27.2662 38.1484 27.1864ZM40.3902 28.3407C39.6776 29.0969 38.6034 29.3938 37.6036 29.1107L29.9954 26.9569C29.1059 26.7051 28.526 25.8507 28.6203 24.9311C28.723 23.9311 29.5856 23.1832 30.5901 23.2235L38.3686 23.5353C39.4637 23.5793 40.4389 24.2413 40.8838 25.243L40.9087 25.2991C41.3643 26.3249 41.1599 27.5239 40.3902 28.3407ZM25.559 23.949L26.0051 21.3131C26.0138 21.2619 26.0058 21.2377 26.0002 21.2241C25.9918 21.2039 25.9736 21.1768 25.9422 21.1526C25.9108 21.1284 25.88 21.1178 25.8582 21.1149C25.8437 21.113 25.8182 21.1114 25.771 21.1329C24.6753 21.6309 23.4178 21.6309 22.3221 21.1329C22.2749 21.1114 22.2495 21.113 22.2349 21.1149C22.2131 21.1178 22.1823 21.1284 22.1509 21.1526C22.1195 21.1768 22.1014 21.2039 22.093 21.2241C22.0873 21.2377 22.0793 21.2619 22.088 21.3131L22.5341 23.949C22.6139 24.4209 22.9095 24.8285 23.3332 25.0511C23.7798 25.2857 24.3133 25.2857 24.7599 25.0511C25.1836 24.8285 25.4792 24.4209 25.559 23.949ZM23.1497 19.3122C21.5683 18.5933 19.8262 19.934 20.116 21.6468L20.5621 24.2827C20.7461 25.3699 21.427 26.309 22.4032 26.8217C23.4321 27.3621 24.661 27.3621 25.6899 26.8217C26.6661 26.309 27.347 25.3699 27.531 24.2827L27.9771 21.6468C28.2669 19.934 26.5248 18.5933 24.9434 19.3122C24.3735 19.5712 23.7196 19.5712 23.1497 19.3122ZM24.5118 30.3492C24.2032 30.3933 23.8899 30.3933 23.5814 30.3492L23.8741 32.6145C23.8804 32.6635 23.9073 32.7075 23.948 32.7355C24.0074 32.7763 24.0857 32.7763 24.1451 32.7355C24.1858 32.7075 24.2127 32.6635 24.219 32.6145L24.5118 30.3492ZM23.3877 28.201C22.4644 27.6514 21.3138 28.4073 21.4515 29.4729L21.8906 32.8708C21.9697 33.4834 22.3057 34.0333 22.8146 34.3833C23.5566 34.8937 24.5365 34.8937 25.2785 34.3833C25.7874 34.0333 26.1234 33.4834 26.2025 32.8708L26.6416 29.4729C26.7793 28.4073 25.6287 27.6514 24.7054 28.201C24.2994 28.4427 23.7937 28.4427 23.3877 28.201ZM23.0404 37.5014L23.0685 37.7548L23.071 37.7778L23.0729 37.7942L23.1114 38.1422L23.1341 38.3468C23.1608 38.5885 23.2824 38.8096 23.472 38.9618C23.8077 39.2311 24.2854 39.2311 24.6211 38.9618C24.8107 38.8096 24.9323 38.5885 24.959 38.3468L24.9817 38.1422L25.0202 37.7942L25.0221 37.7778L25.0246 37.7548L25.0527 37.5014L25.1093 36.9902L25.1761 36.3873C25.2261 35.9359 24.7214 35.6354 24.3484 35.8945C24.1669 36.0205 23.9262 36.0205 23.7447 35.8945C23.3717 35.6354 22.867 35.9359 22.917 36.3873L22.9838 36.9902L23.0404 37.5014ZM23.5357 37.2919C23.8543 37.1211 24.2388 37.1211 24.5574 37.2919C24.4161 37.4533 24.2409 37.5825 24.0465 37.6707C23.8522 37.5825 23.677 37.4533 23.5357 37.2919Z" fill="white"/>
<defs>
<linearGradient id="paint0_linear_698_712" x1="24" y1="0" x2="24" y2="48" gradientUnits="userSpaceOnUse">
<stop stop-color="#5742D4"/>
<stop offset="1" stop-color="#CC39E7"/>
</linearGradient>
</defs>
</svg>
