<svg width="48" height="48" viewBox="0 0 48 48" fill="none" xmlns="http://www.w3.org/2000/svg">
<path d="M23.9583 0C10.7687 0 0 10.7687 0 24.0417C0 37.2313 10.7687 48 23.9583 48C37.1478 48 48 37.2313 48 24.0417C48 10.7687 37.2313 0 23.9583 0Z" fill="url(#paint0_linear_698_642)"/>
<path d="M36.5945 17.4055C35.8479 16.6589 34.8525 16.2856 33.8571 16.2856C31.7419 16.2856 30 18.0276 30 20.1428C30 22.258 31.7419 23.9999 33.8571 23.9999C35.9724 23.9999 37.7143 22.258 37.7143 20.1428C37.7143 19.1474 37.341 18.152 36.5945 17.4055ZM32.2396 18.6497C31.4931 19.3962 31.3687 20.3916 31.8664 21.2626C31.3687 20.6405 30.871 19.8939 30.6221 19.2718C30.7465 18.7741 30.9954 18.2764 31.4931 17.9032C31.7419 17.6543 31.9908 17.4055 32.3641 17.281C32.3641 17.6543 32.4885 17.9032 32.6129 18.2764C32.4885 18.4009 32.3641 18.5253 32.2396 18.6497Z" fill="white"/>
<path d="M21.7959 14.5714C22.653 14.0914 23.6326 13.8514 24.6122 13.8514C25.3469 13.8514 25.9592 13.9714 26.5714 14.2114C27.1837 13.6114 27.4286 12.7714 27.4286 11.9314C27.4286 10.9714 27.0612 10.1314 26.449 9.53141C25.8367 8.93141 24.9796 8.57141 24 8.57141C22.0408 8.57141 20.5714 10.1314 20.5714 11.9314C20.5714 13.0114 21.0612 13.9714 21.7959 14.5714ZM21.9184 9.89141C22.1632 9.65141 22.4081 9.53141 22.653 9.41141C22.653 9.65141 22.7755 10.0114 22.8979 10.3714C22.7755 10.4914 22.653 10.4914 22.5306 10.6114C21.9184 11.2114 21.7959 12.1714 22.1632 12.8914C21.6735 12.2914 21.3061 11.6914 21.0612 11.2114C21.3061 10.6114 21.551 10.2514 21.9184 9.89141Z" fill="white"/>
<path d="M21.935 24C23.3376 22.5857 25.3246 21.6428 27.4285 21.6428C28.1298 21.6428 28.8311 21.7607 29.5324 21.9964C29.8831 21.2893 29.9999 20.5821 29.9999 19.7571C29.9999 18.3428 29.4155 17.0464 28.4805 16.1036C27.5454 15.1607 26.2597 14.5714 24.8571 14.5714C22.0519 14.5714 19.7142 16.9286 19.7142 19.7571C19.7142 21.525 20.5324 23.0571 21.935 24ZM21.935 16.8107C22.2857 16.4571 22.6363 16.2214 22.987 15.9857C22.987 16.4571 23.1038 16.8107 23.3376 17.4C23.1038 17.5178 22.987 17.6357 22.8701 17.7536C21.935 18.6964 21.8181 19.9928 22.4025 21.0536C21.7012 20.2286 21.1168 19.2857 20.8831 18.4607C20.9999 17.9893 21.3506 17.2821 21.935 16.8107Z" fill="white"/>
<path d="M27.8571 36.8571C31.7986 36.8571 35.1428 33.6322 35.1428 29.5714C35.1428 27.6604 34.4262 25.8688 32.993 24.4355C31.6791 23.1217 29.7681 22.2856 27.8571 22.2856C23.9157 22.2856 20.5714 25.5105 20.5714 29.5714C20.5714 33.6322 23.7962 36.8571 27.8571 36.8571ZM23.6768 25.5105C24.1545 25.0327 24.6323 24.6744 25.2295 24.4355C25.2295 25.0327 25.4684 25.6299 25.7072 26.3465C25.4684 26.466 25.2295 26.7048 24.9906 26.9437C23.7962 28.1381 23.5574 30.0491 24.274 31.6018C23.3185 30.4074 22.4824 29.213 22.1241 28.1381C22.4824 27.0632 22.9602 26.2271 23.6768 25.5105Z" fill="white"/>
<path d="M21.4285 24.6762C19.9764 23.5619 19.0084 21.8286 19.0084 19.7238C19.0084 19.6 19.0084 19.6 19.0084 19.4762C18.2823 19.1048 17.4353 18.8572 16.5882 18.8572C13.563 18.8572 11.1428 21.3334 11.1428 24.4286C11.1428 27.5238 13.563 30 16.5882 30C17.6773 30 18.7664 29.6286 19.6134 29.0096C19.8554 27.2762 20.4605 25.7905 21.4285 24.6762ZM14.5311 22.3238C13.563 23.3143 13.442 24.8 14.047 25.9143C13.321 25.0477 12.7159 24.0572 12.4739 23.1905C12.7159 22.4477 13.079 21.8286 13.563 21.3334C13.926 20.9619 14.289 20.7143 14.6521 20.4667C14.6521 20.9619 14.7731 21.4572 15.0151 21.9524C14.7731 21.9524 14.6521 22.0762 14.5311 22.3238Z" fill="white"/>
<path d="M17.5714 30C15.9464 30 14.5714 31.375 14.5714 33C14.5714 34.625 15.9464 36 17.5714 36C19.1964 36 20.5714 34.625 20.5714 33C20.5714 32.125 20.1964 31.375 19.6964 30.875C19.0714 30.375 18.3214 30 17.5714 30ZM16.3214 31.875C15.8214 32.375 15.6964 33.25 16.0714 33.875C15.5714 33.375 15.3214 32.75 15.0714 32.25C15.1964 31.875 15.4464 31.5 15.6964 31.125C15.9464 30.875 16.0714 30.75 16.3214 30.625C16.3214 30.875 16.4464 31.125 16.5714 31.5C16.4464 31.625 16.4464 31.75 16.3214 31.875Z" fill="white"/>
<defs>
<linearGradient id="paint0_linear_698_642" x1="6.867" y1="41.1329" x2="40.8745" y2="7.12537" gradientUnits="userSpaceOnUse">
<stop stop-color="#00AEEF"/>
<stop offset="1" stop-color="#71C0E2"/>
</linearGradient>
</defs>
</svg>
