<svg width="48" height="48" viewBox="0 0 48 48" fill="none" xmlns="http://www.w3.org/2000/svg">
<path d="M24 48C37.2558 48 48 37.2558 48 24C48 10.7442 37.2558 0 24 0C10.7442 0 0 10.7442 0 24C0 37.2558 10.7442 48 24 48Z" fill="url(#paint0_linear_698_698)"/>
<path d="M31.0797 23.96V28.071C31.0794 28.2606 31.0127 28.4442 30.8908 28.5903C30.769 28.7363 30.5997 28.8357 30.412 28.8712L27.7959 29.3627V39.4719C27.7959 39.6877 27.7095 39.8947 27.5558 40.0473C27.4021 40.1999 27.1936 40.2857 26.9762 40.2857H23.6721C23.4594 40.2784 23.2579 40.1894 23.1101 40.0375C22.9622 39.8856 22.8796 39.6827 22.8796 39.4714C22.8796 39.2602 22.9622 39.0573 23.1101 38.9053C23.2579 38.7534 23.4594 38.6645 23.6721 38.6572H26.1574V29.6677L19.5928 30.9008V32.9543C19.5966 33.0636 19.5782 33.1725 19.5387 33.2746C19.4992 33.3767 19.4393 33.4698 19.3628 33.5484C19.2863 33.6271 19.1946 33.6896 19.0932 33.7323C18.9918 33.775 18.8828 33.797 18.7726 33.797C18.6625 33.797 18.5534 33.775 18.452 33.7323C18.3506 33.6896 18.2589 33.6271 18.1824 33.5484C18.1059 33.4698 18.0461 33.3767 18.0065 33.2746C17.967 33.1725 17.9486 33.0636 17.9524 32.9543V30.2265C17.9524 30.0368 18.0191 29.8531 18.141 29.707C18.2629 29.5609 18.4323 29.4616 18.62 29.4262L26.1574 28.0104V23.96C26.1574 23.5293 25.9851 23.1164 25.6784 22.8119C25.3716 22.5074 24.9556 22.3363 24.5218 22.3363C24.0881 22.3363 23.672 22.5074 23.3653 22.8119C23.0586 23.1164 22.8863 23.5293 22.8863 23.96C22.8789 24.1711 22.7893 24.3711 22.6363 24.5179C22.4833 24.6646 22.2788 24.7467 22.066 24.7467C21.8533 24.7467 21.6488 24.6646 21.4958 24.5179C21.3428 24.3711 21.2531 24.1711 21.2458 23.96C21.2458 23.5329 21.3306 23.11 21.4952 22.7155C21.6598 22.3209 21.9011 21.9624 22.2054 21.6604C22.5096 21.3584 22.8707 21.1189 23.2682 20.9554C23.6656 20.792 24.0916 20.7079 24.5218 20.7079C24.952 20.7079 25.378 20.792 25.7755 20.9554C26.173 21.1189 26.5341 21.3584 26.8383 21.6604C27.1425 21.9624 27.3838 22.3209 27.5485 22.7155C27.7131 23.11 27.7978 23.5329 27.7978 23.96V27.7016L29.4392 27.3938V23.96C29.4392 21.2235 27.231 18.9996 24.517 18.9996C23.5776 19.0048 22.6592 19.276 21.8697 19.7813C21.0801 20.2867 20.4523 21.0052 20.0598 21.8525C19.8921 22.2775 19.6378 22.6636 19.3128 22.9866C18.8629 23.4332 18.2917 23.7402 17.669 23.8699C17.0463 23.9997 16.399 23.9466 15.8062 23.7172C15.2134 23.4878 14.7007 23.0919 14.3307 22.578C13.9608 22.0641 13.7496 21.4544 13.723 20.8233C13.7171 20.7838 13.7142 20.744 13.7142 20.704V19.8922C13.7145 18.5973 14.2321 17.3553 15.1536 16.4388C16.0751 15.5222 17.3252 15.0059 18.6297 15.0031C19.4994 15.0021 20.3333 14.659 20.9488 14.0489C21.5643 13.4388 21.9111 12.6115 21.9134 11.7481V10.9104C21.904 10.4864 21.7279 10.083 21.4228 9.78613C21.1177 9.48931 20.7079 9.32267 20.2807 9.32179C19.8535 9.32091 19.4429 9.48587 19.1366 9.78143C18.8303 10.077 18.6526 10.4797 18.6413 10.9036V10.9546C18.6395 11.6022 18.3793 12.2227 17.9177 12.6802C17.4561 13.1377 16.8306 13.3951 16.1783 13.3958C16.0682 13.3996 15.9585 13.3813 15.8556 13.3421C15.7528 13.3028 15.659 13.2435 15.5798 13.1675C15.5006 13.0915 15.4376 13.0005 15.3946 12.8998C15.3515 12.7992 15.3294 12.6909 15.3294 12.5816C15.3294 12.4723 15.3515 12.364 15.3946 12.2634C15.4376 12.1627 15.5006 12.0717 15.5798 11.9957C15.659 11.9197 15.7528 11.8604 15.8556 11.8211C15.9585 11.7819 16.0682 11.7636 16.1783 11.7674C16.3949 11.7671 16.6026 11.6822 16.7566 11.531C16.9106 11.3798 16.9983 11.1744 17.0009 10.9594V10.9113C17.0157 10.0584 17.3674 9.24533 17.9802 8.64733C18.5931 8.04933 19.418 7.71423 20.2774 7.71423C21.1367 7.71423 21.9617 8.04933 22.5745 8.64733C23.1874 9.24533 23.5391 10.0584 23.5539 10.9113V11.7501C23.5503 13.045 23.03 14.2858 22.1069 15.2009C21.1839 16.116 19.9332 16.6307 18.6287 16.6325C17.7592 16.6345 16.9261 16.9789 16.3121 17.59C15.6981 18.2011 15.3534 19.0291 15.3537 19.8922V20.604C15.3577 20.6359 15.3596 20.6681 15.3595 20.7002C15.3621 21.0203 15.4598 21.3324 15.6405 21.5975C15.8212 21.8626 16.0767 22.0688 16.375 22.1903C16.6733 22.3117 17.0011 22.343 17.3172 22.2802C17.6334 22.2173 17.9238 22.0632 18.152 21.8371C18.3043 21.6841 18.4263 21.504 18.5115 21.3062C18.5192 21.285 18.526 21.2639 18.5347 21.2437C18.5468 21.2143 18.5608 21.1857 18.5764 21.158C19.102 20.0321 19.94 19.0781 20.9921 18.4077C22.0442 17.7374 23.2669 17.3785 24.517 17.3731C28.136 17.3722 31.0797 20.326 31.0797 23.96ZM35.1793 25.6278C34.9618 25.6278 34.7532 25.5421 34.5993 25.3895C34.4454 25.237 34.3588 25.03 34.3586 24.8141V23.96C34.3603 22.6762 34.107 21.4048 33.613 20.2184C33.1191 19.032 32.3942 17.954 31.4799 17.0461C30.5656 16.1383 29.4799 15.4184 28.2849 14.9276C27.09 14.4369 25.8092 14.1851 24.516 14.1865C24.4059 14.1827 24.2962 14.201 24.1934 14.2402C24.0906 14.2794 23.9968 14.3388 23.9176 14.4148C23.8384 14.4908 23.7754 14.5818 23.7323 14.6825C23.6893 14.7831 23.6671 14.8913 23.6671 15.0007C23.6671 15.11 23.6893 15.2183 23.7323 15.3189C23.7754 15.4196 23.8384 15.5106 23.9176 15.5866C23.9968 15.6626 24.0906 15.7219 24.1934 15.7611C24.2962 15.8004 24.4059 15.8187 24.516 15.8149C25.5934 15.8149 26.6602 16.0256 27.6555 16.435C28.6508 16.8443 29.5551 17.4443 30.3168 18.2007C31.0785 18.9571 31.6826 19.855 32.0946 20.8432C32.5066 21.8314 32.7185 22.8905 32.7181 23.96V24.8141C32.7189 25.4618 32.9784 26.0828 33.4398 26.5408C33.9012 26.9988 34.5268 27.2565 35.1793 27.2572C35.3969 27.2572 35.6057 27.1714 35.7596 27.0186C35.9135 26.8658 35.9999 26.6586 35.9999 26.4425C35.9999 26.2265 35.9135 26.0192 35.7596 25.8664C35.6057 25.7137 35.3969 25.6278 35.1793 25.6278V25.6278Z" fill="white"/>
<defs>
<linearGradient id="paint0_linear_698_698" x1="-8.93529" y1="54.0756" x2="51.9263" y2="-1.50158" gradientUnits="userSpaceOnUse">
<stop offset="0.2359" stop-color="#E65370"/>
<stop offset="1" stop-color="#A378B5"/>
</linearGradient>
</defs>
</svg>
