<svg width="170" height="170" viewBox="0 0 170 170" fill="none" xmlns="http://www.w3.org/2000/svg">
<circle cx="85" cy="85" r="80.5" fill="white" stroke="#FF965E" stroke-width="9"/>
<path d="M123.867 79.719C123.718 78.2066 123.47 76.4711 122.973 74.5372C122.476 72.6281 121.73 70.5207 120.637 68.3388C119.544 66.157 118.127 63.9008 116.289 61.6942C115.568 60.8264 114.773 59.9835 113.928 59.1653C115.195 54.1322 112.387 49.7686 112.387 49.7686C107.542 49.4711 104.461 51.281 103.318 52.0992C103.119 52.0248 102.945 51.9256 102.747 51.8512C101.927 51.5289 101.082 51.2066 100.187 50.9339C99.3176 50.6612 98.423 50.4132 97.5037 50.1901C96.5843 49.9669 95.665 49.7934 94.7207 49.6446C94.5468 49.6198 94.3977 49.595 94.2238 49.5702C92.1117 42.8264 86.0489 40 86.0489 40C79.2655 44.2893 77.9982 50.2893 77.9982 50.2893C77.9982 50.2893 77.9734 50.4132 77.9237 50.6364C77.551 50.7355 77.1783 50.8595 76.8055 50.9587C76.2837 51.1074 75.7619 51.3058 75.265 51.5041C74.7432 51.7025 74.2462 51.9008 73.7244 52.124C72.7057 52.5702 71.6869 53.0661 70.693 53.6116C69.7239 54.157 68.7797 54.7521 67.8604 55.3719C67.7361 55.3223 67.6119 55.2727 67.6119 55.2727C58.2195 51.7025 49.8955 55.9917 49.8955 55.9917C49.1252 65.9587 53.6475 72.2314 54.542 73.3719C54.3184 73.9917 54.1196 74.6116 53.9208 75.2314C53.2251 77.4876 52.7033 79.7934 52.3802 82.1983C52.3306 82.5455 52.2809 82.8926 52.256 83.2397C43.5593 87.5289 41 96.281 41 96.281C48.2307 104.587 56.6789 105.107 56.6789 105.107L56.7038 105.083C57.7722 106.992 59.0146 108.802 60.4061 110.512C61.0024 111.231 61.5987 111.901 62.2448 112.57C59.6109 120.107 62.6175 126.355 62.6175 126.355C70.6682 126.653 75.9607 122.835 77.0789 121.967C77.874 122.24 78.694 122.488 79.5139 122.686C81.9987 123.331 84.5332 123.702 87.0676 123.802C87.6888 123.826 88.3349 123.851 88.9561 123.826H89.2542H89.453H89.8506L90.2482 123.802V123.826C94.0499 129.231 100.709 130 100.709 130C105.455 125.017 105.728 120.058 105.728 118.992C105.728 118.992 105.728 118.967 105.728 118.917C105.728 118.818 105.728 118.769 105.728 118.769C105.728 118.694 105.728 118.62 105.728 118.545C106.722 117.851 107.666 117.107 108.561 116.289C110.449 114.579 112.114 112.62 113.506 110.512C113.63 110.314 113.754 110.116 113.878 109.917C119.245 110.215 123.047 106.595 123.047 106.595C122.153 101.017 118.972 98.2893 118.301 97.7686C118.301 97.7686 118.276 97.7438 118.227 97.719C118.177 97.6942 118.177 97.6694 118.177 97.6694C118.152 97.6446 118.102 97.6198 118.053 97.595C118.078 97.2479 118.102 96.9256 118.127 96.5785C118.177 95.9835 118.177 95.3636 118.177 94.7686V94.3223V94.0992V93.9752C118.177 93.8264 118.177 93.876 118.177 93.8264L118.152 93.4545L118.127 92.9587C118.127 92.7851 118.102 92.6364 118.078 92.4876C118.053 92.3388 118.053 92.1653 118.028 92.0165L117.978 91.5455L117.904 91.0744C117.804 90.4545 117.705 89.8595 117.556 89.2397C116.984 86.8347 116.04 84.5537 114.823 82.4959C113.58 80.438 112.04 78.6281 110.275 77.0909C108.536 75.5537 106.573 74.314 104.536 73.3967C102.473 72.4793 100.336 71.8843 98.1994 71.6116C97.131 71.4628 96.0625 71.4132 94.9941 71.438H94.5965H94.4971C94.4723 71.438 94.348 71.438 94.3729 71.438H94.1989L93.8014 71.4628C93.6523 71.4628 93.5032 71.4876 93.379 71.4876C92.8323 71.5372 92.2857 71.6116 91.7639 71.7107C89.627 72.1074 87.6143 72.876 85.8501 73.9421C84.0859 75.0083 82.5454 76.3223 81.303 77.8099C80.0606 79.2975 79.0915 80.9587 78.4206 82.6694C77.7498 84.3802 77.377 86.1653 77.2777 87.876C77.2528 88.2975 77.2528 88.7438 77.2528 89.1653C77.2528 89.2645 77.2528 89.3884 77.2528 89.4876L77.2777 89.8347C77.3025 90.0331 77.3025 90.2562 77.3273 90.4545C77.4019 91.3223 77.5758 92.1653 77.7995 92.9587C78.2716 94.5702 79.017 96.0331 79.9364 97.2727C80.8557 98.5124 81.9739 99.5289 83.1417 100.347C84.3096 101.14 85.5768 101.711 86.8192 102.083C88.0616 102.455 89.3039 102.603 90.4718 102.603C90.6209 102.603 90.77 102.603 90.8942 102.603C90.9687 102.603 91.0433 102.603 91.1178 102.603C91.1924 102.603 91.2669 102.603 91.3415 102.579C91.4657 102.579 91.5899 102.554 91.7142 102.554C91.739 102.554 91.7887 102.554 91.8136 102.529L91.9378 102.504C92.0123 102.504 92.0869 102.479 92.1614 102.479C92.3105 102.455 92.4348 102.43 92.5838 102.405C92.7329 102.38 92.8572 102.355 92.9814 102.306C93.2547 102.256 93.5032 102.157 93.7517 102.083C94.2486 101.909 94.7456 101.711 95.168 101.488C95.6153 101.264 96.0128 100.992 96.4104 100.744C96.5098 100.669 96.634 100.595 96.7334 100.496C97.131 100.174 97.2055 99.5785 96.8825 99.1818C96.6092 98.8347 96.1122 98.7355 95.7147 98.9587C95.6153 99.0083 95.5159 99.0578 95.4165 99.1074C95.0686 99.281 94.7207 99.4298 94.348 99.5537C93.9753 99.6777 93.5777 99.7769 93.1802 99.8512C92.9814 99.876 92.7826 99.9008 92.559 99.9256C92.4596 99.9256 92.3602 99.9504 92.236 99.9504C92.1366 99.9504 92.0123 99.9504 91.9378 99.9504C91.8384 99.9504 91.739 99.9504 91.6396 99.9504C91.5154 99.9504 91.3912 99.9504 91.2669 99.9256C91.2669 99.9256 91.1924 99.9256 91.2421 99.9256H91.1924H91.1178C91.0681 99.9256 90.9936 99.9256 90.9439 99.9008C90.8197 99.876 90.7203 99.876 90.596 99.8512C89.6767 99.7273 88.7573 99.4545 87.8876 99.0578C86.9931 98.6612 86.1483 98.1157 85.378 97.4215C84.6077 96.7273 83.9368 95.9091 83.415 94.9669C82.8932 94.0248 82.5205 92.9835 82.3466 91.8926C82.272 91.3471 82.2223 90.7769 82.2472 90.2314C82.2472 90.0826 82.272 89.9339 82.272 89.7851C82.272 89.8347 82.272 89.7603 82.272 89.7603V89.7107V89.5868C82.272 89.5124 82.2969 89.438 82.2969 89.3636C82.3217 89.0661 82.3714 88.7686 82.4211 88.4711C82.8435 86.0909 84.0362 83.7603 85.875 82C86.3471 81.5537 86.844 81.157 87.3658 80.7851C87.8876 80.4132 88.4591 80.0909 89.0555 79.8182C89.6518 79.5455 90.2482 79.3223 90.8942 79.1488C91.5154 78.9752 92.1614 78.876 92.8323 78.8017C93.1553 78.7769 93.4784 78.7521 93.8262 78.7521C93.9256 78.7521 93.9753 78.7521 94.0499 78.7521H94.3232H94.4971C94.5717 78.7521 94.4971 78.7521 94.522 78.7521H94.5965L94.8698 78.7769C95.5904 78.8264 96.2861 78.9256 96.9819 79.0992C98.3734 79.3967 99.74 79.9174 101.007 80.6116C103.542 82.0248 105.703 84.2066 107.02 86.8347C107.691 88.1488 108.163 89.562 108.387 91.0248C108.437 91.3967 108.486 91.7686 108.511 92.1405L108.536 92.4132L108.561 92.6859C108.561 92.7851 108.561 92.8843 108.561 92.9587C108.561 93.0579 108.561 93.157 108.561 93.2314V93.4793V93.7521C108.561 93.9256 108.536 94.2231 108.536 94.3967C108.511 94.7934 108.462 95.2149 108.412 95.6116C108.362 96.0083 108.288 96.405 108.213 96.8017C108.139 97.1983 108.039 97.595 107.94 97.9669C107.741 98.7355 107.492 99.5041 107.194 100.273C106.598 101.76 105.803 103.198 104.859 104.512C102.945 107.14 100.336 109.273 97.3546 110.636C95.8637 111.306 94.2983 111.802 92.6832 112.05C91.8881 112.198 91.0681 112.273 90.2482 112.298H90.0991H89.9748H89.7015H89.3039H89.1052C89.2046 112.298 89.0803 112.298 89.0803 112.298H89.0058C88.5585 112.298 88.1361 112.273 87.6888 112.223C85.9495 112.099 84.235 111.777 82.5454 111.306C80.8806 110.835 79.2655 110.165 77.7249 109.372C74.6686 107.736 71.9105 105.504 69.7736 102.802C68.7052 101.463 67.761 100 66.9907 98.4876C66.2204 96.9752 65.5992 95.3636 65.152 93.7521C64.7047 92.1157 64.4314 90.4545 64.3072 88.7686L64.2823 88.4463V88.3719V88.2975V88.1488V87.876V87.8017V87.7025V87.5041V87.1074V87.0331C64.2823 87.0331 64.2823 87.0579 64.2823 87.0083V86.8595C64.2823 86.6612 64.2823 86.438 64.2823 86.2397C64.3071 85.4215 64.3817 84.5537 64.4811 83.7107C64.5805 82.8678 64.7296 82 64.9035 81.157C65.0774 80.314 65.2762 79.4711 65.5247 78.6281C65.9968 76.9669 66.5931 75.3554 67.2889 73.843C68.7052 70.8182 70.5439 68.1157 72.7554 65.9587C73.302 65.4132 73.8735 64.9174 74.4699 64.4215C75.0662 63.9504 75.6874 63.5041 76.3334 63.0826C76.9546 62.6612 77.6255 62.2893 78.2964 61.9421C78.6194 61.7686 78.9673 61.595 79.3152 61.4463C79.4891 61.3719 79.663 61.2975 79.837 61.2231C80.0109 61.1488 80.1848 61.0744 80.3588 61C81.0545 60.7025 81.7751 60.4545 82.5205 60.2314C82.6945 60.1818 82.8932 60.1322 83.0672 60.0579C83.2411 60.0083 83.4399 59.9587 83.6138 59.9091C83.9865 59.8099 84.3592 59.7107 84.732 59.6364C84.9059 59.5868 85.1047 59.562 85.3035 59.5124C85.5022 59.4628 85.6762 59.438 85.875 59.3884C86.0737 59.3636 86.2477 59.314 86.4465 59.2893L86.7198 59.2397L87.018 59.1901C87.2167 59.1653 87.3907 59.1405 87.5895 59.1157C87.8131 59.0909 88.0119 59.0661 88.2355 59.0413C88.4094 59.0165 88.7076 58.9917 88.8815 58.9669C89.0058 58.9421 89.1549 58.9421 89.2791 58.9174L89.5524 58.8926L89.6767 58.8678H89.8257C90.0494 58.843 90.2482 58.843 90.4718 58.8182L90.7948 58.7934C90.7948 58.7934 90.919 58.7934 90.8197 58.7934H90.8942H91.0433C91.2172 58.7934 91.416 58.7686 91.5899 58.7686C92.3105 58.7438 93.0559 58.7438 93.7765 58.7686C95.2177 58.8182 96.634 58.9917 98.0006 59.2397C100.759 59.7603 103.343 60.6281 105.703 61.7934C108.064 62.9339 110.151 64.3471 111.99 65.8843C112.114 65.9835 112.214 66.0826 112.338 66.1818C112.437 66.281 112.561 66.3802 112.661 66.4793C112.884 66.6777 113.083 66.876 113.307 67.0744C113.53 67.2727 113.729 67.4711 113.928 67.6694C114.127 67.8678 114.326 68.0661 114.524 68.2893C115.295 69.1074 116.015 69.9256 116.661 70.7686C117.953 72.4298 118.997 74.1157 119.817 75.7025C119.867 75.8017 119.916 75.9008 119.966 76C120.016 76.0992 120.065 76.1983 120.115 76.2975C120.214 76.4959 120.314 76.6942 120.388 76.8926C120.488 77.0909 120.562 77.2645 120.662 77.4628C120.736 77.6612 120.836 77.8347 120.91 78.0331C121.208 78.7769 121.507 79.4959 121.73 80.1653C122.103 81.2562 122.376 82.2231 122.6 83.0661C122.674 83.4132 122.997 83.6364 123.345 83.5868C123.718 83.562 123.991 83.2645 123.991 82.8926C124.016 82 123.991 80.9339 123.867 79.719Z" fill="#05080E"/>
</svg>
