<svg width="48" height="48" viewBox="0 0 48 48" fill="none" xmlns="http://www.w3.org/2000/svg">
<path d="M23.9612 0C10.7733 0 0 10.7733 0 24.0388C0 37.2267 10.7733 48 23.9612 48C37.1491 48 48 37.2267 48 24.0388C48 10.7733 37.2267 0 23.9612 0Z" fill="url(#paint0_linear_698_596)"/>
<path d="M42.6689 26.1345C42.7581 26.2341 42.9464 27.2479 42.8077 27.7457C42.6689 28.2436 42.3914 28.3613 42.1833 28.2436C41.9752 28.1169 40.8652 26.8225 40.2409 26.388C39.6165 25.9535 38.8237 25.5824 38.784 25.6457C38.7444 25.7091 39.339 26.4513 39.6859 26.7591C40.0328 27.0669 40.6175 27.3565 40.5877 27.438C40.558 27.5195 39.6859 27.3746 37.8723 26.1979C36.0686 25.0212 33.6207 24.7225 34.4532 23.8807C34.8199 23.5095 35.6722 23.0117 35.9695 23.1746C36.4055 23.41 35.9992 24.2789 36.4155 24.2789C36.8317 24.2789 36.7722 23.4914 37.1786 23.4733C37.5849 23.4552 38.7048 24.5867 39.676 25.1479C40.6472 25.7001 42.3914 25.8901 42.6689 26.1345Z" fill="white"/>
<path d="M40.3026 23.1434C40.3787 23.1173 41.5672 23.919 42.0331 24.4593C42.4991 24.9997 43.1647 25.7143 42.6987 25.7143C42.2328 25.7143 41.3676 25.357 41.1679 24.9997C40.9682 24.6424 40.9016 24.1631 40.6354 23.8668C40.3692 23.5617 40.236 23.3265 40.3026 23.1434Z" fill="white"/>
<path d="M39.3919 22.0266C39.3919 22.0266 38.0327 19.6292 37.2172 18.0752C36.4017 16.5212 34.858 13.8396 33.9454 13.4985C32.7415 13.0532 33.1881 11.954 32.6056 12.0014C31.6056 12.0772 30.5862 11.9256 30.1785 12.1245C29.7707 12.3235 29.5668 12.6931 29.4406 12.9868C29.3144 13.2995 29.6834 13.5838 29.6154 13.9723C29.5474 14.3608 28.8387 14.3418 29.295 15.3178C29.5766 15.9337 31.0037 15.261 32.2464 15.8769C32.8969 16.1991 34.1493 18.5301 35.5182 19.5724C36.8774 20.6052 38.8579 22.1024 39.0618 22.2255C39.256 22.3487 39.5278 22.2824 39.3919 22.0266Z" fill="white"/>
<path d="M34.4579 23.9577C34.731 23.7741 35.431 23.3104 35.0127 23.0399C34.5944 22.779 33.2884 21.6293 33.1092 21.4941C32.9299 21.3588 32.5714 21.4265 32.5714 21.7549C32.5714 22.0834 32.7165 23.3007 33.1092 23.5036C33.5189 23.7258 34.2018 24.1316 34.4579 23.9577Z" fill="white"/>
<path d="M30.5767 20.1472C29.9801 19.8294 29.9014 19.1541 30.0927 18.9257C30.3403 18.6477 31.5672 19.2634 32.3213 19.889C33.0754 20.5146 32.0174 20.9217 30.5767 20.1472Z" fill="white"/>
<path d="M35.3697 25.7142C34.9872 25.7142 34.9355 26.5722 36.4551 27.5464C37.9747 28.5296 39.5047 29.0748 40.8796 29.1373C42.2545 29.1999 42.0374 28.7083 41.8927 28.5296C41.7479 28.3419 40.373 28.5921 38.9878 28.2257C37.6233 27.8593 35.7522 25.7142 35.3697 25.7142Z" fill="white"/>
<path d="M35.0268 25.6439C34.8458 25.9191 33.5788 25.3155 32.9719 25.058C31.9178 24.6319 31.5665 24.5964 31.7688 23.9306C31.9924 23.247 32.8441 23.0873 33.2913 23.1583C35.3568 23.5045 33.3233 24.0371 33.6107 24.3656C33.8663 24.6585 35.6017 24.8006 35.0268 25.6439Z" fill="white"/>
<path d="M32.4329 23.0551C32.896 22.8152 32.1132 21.5322 31.3304 21.188C30.5476 20.8438 29.875 20.291 29.4561 20.7395C29.0371 21.188 29.0702 21.5427 29.3679 21.8139C29.6655 22.0851 30.7901 22.7422 31.2532 22.8986C31.7273 23.0551 32.025 23.2637 32.4329 23.0551Z" fill="white"/>
<path d="M31.2249 22.6693C31.2249 22.6693 31.962 23.2962 31.6269 23.813C31.2919 24.1518 31.2361 24.0332 30.1082 23.4317C29.2036 22.9828 28.8351 22.5507 29.4381 22.3728C30.0412 22.1865 30.8229 22.3051 31.2249 22.6693Z" fill="white"/>
<path d="M27.5778 20.5714C27.0237 20.5714 25.769 20.7604 25.7167 21.1041C25.6748 21.3962 26.1663 21.5766 27.5465 21.6195C28.017 21.6367 28.4352 22.3498 28.8953 22.281C29.6168 22.1608 28.6339 20.5714 27.5778 20.5714Z" fill="white"/>
<path d="M28.8875 20.5614C27.5395 20.7178 27.0973 18.9858 27.6796 18.8629C28.2728 18.7512 29.7286 20.2708 28.8875 20.5614Z" fill="white"/>
<path d="M29.1433 17.045C29.1144 17.045 30.369 15.9228 31.421 16.4069C32.473 16.891 32.4151 17.8041 32.7143 18.0132C33.0135 18.2222 33.4285 18.6953 33.4285 18.6953C33.4285 18.6953 32.2125 18.4533 31.8168 18.5853C31.421 18.7173 30.7261 19.2454 30.0409 18.3323C29.3653 17.4301 29.2688 17.067 29.1433 17.045Z" fill="white"/>
<path d="M28.2808 16.8615C28.2054 17.2436 26.0558 17.3005 26.6875 16.6257C27.3192 15.951 28.3657 16.4144 28.2808 16.8615Z" fill="white"/>
<path d="M27.517 15.3326C27.7779 15.5943 28.5025 15.7132 28.2223 15.9748C27.9422 16.2484 27.0243 16.5101 26.7151 15.9748C26.4059 15.4396 26.6282 14.5714 27.0726 14.5714C27.517 14.5833 27.3431 15.1542 27.517 15.3326Z" fill="white"/>
<path d="M29.137 14.2132C28.9909 14.8806 27.3488 14.5416 26.8501 13.8001C26.3515 13.0586 26.6094 12.815 26.9447 12.3595C27.1682 12.0628 28.4149 11.8616 28.5524 12.1158C28.8877 12.7196 29.1886 13.959 29.137 14.2132Z" fill="white"/>
<path d="M25.7143 14.0156C25.7143 14.0156 25.6104 15.8277 24.6947 16.0455C23.7791 16.2535 23.6186 16.4614 23.2032 16.0455C22.7879 15.6296 22.5236 15.0751 22.4575 14.6196C22.3914 14.174 22.4386 13.6393 22.1271 13.2333C21.825 12.8273 20.8338 11.9361 19.701 11.4212C18.5682 10.9063 17.1428 10.3716 17.1428 10.3716C17.1428 10.3716 19.6538 9.99533 21.0981 10.8172C22.5424 11.649 23.5242 12.56 23.9207 12.8273C24.3266 13.0947 25.5821 13.1343 25.7143 14.0156Z" fill="white"/>
<path d="M23.0187 15.4285C22.6711 15.4285 20.8211 14.1484 19.8501 13.3692C18.879 12.5899 18 11.1428 18 11.1428C18 11.1428 19.6559 11.5603 20.678 12.1725C21.7001 12.7848 22.5689 13.1651 22.6916 13.7866C22.8142 14.4081 22.6405 14.1669 22.7734 14.6122C22.8858 15.0575 23.3662 15.4285 23.0187 15.4285Z" fill="white"/>
<path d="M26.7856 18.897C26.5716 18.6965 25.5464 19.2885 25.7379 19.8327C25.9295 20.3866 26.4139 20.6539 26.8419 20.5489C27.27 20.4438 27.5066 20.272 27.4052 20.1192C27.3038 19.976 26.9433 19.976 26.8419 19.68C26.7405 19.3935 27.0334 19.1166 26.7856 18.897Z" fill="white"/>
<path d="M25.5904 17.304C25.1457 16.5894 23.0051 18.427 23.1498 19.3737C23.305 20.3297 24.7011 20.7288 25.425 20.5153C26.1489 20.3018 25.3112 19.5593 25.1044 19.1602C24.8975 18.7612 26.0351 18.0187 25.5904 17.304Z" fill="white"/>
<path d="M22.6217 19.7879C23.2003 19.4325 22.9203 20.4562 23.2469 20.8792C23.5735 21.3022 24.5439 20.5323 24.8052 20.8369C25.1131 21.1922 23.9654 22.0043 23.5828 22.2327C23.2282 22.4442 23.1723 21.9959 22.7337 21.3529C22.2858 20.7184 22.0525 20.1516 22.6217 19.7879Z" fill="white"/>
<path d="M21.597 18.0142C21.1125 17.8736 20.2472 18.7977 20.6972 19.5109C21.1471 20.2141 21.3432 20.7666 21.8162 20.5054C22.2892 20.2342 23.4082 19.7821 23.0852 19.1895C22.7622 18.5968 21.7701 18.0644 21.597 18.0142Z" fill="white"/>
<path d="M19.9709 18.5888C19.2971 19.963 19.9432 20.1462 19.0848 21.0806C18.4203 21.8043 17.765 21.2455 17.2481 20.7874C16.8605 20.4485 17.5896 19.3583 18.6695 18.2865C19.7494 17.2147 20.7461 16.1153 21.2907 16.3077C21.8352 16.5001 20.6354 17.2147 19.9709 18.5888Z" fill="white"/>
<path d="M20.3096 20.5716C19.6691 20.5816 18.6382 21.7702 18.8984 22.4095C19.1586 23.0388 21.1303 25.0166 21.5807 24.8468C22.2813 24.5871 22.9318 23.788 23.132 22.9789C23.3021 22.3296 21.4406 20.5516 20.3096 20.5716Z" fill="white"/>
<path d="M11.6794 34.2857C11.0647 34.2952 10.0755 35.4323 10.3252 36.0438C10.5749 36.6458 12.7647 38.767 13.1776 38.5568C13.898 38.1841 14.4646 37.2 14.5606 36.6935C14.7335 35.824 12.7743 34.2761 11.6794 34.2857Z" fill="white"/>
<path d="M20.563 25.9279C20.6685 26.2476 19.7542 28.3217 19.3411 28.2851C18.9279 28.2486 17.2665 27.1522 17.1522 26.5217C17.0379 25.9004 17.9961 24.0274 18.673 24C19.3587 23.9817 20.5015 25.736 20.563 25.9279Z" fill="white"/>
<path d="M18.8537 29.5941C18.8122 30.0494 18.2832 31.4576 17.6713 31.6905C17.3705 31.807 16.7897 31.5105 16.1052 30.4305C15.4207 29.3506 15.151 27.953 15.7941 27.4871C16.2089 27.1907 17.578 28.0906 18.0551 28.5671C18.5633 29.0647 18.8952 29.1494 18.8537 29.5941Z" fill="white"/>
<path d="M16.7488 31.5487C17.7113 32.5192 18.3565 32.1957 17.7853 33.5191C17.4151 34.372 16.6641 35.9404 16.0718 35.9993C15.6276 36.0385 14.3477 34.2151 13.8929 32.8721C13.491 31.5487 13.7871 29.9999 14.5804 29.9999C15.1093 29.9999 15.7862 30.5684 16.7488 31.5487Z" fill="white"/>
<path d="M12.5385 27.0678C12.5385 27.0678 10.8975 29.5374 11.1743 29.8543C11.4511 30.1712 13.4183 29.9745 13.6062 29.2314C13.794 28.4884 13.7544 26.7509 13.3491 26.6198C12.9438 26.4886 12.8351 26.6198 12.5385 27.0678Z" fill="white"/>
<path d="M13.8219 26.2175C13.495 25.6255 13.9853 24.7985 14.3224 24.2252C14.6493 23.6613 16.0691 21.6502 16.4981 21.4999C16.9271 21.3495 17.683 21.4153 17.969 21.904C18.255 22.3926 16.4777 24.9864 16.0078 25.6631C15.5379 26.3397 15.6707 27.2607 14.9659 27.411C14.2509 27.552 14.159 26.8096 13.8219 26.2175Z" fill="white"/>
<path d="M9.99446 35.1394C9.52178 35.0908 9.17802 34.7991 8.82351 34.4102C8.34009 33.8755 8.64088 33.4768 8.98465 32.8934C9.32841 32.31 10.8216 30.2293 11.2728 30.0737C11.724 29.9182 12.519 29.9862 12.8198 30.4918C13.1206 30.9974 11.5199 33.2921 11.0258 33.9921C10.5209 34.6922 10.4671 35.1881 9.99446 35.1394Z" fill="white"/>
<path d="M30.6402 11.5616C30.7617 11.4929 30.8572 9.18659 30.8572 7.99907C30.8572 6.81155 30.5101 6.0166 29.5383 5.41793C28.5751 4.81926 27.3864 5.24127 27.4297 6.26195C27.4731 7.28263 28.5925 7.72427 28.6185 8.46034C28.6358 9.1964 28.8354 10.2171 28.5404 10.7274C28.2367 11.2378 27.7421 11.7677 27.7768 11.8561C27.8115 11.9444 28.6098 11.6107 28.8701 11.8561C29.1218 12.1014 29.33 12.8571 29.4081 12.8571C29.4862 12.8571 29.6771 12.3468 29.9808 11.9935C30.2671 11.6303 30.6402 11.5616 30.6402 11.5616Z" fill="white"/>
<path d="M32.9151 5.58517C32.4111 4.78821 31.2562 5.27208 30.8572 5.47132C31.5817 6.00263 31.8546 6.68574 31.8546 7.60604C31.8546 8.62122 31.5922 11.0121 31.6657 11.0975C31.7392 11.1734 33.3141 11.1449 33.3876 11.0785C33.4506 11.0216 33.5241 6.55291 32.9151 5.58517Z" fill="white"/>
<path d="M21.4294 17.7055C21.3991 18.1397 22.238 18.9648 22.7435 18.8454C23.2489 18.7368 24.1889 17.7055 23.9666 17.3798C23.7442 17.0541 22.7232 16.0227 22.4099 16.3484C22.0965 16.685 21.4496 17.3472 21.4294 17.7055Z" fill="white"/>
<defs>
<linearGradient id="paint0_linear_698_596" x1="0" y1="24" x2="48" y2="24" gradientUnits="userSpaceOnUse">
<stop stop-color="#F7941D"/>
<stop offset="1" stop-color="#FBB040"/>
</linearGradient>
</defs>
</svg>
