<svg width="48" height="48" viewBox="0 0 48 48" fill="none" xmlns="http://www.w3.org/2000/svg">
<path d="M23.9583 0C10.7685 0 0 10.7685 0 24.0417C0 37.2296 10.7685 48 23.9583 48C37.1481 48 48 37.2364 48 24.0417C48 10.7685 37.2315 0 23.9583 0Z" fill="url(#paint0_linear_698_678)"/>
<path d="M32.1428 39.4286C35.2199 39.4286 37.7143 36.9342 37.7143 33.8572C37.7143 30.7802 35.2199 28.2858 32.1428 28.2858C29.0658 28.2858 26.5714 30.7802 26.5714 33.8572C26.5714 36.9342 29.0658 39.4286 32.1428 39.4286Z" fill="white"/>
<path d="M32.2221 37.7138C31.2189 37.7138 30.4553 37.4168 29.9313 36.8229C29.4072 36.229 29.1445 35.3857 29.1433 34.293C29.1357 33.7958 29.2172 33.3016 29.3835 32.837C29.5302 32.4313 29.7545 32.0626 30.0421 31.7542C30.325 31.4571 30.6651 31.229 31.0388 31.0857C31.4407 30.9303 31.8656 30.8529 32.2932 30.8574C32.5316 30.8554 32.7696 30.8761 33.0045 30.9194C33.1939 30.9545 33.3811 31.0019 33.5652 31.0611C33.7023 31.1055 33.8361 31.1611 33.9651 31.2275C34.0723 31.2846 34.1499 31.3259 34.197 31.3604L33.797 32.5545C33.5856 32.4383 33.3633 32.3463 33.1338 32.2798C32.8536 32.2004 32.5646 32.1623 32.2747 32.1666C32.0612 32.1665 31.8491 32.2048 31.6475 32.2798C31.443 32.3559 31.2576 32.4809 31.1053 32.6451C30.9373 32.8304 30.8085 33.052 30.7275 33.2948C30.6252 33.6051 30.5767 33.9326 30.5843 34.2615C30.5817 34.5473 30.6128 34.8324 30.6767 35.11C30.7313 35.3563 30.8342 35.5875 30.9788 35.7883C31.1246 35.9832 31.3125 36.1375 31.5265 36.2382C31.7847 36.3563 32.064 36.4131 32.3449 36.4045C32.5263 36.406 32.7076 36.3932 32.8872 36.3661C33.0309 36.3447 33.1733 36.3148 33.3139 36.2766C33.4271 36.2481 33.538 36.2103 33.6455 36.1634C33.7379 36.12 33.8303 36.0787 33.9033 36.0403L34.2857 37.2216C34.0247 37.3758 33.7449 37.4908 33.4543 37.5632C33.0513 37.6694 32.6372 37.72 32.2221 37.7138Z" fill="url(#paint1_linear_698_678)"/>
<path d="M38.5426 14.3874C38.4829 14.762 38.3113 15.1106 38.0497 15.3888C37.7882 15.667 37.4484 15.8621 37.0738 15.9493L34.0725 16.6787C33.7847 17.2828 33.4342 17.8561 33.0268 18.3892C32.9637 18.4799 32.8828 18.5571 32.7888 18.6162C32.6948 18.6753 32.5897 18.7151 32.4797 18.7333C32.3697 18.7515 32.2572 18.7476 32.1487 18.7219C32.0403 18.6963 31.9382 18.6493 31.8487 18.5839C31.7591 18.5185 31.6838 18.4359 31.6273 18.3412C31.5709 18.2464 31.5344 18.1415 31.52 18.0325C31.5057 17.9235 31.5138 17.8129 31.5439 17.7071C31.5739 17.6013 31.6253 17.5025 31.695 17.4167C32.4275 16.4423 32.6791 15.7313 32.6821 15.7236C32.7273 15.5936 32.8047 15.4768 32.9073 15.3838C33.0099 15.2908 33.1344 15.2246 33.2696 15.191L36.6782 14.3632C36.736 14.3489 36.7884 14.3182 36.8288 14.275C36.8692 14.2318 36.8959 14.1779 36.9057 14.1199C36.9154 14.0619 36.9078 14.0024 36.8838 13.9486C36.8597 13.8949 36.8203 13.8492 36.7703 13.8172L34.7609 12.5456C34.3976 12.342 33.9237 12.1597 33.7602 12.1597C33.6745 12.162 33.5897 12.177 33.5085 12.2041C33.4948 12.2098 33.4807 12.2146 33.4664 12.2185C32.9752 12.4194 32.5552 12.7587 32.2591 13.1939C32.0657 13.4848 31.8423 13.7551 31.5922 14.0005C30.8196 14.7723 29.8571 15.7419 27.9564 15.4139C26.4661 15.1572 25.6563 14.3912 24.7534 13.4168L24.7456 13.4091C23.6264 12.1703 22.6119 11.7101 21.0011 11.7101C18.6089 11.7101 16.534 13.328 16.1726 15.4727C16.1383 15.6962 16.1209 15.922 16.1207 16.1481C16.119 17.0174 16.3746 17.8683 16.8561 18.5967C16.9186 18.6864 16.9622 18.7876 16.9844 18.8942C17.0067 19.0009 17.0071 19.1108 16.9856 19.2176C16.9641 19.3243 16.9212 19.4258 16.8593 19.516C16.7975 19.6062 16.718 19.6833 16.6255 19.7428C16.533 19.8024 16.4294 19.8431 16.3207 19.8626C16.212 19.8821 16.1004 19.88 15.9926 19.8565C15.8847 19.8329 15.7827 19.7884 15.6926 19.7254C15.6024 19.6625 15.5259 19.5825 15.4676 19.49C15.135 18.9872 14.8796 18.4388 14.7097 17.8625C12.9794 20.7954 11.3363 22.3737 9.56104 22.8619C9.16719 22.9714 8.75997 23.0272 8.35074 23.0279C7.20115 23.0279 5.99476 22.5985 4.6934 21.7322C4.5959 21.6754 4.51123 21.5996 4.44459 21.5094C4.37796 21.4192 4.33078 21.3166 4.30595 21.2077C4.28112 21.0989 4.27918 20.9862 4.30024 20.8766C4.3213 20.7669 4.36491 20.6627 4.4284 20.5704C4.49189 20.478 4.5739 20.3994 4.66938 20.3394C4.76487 20.2795 4.8718 20.2394 4.98359 20.2217C5.09539 20.204 5.20968 20.2091 5.31942 20.2366C5.42916 20.264 5.53203 20.3133 5.62169 20.3815C6.97887 21.2855 8.08929 21.5759 9.11452 21.2942C10.9466 20.7905 12.8091 18.3998 14.9751 13.7795C14.9809 13.767 14.9868 13.7564 14.9937 13.7439C15.3959 12.8863 15.9941 12.1321 16.7416 11.5403C17.9501 10.5884 19.4528 10.0723 21.0001 10.0777C23.0682 10.0777 24.5576 10.7482 25.9794 12.3198C26.8333 13.2402 27.3366 13.6493 28.2404 13.8056C29.2392 13.9773 29.6495 13.6184 30.4093 12.8563C30.5801 12.6895 30.733 12.5059 30.8656 12.3083C31.026 12.0674 31.2118 11.8439 31.4199 11.6416C31.2898 11.5403 31.1677 11.4293 31.0546 11.3097C30.7134 10.9299 30.4526 10.4868 30.2874 10.0064C30.1223 9.52592 30.0562 9.01783 30.0931 8.51189C30.1012 8.40472 30.1307 8.30018 30.1799 8.20426C30.229 8.10834 30.2969 8.02292 30.3797 7.95289C30.4624 7.88286 30.5584 7.8296 30.662 7.79615C30.7657 7.76271 30.875 7.74974 30.9838 7.75799C31.0925 7.76624 31.1986 7.79554 31.2958 7.84422C31.3931 7.8929 31.4796 7.96 31.5505 8.04168C31.6214 8.12336 31.6752 8.21801 31.7089 8.32022C31.7426 8.42243 31.7555 8.53018 31.7469 8.63731C31.7053 9.20692 31.8943 9.76959 32.2728 10.2022C32.3805 10.317 32.5073 10.4129 32.6478 10.4858C32.5626 9.69953 32.8622 8.82158 33.5408 8.05363C33.6082 7.96157 33.6942 7.88433 33.7935 7.82685C33.8928 7.76936 34.0032 7.73288 34.1176 7.71974C34.232 7.70659 34.3479 7.71706 34.458 7.75049C34.5681 7.78391 34.6699 7.83956 34.7569 7.91387C34.8439 7.98819 34.9143 8.07956 34.9635 8.18215C35.0127 8.28474 35.0397 8.39631 35.0428 8.50974C35.0458 8.62318 35.0249 8.736 34.9812 8.84102C34.9376 8.94603 34.8722 9.04094 34.7893 9.1197C34.3781 9.58472 34.1127 10.2311 34.426 10.6296C34.8359 10.755 35.23 10.9256 35.6011 11.138L35.6344 11.1583L37.6613 12.4404C37.9881 12.6418 38.2465 12.9346 38.4034 13.2814C38.5604 13.6282 38.6089 14.0133 38.5426 14.3874V14.3874ZM30.3476 19.6454C30.3481 19.6425 30.3481 19.6396 30.3476 19.6367C30.3462 19.6282 30.3442 19.6198 30.3418 19.6116C30.3418 19.5952 30.3359 19.5788 30.332 19.5634L30.3202 19.5248C30.3153 19.5122 30.3124 19.5006 30.3075 19.4881C30.3026 19.4756 30.2957 19.4601 30.2899 19.4466C30.2859 19.4361 30.2813 19.4258 30.2762 19.4157C30.2693 19.4013 30.2615 19.3878 30.2536 19.3743C30.2458 19.3608 30.2438 19.355 30.238 19.3453L30.2115 19.3067L30.1919 19.2797C30.1831 19.2672 30.1724 19.2556 30.1626 19.244C30.1559 19.2352 30.1487 19.2268 30.141 19.2189L30.1058 19.1842L30.0842 19.163L30.0392 19.1273L30.0216 19.1138C30.0018 19.0992 29.9812 19.0856 29.9599 19.0733H29.955C29.8235 18.9965 29.673 18.9571 29.5202 18.9594H29.483H29.4507L29.4037 18.9604H29.3978L29.3684 18.9662L29.3244 18.9758L29.2832 18.9884C29.2705 18.9884 29.2588 18.9951 29.247 18.9999L29.2049 19.0173L29.1726 19.0308L29.1334 19.052L29.1011 19.0694L29.0668 19.0916L29.0335 19.1147L29.0042 19.1379L28.9719 19.1659L28.9454 19.191L28.9151 19.2228C28.9064 19.2323 28.8982 19.2423 28.8906 19.2527L28.8641 19.2845L28.8387 19.3231C28.8326 19.3308 28.827 19.3388 28.822 19.3472C28.4304 19.9917 27.0291 20.9246 25.5153 20.9246C25.0222 20.9275 24.5302 20.8816 24.0464 20.7877C24.0572 20.7529 24.068 20.7182 24.0778 20.6825C24.3679 19.6193 24.3615 18.4988 24.0592 17.4389C24.0313 17.3338 23.9825 17.2351 23.9155 17.1488C23.8485 17.0625 23.7647 16.9902 23.669 16.9361C23.5732 16.8821 23.4676 16.8474 23.3581 16.8342C23.2486 16.8209 23.1375 16.8292 23.0314 16.8587C22.9252 16.8883 22.8261 16.9383 22.7398 17.0061C22.6536 17.0738 22.5819 17.1578 22.5289 17.2531C22.476 17.3485 22.4429 17.4533 22.4316 17.5614C22.4203 17.6695 22.431 17.7787 22.4631 17.8827C22.6846 18.6595 22.689 19.4809 22.4758 20.2599C21.8325 22.6255 19.3835 24.0428 17.0157 23.4176C16.8929 23.3852 16.7642 23.3811 16.6395 23.4055C16.5148 23.43 16.3975 23.4824 16.2967 23.5587C16.1958 23.635 16.1142 23.7331 16.058 23.8455C16.0019 23.9579 15.9728 24.0815 15.9729 24.2068V24.2666C15.9729 24.381 15.9972 24.494 16.0444 24.5985L19.4158 32.089C19.4813 32.233 19.5877 32.3552 19.7222 32.4408C19.8567 32.5264 20.0135 32.5717 20.1737 32.5714C20.2894 32.5716 20.4039 32.5476 20.5096 32.5009C20.7105 32.4131 20.8678 32.2503 20.9469 32.0482C21.0261 31.8461 21.0206 31.6214 20.9316 31.4233L18.1262 25.2005H18.1428C19.1897 25.1958 20.2181 24.9282 21.1308 24.423C22.0436 23.9177 22.8105 23.1915 23.359 22.313C24.0618 22.4824 24.783 22.5656 25.5064 22.5609C26.7207 22.5609 27.9016 22.1412 28.8113 21.5575C28.7271 22.9613 28.1709 23.7765 27.7674 24.3621C27.7015 24.4506 27.6543 24.5513 27.6288 24.6582C27.6033 24.7651 27.5999 24.876 27.6189 24.9842C27.6378 25.0924 27.6788 25.1957 27.7392 25.2879C27.7997 25.3802 27.8784 25.4595 27.9707 25.521C28.063 25.5826 28.1669 25.6252 28.2763 25.6462C28.3857 25.6673 28.4982 25.6664 28.6072 25.6436C28.7163 25.6208 28.8195 25.5765 28.9107 25.5135C29.002 25.4505 29.0794 25.3699 29.1383 25.2767C29.7415 24.3978 30.8637 22.7625 30.3427 19.6473L30.3476 19.6454Z" fill="white"/>
<defs>
<linearGradient id="paint0_linear_698_678" x1="40.8688" y1="7.11564" x2="7.21261" y2="40.7719" gradientUnits="userSpaceOnUse">
<stop stop-color="#EE2A7B"/>
<stop offset="1" stop-color="#92278F"/>
</linearGradient>
<linearGradient id="paint1_linear_698_678" x1="2343.38" y1="1616.3" x2="1240.71" y2="2625.04" gradientUnits="userSpaceOnUse">
<stop stop-color="#EE2A7B"/>
<stop offset="1" stop-color="#92278F"/>
</linearGradient>
</defs>
</svg>
