<svg width="48" height="48" viewBox="0 0 48 48" fill="none" xmlns="http://www.w3.org/2000/svg">
<path d="M23.9612 0C10.7733 0 0 10.7733 0 24.0388C0 37.2267 10.7733 48 23.9612 48C37.1491 48 48 37.2267 48 24.0388C48 10.7733 37.2267 0 23.9612 0Z" fill="url(#paint0_linear_698_637)"/>
<path d="M41.111 17.5867C41.0478 17.9866 40.8654 18.3589 40.5872 18.656C40.309 18.9532 39.9476 19.1617 39.5489 19.2549L36.1834 20.0749C35.864 20.7535 35.474 21.3975 35.0196 21.9963C34.886 22.167 34.69 22.2791 34.4737 22.3087C34.2574 22.3383 34.038 22.2829 33.8625 22.1545C33.687 22.0261 33.5695 21.8348 33.535 21.6217C33.5006 21.4086 33.552 21.1907 33.6783 21.0147C34.4982 19.9201 34.7801 19.1195 34.783 19.1118C34.8284 18.9805 34.9062 18.8625 35.0095 18.7686C35.1128 18.6747 35.2382 18.6079 35.3743 18.5742L39.1488 17.6539C39.2292 17.6346 39.3021 17.5924 39.3584 17.5325C39.4147 17.4727 39.452 17.3977 39.4655 17.3171C39.4791 17.2364 39.4683 17.1536 39.4346 17.079C39.4009 17.0043 39.3457 16.9411 39.276 16.8972L37.0458 15.4812C36.6693 15.2699 36.1105 15.0391 35.8937 15.0391C35.3931 15.0391 34.5672 15.6059 34.1622 16.2252C33.9505 16.5434 33.7065 16.8394 33.4339 17.1085C32.5469 18.0006 31.5427 19.0114 29.481 18.654C27.8569 18.3736 26.971 17.5331 25.9805 16.4619L25.9736 16.4541C24.7319 15.0761 23.5513 14.5395 21.7636 14.5395C19.0732 14.5395 16.7375 16.3665 16.3335 18.7914C16.2948 19.0447 16.2754 19.3006 16.2753 19.5568C16.2733 20.5386 16.561 21.4998 17.1031 22.3226C17.2152 22.5056 17.2509 22.7245 17.2028 22.9331C17.1546 23.1416 17.0264 23.3236 16.845 23.4404C16.6637 23.5573 16.4435 23.6 16.231 23.5595C16.0184 23.519 15.83 23.3985 15.7057 23.2234C15.303 22.6173 15.0034 21.9501 14.8187 21.2484C12.8862 24.5985 11.0531 26.3894 9.07425 26.9357C8.64564 27.0541 8.20266 27.1141 7.75762 27.1139C6.50209 27.1139 5.18053 26.6426 3.75352 25.6892C3.58529 25.5609 3.47286 25.3742 3.43916 25.1669C3.40546 24.9596 3.45302 24.7474 3.57214 24.5735C3.69127 24.3997 3.873 24.2773 4.08029 24.2312C4.28758 24.1852 4.50484 24.219 4.68778 24.3258C6.21334 25.3444 7.46493 25.6707 8.62979 25.3503C10.6836 24.7845 12.763 22.1171 15.1725 16.9576L15.1932 16.9186C15.6337 15.9777 16.2884 15.1501 17.1061 14.5005C18.4296 13.454 20.0754 12.886 21.7705 12.8908C24.0371 12.8908 25.6662 13.627 27.2233 15.3536C28.1822 16.3908 28.7498 16.8534 29.7757 17.0306C30.9228 17.2254 31.388 16.8203 32.2513 15.9526C32.444 15.7633 32.6167 15.5551 32.7667 15.3312C32.9587 15.0419 33.1835 14.7753 33.4369 14.5366C33.2678 14.4122 33.1108 14.2727 32.9678 14.1198C32.2375 13.3407 31.8384 12.1721 31.9251 11.0706C31.9305 10.9603 31.9583 10.8523 32.0067 10.7528C32.0552 10.6533 32.1234 10.5644 32.2073 10.4915C32.2911 10.4185 32.389 10.363 32.495 10.3281C32.601 10.2932 32.713 10.2796 32.8244 10.2883C32.9358 10.297 33.0443 10.3277 33.1434 10.3785C33.2426 10.4294 33.3304 10.4994 33.4017 10.5845C33.473 10.6695 33.5262 10.7678 33.5583 10.8736C33.5904 10.9793 33.6007 11.0904 33.5886 11.2001C33.5639 11.5243 33.6041 11.8501 33.7069 12.1589C33.8098 12.4677 33.9732 12.7535 34.1878 12.9998C34.3472 13.1763 34.5464 13.3131 34.7692 13.3991C34.6224 12.5129 34.9407 11.4981 35.7183 10.6158C35.8635 10.4509 36.069 10.3498 36.2897 10.3346C36.5104 10.3194 36.7281 10.3915 36.895 10.535C37.0619 10.6785 37.1642 10.8816 37.1796 11.0997C37.1949 11.3177 37.122 11.5329 36.9768 11.6978C36.3855 12.3659 36.2416 13.0855 36.5895 13.5033C36.8159 13.5688 37.0375 13.6495 37.2527 13.7448C37.4885 13.8378 37.716 13.9502 37.9327 14.0808V14.0808L40.1777 15.5056C40.5254 15.7211 40.8 16.0343 40.9663 16.4051C41.1325 16.776 41.1829 17.1874 41.111 17.5867V17.5867ZM32.0355 23.4532C32.0359 23.4503 32.0359 23.4473 32.0355 23.4444C32.0355 23.4357 32.0355 23.4269 32.0296 23.4172C32.0236 23.4074 32.0236 23.386 32.0197 23.3704C32.0158 23.3548 32.0108 23.3432 32.0069 23.3305L31.9951 23.2954C31.9891 23.2799 31.9832 23.2652 31.9763 23.2506C31.9694 23.236 31.9685 23.2312 31.9635 23.2214C31.9586 23.2117 31.9487 23.1922 31.9409 23.1786L31.9251 23.1513L31.8985 23.1104L31.8798 23.0851C31.8699 23.0714 31.8591 23.0598 31.8492 23.0481L31.8275 23.0228L31.792 22.9877L31.7694 22.9663C31.7556 22.9538 31.7411 22.9421 31.726 22.9312L31.7073 22.9156C31.6883 22.9019 31.6686 22.8892 31.6482 22.8777L31.6403 22.8718C31.5067 22.7932 31.3532 22.7537 31.1978 22.7579H31.1672H31.1288H31.0845H31.0776L31.045 22.7647L31.0036 22.7734L30.9593 22.7871L30.9268 22.7978L30.8814 22.8163L30.8519 22.829L30.8105 22.8504L30.7799 22.8679L30.7435 22.8913L30.7119 22.9137L30.6814 22.938L30.6489 22.9653C30.639 22.9741 30.6311 22.9828 30.6223 22.9916L30.5917 23.0228L30.5661 23.0529L30.5405 23.0851L30.5139 23.125L30.4981 23.1484C29.8013 24.3034 27.8471 24.9412 26.763 24.9412C26.1822 24.9446 25.6027 24.8865 25.0345 24.7679C25.0542 24.7017 25.0749 24.6355 25.0926 24.5683C25.4099 23.4016 25.4031 22.172 25.0729 21.0088C25.0449 20.9027 24.9957 20.8031 24.9283 20.716C24.8608 20.6288 24.7765 20.5558 24.6802 20.5013C24.5838 20.4468 24.4775 20.4118 24.3673 20.3983C24.2571 20.3849 24.1453 20.3934 24.0385 20.4232C23.9316 20.453 23.8319 20.5035 23.7451 20.5719C23.6582 20.6402 23.5861 20.725 23.5328 20.8213C23.4796 20.9175 23.4463 21.0233 23.4349 21.1324C23.4235 21.2416 23.4343 21.3518 23.4665 21.4568C23.7157 22.3338 23.7208 23.2611 23.4813 24.1407C22.756 26.8208 19.9966 28.4199 17.3288 27.7148C17.2052 27.6819 17.0757 27.6776 16.9501 27.7021C16.8246 27.7267 16.7064 27.7795 16.6048 27.8564C16.5033 27.9333 16.421 28.0324 16.3643 28.1458C16.3077 28.2592 16.2783 28.384 16.2783 28.5104V28.5718C16.2784 28.6869 16.3029 28.8007 16.3502 28.9058L20.0951 37.2274C20.161 37.3727 20.2682 37.4961 20.4035 37.5825C20.5389 37.6689 20.6967 37.7147 20.8579 37.7143C20.9744 37.7145 21.0896 37.6903 21.1959 37.6432C21.2961 37.5994 21.3865 37.5364 21.462 37.4579C21.5375 37.3795 21.5966 37.2871 21.6359 37.1861C21.6753 37.0851 21.6941 36.9774 21.6913 36.8692C21.6885 36.761 21.6642 36.6544 21.6197 36.5554L18.4602 29.5252C18.5104 29.5252 18.5587 29.5252 18.611 29.5252C19.7664 29.5197 20.901 29.2206 21.9057 28.6566C22.9103 28.0926 23.7512 27.2827 24.3476 26.3046C25.1378 26.501 25.9501 26.5976 26.765 26.5919C28.1575 26.5919 29.5067 26.0885 30.5178 25.4019C30.4587 27.0837 29.8072 28.0391 29.3352 28.7227C29.2701 28.8121 29.2238 28.9135 29.199 29.0209C29.1742 29.1283 29.1715 29.2395 29.191 29.348C29.2105 29.4564 29.2517 29.5599 29.3124 29.6523C29.373 29.7447 29.4518 29.8242 29.5441 29.886C29.6363 29.9478 29.7402 29.9907 29.8495 30.0121C29.9589 30.0336 30.0714 30.0331 30.1806 30.0108C30.2897 29.9886 30.3933 29.9449 30.485 29.8824C30.5768 29.8198 30.655 29.7398 30.7149 29.6469C31.3772 28.6789 32.608 26.8802 32.0355 23.4513V23.4532Z" fill="white"/>
<defs>
<linearGradient id="paint0_linear_698_637" x1="40.869" y1="7.11539" x2="7.21272" y2="40.7717" gradientUnits="userSpaceOnUse">
<stop stop-color="#EE2A7B"/>
<stop offset="1" stop-color="#92278F"/>
</linearGradient>
</defs>
</svg>
