<svg width="170" height="170" viewBox="0 0 170 170" fill="none" xmlns="http://www.w3.org/2000/svg">
<circle cx="85" cy="85" r="80.5" fill="white" stroke="#75E6E4" stroke-width="9"/>
<path fill-rule="evenodd" clip-rule="evenodd" d="M65.0242 54.7222C64.0182 54.7222 63.305 54.8496 62.5791 55.0151V55.1297H62.6937C63.1776 56.0849 64.0054 56.7471 64.604 57.5748C65.0879 58.53 65.4954 59.4851 65.9793 60.4275C66.043 60.3638 66.094 60.3129 66.094 60.3129C66.9345 59.7143 67.3547 58.7719 67.3547 57.3329C66.9981 56.9126 66.9345 56.5051 66.6416 56.0849C66.285 55.4863 65.5082 55.1934 65.037 54.7095" fill="#05080E"/>
<path fill-rule="evenodd" clip-rule="evenodd" d="M125.82 106.528C121.045 106.414 117.351 106.885 114.257 108.196C113.365 108.553 111.939 108.553 111.812 109.686C112.296 110.158 112.347 110.934 112.767 111.597C113.48 112.794 114.728 114.398 115.861 115.226C117.109 116.181 118.37 117.136 119.682 117.964C122 119.403 124.623 120.231 126.89 121.657C128.202 122.485 129.513 123.568 130.825 124.459C131.475 124.93 131.895 125.707 132.735 126V125.822C132.315 125.287 132.2 124.51 131.78 123.911C131.182 123.326 130.583 122.778 129.985 122.192C128.253 119.862 126.113 117.837 123.783 116.169C121.872 114.857 117.695 113.061 116.931 110.871C116.931 110.871 116.867 110.807 116.817 110.743C118.128 110.629 119.682 110.145 120.93 109.788C122.955 109.253 124.801 109.368 126.89 108.833C127.845 108.591 128.8 108.298 129.755 108.005V107.471C128.673 106.401 127.909 104.962 126.775 103.956C123.744 101.332 120.395 98.7726 116.944 96.6204C115.097 95.4233 112.703 94.6592 110.742 93.6404C110.029 93.2838 108.844 93.1055 108.424 92.507C107.354 91.1953 106.756 89.476 105.979 87.9224C104.247 84.6495 102.579 81.02 101.089 77.5561C100.019 75.2383 99.3569 72.9078 98.0452 70.7683C91.9069 60.6313 85.2338 54.493 74.9821 48.4821C72.7789 47.234 70.1555 46.6864 67.3538 46.037C65.8638 45.9733 64.3738 45.8587 62.8838 45.795C61.9287 45.3747 60.9736 44.2413 60.1458 43.7064C56.7456 41.567 47.9839 36.9187 45.4878 43.057C43.8832 46.9284 47.8693 50.7489 49.2447 52.7101C50.2507 54.0855 51.5752 55.6264 52.2756 57.1801C52.6958 58.1989 52.8105 59.2686 53.2307 60.3384C54.1858 62.9618 55.0773 65.8781 56.3253 68.3232C56.9748 69.5712 57.688 70.8829 58.5285 72.0163C59.0124 72.6786 59.8402 72.9715 60.0185 74.0412C59.1907 75.2256 59.127 77.0212 58.6431 78.5112C56.5036 85.248 57.3314 93.5894 60.375 98.5433C61.3302 100.033 63.597 103.319 66.6407 102.058C69.3277 100.988 68.7292 97.5882 69.506 94.6082C69.6843 93.8823 69.5697 93.4111 69.9263 92.9399V93.0546C70.7541 94.7228 71.5946 96.3275 72.3714 97.9957C74.218 100.912 77.4399 103.956 80.127 105.981C81.5533 107.063 82.6868 108.897 84.4697 109.559V109.381H84.355C83.9985 108.846 83.4636 108.604 82.9797 108.196C81.9099 107.127 80.7128 105.815 79.8851 104.618C77.389 101.281 75.1731 97.5882 73.2119 93.7677C72.2568 91.9211 71.429 89.8963 70.6522 88.0497C70.2956 87.3365 70.2956 86.2668 69.6971 85.9102C68.8056 87.2219 67.4939 88.3553 66.8317 89.96C65.6983 92.5197 65.5837 95.6907 65.1634 98.9636C64.9214 99.0273 65.0488 98.9636 64.9214 99.0782C63.0112 98.607 62.3617 96.6331 61.6485 94.9775C59.8657 90.7368 59.56 83.949 61.1137 79.0588C61.5339 77.8108 63.3168 73.8757 62.6037 72.6786C62.2471 71.5452 61.05 70.8957 60.4005 69.9915C59.6237 68.8581 58.7832 67.4317 58.261 66.171C56.8347 62.8344 56.1088 59.1413 54.5679 55.8047C53.8547 54.251 52.594 52.6464 51.5879 51.2201C50.4545 49.6155 49.2065 48.4821 48.3023 46.5718C48.0094 45.9096 47.5891 44.8399 48.0603 44.1267C48.1749 43.6555 48.4169 43.4645 48.9008 43.3499C49.6777 42.7004 51.8808 43.5282 52.6576 43.8847C54.8608 44.7762 56.7074 45.6167 58.5539 46.8647C59.3945 47.4633 60.2859 48.5967 61.3557 48.8896H62.6037C64.5139 49.2971 66.6534 49.0042 68.449 49.5391C71.6073 50.5451 74.46 52.0479 77.0324 53.6525C84.839 58.6064 91.2701 65.6361 95.6255 74.0412C96.3387 75.4039 96.6443 76.6646 97.2938 78.0909C98.5418 81.02 100.096 84 101.344 86.8526C102.592 89.6543 103.789 92.507 105.584 94.8375C106.476 96.0855 110.054 96.7477 111.659 97.3972C112.843 97.9321 114.703 98.4033 115.772 99.0655C117.797 100.314 119.822 101.753 121.732 103.115C122.687 103.828 125.667 105.318 125.846 106.515" fill="#05080E"/>
</svg>
