<svg width="48" height="48" viewBox="0 0 48 48" fill="none" xmlns="http://www.w3.org/2000/svg">
<path d="M23.9612 0C10.7733 0 0 10.7733 0 24.0388C0 37.2267 10.7733 48 23.9612 48C37.1491 48 48 37.2267 48 24.0388C48 10.7733 37.2267 0 23.9612 0Z" fill="url(#paint0_linear_698_657)"/>
<path d="M38.9461 36.6193C37.7461 35.7188 36.8558 35.2489 36.459 34.9553C35.9945 34.6225 35.7623 34.1037 35.7623 34.1037C35.7623 34.1037 37.6396 33.673 38.6267 33.5359C39.6235 33.3989 40.117 33.2227 40.1751 33.1053C40.2428 32.9584 38.6074 31.0693 36.8074 29.8359C35.0074 28.5928 32.9849 27.9174 32.9849 27.9174C32.9849 27.9174 32.8204 27.8489 32.6171 27.4573C32.4623 27.1539 29.9559 21.3591 29.9559 21.3591C29.9559 21.3591 29.1527 18.7652 25.814 15.6916C20.3754 10.6995 17.6657 11.4043 17.3754 11.5021C17.2496 11.5413 17.1528 11.4826 16.9206 11.2868C16.7464 11.14 14.9077 9.6717 13.5626 9.47593C12.2174 9.28016 11.4432 9.70106 11.211 10.5624C10.9787 11.4336 11.3465 12.432 12.2174 13.4305C13.0884 14.4191 13.4755 15.0456 13.6496 15.5643C13.8238 16.0831 14.3754 18.2464 14.8012 19.1078C15.227 19.9789 16.1174 20.9969 16.1174 20.9969C16.1174 20.9969 16.2722 21.1731 16.2141 21.3102C16.2141 21.3102 15.3819 23.0231 15.3722 25.5975C15.3625 28.1817 16.3012 30.0904 17.0851 30.756C17.8689 31.4216 18.4012 31.2357 18.5947 31.1182C18.798 30.9909 19.2238 30.5309 19.3399 29.5031C19.4463 28.5634 19.6205 27.8586 19.6205 27.8586C19.6205 27.8586 20.4625 29.9044 21.4302 30.9714C23.8108 33.5849 24.5947 33.8002 24.5947 33.8002C24.5947 33.8002 23.3947 33.164 21.3818 29.5423C20.4334 27.8391 19.5431 25.4409 19.5431 25.4409C19.5431 25.4409 19.0205 25.852 18.527 26.9875C18.0335 28.1327 18.0238 29.9044 18.0238 29.9044C18.0238 29.9044 18.0528 30.1296 17.6851 29.9827C17.3173 29.8359 16.7077 28.8962 16.4077 27.2322C16.1174 25.5681 16.3206 23.7964 16.8141 22.5631C17.3077 21.3297 17.1722 20.7424 16.998 20.5271C16.8238 20.302 16.0786 19.8615 15.3916 17.9429C14.7045 16.0342 14.5593 15.163 14.0464 14.3212C13.5335 13.4794 12.0239 11.8154 12.0432 11.2183C12.0722 10.6212 12.411 10.4352 12.9335 10.5233C13.4561 10.6114 15.0529 11.3945 15.6141 11.7664C16.1754 12.1384 16.4754 12.5691 16.9109 12.6082C17.356 12.6474 18.3528 12.3929 19.6592 12.9313C20.956 13.4598 24.1979 15.2511 26.2785 17.9332C28.3591 20.6152 28.8914 22.0149 29.2204 22.984C29.5494 23.953 30.8655 26.9973 31.272 27.6824C31.6784 28.3676 31.6107 28.72 32.5881 29.0235C33.5558 29.3171 34.5913 29.3758 36.4687 30.6386C38.3461 31.9013 38.859 32.5375 38.859 32.5375C38.859 32.5375 38.9364 32.6158 38.8977 32.655C38.859 32.6941 38.7235 32.6941 38.5687 32.6941C38.0171 32.6843 37.2332 32.6843 36.43 32.792C34.959 32.9878 34.0107 33.4968 34.0494 33.6338C34.0494 33.7219 34.301 34.828 35.3752 35.7188C36.1106 36.3257 37.2719 36.7368 38.5009 37.3926C39.8654 38.1267 41.1428 39.4286 41.1428 39.4286C41.1428 39.4286 40.1461 37.5296 38.9461 36.6193Z" fill="white"/>
<path d="M17.1428 14.7365C17.1428 14.7365 17.5339 14.988 17.9249 15.4341C18.3159 15.872 18.411 16.2857 18.411 16.2857C18.411 16.2857 19.2248 15.6368 18.6541 14.9474C18.0728 14.2499 17.1428 14.7365 17.1428 14.7365Z" fill="white"/>
<defs>
<linearGradient id="paint0_linear_698_657" x1="39.8244" y1="8.15997" x2="6.02894" y2="41.9555" gradientUnits="userSpaceOnUse">
<stop stop-color="#0CA6D3"/>
<stop offset="1" stop-color="#096B88"/>
</linearGradient>
</defs>
</svg>
