<svg width="170" height="170" viewBox="0 0 170 170" fill="none" xmlns="http://www.w3.org/2000/svg">
<circle cx="85" cy="85" r="80.5" fill="white" stroke="#59D2F4" stroke-width="9"/>
<path d="M130.882 76.1951C129.16 76.1951 127.765 77.5909 127.765 79.3127C127.765 104.967 106.967 125.765 81.3127 125.765C79.5909 125.765 78.1951 127.16 78.1951 128.882C78.1951 130.604 79.5909 132 81.3127 132C110.411 132 134 108.411 134 79.3127C134 77.5909 132.604 76.1951 130.882 76.1951Z" fill="#05080E"/>
<path d="M110.438 95.5122C113.391 90.7006 116.247 84.285 115.685 75.3033C114.521 56.6981 97.6491 42.5839 81.7173 44.1135C75.4804 44.7123 69.0762 49.79 69.6452 58.885C69.8925 62.8373 71.8293 65.17 74.977 66.9635C77.973 68.6705 81.8221 69.7519 86.1857 70.9776C91.4564 72.4583 97.5704 74.1215 102.269 77.5801C107.901 81.7254 111.751 86.5305 110.438 95.5122Z" fill="#05080E"/>
<path d="M51.3185 63.3171C48.3654 68.1288 45.5093 74.5443 46.0712 83.526C47.2352 102.131 64.1071 116.245 80.0389 114.716C86.2758 114.117 92.68 109.039 92.111 99.9443C91.8637 95.992 89.9268 93.6593 86.7792 91.8659C83.7832 90.1588 79.9341 89.0774 75.5706 87.8517C70.2998 86.371 64.1859 84.7078 59.4869 81.2492C53.855 77.104 50.0051 72.2988 51.3185 63.3171Z" fill="#05080E"/>
</svg>
