<svg width="48" height="48" viewBox="0 0 48 48" fill="none" xmlns="http://www.w3.org/2000/svg">
<path d="M23.9583 0C10.7685 0 0 10.7685 0 24.0417C0 37.2296 10.7685 48 23.9583 48C37.1481 48 48 37.2364 48 24.0417C48 10.7685 37.2315 0 23.9583 0Z" fill="url(#paint0_linear_698_685)"/>
<path d="M33.1241 36.0552C35.7252 36.0615 38.2229 35.0325 40.0705 33.1935C40.21 33.0471 40.2872 32.8518 40.2856 32.6492C40.2841 32.4465 40.204 32.2525 40.0624 32.1082C39.9207 31.9639 39.7286 31.8807 39.5269 31.8764C39.3252 31.872 39.1298 31.9468 38.982 32.0848C38.1729 32.8868 37.209 33.5141 36.1496 33.9282C35.0902 34.3423 33.9576 34.5344 32.8216 34.4927C31.6856 34.451 30.5701 34.1763 29.5436 33.6857C28.5171 33.1951 27.6013 32.4988 26.8526 31.6396C27.1198 31.0353 27.3407 30.4113 27.5132 29.7731C28.2895 31.0018 29.442 31.9441 30.7973 32.4584C32.1526 32.9726 33.6374 33.0311 35.0286 32.6249C36.4198 32.2188 37.6422 31.3699 38.5119 30.2061C39.3816 29.0422 39.8516 27.6262 39.8513 26.171C39.855 26.0665 39.8376 25.9623 39.8003 25.8646C39.763 25.767 39.7065 25.6779 39.6342 25.6026C39.5619 25.5274 39.4752 25.4675 39.3794 25.4267C39.2835 25.3858 39.1805 25.3647 39.0763 25.3647C38.9722 25.3647 38.8692 25.3858 38.7733 25.4267C38.6775 25.4675 38.5908 25.5274 38.5185 25.6026C38.4461 25.6779 38.3897 25.767 38.3524 25.8646C38.3151 25.9623 38.2977 26.0665 38.3014 26.171C38.301 27.0194 38.0926 27.8547 37.6945 28.603C37.2963 29.3513 36.7208 29.9895 36.0188 30.4613C35.3168 30.9331 34.5098 31.2239 33.6693 31.3081C32.8288 31.3922 31.9806 31.267 31.1997 30.9436C30.4187 30.6202 29.7292 30.1086 29.1919 29.4539C28.6546 28.7992 28.2862 28.0216 28.1192 27.19C27.9522 26.3583 27.9917 25.4981 28.2343 24.6854C28.4769 23.8727 28.9151 23.1325 29.5102 22.5304C29.671 22.3977 29.8261 22.2563 29.9716 22.1101C30.5979 21.4885 31.0949 20.7479 31.4338 19.9316C31.7727 19.1153 31.9467 18.2395 31.9456 17.355C31.9533 17.0733 31.9849 13.8596 29.8021 11.5903C28.4236 10.1556 26.4907 9.42859 24.0581 9.42859C21.6255 9.42859 19.6908 10.1556 18.3055 11.5893C16.1036 13.8625 16.1285 17.0858 16.1343 17.3531C16.1319 18.2539 16.3114 19.1458 16.6621 19.9749C17.0127 20.8039 17.5272 21.5529 18.1744 22.1765L18.2098 22.2207L18.2634 22.2679C18.912 22.8365 19.4082 23.5596 19.7067 24.3707C20.0051 25.1819 20.0962 26.0553 19.9717 26.911C19.8472 27.7667 19.5109 28.5773 18.9938 29.2687C18.4767 29.9601 17.7952 30.5102 17.0117 30.8686C16.2281 31.227 15.3676 31.3823 14.5089 31.3203C13.6502 31.2582 12.8206 30.9808 12.0963 30.5134C11.3719 30.0461 10.7758 29.4037 10.3625 28.645C9.94921 27.8864 9.73197 27.0358 9.73065 26.171C9.73431 26.0665 9.71697 25.9623 9.67967 25.8646C9.64238 25.767 9.58588 25.6779 9.51356 25.6026C9.44123 25.5274 9.35457 25.4675 9.25872 25.4267C9.16287 25.3858 9.05981 25.3647 8.95569 25.3647C8.85156 25.3647 8.7485 25.3858 8.65266 25.4267C8.55681 25.4675 8.47014 25.5274 8.39782 25.6026C8.3255 25.6779 8.269 25.767 8.2317 25.8646C8.1944 25.9623 8.17707 26.0665 8.18073 26.171C8.18052 27.6242 8.64934 29.0383 9.51687 30.2013C10.3844 31.3642 11.6039 32.2134 12.9925 32.6213C14.381 33.0293 15.8639 32.9741 17.2186 32.4641C18.5733 31.954 19.7269 31.0166 20.5064 29.7924C20.6802 30.4283 20.9014 31.0503 21.1679 31.6531C20.4184 32.5095 19.5025 33.2032 18.4766 33.6916C17.4507 34.1799 16.3362 34.4527 15.2016 34.4931C14.067 34.5335 12.9362 34.3408 11.8784 33.9267C10.8206 33.5125 9.8581 32.8858 9.04999 32.0848C8.97828 32.0095 8.89226 31.9495 8.79702 31.9082C8.70179 31.8669 8.59927 31.8452 8.49554 31.8444C8.39181 31.8436 8.28898 31.8637 8.19313 31.9036C8.09729 31.9434 8.01037 32.0022 7.93754 32.0764C7.8647 32.1505 7.80743 32.2387 7.7691 32.3355C7.73078 32.4323 7.71218 32.5359 7.71441 32.64C7.71665 32.7442 7.73967 32.8469 7.78211 32.9419C7.82455 33.037 7.88555 33.1226 7.9615 33.1935C9.82549 35.0411 12.3432 36.0703 14.9619 36.0552C17.5806 36.04 20.0863 34.9818 21.929 33.1128C22.238 33.6236 22.5819 34.1123 22.9582 34.5754C20.7937 36.6966 17.887 37.8802 14.8629 37.8717C14.6621 37.8788 14.4719 37.9639 14.3323 38.1091C14.1927 38.2543 14.1147 38.4483 14.1147 38.6501C14.1147 38.852 14.1927 39.0459 14.3323 39.1911C14.4719 39.3363 14.6621 39.4214 14.8629 39.4285C18.2764 39.4379 21.5585 38.1073 24.0093 35.7206C26.4601 38.1073 29.7422 39.4379 33.1557 39.4285C33.3565 39.4214 33.5468 39.3363 33.6863 39.1911C33.8259 39.0459 33.9039 38.852 33.9039 38.6501C33.9039 38.4483 33.8259 38.2543 33.6863 38.1091C33.5468 37.9639 33.3565 37.8788 33.1557 37.8717C30.1316 37.8802 27.225 36.6966 25.0605 34.5754C25.4395 34.1092 25.7856 33.6169 26.0963 33.1022C27.0142 34.038 28.1083 34.781 29.3148 35.2879C30.5214 35.7949 31.8162 36.0558 33.1241 36.0552V36.0552ZM21.5403 26.7201C21.5547 26.5383 21.5624 26.3556 21.5624 26.171C21.5659 24.4096 20.8831 22.7167 19.6601 21.4543C19.7183 21.1795 19.8753 20.9359 20.101 20.7701C20.3268 20.6043 20.6056 20.528 20.8839 20.5557C21.1622 20.5835 21.4206 20.7133 21.6095 20.9205C21.7985 21.1276 21.9047 21.3975 21.908 21.6784C21.915 21.8801 21.9998 22.0712 22.1443 22.2114C22.2889 22.3516 22.482 22.4299 22.6829 22.4299C22.8839 22.4299 23.077 22.3516 23.2215 22.2114C23.3661 22.0712 23.4508 21.8801 23.4579 21.6784C23.4579 21.0984 23.2718 20.5338 22.9272 20.0683C22.5826 19.6029 22.0979 19.2613 21.5448 19.0944C20.9918 18.9274 20.3999 18.9439 19.857 19.1414C19.314 19.3389 18.8489 19.7069 18.5305 20.1908C17.9745 19.3479 17.6797 18.3584 17.6832 17.3474V17.3243C17.6832 17.2964 17.622 14.5356 19.416 12.6778C20.4997 11.5576 22.0611 10.9912 24.0581 10.9912C26.0551 10.9912 27.6003 11.5556 28.6792 12.6682C30.4579 14.5097 30.3967 17.2964 30.3957 17.3224V17.3493C30.3986 18.3845 30.0892 19.3963 29.5082 20.2514C29.1997 19.7537 28.738 19.3706 28.1933 19.16C27.6485 18.9494 27.0503 18.9228 26.4891 19.0844C25.928 19.2459 25.4345 19.5866 25.0835 20.055C24.7324 20.5234 24.5429 21.094 24.5435 21.6803C24.5435 21.8869 24.6252 22.085 24.7706 22.2311C24.9161 22.3771 25.1133 22.4592 25.3189 22.4592C25.5246 22.4592 25.7218 22.3771 25.8673 22.2311C26.0127 22.085 26.0944 21.8869 26.0944 21.6803C26.0939 21.3931 26.2013 21.1163 26.395 20.9051C26.5887 20.6939 26.8545 20.5638 27.1395 20.5408C27.4245 20.5177 27.7077 20.6034 27.9325 20.7807C28.1574 20.9581 28.3074 21.2141 28.3527 21.4976C27.1402 22.7486 26.4639 24.427 26.4687 26.1729C26.4687 26.3018 26.4687 26.4297 26.4792 26.5575C26.4453 27.7817 26.2191 28.9929 25.8091 30.1462C25.2037 29.0421 24.8558 27.8144 24.7915 26.5556C24.7982 26.4104 24.802 26.2671 24.802 26.1191C24.802 25.9125 24.7203 25.7144 24.5749 25.5683C24.4294 25.4222 24.2322 25.3402 24.0265 25.3402H24.0055C23.7998 25.3402 23.6026 25.4222 23.4572 25.5683C23.3117 25.7144 23.23 25.9125 23.23 26.1191C23.23 26.2652 23.23 26.4075 23.2406 26.5556C23.1758 27.8218 22.8242 29.0565 22.2124 30.1655C21.8154 29.0578 21.5879 27.8962 21.5375 26.7201H21.5403ZM24.0084 33.4051C23.6239 32.9181 23.2795 32.4007 22.9783 31.8579C23.3888 31.2767 23.7361 30.6529 24.0141 29.9972C24.2899 30.6472 24.634 31.2658 25.0404 31.8425C24.738 32.3906 24.3919 32.9131 24.0055 33.4051H24.0084Z" fill="white"/>
<defs>
<linearGradient id="paint0_linear_698_685" x1="6.85963" y1="41.1248" x2="40.8669" y2="7.11757" gradientUnits="userSpaceOnUse">
<stop stop-color="#00AEEF"/>
<stop offset="1" stop-color="#71C0E2"/>
</linearGradient>
</defs>
</svg>
