<svg width="48" height="48" viewBox="0 0 48 48" fill="none" xmlns="http://www.w3.org/2000/svg">
<path d="M23.9612 0C10.7733 0 0 10.7733 0 24.0388C0 37.2267 10.7733 48 23.9612 48C37.1491 48 48 37.2267 48 24.0388C48 10.7733 37.2267 0 23.9612 0Z" fill="url(#paint0_linear_698_664)"/>
<path d="M35.7178 21.9398C36.2142 20.7905 36.0424 19.5652 35.3073 18.5869L32.9208 15.3955C32.4244 14.6642 31.5271 14.4172 30.6202 14.6642L27.8232 15.728C27.3268 15.728 25.8472 14.9111 23.957 15.2341C22.1528 14.9871 20.5873 15.728 20.0909 15.728L17.2939 14.6642C16.4729 14.4172 15.566 14.6642 14.9933 15.3955L12.6927 18.5869C11.9576 19.5652 11.7858 20.876 12.2822 21.9398C13.1891 24.1434 14.5828 25.5396 16.5588 27.0878C17.5421 27.8192 18.8594 27.7432 19.6804 26.8409C19.8427 26.5939 20.005 26.4324 20.2532 26.1095C20.3391 26.024 20.3391 25.8625 20.2532 25.7866L20.1673 25.7011C19.6709 25.2927 19.4322 24.6373 19.4322 24.0674V23.4975L18.9358 22.1108C18.7735 21.7023 18.7735 21.2939 18.7735 20.8855L19.0217 19.1663L18.2008 17.7796C18.1148 17.6181 18.2008 17.4566 18.2867 17.3712C18.449 17.2857 18.6112 17.3712 18.6972 17.4566L19.604 18.9289C19.604 19.0143 19.6899 19.0903 19.604 19.0903L19.2795 20.8855C19.1936 21.2084 19.2795 21.5409 19.3654 21.8638L19.9381 23.2505V23.336V23.9059C19.9381 24.3998 20.1863 24.8082 20.5109 25.1312L20.7591 25.2927C20.9214 25.4541 20.845 25.6156 20.7591 25.7866C20.6732 25.872 20.5968 25.948 20.5968 26.1095V27.0118C20.5968 27.5057 20.845 27.9901 21.1696 28.3226C21.666 28.8165 21.9906 29.4719 21.9906 30.1177C22.2387 34.5344 27.0022 35.6742 28.1573 32.4068C28.1573 32.3213 28.1573 32.1598 27.995 32.1598C27.8327 32.0744 27.5846 31.9984 27.4986 31.8369C27.4127 31.7514 27.2504 31.7514 27.1741 31.8369C26.1908 32.1598 25.9426 31.343 26.019 30.2032C26.1049 29.5478 26.3436 28.8925 26.84 28.4081L27.0022 28.2466C27.3268 27.9237 27.575 27.4297 27.575 26.9358V26.0335C27.575 25.948 27.4891 25.7866 27.4127 25.7106C27.2504 25.6251 27.2504 25.3876 27.4127 25.2167L27.6609 25.0552C27.9855 24.7323 28.2337 24.3238 28.2337 23.8299V23.26V23.1746L28.8064 21.7878C28.8924 21.4649 28.9687 21.1324 28.8924 20.8095L28.5678 19.0143C28.5678 18.9289 28.5678 18.8529 28.5678 18.8529L29.4747 17.3807C29.5606 17.2192 29.7229 17.2192 29.8852 17.2952C30.0474 17.3807 30.0474 17.5421 29.9711 17.7036L29.1501 19.0903L29.3983 20.8095C29.4842 21.2179 29.3983 21.6263 29.236 22.0348L28.7396 23.4215V23.9914C28.7396 24.6468 28.4914 25.2167 28.0046 25.6251C27.9187 25.6251 27.9187 25.7106 27.9187 25.7106C27.8327 25.7961 27.8327 25.9575 27.9187 26.0335C28.0809 26.2805 28.2432 26.5274 28.4914 26.7649C29.3124 27.6672 30.6297 27.8287 31.613 27.0118C33.4172 25.5396 34.8109 24.1529 35.7178 21.9398Z" fill="white"/>
<defs>
<linearGradient id="paint0_linear_698_664" x1="39.8244" y1="8.15997" x2="6.02894" y2="41.9555" gradientUnits="userSpaceOnUse">
<stop stop-color="#478FCC"/>
<stop offset="1" stop-color="#00579B"/>
</linearGradient>
</defs>
</svg>
