<svg width="48" height="48" viewBox="0 0 48 48" fill="none" xmlns="http://www.w3.org/2000/svg">
<path d="M23.9612 0C10.7733 0 0 10.7733 0 24.0388C0 37.2267 10.7733 48 23.9612 48C37.1491 48 48 37.2267 48 24.0388C48 10.7733 37.2267 0 23.9612 0Z" fill="url(#paint0_linear_698_653)"/>
<path d="M31.1831 12.8572H17.6741C15.0547 12.8572 12.8572 15.0547 12.8572 17.6741V31.1831C12.8572 33.8025 15.0547 36 17.6741 36H31.1831C33.8025 36 36 33.8025 36 31.1831V17.6741C36 15.0547 33.8025 12.8572 31.1831 12.8572ZM18.5178 16.8304C20.2052 16.8304 21.559 18.1843 21.559 19.8717C21.559 21.559 20.2935 23.0012 18.5178 23.0012C16.8304 23.0012 15.4766 21.6473 15.4766 19.9599C15.4766 18.2725 16.8304 16.8304 18.5178 16.8304ZM18.6846 33.8908L14.7114 29.9176L18.6846 25.9443L22.6578 29.9176L18.6846 33.8908ZM30.3394 32.1151H26.788L30.2511 26.4545L33.8025 32.1151H30.3394ZM31.86 20.8036L32.792 23.7566L30.2609 21.9024L27.7298 23.7566L28.6618 20.8036L26.1307 18.9495H29.2406L30.1726 15.9965L31.1046 18.9495H34.2342L31.86 20.8036Z" fill="white"/>
<defs>
<linearGradient id="paint0_linear_698_653" x1="38.9305" y1="9.05401" x2="8.07112" y2="39.9132" gradientUnits="userSpaceOnUse">
<stop stop-color="#1814CA"/>
<stop offset="1" stop-color="#BB1EBE"/>
</linearGradient>
</defs>
</svg>
