<svg width="48" height="48" viewBox="0 0 48 48" fill="none" xmlns="http://www.w3.org/2000/svg">
<path d="M24 48C37.2558 48 48 37.2558 48 24C48 10.7442 37.2558 0 24 0C10.7442 0 0 10.7442 0 24C0 37.2558 10.7442 48 24 48Z" fill="url(#paint0_linear_698_703)"/>
<path d="M36.7143 22.3095H36.636C36.0837 22.3095 35.636 22.7572 35.636 23.3095V23.4028C35.636 23.9551 36.0837 24.4028 36.636 24.4028H36.7143C37.2666 24.4028 37.7143 23.9551 37.7143 23.4028V23.3095C37.7143 22.7572 37.2666 22.3095 36.7143 22.3095Z" fill="white"/>
<path d="M31.6072 27.387H31.5283C30.976 27.387 30.5283 27.8347 30.5283 28.387V28.4821C30.5283 29.0344 30.976 29.4821 31.5283 29.4821H31.6072C32.1595 29.4821 32.6072 29.0344 32.6072 28.4821V28.387C32.6072 27.8347 32.1595 27.387 31.6072 27.387Z" fill="white"/>
<path d="M31.9299 21.9876H31.2097C30.657 21.9876 30.2091 22.436 30.2097 22.9887L30.2105 23.7257C30.2111 24.2776 30.6587 24.7246 31.2105 24.7246H31.9299C32.4821 24.7246 32.9299 24.2769 32.9299 23.7246V22.9876C32.9299 22.4353 32.4821 21.9876 31.9299 21.9876Z" fill="white"/>
<path d="M16.4718 27.4526H16.3929C15.8406 27.4526 15.3929 27.9003 15.3929 28.4526V28.5429C15.3929 29.0951 15.8406 29.5429 16.3929 29.5429H16.4718C17.0241 29.5429 17.4718 29.0951 17.4718 28.5428V28.4526C17.4718 27.9003 17.0241 27.4526 16.4718 27.4526Z" fill="white"/>
<path d="M11.3641 22.3095H11.2858C10.7335 22.3095 10.2858 22.7572 10.2858 23.3095V23.4028C10.2858 23.9551 10.7335 24.4028 11.2858 24.4028H11.3641C11.9164 24.4028 12.3641 23.9551 12.3641 23.4028V23.3095C12.3641 22.7572 11.9164 22.3095 11.3641 22.3095Z" fill="white"/>
<path d="M34.197 12.8572H13.8031C12.3829 12.8572 11.2316 14.0085 11.2316 15.4287C11.2316 16.849 12.3829 18.0003 13.8031 18.0003H21.4477V36.0179C21.4477 37.4282 22.591 38.5715 24.0013 38.5715C25.4116 38.5715 26.5548 37.4282 26.5548 36.0179V18.0003H34.197C35.6172 18.0003 36.7685 16.849 36.7685 15.4287C36.7685 14.0085 35.6172 12.8572 34.197 12.8572Z" fill="white"/>
<path d="M10.685 28.4986C10.685 28.8525 10.9719 29.1427 11.3258 29.1427C11.6797 29.1427 11.9666 28.8525 11.9666 28.4986C11.9666 28.1447 11.6797 27.8546 11.3258 27.8546C10.9719 27.8546 10.685 28.1447 10.685 28.4986Z" fill="white"/>
<path d="M10.685 33.6417C10.685 33.9956 10.9719 34.2858 11.3258 34.2858C11.6797 34.2858 11.9666 33.9956 11.9666 33.6417C11.9666 33.2878 11.6797 32.9977 11.3258 32.9977C10.9719 32.9977 10.685 33.2878 10.685 33.6417Z" fill="white"/>
<path d="M16.4324 24.0002C16.7856 24.0002 17.072 23.7094 17.072 23.3561C17.072 23.0029 16.7856 22.7121 16.4324 22.7121C16.0791 22.7121 15.7928 23.0029 15.7928 23.3561C15.7928 23.7094 16.0791 24.0002 16.4324 24.0002Z" fill="white"/>
<path d="M15.7928 33.6417C15.7928 33.995 16.0791 34.2858 16.4324 34.2858C16.7856 34.2858 17.072 33.995 17.072 33.6417C17.072 33.2885 16.7856 32.9977 16.4324 32.9977C16.0791 32.9977 15.7928 33.2885 15.7928 33.6417Z" fill="white"/>
<path d="M30.9275 33.6411C30.9272 33.9944 31.2135 34.2858 31.5668 34.2858C31.9199 34.2858 32.2061 33.9948 32.2061 33.6417C32.2061 33.2887 31.9199 32.9977 31.5668 32.9977C31.214 32.9977 30.9279 33.2883 30.9275 33.6411Z" fill="white"/>
<path d="M36.0383 28.4986C36.0383 28.8519 36.3247 29.1427 36.6779 29.1427C37.0311 29.1427 37.3175 28.8519 37.3175 28.4986C37.3175 28.1454 37.0311 27.8546 36.6779 27.8546C36.3247 27.8546 36.0383 28.1454 36.0383 28.4986Z" fill="white"/>
<defs>
<linearGradient id="paint0_linear_698_703" x1="24" y1="0" x2="24" y2="48" gradientUnits="userSpaceOnUse">
<stop stop-color="#6C3FFF"/>
<stop offset="1" stop-color="#330DB3"/>
</linearGradient>
</defs>
</svg>
