<svg width="48" height="48" viewBox="0 0 48 48" fill="none" xmlns="http://www.w3.org/2000/svg">
<path d="M24 48C37.2558 48 48 37.2558 48 24C48 10.7442 37.2558 0 24 0C10.7442 0 0 10.7442 0 24C0 37.2558 10.7442 48 24 48Z" fill="url(#paint0_linear_698_707)"/>
<path d="M24 48C37.2548 48 48 37.2548 48 24C48 10.7452 37.2548 0 24 0C10.7452 0 0 10.7452 0 24C0 37.2548 10.7452 48 24 48Z" fill="url(#paint1_linear_698_707)"/>
<path fill-rule="evenodd" clip-rule="evenodd" d="M13.4507 38.0299L6 33.3683V13.4455L24.2208 3L42 13.4628V34.4191L23.9384 44.5916L17.6679 40.6684V32.2684V31.1216L14.2679 28.9943V18.1904L24.1125 12.5468L33.7321 18.2077V29.5288L26.116 33.8182V29.2587C28.399 28.3796 30.0378 26.1198 30.0378 23.4528C30.0378 20.0151 27.3153 17.2541 24.0001 17.2541C20.6847 17.2541 17.9624 20.0151 17.9624 23.4528C17.9624 26.1198 19.601 28.3796 21.884 29.2587V37.8978L24.0616 39.2602L37.4151 31.7392V16.0844L24.1907 8.30199L10.5849 16.1018V30.8286L13.4507 32.6217V38.0299ZM24.0001 20.6046C25.5003 20.6046 26.6872 21.8972 26.6872 23.4528C26.6872 25.0083 25.5003 26.3009 24.0001 26.3009C22.4999 26.3009 21.3128 25.0083 21.3128 23.4528C21.3128 21.8972 22.4999 20.6046 24.0001 20.6046Z" fill="white"/>
<defs>
<linearGradient id="paint0_linear_698_707" x1="24" y1="0" x2="24" y2="48" gradientUnits="userSpaceOnUse">
<stop stop-color="#6C3FFF"/>
<stop offset="1" stop-color="#330DB3"/>
</linearGradient>
<linearGradient id="paint1_linear_698_707" x1="10.8112" y1="35.147" x2="41.4286" y2="9.26953" gradientUnits="userSpaceOnUse">
<stop stop-color="#4A58CA"/>
<stop offset="1" stop-color="#123678"/>
</linearGradient>
</defs>
</svg>
