<svg width="170" height="170" viewBox="0 0 170 170" fill="none" xmlns="http://www.w3.org/2000/svg">
<circle cx="85" cy="85" r="80.5" fill="white" stroke="#8A8AFF" stroke-width="9"/>
<path fill-rule="evenodd" clip-rule="evenodd" d="M61.0155 118.077L44 107.339V61.841L85.6336 38L126 61.841V109.705L84.9095 133L70.6093 124.082V102.243L62.8256 97.3295V72.5785L85.2715 59.6571L107.174 72.5785V98.4215L89.7969 108.249V97.8755C95.0464 95.8736 98.6667 90.7778 98.6667 84.59C98.6667 78.4023 92.5121 70.3946 84.9095 70.3946C77.3068 70.3946 71.1523 76.7644 71.1523 84.59C71.1523 92.4157 74.9536 95.8736 80.0221 97.8755V117.713L84.9095 120.807L115.32 103.517V67.6648L85.2715 49.8295L54.3179 67.6648V101.333L60.8344 105.519V117.895L61.0155 118.077ZM85.0905 78.2203C88.5298 78.2203 91.245 81.1322 91.245 84.772C91.245 88.4119 88.5298 91.3238 85.0905 91.3238C81.6512 91.3238 78.936 88.4119 78.936 84.772C78.936 81.1322 81.6512 78.2203 85.0905 78.2203Z" fill="#05080E"/>
</svg>
