<svg width="22" height="22" viewBox="0 0 22 22" fill="none" xmlns="http://www.w3.org/2000/svg">
<path d="M18.3333 17.4167V14.6667H6.41663C4.89784 14.6667 3.66663 15.8979 3.66663 17.4167M8.06663 20.1667H15.4C16.4267 20.1667 16.9401 20.1667 17.3323 19.9668C17.6772 19.7911 17.9577 19.5106 18.1335 19.1656C18.3333 18.7735 18.3333 18.2601 18.3333 17.2333V4.76666C18.3333 3.7399 18.3333 3.22652 18.1335 2.83435C17.9577 2.48938 17.6772 2.20892 17.3323 2.03315C16.9401 1.83333 16.4267 1.83333 15.4 1.83333H8.06663C6.52648 1.83333 5.75641 1.83333 5.16815 2.13306C4.65071 2.39671 4.23001 2.81741 3.96636 3.33485C3.66663 3.92311 3.66663 4.69318 3.66663 6.23333V15.7667C3.66663 17.3068 3.66663 18.0769 3.96636 18.6651C4.23001 19.1826 4.65071 19.6033 5.16815 19.8669C5.75641 20.1667 6.52648 20.1667 8.06663 20.1667Z" stroke="#4A4B57" stroke-width="1.5" stroke-linecap="round" stroke-linejoin="round"/>
</svg>
