<svg width="22" height="22" viewBox="0 0 22 22" fill="none" xmlns="http://www.w3.org/2000/svg">
<path d="M14.6667 3.66668C15.5191 3.66668 15.9454 3.66668 16.2951 3.76038C17.2441 4.01467 17.9853 4.75592 18.2396 5.70492C18.3333 6.05463 18.3333 6.48087 18.3333 7.33334V15.7667C18.3333 17.3068 18.3333 18.0769 18.0336 18.6652C17.77 19.1826 17.3493 19.6033 16.8318 19.8669C16.2436 20.1667 15.4735 20.1667 13.9333 20.1667H8.06667C6.52652 20.1667 5.75645 20.1667 5.16819 19.8669C4.65075 19.6033 4.23005 19.1826 3.9664 18.6652C3.66667 18.0769 3.66667 17.3068 3.66667 15.7667V7.33334C3.66667 6.48087 3.66667 6.05463 3.76037 5.70492C4.01466 4.75592 4.75591 4.01467 5.70491 3.76038C6.05462 3.66668 6.48086 3.66668 7.33333 3.66668M8.25 13.75L10.0833 15.5833L14.2083 11.4583M8.8 5.50001H13.2C13.7134 5.50001 13.9701 5.50001 14.1662 5.4001C14.3386 5.31222 14.4789 5.17198 14.5668 4.9995C14.6667 4.80342 14.6667 4.54673 14.6667 4.03334V3.30001C14.6667 2.78663 14.6667 2.52994 14.5668 2.33385C14.4789 2.16137 14.3386 2.02114 14.1662 1.93325C13.9701 1.83334 13.7134 1.83334 13.2 1.83334H8.8C8.28662 1.83334 8.02993 1.83334 7.83384 1.93325C7.66136 2.02114 7.52113 2.16137 7.43324 2.33385C7.33333 2.52994 7.33333 2.78663 7.33333 3.30001V4.03334C7.33333 4.54673 7.33333 4.80342 7.43324 4.9995C7.52113 5.17198 7.66136 5.31222 7.83384 5.4001C8.02993 5.50001 8.28662 5.50001 8.8 5.50001Z" stroke="#4A4B57" stroke-width="1.5" stroke-linecap="round" stroke-linejoin="round"/>
</svg>
