<svg width="22" height="22" viewBox="0 0 22 22" fill="none" xmlns="http://www.w3.org/2000/svg">
<path d="M15.5833 9.16667V7.33333C15.5833 4.80203 13.5313 2.75 11 2.75C8.46869 2.75 6.41666 4.80203 6.41666 7.33333V9.16667M11 13.2917V15.125M8.06666 19.25H13.9333C15.4735 19.25 16.2435 19.25 16.8318 18.9503C17.3493 18.6866 17.7699 18.2659 18.0336 17.7485C18.3333 17.1602 18.3333 16.3901 18.3333 14.85V13.5667C18.3333 12.0265 18.3333 11.2564 18.0336 10.6682C17.7699 10.1507 17.3493 9.73005 16.8318 9.4664C16.2435 9.16667 15.4735 9.16667 13.9333 9.16667H8.06666C6.52652 9.16667 5.75645 9.16667 5.16819 9.4664C4.65074 9.73005 4.23005 10.1507 3.9664 10.6682C3.66666 11.2564 3.66666 12.0265 3.66666 13.5667V14.85C3.66666 16.3901 3.66666 17.1602 3.9664 17.7485C4.23005 18.2659 4.65074 18.6866 5.16819 18.9503C5.75645 19.25 6.52652 19.25 8.06666 19.25Z" stroke="#4A4B57" stroke-width="1.5" stroke-linecap="round" stroke-linejoin="round"/>
</svg>
