<svg width="22" height="22" viewBox="0 0 22 22" fill="none" xmlns="http://www.w3.org/2000/svg">
<path d="M11.9166 10.0833H16.3166C17.3434 10.0833 17.8568 10.0833 18.249 10.2832C18.5939 10.4589 18.8744 10.7394 19.0502 11.0844C19.25 11.4765 19.25 11.9899 19.25 13.0167V19.25M11.9166 19.25V5.68333C11.9166 4.65657 11.9166 4.14319 11.7168 3.75102C11.5411 3.40605 11.2606 3.12559 10.9156 2.94982C10.5235 2.75 10.0101 2.75 8.98331 2.75H5.68331C4.65655 2.75 4.14317 2.75 3.751 2.94982C3.40603 3.12559 3.12557 3.40605 2.9498 3.75102C2.74998 4.14319 2.74998 4.65657 2.74998 5.68333V19.25M20.1666 19.25H1.83331M5.95831 6.41667H8.70831M5.95831 10.0833H8.70831M5.95831 13.75H8.70831" stroke="#4A4B57" stroke-width="1.5" stroke-linecap="round" stroke-linejoin="round"/>
</svg>
