<svg xmlns="http://www.w3.org/2000/svg" width="32" height="32" fill="none" viewBox="0 0 32 32">
  <path stroke="currentColor" stroke-linecap="round" stroke-linejoin="round" stroke-width="1.5" d="M17.333 14.666 4.666 27.334M18.691 4.718a30.15 30.15 0 0 1 4.643 3.807 30.142 30.142 0 0 1 3.835 4.685m-14.83-2.682L8.506 9.25a1.333 1.333 0 0 0-1.283.247l-3.81 3.224a1.334 1.334 0 0 0 .401 2.269l3.61 1.33m8.15 8.15 1.33 3.61a1.333 1.333 0 0 0 2.27.4l3.223-3.81c.3-.355.394-.841.247-1.283l-1.278-3.833m4.432-16.526-6.542 1.09a3.258 3.258 0 0 0-1.844.988L8.595 14.53a6.203 6.203 0 0 0 8.768 8.768l9.425-8.817c.523-.49.87-1.137.988-1.844l1.09-6.542a2.667 2.667 0 0 0-3.068-3.068Z"/>
</svg>
